<?xml version="1.0" encoding="UTF-8" standalone="no"?>
<!-- This is a Stata 16.1 generated SVG file (http://www.stata.com) -->

<svg version="1.1" width="5.50in" height="4.00in" viewBox="0 0 3960 2880" xmlns="http://www.w3.org/2000/svg" xmlns:xlink="http://www.w3.org/1999/xlink">
	<desc>Stata Graph - length_of_stay_pneumonia_hosp</desc>
	<rect x="0" y="0" width="3960" height="2880" style="fill:#EAF2F3;stroke:none"/>
	<rect x="0.00" y="0.00" width="3959.88" height="2880.00" style="fill:#FFFFFF"/>
	<rect x="2.88" y="2.88" width="3954.12" height="2874.24" style="fill:none;stroke:#FFFFFF;stroke-width:5.76"/>
	<rect x="445.38" y="100.86" width="3413.64" height="2388.33" style="fill:#FFFFFF"/>
	<rect x="448.26" y="103.74" width="3407.88" height="2382.57" style="fill:none;stroke:#FFFFFF;stroke-width:5.76"/>
	<line x1="445.38" y1="2489.19" x2="3859.02" y2="2489.19" style="stroke:#EAF2F3;stroke-width:8.64"/>
	<line x1="445.38" y1="1764.48" x2="3859.02" y2="1764.48" style="stroke:#EAF2F3;stroke-width:8.64"/>
	<line x1="445.38" y1="1039.66" x2="3859.02" y2="1039.66" style="stroke:#EAF2F3;stroke-width:8.64"/>
	<line x1="445.38" y1="314.95" x2="3859.02" y2="314.95" style="stroke:#EAF2F3;stroke-width:8.64"/>
	<rect x="538.44" y="164.22" width="59.52" height="2324.96" style="fill:#1A476F;fill-opacity:0.50"/>
	<rect x="542.76" y="168.54" width="50.88" height="2316.32" style="fill:none;stroke:#1A476F;stroke-opacity:0.20;stroke-width:8.64"/>
	<rect x="597.96" y="1644.69" width="59.52" height="844.50" style="fill:#1A476F;fill-opacity:0.50"/>
	<rect x="602.28" y="1649.01" width="50.88" height="835.86" style="fill:none;stroke:#1A476F;stroke-opacity:0.20;stroke-width:8.64"/>
	<rect x="657.48" y="2124.11" width="59.40" height="365.07" style="fill:#1A476F;fill-opacity:0.50"/>
	<rect x="661.80" y="2128.43" width="50.76" height="356.43" style="fill:none;stroke:#1A476F;stroke-opacity:0.20;stroke-width:8.64"/>
	<rect x="716.88" y="2305.16" width="59.52" height="184.02" style="fill:#1A476F;fill-opacity:0.50"/>
	<rect x="721.20" y="2309.48" width="50.88" height="175.38" style="fill:none;stroke:#1A476F;stroke-opacity:0.20;stroke-width:8.64"/>
	<rect x="776.41" y="2389.44" width="59.52" height="99.75" style="fill:#1A476F;fill-opacity:0.50"/>
	<rect x="780.73" y="2393.76" width="50.88" height="91.11" style="fill:none;stroke:#1A476F;stroke-opacity:0.20;stroke-width:8.64"/>
	<rect x="835.93" y="2431.02" width="59.40" height="58.16" style="fill:#1A476F;fill-opacity:0.50"/>
	<rect x="840.25" y="2435.34" width="50.76" height="49.52" style="fill:none;stroke:#1A476F;stroke-opacity:0.20;stroke-width:8.64"/>
	<rect x="895.33" y="2454.16" width="59.52" height="35.02" style="fill:#1A476F;fill-opacity:0.50"/>
	<rect x="899.65" y="2458.48" width="50.88" height="26.38" style="fill:none;stroke:#1A476F;stroke-opacity:0.20;stroke-width:8.64"/>
	<rect x="954.86" y="2468.27" width="59.52" height="20.91" style="fill:#1A476F;fill-opacity:0.50"/>
	<rect x="959.17" y="2472.59" width="50.88" height="12.27" style="fill:none;stroke:#1A476F;stroke-opacity:0.20;stroke-width:8.64"/>
	<rect x="1014.38" y="2474.09" width="59.52" height="15.10" style="fill:#1A476F;fill-opacity:0.50"/>
	<rect x="1018.70" y="2478.41" width="50.88" height="6.46" style="fill:none;stroke:#1A476F;stroke-opacity:0.20;stroke-width:8.64"/>
	<rect x="1073.90" y="2481.27" width="59.40" height="7.92" style="fill:#1A476F;fill-opacity:0.50"/>
	<rect x="1078.22" y="2484.87" width="50.76" height="0.72" style="fill:none;stroke:#1A476F;stroke-opacity:0.20;stroke-width:8.64"/>
	<rect x="1133.30" y="2483.49" width="59.52" height="5.69" style="fill:#1A476F;fill-opacity:0.50"/>
	<rect x="1137.62" y="2484.87" width="50.88" height="2.95" style="fill:none;stroke:#1A476F;stroke-opacity:0.20;stroke-width:8.64"/>
	<rect x="1192.83" y="2485.35" width="59.52" height="3.84" style="fill:#1A476F;fill-opacity:0.50"/>
	<rect x="1197.15" y="2484.87" width="50.88" height="4.80" style="fill:none;stroke:#1A476F;stroke-opacity:0.20;stroke-width:8.64"/>
	<rect x="1252.35" y="2485.97" width="59.40" height="3.22" style="fill:#1A476F;fill-opacity:0.50"/>
	<rect x="1256.67" y="2484.87" width="50.76" height="5.42" style="fill:none;stroke:#1A476F;stroke-opacity:0.20;stroke-width:8.64"/>
	<rect x="1311.75" y="2487.21" width="59.52" height="1.98" style="fill:#1A476F;fill-opacity:0.50"/>
	<rect x="1316.07" y="2484.87" width="50.88" height="6.66" style="fill:none;stroke:#1A476F;stroke-opacity:0.20;stroke-width:8.64"/>
	<rect x="1371.27" y="2487.95" width="59.52" height="1.24" style="fill:#1A476F;fill-opacity:0.50"/>
	<rect x="1375.59" y="2484.87" width="50.88" height="7.40" style="fill:none;stroke:#1A476F;stroke-opacity:0.20;stroke-width:8.64"/>
	<rect x="1430.80" y="2488.20" width="59.40" height="0.99" style="fill:#1A476F;fill-opacity:0.50"/>
	<rect x="1435.12" y="2484.87" width="50.76" height="7.65" style="fill:none;stroke:#1A476F;stroke-opacity:0.20;stroke-width:8.64"/>
	<rect x="1490.20" y="2488.44" width="59.52" height="0.74" style="fill:#1A476F;fill-opacity:0.50"/>
	<rect x="1494.52" y="2484.87" width="50.88" height="7.90" style="fill:none;stroke:#1A476F;stroke-opacity:0.20;stroke-width:8.64"/>
	<rect x="1549.72" y="2488.57" width="59.52" height="0.62" style="fill:#1A476F;fill-opacity:0.50"/>
	<rect x="1554.04" y="2484.87" width="50.88" height="8.02" style="fill:none;stroke:#1A476F;stroke-opacity:0.20;stroke-width:8.64"/>
	<rect x="1609.24" y="2488.94" width="59.52" height="0.25" style="fill:#1A476F;fill-opacity:0.50"/>
	<rect x="1613.56" y="2484.87" width="50.88" height="8.39" style="fill:none;stroke:#1A476F;stroke-opacity:0.20;stroke-width:8.64"/>
	<rect x="1668.77" y="2488.81" width="59.40" height="0.37" style="fill:#1A476F;fill-opacity:0.50"/>
	<rect x="1673.09" y="2484.87" width="50.76" height="8.27" style="fill:none;stroke:#1A476F;stroke-opacity:0.20;stroke-width:8.64"/>
	<rect x="1728.17" y="2488.94" width="59.52" height="0.25" style="fill:#1A476F;fill-opacity:0.50"/>
	<rect x="1732.49" y="2484.87" width="50.88" height="8.39" style="fill:none;stroke:#1A476F;stroke-opacity:0.20;stroke-width:8.64"/>
	<rect x="1787.69" y="2488.94" width="59.52" height="0.25" style="fill:#1A476F;fill-opacity:0.50"/>
	<rect x="1792.01" y="2484.87" width="50.88" height="8.39" style="fill:none;stroke:#1A476F;stroke-opacity:0.20;stroke-width:8.64"/>
	<rect x="1847.22" y="2488.94" width="59.40" height="0.25" style="fill:#1A476F;fill-opacity:0.50"/>
	<rect x="1851.54" y="2484.87" width="50.76" height="8.39" style="fill:none;stroke:#1A476F;stroke-opacity:0.20;stroke-width:8.64"/>
	<rect x="1906.62" y="2489.06" width="59.52" height="0.12" style="fill:#1A476F;fill-opacity:0.50"/>
	<rect x="1910.94" y="2484.87" width="50.88" height="8.52" style="fill:none;stroke:#1A476F;stroke-opacity:0.20;stroke-width:8.64"/>
	<rect x="1966.14" y="2489.06" width="59.52" height="0.12" style="fill:#1A476F;fill-opacity:0.50"/>
	<rect x="1970.46" y="2484.87" width="50.88" height="8.52" style="fill:none;stroke:#1A476F;stroke-opacity:0.20;stroke-width:8.64"/>
	<rect x="2025.66" y="2489.19" width="59.52" height="0.00" style="fill:#1A476F;fill-opacity:0.50"/>
	<rect x="2029.98" y="2484.87" width="50.88" height="8.64" style="fill:none;stroke:#1A476F;stroke-opacity:0.20;stroke-width:8.64"/>
	<rect x="2085.19" y="2489.06" width="59.40" height="0.12" style="fill:#1A476F;fill-opacity:0.50"/>
	<rect x="2089.51" y="2484.87" width="50.76" height="8.52" style="fill:none;stroke:#1A476F;stroke-opacity:0.20;stroke-width:8.64"/>
	<rect x="2144.59" y="2489.19" width="59.52" height="0.00" style="fill:#1A476F;fill-opacity:0.50"/>
	<rect x="2148.91" y="2484.87" width="50.88" height="8.64" style="fill:none;stroke:#1A476F;stroke-opacity:0.20;stroke-width:8.64"/>
	<rect x="2204.11" y="2489.06" width="59.52" height="0.12" style="fill:#1A476F;fill-opacity:0.50"/>
	<rect x="2208.43" y="2484.87" width="50.88" height="8.52" style="fill:none;stroke:#1A476F;stroke-opacity:0.20;stroke-width:8.64"/>
	<rect x="2263.64" y="2489.19" width="59.40" height="0.00" style="fill:#1A476F;fill-opacity:0.50"/>
	<rect x="2267.95" y="2484.87" width="50.76" height="8.64" style="fill:none;stroke:#1A476F;stroke-opacity:0.20;stroke-width:8.64"/>
	<rect x="2323.03" y="2489.19" width="59.52" height="0.00" style="fill:#1A476F;fill-opacity:0.50"/>
	<rect x="2327.35" y="2484.87" width="50.88" height="8.64" style="fill:none;stroke:#1A476F;stroke-opacity:0.20;stroke-width:8.64"/>
	<rect x="2382.56" y="2489.06" width="59.52" height="0.12" style="fill:#1A476F;fill-opacity:0.50"/>
	<rect x="2386.88" y="2484.87" width="50.88" height="8.52" style="fill:none;stroke:#1A476F;stroke-opacity:0.20;stroke-width:8.64"/>
	<rect x="2442.08" y="2489.19" width="59.40" height="0.00" style="fill:#1A476F;fill-opacity:0.50"/>
	<rect x="2446.40" y="2484.87" width="50.76" height="8.64" style="fill:none;stroke:#1A476F;stroke-opacity:0.20;stroke-width:8.64"/>
	<rect x="2501.48" y="2489.19" width="59.52" height="0.00" style="fill:#1A476F;fill-opacity:0.50"/>
	<rect x="2505.80" y="2484.87" width="50.88" height="8.64" style="fill:none;stroke:#1A476F;stroke-opacity:0.20;stroke-width:8.64"/>
	<rect x="2561.01" y="2489.19" width="59.52" height="0.00" style="fill:#1A476F;fill-opacity:0.50"/>
	<rect x="2565.33" y="2484.87" width="50.88" height="8.64" style="fill:none;stroke:#1A476F;stroke-opacity:0.20;stroke-width:8.64"/>
	<rect x="2620.53" y="2489.19" width="59.52" height="0.00" style="fill:#1A476F;fill-opacity:0.50"/>
	<rect x="2624.85" y="2484.87" width="50.88" height="8.64" style="fill:none;stroke:#1A476F;stroke-opacity:0.20;stroke-width:8.64"/>
	<rect x="2680.05" y="2489.19" width="59.40" height="0.00" style="fill:#1A476F;fill-opacity:0.50"/>
	<rect x="2684.37" y="2484.87" width="50.76" height="8.64" style="fill:none;stroke:#1A476F;stroke-opacity:0.20;stroke-width:8.64"/>
	<rect x="2739.45" y="2489.19" width="59.52" height="0.00" style="fill:#1A476F;fill-opacity:0.50"/>
	<rect x="2743.77" y="2484.87" width="50.88" height="8.64" style="fill:none;stroke:#1A476F;stroke-opacity:0.20;stroke-width:8.64"/>
	<rect x="2858.50" y="2489.19" width="59.40" height="0.00" style="fill:#1A476F;fill-opacity:0.50"/>
	<rect x="2862.82" y="2484.87" width="50.76" height="8.64" style="fill:none;stroke:#1A476F;stroke-opacity:0.20;stroke-width:8.64"/>
	<rect x="3036.95" y="2489.19" width="59.40" height="0.00" style="fill:#1A476F;fill-opacity:0.50"/>
	<rect x="3041.27" y="2484.87" width="50.76" height="8.64" style="fill:none;stroke:#1A476F;stroke-opacity:0.20;stroke-width:8.64"/>
	<rect x="3453.37" y="2489.19" width="59.40" height="0.00" style="fill:#1A476F;fill-opacity:0.50"/>
	<rect x="3457.69" y="2484.87" width="50.76" height="8.64" style="fill:none;stroke:#1A476F;stroke-opacity:0.20;stroke-width:8.64"/>
	<rect x="3631.82" y="2489.19" width="59.52" height="0.00" style="fill:#1A476F;fill-opacity:0.50"/>
	<rect x="3636.13" y="2484.87" width="50.88" height="8.64" style="fill:none;stroke:#1A476F;stroke-opacity:0.20;stroke-width:8.64"/>
	<line x1="445.38" y1="2489.19" x2="445.38" y2="100.86" style="stroke:#000000;stroke-width:5.76"/>
	<line x1="445.38" y1="2489.19" x2="405.40" y2="2489.19" style="stroke:#000000;stroke-width:5.76"/>
	<text x="385.36" y="2524.21" style="font-family:'Helvetica';font-size:99.99px;fill:#000000" text-anchor="end">0</text>
	<line x1="445.38" y1="1764.48" x2="405.40" y2="1764.48" style="stroke:#000000;stroke-width:5.76"/>
	<text x="385.36" y="1799.51" style="font-family:'Helvetica';font-size:99.99px;fill:#000000" text-anchor="end">.02</text>
	<line x1="445.38" y1="1039.66" x2="405.40" y2="1039.66" style="stroke:#000000;stroke-width:5.76"/>
	<text x="385.36" y="1074.68" style="font-family:'Helvetica';font-size:99.99px;fill:#000000" text-anchor="end">.04</text>
	<line x1="445.38" y1="314.95" x2="405.40" y2="314.95" style="stroke:#000000;stroke-width:5.76"/>
	<text x="385.36" y="349.98" style="font-family:'Helvetica';font-size:99.99px;fill:#000000" text-anchor="end">.06</text>
	<text x="190.71" y="1294.96" style="font-family:'Helvetica';font-size:99.99px;fill:#000000" transform="rotate(-90 190.71,1294.96)" text-anchor="middle">Density</text>
	<line x1="445.38" y1="2489.19" x2="3859.02" y2="2489.19" style="stroke:#000000;stroke-width:5.76"/>
	<line x1="531.88" y1="2489.19" x2="531.88" y2="2529.16" style="stroke:#000000;stroke-width:5.76"/>
	<text x="531.88" y="2619.14" style="font-family:'Helvetica';font-size:99.99px;fill:#000000" text-anchor="middle">0</text>
	<line x1="1184.66" y1="2489.19" x2="1184.66" y2="2529.16" style="stroke:#000000;stroke-width:5.76"/>
	<text x="1184.66" y="2619.14" style="font-family:'Helvetica';font-size:99.99px;fill:#000000" text-anchor="middle">100</text>
	<line x1="1837.44" y1="2489.19" x2="1837.44" y2="2529.16" style="stroke:#000000;stroke-width:5.76"/>
	<text x="1837.44" y="2619.14" style="font-family:'Helvetica';font-size:99.99px;fill:#000000" text-anchor="middle">200</text>
	<line x1="2490.22" y1="2489.19" x2="2490.22" y2="2529.16" style="stroke:#000000;stroke-width:5.76"/>
	<text x="2490.22" y="2619.14" style="font-family:'Helvetica';font-size:99.99px;fill:#000000" text-anchor="middle">300</text>
	<line x1="3143.00" y1="2489.19" x2="3143.00" y2="2529.16" style="stroke:#000000;stroke-width:5.76"/>
	<text x="3143.00" y="2619.14" style="font-family:'Helvetica';font-size:99.99px;fill:#000000" text-anchor="middle">400</text>
	<line x1="3795.78" y1="2489.19" x2="3795.78" y2="2529.16" style="stroke:#000000;stroke-width:5.76"/>
	<text x="3795.78" y="2619.14" style="font-family:'Helvetica';font-size:99.99px;fill:#000000" text-anchor="middle">500</text>
	<text x="2152.26" y="2729.16" style="font-family:'Helvetica';font-size:99.99px;fill:#000000" text-anchor="middle">Length of stay in hospital (days)</text>
</svg>
