<?xml version="1.0" encoding="UTF-8" standalone="no"?>
<!-- This is a Stata 16.1 generated SVG file (http://www.stata.com) -->

<svg version="1.1" width="5.50in" height="4.00in" viewBox="0 0 3960 2880" xmlns="http://www.w3.org/2000/svg" xmlns:xlink="http://www.w3.org/1999/xlink">
	<desc>Stata Graph - length_of_stay_covid</desc>
	<rect x="0" y="0" width="3960" height="2880" style="fill:#EAF2F3;stroke:none"/>
	<rect x="0.00" y="0.00" width="3959.88" height="2880.00" style="fill:#FFFFFF"/>
	<rect x="2.88" y="2.88" width="3954.12" height="2874.24" style="fill:none;stroke:#FFFFFF;stroke-width:5.76"/>
	<rect x="465.05" y="100.86" width="3393.97" height="2388.33" style="fill:#FFFFFF"/>
	<rect x="467.93" y="103.74" width="3388.21" height="2382.57" style="fill:none;stroke:#FFFFFF;stroke-width:5.76"/>
	<line x1="465.05" y1="2489.19" x2="3859.02" y2="2489.19" style="stroke:#EAF2F3;stroke-width:8.64"/>
	<line x1="465.05" y1="1907.91" x2="3859.02" y2="1907.91" style="stroke:#EAF2F3;stroke-width:8.64"/>
	<line x1="465.05" y1="1326.64" x2="3859.02" y2="1326.64" style="stroke:#EAF2F3;stroke-width:8.64"/>
	<line x1="465.05" y1="745.37" x2="3859.02" y2="745.37" style="stroke:#EAF2F3;stroke-width:8.64"/>
	<line x1="465.05" y1="164.22" x2="3859.02" y2="164.22" style="stroke:#EAF2F3;stroke-width:8.64"/>
	<rect x="564.30" y="256.42" width="71.90" height="2232.77" style="fill:#1A476F;fill-opacity:0.50"/>
	<rect x="568.62" y="260.74" width="63.26" height="2224.13" style="fill:none;stroke:#1A476F;stroke-opacity:0.20;stroke-width:8.64"/>
	<rect x="636.20" y="974.07" width="71.77" height="1515.12" style="fill:#1A476F;fill-opacity:0.50"/>
	<rect x="640.52" y="978.39" width="63.14" height="1506.48" style="fill:none;stroke:#1A476F;stroke-opacity:0.20;stroke-width:8.64"/>
	<rect x="707.97" y="1658.92" width="71.77" height="830.26" style="fill:#1A476F;fill-opacity:0.50"/>
	<rect x="712.29" y="1663.24" width="63.14" height="821.62" style="fill:none;stroke:#1A476F;stroke-opacity:0.20;stroke-width:8.64"/>
	<rect x="779.75" y="1992.81" width="71.77" height="496.38" style="fill:#1A476F;fill-opacity:0.50"/>
	<rect x="784.07" y="1997.13" width="63.14" height="487.74" style="fill:none;stroke:#1A476F;stroke-opacity:0.20;stroke-width:8.64"/>
	<rect x="851.52" y="2236.48" width="71.90" height="252.71" style="fill:#1A476F;fill-opacity:0.50"/>
	<rect x="855.84" y="2240.80" width="63.26" height="244.07" style="fill:none;stroke:#1A476F;stroke-opacity:0.20;stroke-width:8.64"/>
	<rect x="923.42" y="2276.08" width="71.77" height="213.10" style="fill:#1A476F;fill-opacity:0.50"/>
	<rect x="927.74" y="2280.40" width="63.14" height="204.46" style="fill:none;stroke:#1A476F;stroke-opacity:0.20;stroke-width:8.64"/>
	<rect x="995.20" y="2352.56" width="71.78" height="136.62" style="fill:#1A476F;fill-opacity:0.50"/>
	<rect x="999.52" y="2356.88" width="63.14" height="127.98" style="fill:none;stroke:#1A476F;stroke-opacity:0.20;stroke-width:8.64"/>
	<rect x="1066.97" y="2388.08" width="71.77" height="101.11" style="fill:#1A476F;fill-opacity:0.50"/>
	<rect x="1071.29" y="2392.40" width="63.14" height="92.47" style="fill:none;stroke:#1A476F;stroke-opacity:0.20;stroke-width:8.64"/>
	<rect x="1138.75" y="2428.30" width="71.90" height="60.89" style="fill:#1A476F;fill-opacity:0.50"/>
	<rect x="1143.07" y="2432.62" width="63.26" height="52.25" style="fill:none;stroke:#1A476F;stroke-opacity:0.20;stroke-width:8.64"/>
	<rect x="1210.65" y="2432.26" width="71.78" height="56.93" style="fill:#1A476F;fill-opacity:0.50"/>
	<rect x="1214.97" y="2436.58" width="63.14" height="48.29" style="fill:none;stroke:#1A476F;stroke-opacity:0.20;stroke-width:8.64"/>
	<rect x="1282.42" y="2445.75" width="71.77" height="43.44" style="fill:#1A476F;fill-opacity:0.50"/>
	<rect x="1286.74" y="2450.07" width="63.14" height="34.80" style="fill:none;stroke:#1A476F;stroke-opacity:0.20;stroke-width:8.64"/>
	<rect x="1354.20" y="2453.54" width="71.90" height="35.64" style="fill:#1A476F;fill-opacity:0.50"/>
	<rect x="1358.52" y="2457.86" width="63.26" height="27.00" style="fill:none;stroke:#1A476F;stroke-opacity:0.20;stroke-width:8.64"/>
	<rect x="1426.10" y="2465.55" width="71.77" height="23.64" style="fill:#1A476F;fill-opacity:0.50"/>
	<rect x="1430.41" y="2469.87" width="63.14" height="15.00" style="fill:none;stroke:#1A476F;stroke-opacity:0.20;stroke-width:8.64"/>
	<rect x="1497.87" y="2472.97" width="71.78" height="16.21" style="fill:#1A476F;fill-opacity:0.50"/>
	<rect x="1502.19" y="2477.29" width="63.14" height="7.57" style="fill:none;stroke:#1A476F;stroke-opacity:0.20;stroke-width:8.64"/>
	<rect x="1569.64" y="2473.72" width="71.78" height="15.47" style="fill:#1A476F;fill-opacity:0.50"/>
	<rect x="1573.96" y="2478.04" width="63.14" height="6.83" style="fill:none;stroke:#1A476F;stroke-opacity:0.20;stroke-width:8.64"/>
	<rect x="1641.42" y="2479.78" width="71.90" height="9.41" style="fill:#1A476F;fill-opacity:0.50"/>
	<rect x="1645.74" y="2484.10" width="63.26" height="0.77" style="fill:none;stroke:#1A476F;stroke-opacity:0.20;stroke-width:8.64"/>
	<rect x="1713.32" y="2481.51" width="71.78" height="7.67" style="fill:#1A476F;fill-opacity:0.50"/>
	<rect x="1717.64" y="2484.87" width="63.14" height="0.97" style="fill:none;stroke:#1A476F;stroke-opacity:0.20;stroke-width:8.64"/>
	<rect x="1785.09" y="2483.37" width="71.78" height="5.82" style="fill:#1A476F;fill-opacity:0.50"/>
	<rect x="1789.41" y="2484.87" width="63.14" height="2.82" style="fill:none;stroke:#1A476F;stroke-opacity:0.20;stroke-width:8.64"/>
	<rect x="1856.87" y="2484.24" width="71.77" height="4.95" style="fill:#1A476F;fill-opacity:0.50"/>
	<rect x="1861.19" y="2484.87" width="63.14" height="3.69" style="fill:none;stroke:#1A476F;stroke-opacity:0.20;stroke-width:8.64"/>
	<rect x="1928.64" y="2486.09" width="71.90" height="3.09" style="fill:#1A476F;fill-opacity:0.50"/>
	<rect x="1932.96" y="2484.87" width="63.26" height="5.55" style="fill:none;stroke:#1A476F;stroke-opacity:0.20;stroke-width:8.64"/>
	<rect x="2000.54" y="2485.47" width="71.78" height="3.71" style="fill:#1A476F;fill-opacity:0.50"/>
	<rect x="2004.86" y="2484.87" width="63.14" height="4.93" style="fill:none;stroke:#1A476F;stroke-opacity:0.20;stroke-width:8.64"/>
	<rect x="2072.32" y="2485.10" width="71.78" height="4.08" style="fill:#1A476F;fill-opacity:0.50"/>
	<rect x="2076.64" y="2484.87" width="63.14" height="4.56" style="fill:none;stroke:#1A476F;stroke-opacity:0.20;stroke-width:8.64"/>
	<rect x="2144.09" y="2486.34" width="71.90" height="2.85" style="fill:#1A476F;fill-opacity:0.50"/>
	<rect x="2148.41" y="2484.87" width="63.26" height="5.79" style="fill:none;stroke:#1A476F;stroke-opacity:0.20;stroke-width:8.64"/>
	<rect x="2215.99" y="2487.21" width="71.78" height="1.98" style="fill:#1A476F;fill-opacity:0.50"/>
	<rect x="2220.31" y="2484.87" width="63.14" height="6.66" style="fill:none;stroke:#1A476F;stroke-opacity:0.20;stroke-width:8.64"/>
	<rect x="2287.77" y="2488.32" width="71.78" height="0.87" style="fill:#1A476F;fill-opacity:0.50"/>
	<rect x="2292.09" y="2484.87" width="63.14" height="7.77" style="fill:none;stroke:#1A476F;stroke-opacity:0.20;stroke-width:8.64"/>
	<rect x="2359.54" y="2487.70" width="71.77" height="1.49" style="fill:#1A476F;fill-opacity:0.50"/>
	<rect x="2363.86" y="2484.87" width="63.14" height="7.15" style="fill:none;stroke:#1A476F;stroke-opacity:0.20;stroke-width:8.64"/>
	<rect x="2431.32" y="2489.06" width="71.90" height="0.12" style="fill:#1A476F;fill-opacity:0.50"/>
	<rect x="2435.64" y="2484.87" width="63.26" height="8.52" style="fill:none;stroke:#1A476F;stroke-opacity:0.20;stroke-width:8.64"/>
	<rect x="2503.22" y="2487.82" width="71.77" height="1.36" style="fill:#1A476F;fill-opacity:0.50"/>
	<rect x="2507.53" y="2484.87" width="63.14" height="7.28" style="fill:none;stroke:#1A476F;stroke-opacity:0.20;stroke-width:8.64"/>
	<rect x="2574.99" y="2488.07" width="71.78" height="1.11" style="fill:#1A476F;fill-opacity:0.50"/>
	<rect x="2579.31" y="2484.87" width="63.14" height="7.53" style="fill:none;stroke:#1A476F;stroke-opacity:0.20;stroke-width:8.64"/>
	<rect x="2718.54" y="2488.57" width="71.90" height="0.62" style="fill:#1A476F;fill-opacity:0.50"/>
	<rect x="2722.86" y="2484.87" width="63.26" height="8.02" style="fill:none;stroke:#1A476F;stroke-opacity:0.20;stroke-width:8.64"/>
	<rect x="2790.44" y="2488.69" width="71.78" height="0.50" style="fill:#1A476F;fill-opacity:0.50"/>
	<rect x="2794.76" y="2484.87" width="63.14" height="8.14" style="fill:none;stroke:#1A476F;stroke-opacity:0.20;stroke-width:8.64"/>
	<rect x="2862.21" y="2488.69" width="71.78" height="0.50" style="fill:#1A476F;fill-opacity:0.50"/>
	<rect x="2866.53" y="2484.87" width="63.14" height="8.14" style="fill:none;stroke:#1A476F;stroke-opacity:0.20;stroke-width:8.64"/>
	<rect x="2933.99" y="2488.81" width="71.90" height="0.37" style="fill:#1A476F;fill-opacity:0.50"/>
	<rect x="2938.31" y="2484.87" width="63.26" height="8.27" style="fill:none;stroke:#1A476F;stroke-opacity:0.20;stroke-width:8.64"/>
	<rect x="3005.89" y="2488.69" width="71.78" height="0.50" style="fill:#1A476F;fill-opacity:0.50"/>
	<rect x="3010.21" y="2484.87" width="63.14" height="8.14" style="fill:none;stroke:#1A476F;stroke-opacity:0.20;stroke-width:8.64"/>
	<rect x="3077.66" y="2489.06" width="71.78" height="0.12" style="fill:#1A476F;fill-opacity:0.50"/>
	<rect x="3081.98" y="2484.87" width="63.14" height="8.52" style="fill:none;stroke:#1A476F;stroke-opacity:0.20;stroke-width:8.64"/>
	<rect x="3221.21" y="2488.69" width="71.90" height="0.50" style="fill:#1A476F;fill-opacity:0.50"/>
	<rect x="3225.53" y="2484.87" width="63.26" height="8.14" style="fill:none;stroke:#1A476F;stroke-opacity:0.20;stroke-width:8.64"/>
	<rect x="3436.66" y="2488.81" width="71.78" height="0.37" style="fill:#1A476F;fill-opacity:0.50"/>
	<rect x="3440.98" y="2484.87" width="63.14" height="8.27" style="fill:none;stroke:#1A476F;stroke-opacity:0.20;stroke-width:8.64"/>
	<rect x="3723.89" y="2489.06" width="71.90" height="0.12" style="fill:#1A476F;fill-opacity:0.50"/>
	<rect x="3728.20" y="2484.87" width="63.26" height="8.52" style="fill:none;stroke:#1A476F;stroke-opacity:0.20;stroke-width:8.64"/>
	<line x1="465.05" y1="2489.19" x2="465.05" y2="100.86" style="stroke:#000000;stroke-width:5.76"/>
	<line x1="465.05" y1="2489.19" x2="425.08" y2="2489.19" style="stroke:#000000;stroke-width:5.76"/>
	<text x="405.03" y="2524.21" style="font-family:'Helvetica';font-size:99.99px;fill:#000000" text-anchor="end">0</text>
	<line x1="465.05" y1="1907.91" x2="425.08" y2="1907.91" style="stroke:#000000;stroke-width:5.76"/>
	<text x="405.03" y="1942.94" style="font-family:'Helvetica';font-size:99.99px;fill:#000000" text-anchor="end">.02</text>
	<line x1="465.05" y1="1326.64" x2="425.08" y2="1326.64" style="stroke:#000000;stroke-width:5.76"/>
	<text x="405.03" y="1361.67" style="font-family:'Helvetica';font-size:99.99px;fill:#000000" text-anchor="end">.04</text>
	<line x1="465.05" y1="745.37" x2="425.08" y2="745.37" style="stroke:#000000;stroke-width:5.76"/>
	<text x="405.03" y="780.40" style="font-family:'Helvetica';font-size:99.99px;fill:#000000" text-anchor="end">.06</text>
	<line x1="465.05" y1="164.22" x2="425.08" y2="164.22" style="stroke:#000000;stroke-width:5.76"/>
	<text x="405.03" y="199.25" style="font-family:'Helvetica';font-size:99.99px;fill:#000000" text-anchor="end">.08</text>
	<text x="190.71" y="1294.96" style="font-family:'Helvetica';font-size:99.99px;fill:#000000" transform="rotate(-90 190.71,1294.96)" text-anchor="middle">Density</text>
	<line x1="465.05" y1="2489.19" x2="3859.02" y2="2489.19" style="stroke:#000000;stroke-width:5.76"/>
	<line x1="549.33" y1="2489.19" x2="549.33" y2="2529.16" style="stroke:#000000;stroke-width:5.76"/>
	<text x="549.33" y="2619.14" style="font-family:'Helvetica';font-size:99.99px;fill:#000000" text-anchor="middle">0</text>
	<line x1="1300.74" y1="2489.19" x2="1300.74" y2="2529.16" style="stroke:#000000;stroke-width:5.76"/>
	<text x="1300.74" y="2619.14" style="font-family:'Helvetica';font-size:99.99px;fill:#000000" text-anchor="middle">50</text>
	<line x1="2052.27" y1="2489.19" x2="2052.27" y2="2529.16" style="stroke:#000000;stroke-width:5.76"/>
	<text x="2052.27" y="2619.14" style="font-family:'Helvetica';font-size:99.99px;fill:#000000" text-anchor="middle">100</text>
	<line x1="2803.80" y1="2489.19" x2="2803.80" y2="2529.16" style="stroke:#000000;stroke-width:5.76"/>
	<text x="2803.80" y="2619.14" style="font-family:'Helvetica';font-size:99.99px;fill:#000000" text-anchor="middle">150</text>
	<line x1="3555.21" y1="2489.19" x2="3555.21" y2="2529.16" style="stroke:#000000;stroke-width:5.76"/>
	<text x="3555.21" y="2619.14" style="font-family:'Helvetica';font-size:99.99px;fill:#000000" text-anchor="middle">200</text>
	<text x="2162.04" y="2729.16" style="font-family:'Helvetica';font-size:99.99px;fill:#000000" text-anchor="middle">Length of stay in hospital (days)</text>
</svg>
