<?xml version="1.0" encoding="UTF-8" standalone="no"?>
<!-- This is a Stata 16.1 generated SVG file (http://www.stata.com) -->

<svg version="1.1" width="5.50in" height="4.00in" viewBox="0 0 3960 2880" xmlns="http://www.w3.org/2000/svg" xmlns:xlink="http://www.w3.org/1999/xlink">
	<desc>Stata Graph - length_of_stay_pneumonia</desc>
	<rect x="0" y="0" width="3960" height="2880" style="fill:#EAF2F3;stroke:none"/>
	<rect x="0.00" y="0.00" width="3959.88" height="2880.00" style="fill:#FFFFFF"/>
	<rect x="2.88" y="2.88" width="3954.12" height="2874.24" style="fill:none;stroke:#FFFFFF;stroke-width:5.76"/>
	<rect x="465.05" y="100.86" width="3393.97" height="2388.33" style="fill:#FFFFFF"/>
	<rect x="467.93" y="103.74" width="3388.21" height="2382.57" style="fill:none;stroke:#FFFFFF;stroke-width:5.76"/>
	<line x1="465.05" y1="2489.19" x2="3859.02" y2="2489.19" style="stroke:#EAF2F3;stroke-width:8.64"/>
	<line x1="465.05" y1="1907.91" x2="3859.02" y2="1907.91" style="stroke:#EAF2F3;stroke-width:8.64"/>
	<line x1="465.05" y1="1326.64" x2="3859.02" y2="1326.64" style="stroke:#EAF2F3;stroke-width:8.64"/>
	<line x1="465.05" y1="745.37" x2="3859.02" y2="745.37" style="stroke:#EAF2F3;stroke-width:8.64"/>
	<line x1="465.05" y1="164.22" x2="3859.02" y2="164.22" style="stroke:#EAF2F3;stroke-width:8.64"/>
	<rect x="561.45" y="219.91" width="65.96" height="2269.27" style="fill:#1A476F;fill-opacity:0.50"/>
	<rect x="565.77" y="224.23" width="57.32" height="2260.63" style="fill:none;stroke:#1A476F;stroke-opacity:0.20;stroke-width:8.64"/>
	<rect x="627.41" y="1065.64" width="66.08" height="1423.54" style="fill:#1A476F;fill-opacity:0.50"/>
	<rect x="631.73" y="1069.96" width="57.44" height="1414.90" style="fill:none;stroke:#1A476F;stroke-opacity:0.20;stroke-width:8.64"/>
	<rect x="693.50" y="1468.83" width="65.96" height="1020.35" style="fill:#1A476F;fill-opacity:0.50"/>
	<rect x="697.81" y="1473.15" width="57.32" height="1011.71" style="fill:none;stroke:#1A476F;stroke-opacity:0.20;stroke-width:8.64"/>
	<rect x="759.45" y="1975.24" width="65.96" height="513.95" style="fill:#1A476F;fill-opacity:0.50"/>
	<rect x="763.77" y="1979.56" width="57.32" height="505.31" style="fill:none;stroke:#1A476F;stroke-opacity:0.20;stroke-width:8.64"/>
	<rect x="825.41" y="2134.14" width="66.08" height="355.05" style="fill:#1A476F;fill-opacity:0.50"/>
	<rect x="829.73" y="2138.46" width="57.44" height="346.41" style="fill:none;stroke:#1A476F;stroke-opacity:0.20;stroke-width:8.64"/>
	<rect x="891.50" y="2184.50" width="65.96" height="304.68" style="fill:#1A476F;fill-opacity:0.50"/>
	<rect x="895.81" y="2188.82" width="57.32" height="296.04" style="fill:none;stroke:#1A476F;stroke-opacity:0.20;stroke-width:8.64"/>
	<rect x="957.45" y="2312.22" width="66.08" height="176.97" style="fill:#1A476F;fill-opacity:0.50"/>
	<rect x="961.77" y="2316.54" width="57.44" height="168.33" style="fill:none;stroke:#1A476F;stroke-opacity:0.20;stroke-width:8.64"/>
	<rect x="1023.54" y="2361.22" width="65.96" height="127.96" style="fill:#1A476F;fill-opacity:0.50"/>
	<rect x="1027.86" y="2365.54" width="57.32" height="119.32" style="fill:none;stroke:#1A476F;stroke-opacity:0.20;stroke-width:8.64"/>
	<rect x="1089.49" y="2367.91" width="65.96" height="121.28" style="fill:#1A476F;fill-opacity:0.50"/>
	<rect x="1093.81" y="2372.23" width="57.32" height="112.64" style="fill:none;stroke:#1A476F;stroke-opacity:0.20;stroke-width:8.64"/>
	<rect x="1155.45" y="2419.64" width="66.08" height="69.55" style="fill:#1A476F;fill-opacity:0.50"/>
	<rect x="1159.77" y="2423.96" width="57.44" height="60.91" style="fill:none;stroke:#1A476F;stroke-opacity:0.20;stroke-width:8.64"/>
	<rect x="1221.54" y="2423.35" width="65.96" height="65.84" style="fill:#1A476F;fill-opacity:0.50"/>
	<rect x="1225.86" y="2427.67" width="57.32" height="57.20" style="fill:none;stroke:#1A476F;stroke-opacity:0.20;stroke-width:8.64"/>
	<rect x="1287.49" y="2449.71" width="65.96" height="39.48" style="fill:#1A476F;fill-opacity:0.50"/>
	<rect x="1291.81" y="2454.03" width="57.32" height="30.84" style="fill:none;stroke:#1A476F;stroke-opacity:0.20;stroke-width:8.64"/>
	<rect x="1353.45" y="2455.77" width="66.08" height="33.41" style="fill:#1A476F;fill-opacity:0.50"/>
	<rect x="1357.77" y="2460.09" width="57.44" height="24.77" style="fill:none;stroke:#1A476F;stroke-opacity:0.20;stroke-width:8.64"/>
	<rect x="1419.54" y="2460.10" width="65.96" height="29.08" style="fill:#1A476F;fill-opacity:0.50"/>
	<rect x="1423.86" y="2464.42" width="57.32" height="20.44" style="fill:none;stroke:#1A476F;stroke-opacity:0.20;stroke-width:8.64"/>
	<rect x="1485.49" y="2470.37" width="66.08" height="18.81" style="fill:#1A476F;fill-opacity:0.50"/>
	<rect x="1489.81" y="2474.69" width="57.44" height="10.17" style="fill:none;stroke:#1A476F;stroke-opacity:0.20;stroke-width:8.64"/>
	<rect x="1551.58" y="2474.09" width="65.96" height="15.10" style="fill:#1A476F;fill-opacity:0.50"/>
	<rect x="1555.90" y="2478.41" width="57.32" height="6.46" style="fill:none;stroke:#1A476F;stroke-opacity:0.20;stroke-width:8.64"/>
	<rect x="1617.54" y="2474.21" width="65.96" height="14.97" style="fill:#1A476F;fill-opacity:0.50"/>
	<rect x="1621.86" y="2478.53" width="57.32" height="6.33" style="fill:none;stroke:#1A476F;stroke-opacity:0.20;stroke-width:8.64"/>
	<rect x="1683.49" y="2481.27" width="66.08" height="7.92" style="fill:#1A476F;fill-opacity:0.50"/>
	<rect x="1687.81" y="2484.87" width="57.44" height="0.72" style="fill:none;stroke:#1A476F;stroke-opacity:0.20;stroke-width:8.64"/>
	<rect x="1749.58" y="2480.89" width="65.96" height="8.29" style="fill:#1A476F;fill-opacity:0.50"/>
	<rect x="1753.90" y="2484.87" width="57.32" height="0.35" style="fill:none;stroke:#1A476F;stroke-opacity:0.20;stroke-width:8.64"/>
	<rect x="1815.54" y="2482.13" width="65.96" height="7.05" style="fill:#1A476F;fill-opacity:0.50"/>
	<rect x="1819.86" y="2484.87" width="57.32" height="1.59" style="fill:none;stroke:#1A476F;stroke-opacity:0.20;stroke-width:8.64"/>
	<rect x="1881.49" y="2484.73" width="66.08" height="4.46" style="fill:#1A476F;fill-opacity:0.50"/>
	<rect x="1885.81" y="2484.87" width="57.44" height="4.18" style="fill:none;stroke:#1A476F;stroke-opacity:0.20;stroke-width:8.64"/>
	<rect x="1947.58" y="2483.74" width="65.96" height="5.45" style="fill:#1A476F;fill-opacity:0.50"/>
	<rect x="1951.90" y="2484.87" width="57.32" height="3.19" style="fill:none;stroke:#1A476F;stroke-opacity:0.20;stroke-width:8.64"/>
	<rect x="2013.54" y="2485.97" width="66.08" height="3.22" style="fill:#1A476F;fill-opacity:0.50"/>
	<rect x="2017.86" y="2484.87" width="57.44" height="5.42" style="fill:none;stroke:#1A476F;stroke-opacity:0.20;stroke-width:8.64"/>
	<rect x="2079.62" y="2486.59" width="65.96" height="2.60" style="fill:#1A476F;fill-opacity:0.50"/>
	<rect x="2083.94" y="2484.87" width="57.32" height="6.04" style="fill:none;stroke:#1A476F;stroke-opacity:0.20;stroke-width:8.64"/>
	<rect x="2145.58" y="2486.09" width="65.96" height="3.09" style="fill:#1A476F;fill-opacity:0.50"/>
	<rect x="2149.90" y="2484.87" width="57.32" height="5.55" style="fill:none;stroke:#1A476F;stroke-opacity:0.20;stroke-width:8.64"/>
	<rect x="2211.54" y="2487.33" width="66.08" height="1.86" style="fill:#1A476F;fill-opacity:0.50"/>
	<rect x="2215.86" y="2484.87" width="57.44" height="6.78" style="fill:none;stroke:#1A476F;stroke-opacity:0.20;stroke-width:8.64"/>
	<rect x="2277.62" y="2487.21" width="65.96" height="1.98" style="fill:#1A476F;fill-opacity:0.50"/>
	<rect x="2281.94" y="2484.87" width="57.32" height="6.66" style="fill:none;stroke:#1A476F;stroke-opacity:0.20;stroke-width:8.64"/>
	<rect x="2343.58" y="2487.33" width="66.08" height="1.86" style="fill:#1A476F;fill-opacity:0.50"/>
	<rect x="2347.90" y="2484.87" width="57.44" height="6.78" style="fill:none;stroke:#1A476F;stroke-opacity:0.20;stroke-width:8.64"/>
	<rect x="2409.66" y="2487.70" width="65.96" height="1.49" style="fill:#1A476F;fill-opacity:0.50"/>
	<rect x="2413.98" y="2484.87" width="57.32" height="7.15" style="fill:none;stroke:#1A476F;stroke-opacity:0.20;stroke-width:8.64"/>
	<rect x="2475.62" y="2488.44" width="65.96" height="0.74" style="fill:#1A476F;fill-opacity:0.50"/>
	<rect x="2479.94" y="2484.87" width="57.32" height="7.90" style="fill:none;stroke:#1A476F;stroke-opacity:0.20;stroke-width:8.64"/>
	<rect x="2541.58" y="2488.44" width="66.08" height="0.74" style="fill:#1A476F;fill-opacity:0.50"/>
	<rect x="2545.90" y="2484.87" width="57.44" height="7.90" style="fill:none;stroke:#1A476F;stroke-opacity:0.20;stroke-width:8.64"/>
	<rect x="2607.66" y="2488.44" width="65.96" height="0.74" style="fill:#1A476F;fill-opacity:0.50"/>
	<rect x="2611.98" y="2484.87" width="57.32" height="7.90" style="fill:none;stroke:#1A476F;stroke-opacity:0.20;stroke-width:8.64"/>
	<rect x="2673.62" y="2488.32" width="65.96" height="0.87" style="fill:#1A476F;fill-opacity:0.50"/>
	<rect x="2677.94" y="2484.87" width="57.32" height="7.77" style="fill:none;stroke:#1A476F;stroke-opacity:0.20;stroke-width:8.64"/>
	<rect x="2739.58" y="2488.81" width="66.08" height="0.37" style="fill:#1A476F;fill-opacity:0.50"/>
	<rect x="2743.90" y="2484.87" width="57.44" height="8.27" style="fill:none;stroke:#1A476F;stroke-opacity:0.20;stroke-width:8.64"/>
	<rect x="2805.66" y="2488.81" width="65.96" height="0.37" style="fill:#1A476F;fill-opacity:0.50"/>
	<rect x="2809.98" y="2484.87" width="57.32" height="8.27" style="fill:none;stroke:#1A476F;stroke-opacity:0.20;stroke-width:8.64"/>
	<rect x="2871.62" y="2488.81" width="66.08" height="0.37" style="fill:#1A476F;fill-opacity:0.50"/>
	<rect x="2875.94" y="2484.87" width="57.44" height="8.27" style="fill:none;stroke:#1A476F;stroke-opacity:0.20;stroke-width:8.64"/>
	<rect x="2937.70" y="2488.94" width="65.96" height="0.25" style="fill:#1A476F;fill-opacity:0.50"/>
	<rect x="2942.02" y="2484.87" width="57.32" height="8.39" style="fill:none;stroke:#1A476F;stroke-opacity:0.20;stroke-width:8.64"/>
	<rect x="3003.66" y="2489.19" width="65.96" height="0.00" style="fill:#1A476F;fill-opacity:0.50"/>
	<rect x="3007.98" y="2484.87" width="57.32" height="8.64" style="fill:none;stroke:#1A476F;stroke-opacity:0.20;stroke-width:8.64"/>
	<rect x="3069.62" y="2489.19" width="66.08" height="0.00" style="fill:#1A476F;fill-opacity:0.50"/>
	<rect x="3073.94" y="2484.87" width="57.44" height="8.64" style="fill:none;stroke:#1A476F;stroke-opacity:0.20;stroke-width:8.64"/>
	<rect x="3201.66" y="2489.19" width="65.96" height="0.00" style="fill:#1A476F;fill-opacity:0.50"/>
	<rect x="3205.98" y="2484.87" width="57.32" height="8.64" style="fill:none;stroke:#1A476F;stroke-opacity:0.20;stroke-width:8.64"/>
	<rect x="3267.62" y="2489.19" width="66.08" height="0.00" style="fill:#1A476F;fill-opacity:0.50"/>
	<rect x="3271.94" y="2484.87" width="57.44" height="8.64" style="fill:none;stroke:#1A476F;stroke-opacity:0.20;stroke-width:8.64"/>
	<rect x="3333.70" y="2488.94" width="65.96" height="0.25" style="fill:#1A476F;fill-opacity:0.50"/>
	<rect x="3338.02" y="2484.87" width="57.32" height="8.39" style="fill:none;stroke:#1A476F;stroke-opacity:0.20;stroke-width:8.64"/>
	<rect x="3399.66" y="2489.19" width="66.08" height="0.00" style="fill:#1A476F;fill-opacity:0.50"/>
	<rect x="3403.98" y="2484.87" width="57.44" height="8.64" style="fill:none;stroke:#1A476F;stroke-opacity:0.20;stroke-width:8.64"/>
	<rect x="3465.74" y="2489.06" width="65.96" height="0.12" style="fill:#1A476F;fill-opacity:0.50"/>
	<rect x="3470.06" y="2484.87" width="57.32" height="8.52" style="fill:none;stroke:#1A476F;stroke-opacity:0.20;stroke-width:8.64"/>
	<rect x="3597.66" y="2489.19" width="66.08" height="0.00" style="fill:#1A476F;fill-opacity:0.50"/>
	<rect x="3601.98" y="2484.87" width="57.44" height="8.64" style="fill:none;stroke:#1A476F;stroke-opacity:0.20;stroke-width:8.64"/>
	<rect x="3663.74" y="2489.19" width="65.96" height="0.00" style="fill:#1A476F;fill-opacity:0.50"/>
	<rect x="3668.06" y="2484.87" width="57.32" height="8.64" style="fill:none;stroke:#1A476F;stroke-opacity:0.20;stroke-width:8.64"/>
	<rect x="3729.70" y="2489.06" width="66.08" height="0.12" style="fill:#1A476F;fill-opacity:0.50"/>
	<rect x="3734.02" y="2484.87" width="57.44" height="8.52" style="fill:none;stroke:#1A476F;stroke-opacity:0.20;stroke-width:8.64"/>
	<line x1="465.05" y1="2489.19" x2="465.05" y2="100.86" style="stroke:#000000;stroke-width:5.76"/>
	<line x1="465.05" y1="2489.19" x2="425.08" y2="2489.19" style="stroke:#000000;stroke-width:5.76"/>
	<text x="405.03" y="2524.21" style="font-family:'Helvetica';font-size:99.99px;fill:#000000" text-anchor="end">0</text>
	<line x1="465.05" y1="1907.91" x2="425.08" y2="1907.91" style="stroke:#000000;stroke-width:5.76"/>
	<text x="405.03" y="1942.94" style="font-family:'Helvetica';font-size:99.99px;fill:#000000" text-anchor="end">.02</text>
	<line x1="465.05" y1="1326.64" x2="425.08" y2="1326.64" style="stroke:#000000;stroke-width:5.76"/>
	<text x="405.03" y="1361.67" style="font-family:'Helvetica';font-size:99.99px;fill:#000000" text-anchor="end">.04</text>
	<line x1="465.05" y1="745.37" x2="425.08" y2="745.37" style="stroke:#000000;stroke-width:5.76"/>
	<text x="405.03" y="780.40" style="font-family:'Helvetica';font-size:99.99px;fill:#000000" text-anchor="end">.06</text>
	<line x1="465.05" y1="164.22" x2="425.08" y2="164.22" style="stroke:#000000;stroke-width:5.76"/>
	<text x="405.03" y="199.25" style="font-family:'Helvetica';font-size:99.99px;fill:#000000" text-anchor="end">.08</text>
	<text x="190.71" y="1294.96" style="font-family:'Helvetica';font-size:99.99px;fill:#000000" transform="rotate(-90 190.71,1294.96)" text-anchor="middle">Density</text>
	<line x1="465.05" y1="2489.19" x2="3859.02" y2="2489.19" style="stroke:#000000;stroke-width:5.76"/>
	<line x1="546.36" y1="2489.19" x2="546.36" y2="2529.16" style="stroke:#000000;stroke-width:5.76"/>
	<text x="546.36" y="2619.14" style="font-family:'Helvetica';font-size:99.99px;fill:#000000" text-anchor="middle">0</text>
	<line x1="1301.97" y1="2489.19" x2="1301.97" y2="2529.16" style="stroke:#000000;stroke-width:5.76"/>
	<text x="1301.97" y="2619.14" style="font-family:'Helvetica';font-size:99.99px;fill:#000000" text-anchor="middle">50</text>
	<line x1="2057.72" y1="2489.19" x2="2057.72" y2="2529.16" style="stroke:#000000;stroke-width:5.76"/>
	<text x="2057.72" y="2619.14" style="font-family:'Helvetica';font-size:99.99px;fill:#000000" text-anchor="middle">100</text>
	<line x1="2813.33" y1="2489.19" x2="2813.33" y2="2529.16" style="stroke:#000000;stroke-width:5.76"/>
	<text x="2813.33" y="2619.14" style="font-family:'Helvetica';font-size:99.99px;fill:#000000" text-anchor="middle">150</text>
	<line x1="3569.07" y1="2489.19" x2="3569.07" y2="2529.16" style="stroke:#000000;stroke-width:5.76"/>
	<text x="3569.07" y="2619.14" style="font-family:'Helvetica';font-size:99.99px;fill:#000000" text-anchor="middle">200</text>
	<text x="2162.04" y="2729.16" style="font-family:'Helvetica';font-size:99.99px;fill:#000000" text-anchor="middle">Length of stay in hospital (days)</text>
</svg>
