<?xml version="1.0" encoding="UTF-8" standalone="no"?>
<!-- This is a Stata 16.1 generated SVG file (http://www.stata.com) -->

<svg version="1.1" width="5.50in" height="4.00in" viewBox="0 0 3960 2880" xmlns="http://www.w3.org/2000/svg" xmlns:xlink="http://www.w3.org/1999/xlink">
	<desc>Stata Graph - length_of_stay_pneumonia</desc>
	<rect x="0" y="0" width="3960" height="2880" style="fill:#EAF2F3;stroke:none"/>
	<rect x="0.00" y="0.00" width="3959.88" height="2880.00" style="fill:#FFFFFF"/>
	<rect x="2.88" y="2.88" width="3954.12" height="2874.24" style="fill:none;stroke:#FFFFFF;stroke-width:5.76"/>
	<rect x="465.05" y="100.86" width="3393.97" height="2388.33" style="fill:#FFFFFF"/>
	<rect x="467.93" y="103.74" width="3388.21" height="2382.57" style="fill:none;stroke:#FFFFFF;stroke-width:5.76"/>
	<line x1="465.05" y1="2489.19" x2="3859.02" y2="2489.19" style="stroke:#EAF2F3;stroke-width:8.64"/>
	<line x1="465.05" y1="1762.13" x2="3859.02" y2="1762.13" style="stroke:#EAF2F3;stroke-width:8.64"/>
	<line x1="465.05" y1="1034.95" x2="3859.02" y2="1034.95" style="stroke:#EAF2F3;stroke-width:8.64"/>
	<line x1="465.05" y1="307.90" x2="3859.02" y2="307.90" style="stroke:#EAF2F3;stroke-width:8.64"/>
	<rect x="557.99" y="164.22" width="59.15" height="2324.96" style="fill:#1A476F;fill-opacity:0.50"/>
	<rect x="562.31" y="168.54" width="50.51" height="2316.32" style="fill:none;stroke:#1A476F;stroke-opacity:0.20;stroke-width:8.64"/>
	<rect x="617.14" y="1638.62" width="59.15" height="850.56" style="fill:#1A476F;fill-opacity:0.50"/>
	<rect x="621.46" y="1642.94" width="50.51" height="841.92" style="fill:none;stroke:#1A476F;stroke-opacity:0.20;stroke-width:8.64"/>
	<rect x="676.29" y="2120.28" width="59.15" height="368.91" style="fill:#1A476F;fill-opacity:0.50"/>
	<rect x="680.61" y="2124.59" width="50.51" height="360.27" style="fill:none;stroke:#1A476F;stroke-opacity:0.20;stroke-width:8.64"/>
	<rect x="735.45" y="2303.55" width="59.03" height="185.63" style="fill:#1A476F;fill-opacity:0.50"/>
	<rect x="739.77" y="2307.87" width="50.39" height="176.99" style="fill:none;stroke:#1A476F;stroke-opacity:0.20;stroke-width:8.64"/>
	<rect x="794.48" y="2389.19" width="59.15" height="99.99" style="fill:#1A476F;fill-opacity:0.50"/>
	<rect x="798.79" y="2393.51" width="50.51" height="91.35" style="fill:none;stroke:#1A476F;stroke-opacity:0.20;stroke-width:8.64"/>
	<rect x="853.63" y="2430.40" width="59.15" height="58.78" style="fill:#1A476F;fill-opacity:0.50"/>
	<rect x="857.95" y="2434.72" width="50.51" height="50.14" style="fill:none;stroke:#1A476F;stroke-opacity:0.20;stroke-width:8.64"/>
	<rect x="912.78" y="2454.04" width="59.15" height="35.15" style="fill:#1A476F;fill-opacity:0.50"/>
	<rect x="917.10" y="2458.36" width="50.51" height="26.51" style="fill:none;stroke:#1A476F;stroke-opacity:0.20;stroke-width:8.64"/>
	<rect x="971.93" y="2468.15" width="59.15" height="21.04" style="fill:#1A476F;fill-opacity:0.50"/>
	<rect x="976.25" y="2472.47" width="50.51" height="12.40" style="fill:none;stroke:#1A476F;stroke-opacity:0.20;stroke-width:8.64"/>
	<rect x="1031.09" y="2474.09" width="59.03" height="15.10" style="fill:#1A476F;fill-opacity:0.50"/>
	<rect x="1035.40" y="2478.41" width="50.39" height="6.46" style="fill:none;stroke:#1A476F;stroke-opacity:0.20;stroke-width:8.64"/>
	<rect x="1090.11" y="2481.27" width="59.15" height="7.92" style="fill:#1A476F;fill-opacity:0.50"/>
	<rect x="1094.43" y="2484.87" width="50.51" height="0.72" style="fill:none;stroke:#1A476F;stroke-opacity:0.20;stroke-width:8.64"/>
	<rect x="1149.27" y="2483.49" width="59.15" height="5.69" style="fill:#1A476F;fill-opacity:0.50"/>
	<rect x="1153.59" y="2484.87" width="50.51" height="2.95" style="fill:none;stroke:#1A476F;stroke-opacity:0.20;stroke-width:8.64"/>
	<rect x="1208.42" y="2485.23" width="59.15" height="3.96" style="fill:#1A476F;fill-opacity:0.50"/>
	<rect x="1212.74" y="2484.87" width="50.51" height="4.68" style="fill:none;stroke:#1A476F;stroke-opacity:0.20;stroke-width:8.64"/>
	<rect x="1267.57" y="2486.09" width="59.15" height="3.09" style="fill:#1A476F;fill-opacity:0.50"/>
	<rect x="1271.89" y="2484.87" width="50.51" height="5.55" style="fill:none;stroke:#1A476F;stroke-opacity:0.20;stroke-width:8.64"/>
	<rect x="1326.72" y="2487.08" width="59.15" height="2.10" style="fill:#1A476F;fill-opacity:0.50"/>
	<rect x="1331.04" y="2484.87" width="50.51" height="6.54" style="fill:none;stroke:#1A476F;stroke-opacity:0.20;stroke-width:8.64"/>
	<rect x="1385.88" y="2487.82" width="59.03" height="1.36" style="fill:#1A476F;fill-opacity:0.50"/>
	<rect x="1390.20" y="2484.87" width="50.39" height="7.28" style="fill:none;stroke:#1A476F;stroke-opacity:0.20;stroke-width:8.64"/>
	<rect x="1444.90" y="2488.20" width="59.15" height="0.99" style="fill:#1A476F;fill-opacity:0.50"/>
	<rect x="1449.22" y="2484.87" width="50.51" height="7.65" style="fill:none;stroke:#1A476F;stroke-opacity:0.20;stroke-width:8.64"/>
	<rect x="1504.06" y="2488.44" width="59.15" height="0.74" style="fill:#1A476F;fill-opacity:0.50"/>
	<rect x="1508.38" y="2484.87" width="50.51" height="7.90" style="fill:none;stroke:#1A476F;stroke-opacity:0.20;stroke-width:8.64"/>
	<rect x="1563.21" y="2488.57" width="59.15" height="0.62" style="fill:#1A476F;fill-opacity:0.50"/>
	<rect x="1567.53" y="2484.87" width="50.51" height="8.02" style="fill:none;stroke:#1A476F;stroke-opacity:0.20;stroke-width:8.64"/>
	<rect x="1622.36" y="2488.94" width="59.15" height="0.25" style="fill:#1A476F;fill-opacity:0.50"/>
	<rect x="1626.68" y="2484.87" width="50.51" height="8.39" style="fill:none;stroke:#1A476F;stroke-opacity:0.20;stroke-width:8.64"/>
	<rect x="1681.52" y="2488.81" width="59.15" height="0.37" style="fill:#1A476F;fill-opacity:0.50"/>
	<rect x="1685.83" y="2484.87" width="50.51" height="8.27" style="fill:none;stroke:#1A476F;stroke-opacity:0.20;stroke-width:8.64"/>
	<rect x="1740.67" y="2488.94" width="59.03" height="0.25" style="fill:#1A476F;fill-opacity:0.50"/>
	<rect x="1744.99" y="2484.87" width="50.39" height="8.39" style="fill:none;stroke:#1A476F;stroke-opacity:0.20;stroke-width:8.64"/>
	<rect x="1799.70" y="2489.06" width="59.15" height="0.12" style="fill:#1A476F;fill-opacity:0.50"/>
	<rect x="1804.02" y="2484.87" width="50.51" height="8.52" style="fill:none;stroke:#1A476F;stroke-opacity:0.20;stroke-width:8.64"/>
	<rect x="1858.85" y="2488.94" width="59.15" height="0.25" style="fill:#1A476F;fill-opacity:0.50"/>
	<rect x="1863.17" y="2484.87" width="50.51" height="8.39" style="fill:none;stroke:#1A476F;stroke-opacity:0.20;stroke-width:8.64"/>
	<rect x="1918.00" y="2489.06" width="59.15" height="0.12" style="fill:#1A476F;fill-opacity:0.50"/>
	<rect x="1922.32" y="2484.87" width="50.51" height="8.52" style="fill:none;stroke:#1A476F;stroke-opacity:0.20;stroke-width:8.64"/>
	<rect x="1977.15" y="2489.06" width="59.15" height="0.12" style="fill:#1A476F;fill-opacity:0.50"/>
	<rect x="1981.47" y="2484.87" width="50.51" height="8.52" style="fill:none;stroke:#1A476F;stroke-opacity:0.20;stroke-width:8.64"/>
	<rect x="2036.31" y="2489.19" width="59.03" height="0.00" style="fill:#1A476F;fill-opacity:0.50"/>
	<rect x="2040.63" y="2484.87" width="50.39" height="8.64" style="fill:none;stroke:#1A476F;stroke-opacity:0.20;stroke-width:8.64"/>
	<rect x="2095.34" y="2489.06" width="59.15" height="0.12" style="fill:#1A476F;fill-opacity:0.50"/>
	<rect x="2099.65" y="2484.87" width="50.51" height="8.52" style="fill:none;stroke:#1A476F;stroke-opacity:0.20;stroke-width:8.64"/>
	<rect x="2154.49" y="2489.19" width="59.15" height="0.00" style="fill:#1A476F;fill-opacity:0.50"/>
	<rect x="2158.81" y="2484.87" width="50.51" height="8.64" style="fill:none;stroke:#1A476F;stroke-opacity:0.20;stroke-width:8.64"/>
	<rect x="2213.64" y="2489.06" width="59.15" height="0.12" style="fill:#1A476F;fill-opacity:0.50"/>
	<rect x="2217.96" y="2484.87" width="50.51" height="8.52" style="fill:none;stroke:#1A476F;stroke-opacity:0.20;stroke-width:8.64"/>
	<rect x="2272.79" y="2489.19" width="59.15" height="0.00" style="fill:#1A476F;fill-opacity:0.50"/>
	<rect x="2277.11" y="2484.87" width="50.51" height="8.64" style="fill:none;stroke:#1A476F;stroke-opacity:0.20;stroke-width:8.64"/>
	<rect x="2331.95" y="2489.19" width="59.15" height="0.00" style="fill:#1A476F;fill-opacity:0.50"/>
	<rect x="2336.26" y="2484.87" width="50.51" height="8.64" style="fill:none;stroke:#1A476F;stroke-opacity:0.20;stroke-width:8.64"/>
	<rect x="2391.10" y="2489.06" width="59.03" height="0.12" style="fill:#1A476F;fill-opacity:0.50"/>
	<rect x="2395.42" y="2484.87" width="50.39" height="8.52" style="fill:none;stroke:#1A476F;stroke-opacity:0.20;stroke-width:8.64"/>
	<rect x="2450.13" y="2489.19" width="59.15" height="0.00" style="fill:#1A476F;fill-opacity:0.50"/>
	<rect x="2454.45" y="2484.87" width="50.51" height="8.64" style="fill:none;stroke:#1A476F;stroke-opacity:0.20;stroke-width:8.64"/>
	<rect x="2509.28" y="2489.19" width="59.15" height="0.00" style="fill:#1A476F;fill-opacity:0.50"/>
	<rect x="2513.60" y="2484.87" width="50.51" height="8.64" style="fill:none;stroke:#1A476F;stroke-opacity:0.20;stroke-width:8.64"/>
	<rect x="2568.43" y="2489.19" width="59.15" height="0.00" style="fill:#1A476F;fill-opacity:0.50"/>
	<rect x="2572.75" y="2484.87" width="50.51" height="8.64" style="fill:none;stroke:#1A476F;stroke-opacity:0.20;stroke-width:8.64"/>
	<rect x="2627.58" y="2489.19" width="59.15" height="0.00" style="fill:#1A476F;fill-opacity:0.50"/>
	<rect x="2631.90" y="2484.87" width="50.51" height="8.64" style="fill:none;stroke:#1A476F;stroke-opacity:0.20;stroke-width:8.64"/>
	<rect x="2686.74" y="2489.19" width="59.03" height="0.00" style="fill:#1A476F;fill-opacity:0.50"/>
	<rect x="2691.06" y="2484.87" width="50.39" height="8.64" style="fill:none;stroke:#1A476F;stroke-opacity:0.20;stroke-width:8.64"/>
	<rect x="2745.76" y="2489.19" width="59.15" height="0.00" style="fill:#1A476F;fill-opacity:0.50"/>
	<rect x="2750.08" y="2484.87" width="50.51" height="8.64" style="fill:none;stroke:#1A476F;stroke-opacity:0.20;stroke-width:8.64"/>
	<rect x="2864.07" y="2489.19" width="59.15" height="0.00" style="fill:#1A476F;fill-opacity:0.50"/>
	<rect x="2868.39" y="2484.87" width="50.51" height="8.64" style="fill:none;stroke:#1A476F;stroke-opacity:0.20;stroke-width:8.64"/>
	<rect x="3041.53" y="2489.19" width="59.03" height="0.00" style="fill:#1A476F;fill-opacity:0.50"/>
	<rect x="3045.85" y="2484.87" width="50.39" height="8.64" style="fill:none;stroke:#1A476F;stroke-opacity:0.20;stroke-width:8.64"/>
	<rect x="3159.71" y="2489.19" width="59.15" height="0.00" style="fill:#1A476F;fill-opacity:0.50"/>
	<rect x="3164.03" y="2484.87" width="50.51" height="8.64" style="fill:none;stroke:#1A476F;stroke-opacity:0.20;stroke-width:8.64"/>
	<rect x="3455.35" y="2489.19" width="59.15" height="0.00" style="fill:#1A476F;fill-opacity:0.50"/>
	<rect x="3459.67" y="2484.87" width="50.51" height="8.64" style="fill:none;stroke:#1A476F;stroke-opacity:0.20;stroke-width:8.64"/>
	<rect x="3632.80" y="2489.19" width="59.15" height="0.00" style="fill:#1A476F;fill-opacity:0.50"/>
	<rect x="3637.12" y="2484.87" width="50.51" height="8.64" style="fill:none;stroke:#1A476F;stroke-opacity:0.20;stroke-width:8.64"/>
	<line x1="465.05" y1="2489.19" x2="465.05" y2="100.86" style="stroke:#000000;stroke-width:5.76"/>
	<line x1="465.05" y1="2489.19" x2="425.08" y2="2489.19" style="stroke:#000000;stroke-width:5.76"/>
	<text x="405.03" y="2524.21" style="font-family:'Helvetica';font-size:99.99px;fill:#000000" text-anchor="end">0</text>
	<line x1="465.05" y1="1762.13" x2="425.08" y2="1762.13" style="stroke:#000000;stroke-width:5.76"/>
	<text x="405.03" y="1797.16" style="font-family:'Helvetica';font-size:99.99px;fill:#000000" text-anchor="end">.02</text>
	<line x1="465.05" y1="1034.95" x2="425.08" y2="1034.95" style="stroke:#000000;stroke-width:5.76"/>
	<text x="405.03" y="1069.98" style="font-family:'Helvetica';font-size:99.99px;fill:#000000" text-anchor="end">.04</text>
	<line x1="465.05" y1="307.90" x2="425.08" y2="307.90" style="stroke:#000000;stroke-width:5.76"/>
	<text x="405.03" y="342.93" style="font-family:'Helvetica';font-size:99.99px;fill:#000000" text-anchor="end">.06</text>
	<text x="190.71" y="1294.96" style="font-family:'Helvetica';font-size:99.99px;fill:#000000" transform="rotate(-90 190.71,1294.96)" text-anchor="middle">Density</text>
	<line x1="465.05" y1="2489.19" x2="3859.02" y2="2489.19" style="stroke:#000000;stroke-width:5.76"/>
	<line x1="551.55" y1="2489.19" x2="551.55" y2="2529.16" style="stroke:#000000;stroke-width:5.76"/>
	<text x="551.55" y="2619.14" style="font-family:'Helvetica';font-size:99.99px;fill:#000000" text-anchor="middle">0</text>
	<line x1="1200.38" y1="2489.19" x2="1200.38" y2="2529.16" style="stroke:#000000;stroke-width:5.76"/>
	<text x="1200.38" y="2619.14" style="font-family:'Helvetica';font-size:99.99px;fill:#000000" text-anchor="middle">100</text>
	<line x1="1849.20" y1="2489.19" x2="1849.20" y2="2529.16" style="stroke:#000000;stroke-width:5.76"/>
	<text x="1849.20" y="2619.14" style="font-family:'Helvetica';font-size:99.99px;fill:#000000" text-anchor="middle">200</text>
	<line x1="2498.02" y1="2489.19" x2="2498.02" y2="2529.16" style="stroke:#000000;stroke-width:5.76"/>
	<text x="2498.02" y="2619.14" style="font-family:'Helvetica';font-size:99.99px;fill:#000000" text-anchor="middle">300</text>
	<line x1="3146.84" y1="2489.19" x2="3146.84" y2="2529.16" style="stroke:#000000;stroke-width:5.76"/>
	<text x="3146.84" y="2619.14" style="font-family:'Helvetica';font-size:99.99px;fill:#000000" text-anchor="middle">400</text>
	<line x1="3795.78" y1="2489.19" x2="3795.78" y2="2529.16" style="stroke:#000000;stroke-width:5.76"/>
	<text x="3795.78" y="2619.14" style="font-family:'Helvetica';font-size:99.99px;fill:#000000" text-anchor="middle">500</text>
	<text x="2162.04" y="2729.16" style="font-family:'Helvetica';font-size:99.99px;fill:#000000" text-anchor="middle">Length of stay in hospital (days)</text>
</svg>
