<?xml version="1.0" encoding="utf-8" standalone="no"?>
<!DOCTYPE svg PUBLIC "-//W3C//DTD SVG 1.1//EN"
  "http://www.w3.org/Graphics/SVG/1.1/DTD/svg11.dtd">
<!-- Created with matplotlib (https://matplotlib.org/) -->
<svg height="432pt" version="1.1" viewBox="0 0 864 432" width="864pt" xmlns="http://www.w3.org/2000/svg" xmlns:xlink="http://www.w3.org/1999/xlink">
 <metadata>
  <rdf:RDF xmlns:cc="http://creativecommons.org/ns#" xmlns:dc="http://purl.org/dc/elements/1.1/" xmlns:rdf="http://www.w3.org/1999/02/22-rdf-syntax-ns#">
   <cc:Work>
    <dc:type rdf:resource="http://purl.org/dc/dcmitype/StillImage"/>
    <dc:date>2022-01-12T17:33:31.331069</dc:date>
    <dc:format>image/svg+xml</dc:format>
    <dc:creator>
     <cc:Agent>
      <dc:title>Matplotlib v3.3.3, https://matplotlib.org/</dc:title>
     </cc:Agent>
    </dc:creator>
   </cc:Work>
  </rdf:RDF>
 </metadata>
 <defs>
  <style type="text/css">*{stroke-linecap:butt;stroke-linejoin:round;}</style>
 </defs>
 <g id="figure_1">
  <g id="patch_1">
   <path d="M 0 432 
L 864 432 
L 864 0 
L 0 0 
z
" style="fill:#ffffff;"/>
  </g>
  <g id="axes_1">
   <g id="patch_2">
    <path d="M 50.87 337.3 
L 444.885 337.3 
L 444.885 26.88 
L 50.87 26.88 
z
" style="fill:#ffffff;"/>
   </g>
   <g id="patch_3">
    <path clip-path="url(#pd511e507ab)" d="M 64.363664 337.3 
L 71.560285 337.3 
L 71.560285 323.600647 
L 64.363664 323.600647 
z
" style="fill:#ff7f00;"/>
   </g>
   <g id="patch_4">
    <path clip-path="url(#pd511e507ab)" d="M 118.338322 337.3 
L 125.534943 337.3 
L 125.534943 331.914201 
L 118.338322 331.914201 
z
" style="fill:#ff7f00;"/>
   </g>
   <g id="patch_5">
    <path clip-path="url(#pd511e507ab)" d="M 172.312979 337.3 
L 179.5096 337.3 
L 179.5096 324.310769 
L 172.312979 324.310769 
z
" style="fill:#ff7f00;"/>
   </g>
   <g id="patch_6">
    <path clip-path="url(#pd511e507ab)" d="M 226.287637 337.3 
L 233.484258 337.3 
L 233.484258 263.002098 
L 226.287637 263.002098 
z
" style="fill:#ff7f00;"/>
   </g>
   <g id="patch_7">
    <path clip-path="url(#pd511e507ab)" d="M 280.262295 337.3 
L 287.458916 337.3 
L 287.458916 329.740793 
L 280.262295 329.740793 
z
" style="fill:#ff7f00;"/>
   </g>
   <g id="patch_8">
    <path clip-path="url(#pd511e507ab)" d="M 334.236952 337.3 
L 341.433573 337.3 
L 341.433573 273.014415 
L 334.236952 273.014415 
z
" style="fill:#ff7f00;"/>
   </g>
   <g id="patch_9">
    <path clip-path="url(#pd511e507ab)" d="M 388.21161 337.3 
L 395.408231 337.3 
L 395.408231 325.07993 
L 388.21161 325.07993 
z
" style="fill:#ff7f00;"/>
   </g>
   <g id="patch_10">
    <path clip-path="url(#pd511e507ab)" d="M 71.560285 337.3 
L 78.756906 337.3 
L 78.756906 302.579138 
L 71.560285 302.579138 
z
" style="fill:#3579b1;"/>
   </g>
   <g id="patch_11">
    <path clip-path="url(#pd511e507ab)" d="M 125.534943 337.3 
L 132.731564 337.3 
L 132.731564 325.069894 
L 125.534943 325.069894 
z
" style="fill:#3579b1;"/>
   </g>
   <g id="patch_12">
    <path clip-path="url(#pd511e507ab)" d="M 179.5096 337.3 
L 186.706221 337.3 
L 186.706221 298.067638 
L 179.5096 298.067638 
z
" style="fill:#3579b1;"/>
   </g>
   <g id="patch_13">
    <path clip-path="url(#pd511e507ab)" d="M 233.484258 337.3 
L 240.680879 337.3 
L 240.680879 159.419237 
L 233.484258 159.419237 
z
" style="fill:#3579b1;"/>
   </g>
   <g id="patch_14">
    <path clip-path="url(#pd511e507ab)" d="M 287.458916 337.3 
L 294.655537 337.3 
L 294.655537 319.524783 
L 287.458916 319.524783 
z
" style="fill:#3579b1;"/>
   </g>
   <g id="patch_15">
    <path clip-path="url(#pd511e507ab)" d="M 341.433573 337.3 
L 348.630194 337.3 
L 348.630194 174.100637 
L 341.433573 174.100637 
z
" style="fill:#3579b1;"/>
   </g>
   <g id="patch_16">
    <path clip-path="url(#pd511e507ab)" d="M 395.408231 337.3 
L 402.604852 337.3 
L 402.604852 311.984434 
L 395.408231 311.984434 
z
" style="fill:#3579b1;"/>
   </g>
   <g id="patch_17">
    <path clip-path="url(#pd511e507ab)" d="M 78.756906 337.3 
L 85.953527 337.3 
L 85.953527 325.399628 
L 78.756906 325.399628 
z
" style="fill:#3b86c4;"/>
   </g>
   <g id="patch_18">
    <path clip-path="url(#pd511e507ab)" d="M 132.731564 337.3 
L 139.928185 337.3 
L 139.928185 331.602934 
L 132.731564 331.602934 
z
" style="fill:#3b86c4;"/>
   </g>
   <g id="patch_19">
    <path clip-path="url(#pd511e507ab)" d="M 186.706221 337.3 
L 193.902842 337.3 
L 193.902842 323.83069 
L 186.706221 323.83069 
z
" style="fill:#3b86c4;"/>
   </g>
   <g id="patch_20">
    <path clip-path="url(#pd511e507ab)" d="M 240.680879 337.3 
L 247.8775 337.3 
L 247.8775 259.813477 
L 240.680879 259.813477 
z
" style="fill:#3b86c4;"/>
   </g>
   <g id="patch_21">
    <path clip-path="url(#pd511e507ab)" d="M 294.655537 337.3 
L 301.852158 337.3 
L 301.852158 330.938949 
L 294.655537 330.938949 
z
" style="fill:#3b86c4;"/>
   </g>
   <g id="patch_22">
    <path clip-path="url(#pd511e507ab)" d="M 348.630194 337.3 
L 355.826815 337.3 
L 355.826815 279.543069 
L 348.630194 279.543069 
z
" style="fill:#3b86c4;"/>
   </g>
   <g id="patch_23">
    <path clip-path="url(#pd511e507ab)" d="M 402.604852 337.3 
L 409.801473 337.3 
L 409.801473 328.178229 
L 402.604852 328.178229 
z
" style="fill:#3b86c4;"/>
   </g>
   <g id="patch_24">
    <path clip-path="url(#pd511e507ab)" d="M 85.953527 337.3 
L 93.150148 337.3 
L 93.150148 327.685897 
L 85.953527 327.685897 
z
" style="fill:#4e92ca;"/>
   </g>
   <g id="patch_25">
    <path clip-path="url(#pd511e507ab)" d="M 139.928185 337.3 
L 147.124806 337.3 
L 147.124806 334.275103 
L 139.928185 334.275103 
z
" style="fill:#4e92ca;"/>
   </g>
   <g id="patch_26">
    <path clip-path="url(#pd511e507ab)" d="M 193.902842 337.3 
L 201.099463 337.3 
L 201.099463 329.964895 
L 193.902842 329.964895 
z
" style="fill:#4e92ca;"/>
   </g>
   <g id="patch_27">
    <path clip-path="url(#pd511e507ab)" d="M 247.8775 337.3 
L 255.074121 337.3 
L 255.074121 281.108617 
L 247.8775 281.108617 
z
" style="fill:#4e92ca;"/>
   </g>
   <g id="patch_28">
    <path clip-path="url(#pd511e507ab)" d="M 301.852158 337.3 
L 309.048779 337.3 
L 309.048779 332.325031 
L 301.852158 332.325031 
z
" style="fill:#4e92ca;"/>
   </g>
   <g id="patch_29">
    <path clip-path="url(#pd511e507ab)" d="M 355.826815 337.3 
L 363.023436 337.3 
L 363.023436 293.785169 
L 355.826815 293.785169 
z
" style="fill:#4e92ca;"/>
   </g>
   <g id="patch_30">
    <path clip-path="url(#pd511e507ab)" d="M 409.801473 337.3 
L 416.998094 337.3 
L 416.998094 328.389746 
L 409.801473 328.389746 
z
" style="fill:#4e92ca;"/>
   </g>
   <g id="patch_31">
    <path clip-path="url(#pd511e507ab)" d="M 93.150148 337.3 
L 100.346769 337.3 
L 100.346769 329.790184 
L 93.150148 329.790184 
z
" style="fill:#629fd0;"/>
   </g>
   <g id="patch_32">
    <path clip-path="url(#pd511e507ab)" d="M 147.124806 337.3 
L 154.321427 337.3 
L 154.321427 332.984256 
L 147.124806 332.984256 
z
" style="fill:#629fd0;"/>
   </g>
   <g id="patch_33">
    <path clip-path="url(#pd511e507ab)" d="M 201.099463 337.3 
L 208.296084 337.3 
L 208.296084 331.639723 
L 201.099463 331.639723 
z
" style="fill:#629fd0;"/>
   </g>
   <g id="patch_34">
    <path clip-path="url(#pd511e507ab)" d="M 255.074121 337.3 
L 262.270742 337.3 
L 262.270742 289.855393 
L 255.074121 289.855393 
z
" style="fill:#629fd0;"/>
   </g>
   <g id="patch_35">
    <path clip-path="url(#pd511e507ab)" d="M 309.048779 337.3 
L 316.2454 337.3 
L 316.2454 332.991183 
L 309.048779 332.991183 
z
" style="fill:#629fd0;"/>
   </g>
   <g id="patch_36">
    <path clip-path="url(#pd511e507ab)" d="M 363.023436 337.3 
L 370.220057 337.3 
L 370.220057 299.592587 
L 363.023436 299.592587 
z
" style="fill:#629fd0;"/>
   </g>
   <g id="patch_37">
    <path clip-path="url(#pd511e507ab)" d="M 416.998094 337.3 
L 424.194715 337.3 
L 424.194715 325.959361 
L 416.998094 325.959361 
z
" style="fill:#629fd0;"/>
   </g>
   <g id="patch_38">
    <path clip-path="url(#pd511e507ab)" d="M 100.346769 337.3 
L 107.54339 337.3 
L 107.54339 330.7631 
L 100.346769 330.7631 
z
" style="fill:#76abd6;"/>
   </g>
   <g id="patch_39">
    <path clip-path="url(#pd511e507ab)" d="M 154.321427 337.3 
L 161.518048 337.3 
L 161.518048 334.651882 
L 154.321427 334.651882 
z
" style="fill:#76abd6;"/>
   </g>
   <g id="patch_40">
    <path clip-path="url(#pd511e507ab)" d="M 208.296084 337.3 
L 215.492705 337.3 
L 215.492705 334.637453 
L 208.296084 334.637453 
z
" style="fill:#76abd6;"/>
   </g>
   <g id="patch_41">
    <path clip-path="url(#pd511e507ab)" d="M 262.270742 337.3 
L 269.467363 337.3 
L 269.467363 309.967958 
L 262.270742 309.967958 
z
" style="fill:#76abd6;"/>
   </g>
   <g id="patch_42">
    <path clip-path="url(#pd511e507ab)" d="M 316.2454 337.3 
L 323.442021 337.3 
L 323.442021 332.629974 
L 316.2454 332.629974 
z
" style="fill:#76abd6;"/>
   </g>
   <g id="patch_43">
    <path clip-path="url(#pd511e507ab)" d="M 370.220057 337.3 
L 377.416678 337.3 
L 377.416678 309.81603 
L 370.220057 309.81603 
z
" style="fill:#76abd6;"/>
   </g>
   <g id="patch_44">
    <path clip-path="url(#pd511e507ab)" d="M 424.194715 337.3 
L 431.391336 337.3 
L 431.391336 329.517805 
L 424.194715 329.517805 
z
" style="fill:#76abd6;"/>
   </g>
   <g id="matplotlib.axis_1">
    <g id="xtick_1">
     <g id="line2d_1">
      <defs>
       <path d="M 0 0 
L 0 3.5 
" id="md9ab796638" style="stroke:#000000;stroke-width:0.8;"/>
      </defs>
      <g>
       <use style="stroke:#000000;stroke-width:0.8;" x="85.953527" xlink:href="#md9ab796638" y="337.3"/>
      </g>
     </g>
     <g id="text_1">
      <!-- Stroke -->
      <g transform="translate(88.712902 376.154687)rotate(-90)scale(0.1 -0.1)">
       <defs>
        <path d="M 53.515625 70.515625 
L 53.515625 60.890625 
Q 47.90625 63.578125 42.921875 64.890625 
Q 37.9375 66.21875 33.296875 66.21875 
Q 25.25 66.21875 20.875 63.09375 
Q 16.5 59.96875 16.5 54.203125 
Q 16.5 49.359375 19.40625 46.890625 
Q 22.3125 44.4375 30.421875 42.921875 
L 36.375 41.703125 
Q 47.40625 39.59375 52.65625 34.296875 
Q 57.90625 29 57.90625 20.125 
Q 57.90625 9.515625 50.796875 4.046875 
Q 43.703125 -1.421875 29.984375 -1.421875 
Q 24.8125 -1.421875 18.96875 -0.25 
Q 13.140625 0.921875 6.890625 3.21875 
L 6.890625 13.375 
Q 12.890625 10.015625 18.65625 8.296875 
Q 24.421875 6.59375 29.984375 6.59375 
Q 38.421875 6.59375 43.015625 9.90625 
Q 47.609375 13.234375 47.609375 19.390625 
Q 47.609375 24.75 44.3125 27.78125 
Q 41.015625 30.8125 33.5 32.328125 
L 27.484375 33.5 
Q 16.453125 35.6875 11.515625 40.375 
Q 6.59375 45.0625 6.59375 53.421875 
Q 6.59375 63.09375 13.40625 68.65625 
Q 20.21875 74.21875 32.171875 74.21875 
Q 37.3125 74.21875 42.625 73.28125 
Q 47.953125 72.359375 53.515625 70.515625 
z
" id="DejaVuSans-83"/>
        <path d="M 18.3125 70.21875 
L 18.3125 54.6875 
L 36.8125 54.6875 
L 36.8125 47.703125 
L 18.3125 47.703125 
L 18.3125 18.015625 
Q 18.3125 11.328125 20.140625 9.421875 
Q 21.96875 7.515625 27.59375 7.515625 
L 36.8125 7.515625 
L 36.8125 0 
L 27.59375 0 
Q 17.1875 0 13.234375 3.875 
Q 9.28125 7.765625 9.28125 18.015625 
L 9.28125 47.703125 
L 2.6875 47.703125 
L 2.6875 54.6875 
L 9.28125 54.6875 
L 9.28125 70.21875 
z
" id="DejaVuSans-116"/>
        <path d="M 41.109375 46.296875 
Q 39.59375 47.171875 37.8125 47.578125 
Q 36.03125 48 33.890625 48 
Q 26.265625 48 22.1875 43.046875 
Q 18.109375 38.09375 18.109375 28.8125 
L 18.109375 0 
L 9.078125 0 
L 9.078125 54.6875 
L 18.109375 54.6875 
L 18.109375 46.1875 
Q 20.953125 51.171875 25.484375 53.578125 
Q 30.03125 56 36.53125 56 
Q 37.453125 56 38.578125 55.875 
Q 39.703125 55.765625 41.0625 55.515625 
z
" id="DejaVuSans-114"/>
        <path d="M 30.609375 48.390625 
Q 23.390625 48.390625 19.1875 42.75 
Q 14.984375 37.109375 14.984375 27.296875 
Q 14.984375 17.484375 19.15625 11.84375 
Q 23.34375 6.203125 30.609375 6.203125 
Q 37.796875 6.203125 41.984375 11.859375 
Q 46.1875 17.53125 46.1875 27.296875 
Q 46.1875 37.015625 41.984375 42.703125 
Q 37.796875 48.390625 30.609375 48.390625 
z
M 30.609375 56 
Q 42.328125 56 49.015625 48.375 
Q 55.71875 40.765625 55.71875 27.296875 
Q 55.71875 13.875 49.015625 6.21875 
Q 42.328125 -1.421875 30.609375 -1.421875 
Q 18.84375 -1.421875 12.171875 6.21875 
Q 5.515625 13.875 5.515625 27.296875 
Q 5.515625 40.765625 12.171875 48.375 
Q 18.84375 56 30.609375 56 
z
" id="DejaVuSans-111"/>
        <path d="M 9.078125 75.984375 
L 18.109375 75.984375 
L 18.109375 31.109375 
L 44.921875 54.6875 
L 56.390625 54.6875 
L 27.390625 29.109375 
L 57.625 0 
L 45.90625 0 
L 18.109375 26.703125 
L 18.109375 0 
L 9.078125 0 
z
" id="DejaVuSans-107"/>
        <path d="M 56.203125 29.59375 
L 56.203125 25.203125 
L 14.890625 25.203125 
Q 15.484375 15.921875 20.484375 11.0625 
Q 25.484375 6.203125 34.421875 6.203125 
Q 39.59375 6.203125 44.453125 7.46875 
Q 49.3125 8.734375 54.109375 11.28125 
L 54.109375 2.78125 
Q 49.265625 0.734375 44.1875 -0.34375 
Q 39.109375 -1.421875 33.890625 -1.421875 
Q 20.796875 -1.421875 13.15625 6.1875 
Q 5.515625 13.8125 5.515625 26.8125 
Q 5.515625 40.234375 12.765625 48.109375 
Q 20.015625 56 32.328125 56 
Q 43.359375 56 49.78125 48.890625 
Q 56.203125 41.796875 56.203125 29.59375 
z
M 47.21875 32.234375 
Q 47.125 39.59375 43.09375 43.984375 
Q 39.0625 48.390625 32.421875 48.390625 
Q 24.90625 48.390625 20.390625 44.140625 
Q 15.875 39.890625 15.1875 32.171875 
z
" id="DejaVuSans-101"/>
       </defs>
       <use xlink:href="#DejaVuSans-83"/>
       <use x="63.476562" xlink:href="#DejaVuSans-116"/>
       <use x="102.685547" xlink:href="#DejaVuSans-114"/>
       <use x="141.548828" xlink:href="#DejaVuSans-111"/>
       <use x="202.730469" xlink:href="#DejaVuSans-107"/>
       <use x="257.015625" xlink:href="#DejaVuSans-101"/>
      </g>
     </g>
    </g>
    <g id="xtick_2">
     <g id="line2d_2">
      <g>
       <use style="stroke:#000000;stroke-width:0.8;" x="139.928185" xlink:href="#md9ab796638" y="337.3"/>
      </g>
     </g>
     <g id="text_2">
      <!-- DVT -->
      <g transform="translate(142.68756 364.773438)rotate(-90)scale(0.1 -0.1)">
       <defs>
        <path d="M 19.671875 64.796875 
L 19.671875 8.109375 
L 31.59375 8.109375 
Q 46.6875 8.109375 53.6875 14.9375 
Q 60.6875 21.78125 60.6875 36.53125 
Q 60.6875 51.171875 53.6875 57.984375 
Q 46.6875 64.796875 31.59375 64.796875 
z
M 9.8125 72.90625 
L 30.078125 72.90625 
Q 51.265625 72.90625 61.171875 64.09375 
Q 71.09375 55.28125 71.09375 36.53125 
Q 71.09375 17.671875 61.125 8.828125 
Q 51.171875 0 30.078125 0 
L 9.8125 0 
z
" id="DejaVuSans-68"/>
        <path d="M 28.609375 0 
L 0.78125 72.90625 
L 11.078125 72.90625 
L 34.1875 11.53125 
L 57.328125 72.90625 
L 67.578125 72.90625 
L 39.796875 0 
z
" id="DejaVuSans-86"/>
        <path d="M -0.296875 72.90625 
L 61.375 72.90625 
L 61.375 64.59375 
L 35.5 64.59375 
L 35.5 0 
L 25.59375 0 
L 25.59375 64.59375 
L -0.296875 64.59375 
z
" id="DejaVuSans-84"/>
       </defs>
       <use xlink:href="#DejaVuSans-68"/>
       <use x="75.251953" xlink:href="#DejaVuSans-86"/>
       <use x="143.660156" xlink:href="#DejaVuSans-84"/>
      </g>
     </g>
    </g>
    <g id="xtick_3">
     <g id="line2d_3">
      <g>
       <use style="stroke:#000000;stroke-width:0.8;" x="193.902842" xlink:href="#md9ab796638" y="337.3"/>
      </g>
     </g>
     <g id="text_3">
      <!-- PE -->
      <g transform="translate(196.662217 356.648438)rotate(-90)scale(0.1 -0.1)">
       <defs>
        <path d="M 19.671875 64.796875 
L 19.671875 37.40625 
L 32.078125 37.40625 
Q 38.96875 37.40625 42.71875 40.96875 
Q 46.484375 44.53125 46.484375 51.125 
Q 46.484375 57.671875 42.71875 61.234375 
Q 38.96875 64.796875 32.078125 64.796875 
z
M 9.8125 72.90625 
L 32.078125 72.90625 
Q 44.34375 72.90625 50.609375 67.359375 
Q 56.890625 61.8125 56.890625 51.125 
Q 56.890625 40.328125 50.609375 34.8125 
Q 44.34375 29.296875 32.078125 29.296875 
L 19.671875 29.296875 
L 19.671875 0 
L 9.8125 0 
z
" id="DejaVuSans-80"/>
        <path d="M 9.8125 72.90625 
L 55.90625 72.90625 
L 55.90625 64.59375 
L 19.671875 64.59375 
L 19.671875 43.015625 
L 54.390625 43.015625 
L 54.390625 34.71875 
L 19.671875 34.71875 
L 19.671875 8.296875 
L 56.78125 8.296875 
L 56.78125 0 
L 9.8125 0 
z
" id="DejaVuSans-69"/>
       </defs>
       <use xlink:href="#DejaVuSans-80"/>
       <use x="60.302734" xlink:href="#DejaVuSans-69"/>
      </g>
     </g>
    </g>
    <g id="xtick_4">
     <g id="line2d_4">
      <g>
       <use style="stroke:#000000;stroke-width:0.8;" x="247.8775" xlink:href="#md9ab796638" y="337.3"/>
      </g>
     </g>
     <g id="text_4">
      <!-- Heart failure -->
      <g transform="translate(250.636875 406.892187)rotate(-90)scale(0.1 -0.1)">
       <defs>
        <path d="M 9.8125 72.90625 
L 19.671875 72.90625 
L 19.671875 43.015625 
L 55.515625 43.015625 
L 55.515625 72.90625 
L 65.375 72.90625 
L 65.375 0 
L 55.515625 0 
L 55.515625 34.71875 
L 19.671875 34.71875 
L 19.671875 0 
L 9.8125 0 
z
" id="DejaVuSans-72"/>
        <path d="M 34.28125 27.484375 
Q 23.390625 27.484375 19.1875 25 
Q 14.984375 22.515625 14.984375 16.5 
Q 14.984375 11.71875 18.140625 8.90625 
Q 21.296875 6.109375 26.703125 6.109375 
Q 34.1875 6.109375 38.703125 11.40625 
Q 43.21875 16.703125 43.21875 25.484375 
L 43.21875 27.484375 
z
M 52.203125 31.203125 
L 52.203125 0 
L 43.21875 0 
L 43.21875 8.296875 
Q 40.140625 3.328125 35.546875 0.953125 
Q 30.953125 -1.421875 24.3125 -1.421875 
Q 15.921875 -1.421875 10.953125 3.296875 
Q 6 8.015625 6 15.921875 
Q 6 25.140625 12.171875 29.828125 
Q 18.359375 34.515625 30.609375 34.515625 
L 43.21875 34.515625 
L 43.21875 35.40625 
Q 43.21875 41.609375 39.140625 45 
Q 35.0625 48.390625 27.6875 48.390625 
Q 23 48.390625 18.546875 47.265625 
Q 14.109375 46.140625 10.015625 43.890625 
L 10.015625 52.203125 
Q 14.9375 54.109375 19.578125 55.046875 
Q 24.21875 56 28.609375 56 
Q 40.484375 56 46.34375 49.84375 
Q 52.203125 43.703125 52.203125 31.203125 
z
" id="DejaVuSans-97"/>
        <path id="DejaVuSans-32"/>
        <path d="M 37.109375 75.984375 
L 37.109375 68.5 
L 28.515625 68.5 
Q 23.6875 68.5 21.796875 66.546875 
Q 19.921875 64.59375 19.921875 59.515625 
L 19.921875 54.6875 
L 34.71875 54.6875 
L 34.71875 47.703125 
L 19.921875 47.703125 
L 19.921875 0 
L 10.890625 0 
L 10.890625 47.703125 
L 2.296875 47.703125 
L 2.296875 54.6875 
L 10.890625 54.6875 
L 10.890625 58.5 
Q 10.890625 67.625 15.140625 71.796875 
Q 19.390625 75.984375 28.609375 75.984375 
z
" id="DejaVuSans-102"/>
        <path d="M 9.421875 54.6875 
L 18.40625 54.6875 
L 18.40625 0 
L 9.421875 0 
z
M 9.421875 75.984375 
L 18.40625 75.984375 
L 18.40625 64.59375 
L 9.421875 64.59375 
z
" id="DejaVuSans-105"/>
        <path d="M 9.421875 75.984375 
L 18.40625 75.984375 
L 18.40625 0 
L 9.421875 0 
z
" id="DejaVuSans-108"/>
        <path d="M 8.5 21.578125 
L 8.5 54.6875 
L 17.484375 54.6875 
L 17.484375 21.921875 
Q 17.484375 14.15625 20.5 10.265625 
Q 23.53125 6.390625 29.59375 6.390625 
Q 36.859375 6.390625 41.078125 11.03125 
Q 45.3125 15.671875 45.3125 23.6875 
L 45.3125 54.6875 
L 54.296875 54.6875 
L 54.296875 0 
L 45.3125 0 
L 45.3125 8.40625 
Q 42.046875 3.421875 37.71875 1 
Q 33.40625 -1.421875 27.6875 -1.421875 
Q 18.265625 -1.421875 13.375 4.4375 
Q 8.5 10.296875 8.5 21.578125 
z
M 31.109375 56 
z
" id="DejaVuSans-117"/>
       </defs>
       <use xlink:href="#DejaVuSans-72"/>
       <use x="75.195312" xlink:href="#DejaVuSans-101"/>
       <use x="136.71875" xlink:href="#DejaVuSans-97"/>
       <use x="197.998047" xlink:href="#DejaVuSans-114"/>
       <use x="239.111328" xlink:href="#DejaVuSans-116"/>
       <use x="278.320312" xlink:href="#DejaVuSans-32"/>
       <use x="310.107422" xlink:href="#DejaVuSans-102"/>
       <use x="345.3125" xlink:href="#DejaVuSans-97"/>
       <use x="406.591797" xlink:href="#DejaVuSans-105"/>
       <use x="434.375" xlink:href="#DejaVuSans-108"/>
       <use x="462.158203" xlink:href="#DejaVuSans-117"/>
       <use x="525.537109" xlink:href="#DejaVuSans-114"/>
       <use x="564.400391" xlink:href="#DejaVuSans-101"/>
      </g>
     </g>
    </g>
    <g id="xtick_5">
     <g id="line2d_5">
      <g>
       <use style="stroke:#000000;stroke-width:0.8;" x="301.852158" xlink:href="#md9ab796638" y="337.3"/>
      </g>
     </g>
     <g id="text_5">
      <!-- MI -->
      <g transform="translate(304.611533 355.878125)rotate(-90)scale(0.1 -0.1)">
       <defs>
        <path d="M 9.8125 72.90625 
L 24.515625 72.90625 
L 43.109375 23.296875 
L 61.8125 72.90625 
L 76.515625 72.90625 
L 76.515625 0 
L 66.890625 0 
L 66.890625 64.015625 
L 48.09375 14.015625 
L 38.1875 14.015625 
L 19.390625 64.015625 
L 19.390625 0 
L 9.8125 0 
z
" id="DejaVuSans-77"/>
        <path d="M 9.8125 72.90625 
L 19.671875 72.90625 
L 19.671875 0 
L 9.8125 0 
z
" id="DejaVuSans-73"/>
       </defs>
       <use xlink:href="#DejaVuSans-77"/>
       <use x="86.279297" xlink:href="#DejaVuSans-73"/>
      </g>
     </g>
    </g>
    <g id="xtick_6">
     <g id="line2d_6">
      <g>
       <use style="stroke:#000000;stroke-width:0.8;" x="355.826815" xlink:href="#md9ab796638" y="337.3"/>
      </g>
     </g>
     <g id="text_6">
      <!-- AKI -->
      <g transform="translate(358.58619 360.648438)rotate(-90)scale(0.1 -0.1)">
       <defs>
        <path d="M 34.1875 63.1875 
L 20.796875 26.90625 
L 47.609375 26.90625 
z
M 28.609375 72.90625 
L 39.796875 72.90625 
L 67.578125 0 
L 57.328125 0 
L 50.6875 18.703125 
L 17.828125 18.703125 
L 11.1875 0 
L 0.78125 0 
z
" id="DejaVuSans-65"/>
        <path d="M 9.8125 72.90625 
L 19.671875 72.90625 
L 19.671875 42.09375 
L 52.390625 72.90625 
L 65.09375 72.90625 
L 28.90625 38.921875 
L 67.671875 0 
L 54.6875 0 
L 19.671875 35.109375 
L 19.671875 0 
L 9.8125 0 
z
" id="DejaVuSans-75"/>
       </defs>
       <use xlink:href="#DejaVuSans-65"/>
       <use x="68.408203" xlink:href="#DejaVuSans-75"/>
       <use x="133.984375" xlink:href="#DejaVuSans-73"/>
      </g>
     </g>
    </g>
    <g id="xtick_7">
     <g id="line2d_7">
      <g>
       <use style="stroke:#000000;stroke-width:0.8;" x="409.801473" xlink:href="#md9ab796638" y="337.3"/>
      </g>
     </g>
     <g id="text_7">
      <!-- T2DM -->
      <g transform="translate(412.560848 373.098437)rotate(-90)scale(0.1 -0.1)">
       <defs>
        <path d="M 19.1875 8.296875 
L 53.609375 8.296875 
L 53.609375 0 
L 7.328125 0 
L 7.328125 8.296875 
Q 12.9375 14.109375 22.625 23.890625 
Q 32.328125 33.6875 34.8125 36.53125 
Q 39.546875 41.84375 41.421875 45.53125 
Q 43.3125 49.21875 43.3125 52.78125 
Q 43.3125 58.59375 39.234375 62.25 
Q 35.15625 65.921875 28.609375 65.921875 
Q 23.96875 65.921875 18.8125 64.3125 
Q 13.671875 62.703125 7.8125 59.421875 
L 7.8125 69.390625 
Q 13.765625 71.78125 18.9375 73 
Q 24.125 74.21875 28.421875 74.21875 
Q 39.75 74.21875 46.484375 68.546875 
Q 53.21875 62.890625 53.21875 53.421875 
Q 53.21875 48.921875 51.53125 44.890625 
Q 49.859375 40.875 45.40625 35.40625 
Q 44.1875 33.984375 37.640625 27.21875 
Q 31.109375 20.453125 19.1875 8.296875 
z
" id="DejaVuSans-50"/>
       </defs>
       <use xlink:href="#DejaVuSans-84"/>
       <use x="61.083984" xlink:href="#DejaVuSans-50"/>
       <use x="124.707031" xlink:href="#DejaVuSans-68"/>
       <use x="201.708984" xlink:href="#DejaVuSans-77"/>
      </g>
     </g>
    </g>
    <g id="text_8">
     <!-- outcome -->
     <g transform="translate(225.93375 418.490625)scale(0.1 -0.1)">
      <defs>
       <path d="M 48.78125 52.59375 
L 48.78125 44.1875 
Q 44.96875 46.296875 41.140625 47.34375 
Q 37.3125 48.390625 33.40625 48.390625 
Q 24.65625 48.390625 19.8125 42.84375 
Q 14.984375 37.3125 14.984375 27.296875 
Q 14.984375 17.28125 19.8125 11.734375 
Q 24.65625 6.203125 33.40625 6.203125 
Q 37.3125 6.203125 41.140625 7.25 
Q 44.96875 8.296875 48.78125 10.40625 
L 48.78125 2.09375 
Q 45.015625 0.34375 40.984375 -0.53125 
Q 36.96875 -1.421875 32.421875 -1.421875 
Q 20.0625 -1.421875 12.78125 6.34375 
Q 5.515625 14.109375 5.515625 27.296875 
Q 5.515625 40.671875 12.859375 48.328125 
Q 20.21875 56 33.015625 56 
Q 37.15625 56 41.109375 55.140625 
Q 45.0625 54.296875 48.78125 52.59375 
z
" id="DejaVuSans-99"/>
       <path d="M 52 44.1875 
Q 55.375 50.25 60.0625 53.125 
Q 64.75 56 71.09375 56 
Q 79.640625 56 84.28125 50.015625 
Q 88.921875 44.046875 88.921875 33.015625 
L 88.921875 0 
L 79.890625 0 
L 79.890625 32.71875 
Q 79.890625 40.578125 77.09375 44.375 
Q 74.3125 48.1875 68.609375 48.1875 
Q 61.625 48.1875 57.5625 43.546875 
Q 53.515625 38.921875 53.515625 30.90625 
L 53.515625 0 
L 44.484375 0 
L 44.484375 32.71875 
Q 44.484375 40.625 41.703125 44.40625 
Q 38.921875 48.1875 33.109375 48.1875 
Q 26.21875 48.1875 22.15625 43.53125 
Q 18.109375 38.875 18.109375 30.90625 
L 18.109375 0 
L 9.078125 0 
L 9.078125 54.6875 
L 18.109375 54.6875 
L 18.109375 46.1875 
Q 21.1875 51.21875 25.484375 53.609375 
Q 29.78125 56 35.6875 56 
Q 41.65625 56 45.828125 52.96875 
Q 50 49.953125 52 44.1875 
z
" id="DejaVuSans-109"/>
      </defs>
      <use xlink:href="#DejaVuSans-111"/>
      <use x="61.181641" xlink:href="#DejaVuSans-117"/>
      <use x="124.560547" xlink:href="#DejaVuSans-116"/>
      <use x="163.769531" xlink:href="#DejaVuSans-99"/>
      <use x="218.75" xlink:href="#DejaVuSans-111"/>
      <use x="279.931641" xlink:href="#DejaVuSans-109"/>
      <use x="377.34375" xlink:href="#DejaVuSans-101"/>
     </g>
    </g>
   </g>
   <g id="matplotlib.axis_2">
    <g id="ytick_1">
     <g id="line2d_8">
      <path clip-path="url(#pd511e507ab)" d="M 50.87 337.3 
L 444.885 337.3 
" style="fill:none;stroke:#666666;stroke-linecap:square;stroke-opacity:0.1;stroke-width:0.8;"/>
     </g>
     <g id="line2d_9">
      <defs>
       <path d="M 0 0 
L -3.5 0 
" id="m8dd9acb34c" style="stroke:#000000;stroke-width:0.8;"/>
      </defs>
      <g>
       <use style="stroke:#000000;stroke-width:0.8;" x="50.87" xlink:href="#m8dd9acb34c" y="337.3"/>
      </g>
     </g>
     <g id="text_9">
      <!-- 0 -->
      <g transform="translate(37.5075 341.099219)scale(0.1 -0.1)">
       <defs>
        <path d="M 31.78125 66.40625 
Q 24.171875 66.40625 20.328125 58.90625 
Q 16.5 51.421875 16.5 36.375 
Q 16.5 21.390625 20.328125 13.890625 
Q 24.171875 6.390625 31.78125 6.390625 
Q 39.453125 6.390625 43.28125 13.890625 
Q 47.125 21.390625 47.125 36.375 
Q 47.125 51.421875 43.28125 58.90625 
Q 39.453125 66.40625 31.78125 66.40625 
z
M 31.78125 74.21875 
Q 44.046875 74.21875 50.515625 64.515625 
Q 56.984375 54.828125 56.984375 36.375 
Q 56.984375 17.96875 50.515625 8.265625 
Q 44.046875 -1.421875 31.78125 -1.421875 
Q 19.53125 -1.421875 13.0625 8.265625 
Q 6.59375 17.96875 6.59375 36.375 
Q 6.59375 54.828125 13.0625 64.515625 
Q 19.53125 74.21875 31.78125 74.21875 
z
" id="DejaVuSans-48"/>
       </defs>
       <use xlink:href="#DejaVuSans-48"/>
      </g>
     </g>
    </g>
    <g id="ytick_2">
     <g id="line2d_10">
      <path clip-path="url(#pd511e507ab)" d="M 50.87 273.138422 
L 444.885 273.138422 
" style="fill:none;stroke:#666666;stroke-linecap:square;stroke-opacity:0.1;stroke-width:0.8;"/>
     </g>
     <g id="line2d_11">
      <g>
       <use style="stroke:#000000;stroke-width:0.8;" x="50.87" xlink:href="#m8dd9acb34c" y="273.138422"/>
      </g>
     </g>
     <g id="text_10">
      <!-- 200 -->
      <g transform="translate(24.7825 276.937641)scale(0.1 -0.1)">
       <use xlink:href="#DejaVuSans-50"/>
       <use x="63.623047" xlink:href="#DejaVuSans-48"/>
       <use x="127.246094" xlink:href="#DejaVuSans-48"/>
      </g>
     </g>
    </g>
    <g id="ytick_3">
     <g id="line2d_12">
      <path clip-path="url(#pd511e507ab)" d="M 50.87 208.976844 
L 444.885 208.976844 
" style="fill:none;stroke:#666666;stroke-linecap:square;stroke-opacity:0.1;stroke-width:0.8;"/>
     </g>
     <g id="line2d_13">
      <g>
       <use style="stroke:#000000;stroke-width:0.8;" x="50.87" xlink:href="#m8dd9acb34c" y="208.976844"/>
      </g>
     </g>
     <g id="text_11">
      <!-- 400 -->
      <g transform="translate(24.7825 212.776063)scale(0.1 -0.1)">
       <defs>
        <path d="M 37.796875 64.3125 
L 12.890625 25.390625 
L 37.796875 25.390625 
z
M 35.203125 72.90625 
L 47.609375 72.90625 
L 47.609375 25.390625 
L 58.015625 25.390625 
L 58.015625 17.1875 
L 47.609375 17.1875 
L 47.609375 0 
L 37.796875 0 
L 37.796875 17.1875 
L 4.890625 17.1875 
L 4.890625 26.703125 
z
" id="DejaVuSans-52"/>
       </defs>
       <use xlink:href="#DejaVuSans-52"/>
       <use x="63.623047" xlink:href="#DejaVuSans-48"/>
       <use x="127.246094" xlink:href="#DejaVuSans-48"/>
      </g>
     </g>
    </g>
    <g id="ytick_4">
     <g id="line2d_14">
      <path clip-path="url(#pd511e507ab)" d="M 50.87 144.815266 
L 444.885 144.815266 
" style="fill:none;stroke:#666666;stroke-linecap:square;stroke-opacity:0.1;stroke-width:0.8;"/>
     </g>
     <g id="line2d_15">
      <g>
       <use style="stroke:#000000;stroke-width:0.8;" x="50.87" xlink:href="#m8dd9acb34c" y="144.815266"/>
      </g>
     </g>
     <g id="text_12">
      <!-- 600 -->
      <g transform="translate(24.7825 148.614485)scale(0.1 -0.1)">
       <defs>
        <path d="M 33.015625 40.375 
Q 26.375 40.375 22.484375 35.828125 
Q 18.609375 31.296875 18.609375 23.390625 
Q 18.609375 15.53125 22.484375 10.953125 
Q 26.375 6.390625 33.015625 6.390625 
Q 39.65625 6.390625 43.53125 10.953125 
Q 47.40625 15.53125 47.40625 23.390625 
Q 47.40625 31.296875 43.53125 35.828125 
Q 39.65625 40.375 33.015625 40.375 
z
M 52.59375 71.296875 
L 52.59375 62.3125 
Q 48.875 64.0625 45.09375 64.984375 
Q 41.3125 65.921875 37.59375 65.921875 
Q 27.828125 65.921875 22.671875 59.328125 
Q 17.53125 52.734375 16.796875 39.40625 
Q 19.671875 43.65625 24.015625 45.921875 
Q 28.375 48.1875 33.59375 48.1875 
Q 44.578125 48.1875 50.953125 41.515625 
Q 57.328125 34.859375 57.328125 23.390625 
Q 57.328125 12.15625 50.6875 5.359375 
Q 44.046875 -1.421875 33.015625 -1.421875 
Q 20.359375 -1.421875 13.671875 8.265625 
Q 6.984375 17.96875 6.984375 36.375 
Q 6.984375 53.65625 15.1875 63.9375 
Q 23.390625 74.21875 37.203125 74.21875 
Q 40.921875 74.21875 44.703125 73.484375 
Q 48.484375 72.75 52.59375 71.296875 
z
" id="DejaVuSans-54"/>
       </defs>
       <use xlink:href="#DejaVuSans-54"/>
       <use x="63.623047" xlink:href="#DejaVuSans-48"/>
       <use x="127.246094" xlink:href="#DejaVuSans-48"/>
      </g>
     </g>
    </g>
    <g id="ytick_5">
     <g id="line2d_16">
      <path clip-path="url(#pd511e507ab)" d="M 50.87 80.653689 
L 444.885 80.653689 
" style="fill:none;stroke:#666666;stroke-linecap:square;stroke-opacity:0.1;stroke-width:0.8;"/>
     </g>
     <g id="line2d_17">
      <g>
       <use style="stroke:#000000;stroke-width:0.8;" x="50.87" xlink:href="#m8dd9acb34c" y="80.653689"/>
      </g>
     </g>
     <g id="text_13">
      <!-- 800 -->
      <g transform="translate(24.7825 84.452907)scale(0.1 -0.1)">
       <defs>
        <path d="M 31.78125 34.625 
Q 24.75 34.625 20.71875 30.859375 
Q 16.703125 27.09375 16.703125 20.515625 
Q 16.703125 13.921875 20.71875 10.15625 
Q 24.75 6.390625 31.78125 6.390625 
Q 38.8125 6.390625 42.859375 10.171875 
Q 46.921875 13.96875 46.921875 20.515625 
Q 46.921875 27.09375 42.890625 30.859375 
Q 38.875 34.625 31.78125 34.625 
z
M 21.921875 38.8125 
Q 15.578125 40.375 12.03125 44.71875 
Q 8.5 49.078125 8.5 55.328125 
Q 8.5 64.0625 14.71875 69.140625 
Q 20.953125 74.21875 31.78125 74.21875 
Q 42.671875 74.21875 48.875 69.140625 
Q 55.078125 64.0625 55.078125 55.328125 
Q 55.078125 49.078125 51.53125 44.71875 
Q 48 40.375 41.703125 38.8125 
Q 48.828125 37.15625 52.796875 32.3125 
Q 56.78125 27.484375 56.78125 20.515625 
Q 56.78125 9.90625 50.3125 4.234375 
Q 43.84375 -1.421875 31.78125 -1.421875 
Q 19.734375 -1.421875 13.25 4.234375 
Q 6.78125 9.90625 6.78125 20.515625 
Q 6.78125 27.484375 10.78125 32.3125 
Q 14.796875 37.15625 21.921875 38.8125 
z
M 18.3125 54.390625 
Q 18.3125 48.734375 21.84375 45.5625 
Q 25.390625 42.390625 31.78125 42.390625 
Q 38.140625 42.390625 41.71875 45.5625 
Q 45.3125 48.734375 45.3125 54.390625 
Q 45.3125 60.0625 41.71875 63.234375 
Q 38.140625 66.40625 31.78125 66.40625 
Q 25.390625 66.40625 21.84375 63.234375 
Q 18.3125 60.0625 18.3125 54.390625 
z
" id="DejaVuSans-56"/>
       </defs>
       <use xlink:href="#DejaVuSans-56"/>
       <use x="63.623047" xlink:href="#DejaVuSans-48"/>
       <use x="127.246094" xlink:href="#DejaVuSans-48"/>
      </g>
     </g>
    </g>
    <g id="text_14">
     <!-- Rate of each outcome (per 1,000 person years) -->
     <g transform="translate(18.702813 300.918906)rotate(-90)scale(0.1 -0.1)">
      <defs>
       <path d="M 44.390625 34.1875 
Q 47.5625 33.109375 50.5625 29.59375 
Q 53.5625 26.078125 56.59375 19.921875 
L 66.609375 0 
L 56 0 
L 46.6875 18.703125 
Q 43.0625 26.03125 39.671875 28.421875 
Q 36.28125 30.8125 30.421875 30.8125 
L 19.671875 30.8125 
L 19.671875 0 
L 9.8125 0 
L 9.8125 72.90625 
L 32.078125 72.90625 
Q 44.578125 72.90625 50.734375 67.671875 
Q 56.890625 62.453125 56.890625 51.90625 
Q 56.890625 45.015625 53.6875 40.46875 
Q 50.484375 35.9375 44.390625 34.1875 
z
M 19.671875 64.796875 
L 19.671875 38.921875 
L 32.078125 38.921875 
Q 39.203125 38.921875 42.84375 42.21875 
Q 46.484375 45.515625 46.484375 51.90625 
Q 46.484375 58.296875 42.84375 61.546875 
Q 39.203125 64.796875 32.078125 64.796875 
z
" id="DejaVuSans-82"/>
       <path d="M 54.890625 33.015625 
L 54.890625 0 
L 45.90625 0 
L 45.90625 32.71875 
Q 45.90625 40.484375 42.875 44.328125 
Q 39.84375 48.1875 33.796875 48.1875 
Q 26.515625 48.1875 22.3125 43.546875 
Q 18.109375 38.921875 18.109375 30.90625 
L 18.109375 0 
L 9.078125 0 
L 9.078125 75.984375 
L 18.109375 75.984375 
L 18.109375 46.1875 
Q 21.34375 51.125 25.703125 53.5625 
Q 30.078125 56 35.796875 56 
Q 45.21875 56 50.046875 50.171875 
Q 54.890625 44.34375 54.890625 33.015625 
z
" id="DejaVuSans-104"/>
       <path d="M 31 75.875 
Q 24.46875 64.65625 21.28125 53.65625 
Q 18.109375 42.671875 18.109375 31.390625 
Q 18.109375 20.125 21.3125 9.0625 
Q 24.515625 -2 31 -13.1875 
L 23.1875 -13.1875 
Q 15.875 -1.703125 12.234375 9.375 
Q 8.59375 20.453125 8.59375 31.390625 
Q 8.59375 42.28125 12.203125 53.3125 
Q 15.828125 64.359375 23.1875 75.875 
z
" id="DejaVuSans-40"/>
       <path d="M 18.109375 8.203125 
L 18.109375 -20.796875 
L 9.078125 -20.796875 
L 9.078125 54.6875 
L 18.109375 54.6875 
L 18.109375 46.390625 
Q 20.953125 51.265625 25.265625 53.625 
Q 29.59375 56 35.59375 56 
Q 45.5625 56 51.78125 48.09375 
Q 58.015625 40.1875 58.015625 27.296875 
Q 58.015625 14.40625 51.78125 6.484375 
Q 45.5625 -1.421875 35.59375 -1.421875 
Q 29.59375 -1.421875 25.265625 0.953125 
Q 20.953125 3.328125 18.109375 8.203125 
z
M 48.6875 27.296875 
Q 48.6875 37.203125 44.609375 42.84375 
Q 40.53125 48.484375 33.40625 48.484375 
Q 26.265625 48.484375 22.1875 42.84375 
Q 18.109375 37.203125 18.109375 27.296875 
Q 18.109375 17.390625 22.1875 11.75 
Q 26.265625 6.109375 33.40625 6.109375 
Q 40.53125 6.109375 44.609375 11.75 
Q 48.6875 17.390625 48.6875 27.296875 
z
" id="DejaVuSans-112"/>
       <path d="M 12.40625 8.296875 
L 28.515625 8.296875 
L 28.515625 63.921875 
L 10.984375 60.40625 
L 10.984375 69.390625 
L 28.421875 72.90625 
L 38.28125 72.90625 
L 38.28125 8.296875 
L 54.390625 8.296875 
L 54.390625 0 
L 12.40625 0 
z
" id="DejaVuSans-49"/>
       <path d="M 11.71875 12.40625 
L 22.015625 12.40625 
L 22.015625 4 
L 14.015625 -11.625 
L 7.71875 -11.625 
L 11.71875 4 
z
" id="DejaVuSans-44"/>
       <path d="M 44.28125 53.078125 
L 44.28125 44.578125 
Q 40.484375 46.53125 36.375 47.5 
Q 32.28125 48.484375 27.875 48.484375 
Q 21.1875 48.484375 17.84375 46.4375 
Q 14.5 44.390625 14.5 40.28125 
Q 14.5 37.15625 16.890625 35.375 
Q 19.28125 33.59375 26.515625 31.984375 
L 29.59375 31.296875 
Q 39.15625 29.25 43.1875 25.515625 
Q 47.21875 21.78125 47.21875 15.09375 
Q 47.21875 7.46875 41.1875 3.015625 
Q 35.15625 -1.421875 24.609375 -1.421875 
Q 20.21875 -1.421875 15.453125 -0.5625 
Q 10.6875 0.296875 5.421875 2 
L 5.421875 11.28125 
Q 10.40625 8.6875 15.234375 7.390625 
Q 20.0625 6.109375 24.8125 6.109375 
Q 31.15625 6.109375 34.5625 8.28125 
Q 37.984375 10.453125 37.984375 14.40625 
Q 37.984375 18.0625 35.515625 20.015625 
Q 33.0625 21.96875 24.703125 23.78125 
L 21.578125 24.515625 
Q 13.234375 26.265625 9.515625 29.90625 
Q 5.8125 33.546875 5.8125 39.890625 
Q 5.8125 47.609375 11.28125 51.796875 
Q 16.75 56 26.8125 56 
Q 31.78125 56 36.171875 55.265625 
Q 40.578125 54.546875 44.28125 53.078125 
z
" id="DejaVuSans-115"/>
       <path d="M 54.890625 33.015625 
L 54.890625 0 
L 45.90625 0 
L 45.90625 32.71875 
Q 45.90625 40.484375 42.875 44.328125 
Q 39.84375 48.1875 33.796875 48.1875 
Q 26.515625 48.1875 22.3125 43.546875 
Q 18.109375 38.921875 18.109375 30.90625 
L 18.109375 0 
L 9.078125 0 
L 9.078125 54.6875 
L 18.109375 54.6875 
L 18.109375 46.1875 
Q 21.34375 51.125 25.703125 53.5625 
Q 30.078125 56 35.796875 56 
Q 45.21875 56 50.046875 50.171875 
Q 54.890625 44.34375 54.890625 33.015625 
z
" id="DejaVuSans-110"/>
       <path d="M 32.171875 -5.078125 
Q 28.375 -14.84375 24.75 -17.8125 
Q 21.140625 -20.796875 15.09375 -20.796875 
L 7.90625 -20.796875 
L 7.90625 -13.28125 
L 13.1875 -13.28125 
Q 16.890625 -13.28125 18.9375 -11.515625 
Q 21 -9.765625 23.484375 -3.21875 
L 25.09375 0.875 
L 2.984375 54.6875 
L 12.5 54.6875 
L 29.59375 11.921875 
L 46.6875 54.6875 
L 56.203125 54.6875 
z
" id="DejaVuSans-121"/>
       <path d="M 8.015625 75.875 
L 15.828125 75.875 
Q 23.140625 64.359375 26.78125 53.3125 
Q 30.421875 42.28125 30.421875 31.390625 
Q 30.421875 20.453125 26.78125 9.375 
Q 23.140625 -1.703125 15.828125 -13.1875 
L 8.015625 -13.1875 
Q 14.5 -2 17.703125 9.0625 
Q 20.90625 20.125 20.90625 31.390625 
Q 20.90625 42.671875 17.703125 53.65625 
Q 14.5 64.65625 8.015625 75.875 
z
" id="DejaVuSans-41"/>
      </defs>
      <use xlink:href="#DejaVuSans-82"/>
      <use x="67.232422" xlink:href="#DejaVuSans-97"/>
      <use x="128.511719" xlink:href="#DejaVuSans-116"/>
      <use x="167.720703" xlink:href="#DejaVuSans-101"/>
      <use x="229.244141" xlink:href="#DejaVuSans-32"/>
      <use x="261.03125" xlink:href="#DejaVuSans-111"/>
      <use x="322.212891" xlink:href="#DejaVuSans-102"/>
      <use x="357.417969" xlink:href="#DejaVuSans-32"/>
      <use x="389.205078" xlink:href="#DejaVuSans-101"/>
      <use x="450.728516" xlink:href="#DejaVuSans-97"/>
      <use x="512.007812" xlink:href="#DejaVuSans-99"/>
      <use x="566.988281" xlink:href="#DejaVuSans-104"/>
      <use x="630.367188" xlink:href="#DejaVuSans-32"/>
      <use x="662.154297" xlink:href="#DejaVuSans-111"/>
      <use x="723.335938" xlink:href="#DejaVuSans-117"/>
      <use x="786.714844" xlink:href="#DejaVuSans-116"/>
      <use x="825.923828" xlink:href="#DejaVuSans-99"/>
      <use x="880.904297" xlink:href="#DejaVuSans-111"/>
      <use x="942.085938" xlink:href="#DejaVuSans-109"/>
      <use x="1039.498047" xlink:href="#DejaVuSans-101"/>
      <use x="1101.021484" xlink:href="#DejaVuSans-32"/>
      <use x="1132.808594" xlink:href="#DejaVuSans-40"/>
      <use x="1171.822266" xlink:href="#DejaVuSans-112"/>
      <use x="1235.298828" xlink:href="#DejaVuSans-101"/>
      <use x="1296.822266" xlink:href="#DejaVuSans-114"/>
      <use x="1337.935547" xlink:href="#DejaVuSans-32"/>
      <use x="1369.722656" xlink:href="#DejaVuSans-49"/>
      <use x="1433.345703" xlink:href="#DejaVuSans-44"/>
      <use x="1465.132812" xlink:href="#DejaVuSans-48"/>
      <use x="1528.755859" xlink:href="#DejaVuSans-48"/>
      <use x="1592.378906" xlink:href="#DejaVuSans-48"/>
      <use x="1656.001953" xlink:href="#DejaVuSans-32"/>
      <use x="1687.789062" xlink:href="#DejaVuSans-112"/>
      <use x="1751.265625" xlink:href="#DejaVuSans-101"/>
      <use x="1812.789062" xlink:href="#DejaVuSans-114"/>
      <use x="1853.902344" xlink:href="#DejaVuSans-115"/>
      <use x="1906.001953" xlink:href="#DejaVuSans-111"/>
      <use x="1967.183594" xlink:href="#DejaVuSans-110"/>
      <use x="2030.5625" xlink:href="#DejaVuSans-32"/>
      <use x="2062.349609" xlink:href="#DejaVuSans-121"/>
      <use x="2121.529297" xlink:href="#DejaVuSans-101"/>
      <use x="2183.052734" xlink:href="#DejaVuSans-97"/>
      <use x="2244.332031" xlink:href="#DejaVuSans-114"/>
      <use x="2285.445312" xlink:href="#DejaVuSans-115"/>
      <use x="2337.544922" xlink:href="#DejaVuSans-41"/>
     </g>
    </g>
   </g>
   <g id="LineCollection_1">
    <path clip-path="url(#pd511e507ab)" d="M 67.961975 327.694971 
L 67.961975 318.958969 
" style="fill:none;stroke:#000000;stroke-width:1.5;"/>
    <path clip-path="url(#pd511e507ab)" d="M 121.936632 334.244134 
L 121.936632 329.035935 
" style="fill:none;stroke:#000000;stroke-width:1.5;"/>
    <path clip-path="url(#pd511e507ab)" d="M 175.91129 328.684118 
L 175.91129 319.388746 
" style="fill:none;stroke:#000000;stroke-width:1.5;"/>
    <path clip-path="url(#pd511e507ab)" d="M 229.885947 272.674117 
L 229.885947 252.773925 
" style="fill:none;stroke:#000000;stroke-width:1.5;"/>
    <path clip-path="url(#pd511e507ab)" d="M 283.860605 332.599023 
L 283.860605 326.334901 
" style="fill:none;stroke:#000000;stroke-width:1.5;"/>
    <path clip-path="url(#pd511e507ab)" d="M 337.835263 282.346394 
L 337.835263 263.116461 
" style="fill:none;stroke:#000000;stroke-width:1.5;"/>
    <path clip-path="url(#pd511e507ab)" d="M 391.80992 329.211608 
L 391.80992 320.142416 
" style="fill:none;stroke:#000000;stroke-width:1.5;"/>
   </g>
   <g id="LineCollection_2">
    <path clip-path="url(#pd511e507ab)" d="M 75.158596 303.911027 
L 75.158596 300.906439 
" style="fill:none;stroke:#000000;stroke-width:1.5;"/>
    <path clip-path="url(#pd511e507ab)" d="M 129.133253 325.866486 
L 129.133253 323.930581 
" style="fill:none;stroke:#000000;stroke-width:1.5;"/>
    <path clip-path="url(#pd511e507ab)" d="M 183.107911 298.86857 
L 183.107911 296.922117 
" style="fill:none;stroke:#000000;stroke-width:1.5;"/>
    <path clip-path="url(#pd511e507ab)" d="M 237.082568 162.381068 
L 237.082568 156.097441 
" style="fill:none;stroke:#000000;stroke-width:1.5;"/>
    <path clip-path="url(#pd511e507ab)" d="M 291.057226 320.627031 
L 291.057226 318.082 
" style="fill:none;stroke:#000000;stroke-width:1.5;"/>
    <path clip-path="url(#pd511e507ab)" d="M 345.031884 177.078932 
L 345.031884 170.760376 
" style="fill:none;stroke:#000000;stroke-width:1.5;"/>
    <path clip-path="url(#pd511e507ab)" d="M 399.006541 313.724187 
L 399.006541 309.743767 
" style="fill:none;stroke:#000000;stroke-width:1.5;"/>
   </g>
   <g id="LineCollection_3">
    <path clip-path="url(#pd511e507ab)" d="M 82.355217 327.869353 
L 82.355217 322.283125 
" style="fill:none;stroke:#000000;stroke-width:1.5;"/>
    <path clip-path="url(#pd511e507ab)" d="M 136.329874 333.229278 
L 136.329874 329.326828 
" style="fill:none;stroke:#000000;stroke-width:1.5;"/>
    <path clip-path="url(#pd511e507ab)" d="M 190.304532 326.481225 
L 190.304532 320.530792 
" style="fill:none;stroke:#000000;stroke-width:1.5;"/>
    <path clip-path="url(#pd511e507ab)" d="M 244.279189 266.681159 
L 244.279189 252.277919 
" style="fill:none;stroke:#000000;stroke-width:1.5;"/>
    <path clip-path="url(#pd511e507ab)" d="M 298.253847 332.671442 
L 298.253847 328.557976 
" style="fill:none;stroke:#000000;stroke-width:1.5;"/>
    <path clip-path="url(#pd511e507ab)" d="M 352.228505 285.467237 
L 352.228505 272.941805 
" style="fill:none;stroke:#000000;stroke-width:1.5;"/>
    <path clip-path="url(#pd511e507ab)" d="M 406.203162 330.690896 
L 406.203162 324.710285 
" style="fill:none;stroke:#000000;stroke-width:1.5;"/>
   </g>
   <g id="LineCollection_4">
    <path clip-path="url(#pd511e507ab)" d="M 89.551838 329.936659 
L 89.551838 324.747142 
" style="fill:none;stroke:#000000;stroke-width:1.5;"/>
    <path clip-path="url(#pd511e507ab)" d="M 143.526495 335.419541 
L 143.526495 332.434166 
" style="fill:none;stroke:#000000;stroke-width:1.5;"/>
    <path clip-path="url(#pd511e507ab)" d="M 197.501153 331.89904 
L 197.501153 327.338111 
" style="fill:none;stroke:#000000;stroke-width:1.5;"/>
    <path clip-path="url(#pd511e507ab)" d="M 251.475811 287.111149 
L 251.475811 274.388197 
" style="fill:none;stroke:#000000;stroke-width:1.5;"/>
    <path clip-path="url(#pd511e507ab)" d="M 305.450468 333.864987 
L 305.450468 330.094696 
" style="fill:none;stroke:#000000;stroke-width:1.5;"/>
    <path clip-path="url(#pd511e507ab)" d="M 359.425126 299.04992 
L 359.425126 287.795775 
" style="fill:none;stroke:#000000;stroke-width:1.5;"/>
    <path clip-path="url(#pd511e507ab)" d="M 413.399783 330.933361 
L 413.399783 324.8299 
" style="fill:none;stroke:#000000;stroke-width:1.5;"/>
   </g>
   <g id="LineCollection_5">
    <path clip-path="url(#pd511e507ab)" d="M 96.748459 331.791385 
L 96.748459 327.061978 
" style="fill:none;stroke:#000000;stroke-width:1.5;"/>
    <path clip-path="url(#pd511e507ab)" d="M 150.723116 334.432074 
L 150.723116 330.805534 
" style="fill:none;stroke:#000000;stroke-width:1.5;"/>
    <path clip-path="url(#pd511e507ab)" d="M 204.697774 333.342415 
L 204.697774 329.204474 
" style="fill:none;stroke:#000000;stroke-width:1.5;"/>
    <path clip-path="url(#pd511e507ab)" d="M 258.672432 295.504723 
L 258.672432 283.442456 
" style="fill:none;stroke:#000000;stroke-width:1.5;"/>
    <path clip-path="url(#pd511e507ab)" d="M 312.647089 334.436678 
L 312.647089 330.815958 
" style="fill:none;stroke:#000000;stroke-width:1.5;"/>
    <path clip-path="url(#pd511e507ab)" d="M 366.621747 304.602775 
L 366.621747 293.814696 
" style="fill:none;stroke:#000000;stroke-width:1.5;"/>
    <path clip-path="url(#pd511e507ab)" d="M 420.596404 328.949698 
L 420.596404 321.898151 
" style="fill:none;stroke:#000000;stroke-width:1.5;"/>
   </g>
   <g id="LineCollection_6">
    <path clip-path="url(#pd511e507ab)" d="M 103.94508 331.931934 
L 103.94508 329.485238 
" style="fill:none;stroke:#000000;stroke-width:1.5;"/>
    <path clip-path="url(#pd511e507ab)" d="M 157.919737 335.365738 
L 157.919737 333.828951 
" style="fill:none;stroke:#000000;stroke-width:1.5;"/>
    <path clip-path="url(#pd511e507ab)" d="M 211.894395 335.776576 
L 211.894395 333.388827 
" style="fill:none;stroke:#000000;stroke-width:1.5;"/>
    <path clip-path="url(#pd511e507ab)" d="M 265.869053 312.820128 
L 265.869053 307.00193 
" style="fill:none;stroke:#000000;stroke-width:1.5;"/>
    <path clip-path="url(#pd511e507ab)" d="M 319.84371 333.484416 
L 319.84371 331.666643 
" style="fill:none;stroke:#000000;stroke-width:1.5;"/>
    <path clip-path="url(#pd511e507ab)" d="M 373.818368 312.477948 
L 373.818368 307.039134 
" style="fill:none;stroke:#000000;stroke-width:1.5;"/>
    <path clip-path="url(#pd511e507ab)" d="M 427.793025 330.839896 
L 427.793025 328.035324 
" style="fill:none;stroke:#000000;stroke-width:1.5;"/>
   </g>
   <g id="patch_45">
    <path d="M 50.87 337.3 
L 50.87 26.88 
" style="fill:none;stroke:#000000;stroke-linecap:square;stroke-linejoin:miter;stroke-width:0.8;"/>
   </g>
   <g id="patch_46">
    <path d="M 444.885 337.3 
L 444.885 26.88 
" style="fill:none;stroke:#000000;stroke-linecap:square;stroke-linejoin:miter;stroke-width:0.8;"/>
   </g>
   <g id="patch_47">
    <path d="M 50.87 337.3 
L 444.885 337.3 
" style="fill:none;stroke:#000000;stroke-linecap:square;stroke-linejoin:miter;stroke-width:0.8;"/>
   </g>
   <g id="patch_48">
    <path d="M 50.87 26.88 
L 444.885 26.88 
" style="fill:none;stroke:#000000;stroke-linecap:square;stroke-linejoin:miter;stroke-width:0.8;"/>
   </g>
   <g id="text_15">
    <!-- a) Patients discharged after hospitalisation with COVID-19 -->
    <g transform="translate(50.87 20.88)scale(0.12 -0.12)">
     <defs>
      <path d="M 45.40625 46.390625 
L 45.40625 75.984375 
L 54.390625 75.984375 
L 54.390625 0 
L 45.40625 0 
L 45.40625 8.203125 
Q 42.578125 3.328125 38.25 0.953125 
Q 33.9375 -1.421875 27.875 -1.421875 
Q 17.96875 -1.421875 11.734375 6.484375 
Q 5.515625 14.40625 5.515625 27.296875 
Q 5.515625 40.1875 11.734375 48.09375 
Q 17.96875 56 27.875 56 
Q 33.9375 56 38.25 53.625 
Q 42.578125 51.265625 45.40625 46.390625 
z
M 14.796875 27.296875 
Q 14.796875 17.390625 18.875 11.75 
Q 22.953125 6.109375 30.078125 6.109375 
Q 37.203125 6.109375 41.296875 11.75 
Q 45.40625 17.390625 45.40625 27.296875 
Q 45.40625 37.203125 41.296875 42.84375 
Q 37.203125 48.484375 30.078125 48.484375 
Q 22.953125 48.484375 18.875 42.84375 
Q 14.796875 37.203125 14.796875 27.296875 
z
" id="DejaVuSans-100"/>
      <path d="M 45.40625 27.984375 
Q 45.40625 37.75 41.375 43.109375 
Q 37.359375 48.484375 30.078125 48.484375 
Q 22.859375 48.484375 18.828125 43.109375 
Q 14.796875 37.75 14.796875 27.984375 
Q 14.796875 18.265625 18.828125 12.890625 
Q 22.859375 7.515625 30.078125 7.515625 
Q 37.359375 7.515625 41.375 12.890625 
Q 45.40625 18.265625 45.40625 27.984375 
z
M 54.390625 6.78125 
Q 54.390625 -7.171875 48.1875 -13.984375 
Q 42 -20.796875 29.203125 -20.796875 
Q 24.46875 -20.796875 20.265625 -20.09375 
Q 16.0625 -19.390625 12.109375 -17.921875 
L 12.109375 -9.1875 
Q 16.0625 -11.328125 19.921875 -12.34375 
Q 23.78125 -13.375 27.78125 -13.375 
Q 36.625 -13.375 41.015625 -8.765625 
Q 45.40625 -4.15625 45.40625 5.171875 
L 45.40625 9.625 
Q 42.625 4.78125 38.28125 2.390625 
Q 33.9375 0 27.875 0 
Q 17.828125 0 11.671875 7.65625 
Q 5.515625 15.328125 5.515625 27.984375 
Q 5.515625 40.671875 11.671875 48.328125 
Q 17.828125 56 27.875 56 
Q 33.9375 56 38.28125 53.609375 
Q 42.625 51.21875 45.40625 46.390625 
L 45.40625 54.6875 
L 54.390625 54.6875 
z
" id="DejaVuSans-103"/>
      <path d="M 4.203125 54.6875 
L 13.1875 54.6875 
L 24.421875 12.015625 
L 35.59375 54.6875 
L 46.1875 54.6875 
L 57.421875 12.015625 
L 68.609375 54.6875 
L 77.59375 54.6875 
L 63.28125 0 
L 52.6875 0 
L 40.921875 44.828125 
L 29.109375 0 
L 18.5 0 
z
" id="DejaVuSans-119"/>
      <path d="M 64.40625 67.28125 
L 64.40625 56.890625 
Q 59.421875 61.53125 53.78125 63.8125 
Q 48.140625 66.109375 41.796875 66.109375 
Q 29.296875 66.109375 22.65625 58.46875 
Q 16.015625 50.828125 16.015625 36.375 
Q 16.015625 21.96875 22.65625 14.328125 
Q 29.296875 6.6875 41.796875 6.6875 
Q 48.140625 6.6875 53.78125 8.984375 
Q 59.421875 11.28125 64.40625 15.921875 
L 64.40625 5.609375 
Q 59.234375 2.09375 53.4375 0.328125 
Q 47.65625 -1.421875 41.21875 -1.421875 
Q 24.65625 -1.421875 15.125 8.703125 
Q 5.609375 18.84375 5.609375 36.375 
Q 5.609375 53.953125 15.125 64.078125 
Q 24.65625 74.21875 41.21875 74.21875 
Q 47.75 74.21875 53.53125 72.484375 
Q 59.328125 70.75 64.40625 67.28125 
z
" id="DejaVuSans-67"/>
      <path d="M 39.40625 66.21875 
Q 28.65625 66.21875 22.328125 58.203125 
Q 16.015625 50.203125 16.015625 36.375 
Q 16.015625 22.609375 22.328125 14.59375 
Q 28.65625 6.59375 39.40625 6.59375 
Q 50.140625 6.59375 56.421875 14.59375 
Q 62.703125 22.609375 62.703125 36.375 
Q 62.703125 50.203125 56.421875 58.203125 
Q 50.140625 66.21875 39.40625 66.21875 
z
M 39.40625 74.21875 
Q 54.734375 74.21875 63.90625 63.9375 
Q 73.09375 53.65625 73.09375 36.375 
Q 73.09375 19.140625 63.90625 8.859375 
Q 54.734375 -1.421875 39.40625 -1.421875 
Q 24.03125 -1.421875 14.8125 8.828125 
Q 5.609375 19.09375 5.609375 36.375 
Q 5.609375 53.65625 14.8125 63.9375 
Q 24.03125 74.21875 39.40625 74.21875 
z
" id="DejaVuSans-79"/>
      <path d="M 4.890625 31.390625 
L 31.203125 31.390625 
L 31.203125 23.390625 
L 4.890625 23.390625 
z
" id="DejaVuSans-45"/>
      <path d="M 10.984375 1.515625 
L 10.984375 10.5 
Q 14.703125 8.734375 18.5 7.8125 
Q 22.3125 6.890625 25.984375 6.890625 
Q 35.75 6.890625 40.890625 13.453125 
Q 46.046875 20.015625 46.78125 33.40625 
Q 43.953125 29.203125 39.59375 26.953125 
Q 35.25 24.703125 29.984375 24.703125 
Q 19.046875 24.703125 12.671875 31.3125 
Q 6.296875 37.9375 6.296875 49.421875 
Q 6.296875 60.640625 12.9375 67.421875 
Q 19.578125 74.21875 30.609375 74.21875 
Q 43.265625 74.21875 49.921875 64.515625 
Q 56.59375 54.828125 56.59375 36.375 
Q 56.59375 19.140625 48.40625 8.859375 
Q 40.234375 -1.421875 26.421875 -1.421875 
Q 22.703125 -1.421875 18.890625 -0.6875 
Q 15.09375 0.046875 10.984375 1.515625 
z
M 30.609375 32.421875 
Q 37.25 32.421875 41.125 36.953125 
Q 45.015625 41.5 45.015625 49.421875 
Q 45.015625 57.28125 41.125 61.84375 
Q 37.25 66.40625 30.609375 66.40625 
Q 23.96875 66.40625 20.09375 61.84375 
Q 16.21875 57.28125 16.21875 49.421875 
Q 16.21875 41.5 20.09375 36.953125 
Q 23.96875 32.421875 30.609375 32.421875 
z
" id="DejaVuSans-57"/>
     </defs>
     <use xlink:href="#DejaVuSans-97"/>
     <use x="61.279297" xlink:href="#DejaVuSans-41"/>
     <use x="100.292969" xlink:href="#DejaVuSans-32"/>
     <use x="132.080078" xlink:href="#DejaVuSans-80"/>
     <use x="187.882812" xlink:href="#DejaVuSans-97"/>
     <use x="249.162109" xlink:href="#DejaVuSans-116"/>
     <use x="288.371094" xlink:href="#DejaVuSans-105"/>
     <use x="316.154297" xlink:href="#DejaVuSans-101"/>
     <use x="377.677734" xlink:href="#DejaVuSans-110"/>
     <use x="441.056641" xlink:href="#DejaVuSans-116"/>
     <use x="480.265625" xlink:href="#DejaVuSans-115"/>
     <use x="532.365234" xlink:href="#DejaVuSans-32"/>
     <use x="564.152344" xlink:href="#DejaVuSans-100"/>
     <use x="627.628906" xlink:href="#DejaVuSans-105"/>
     <use x="655.412109" xlink:href="#DejaVuSans-115"/>
     <use x="707.511719" xlink:href="#DejaVuSans-99"/>
     <use x="762.492188" xlink:href="#DejaVuSans-104"/>
     <use x="825.871094" xlink:href="#DejaVuSans-97"/>
     <use x="887.150391" xlink:href="#DejaVuSans-114"/>
     <use x="926.513672" xlink:href="#DejaVuSans-103"/>
     <use x="989.990234" xlink:href="#DejaVuSans-101"/>
     <use x="1051.513672" xlink:href="#DejaVuSans-100"/>
     <use x="1114.990234" xlink:href="#DejaVuSans-32"/>
     <use x="1146.777344" xlink:href="#DejaVuSans-97"/>
     <use x="1208.056641" xlink:href="#DejaVuSans-102"/>
     <use x="1241.511719" xlink:href="#DejaVuSans-116"/>
     <use x="1280.720703" xlink:href="#DejaVuSans-101"/>
     <use x="1342.244141" xlink:href="#DejaVuSans-114"/>
     <use x="1383.357422" xlink:href="#DejaVuSans-32"/>
     <use x="1415.144531" xlink:href="#DejaVuSans-104"/>
     <use x="1478.523438" xlink:href="#DejaVuSans-111"/>
     <use x="1539.705078" xlink:href="#DejaVuSans-115"/>
     <use x="1591.804688" xlink:href="#DejaVuSans-112"/>
     <use x="1655.28125" xlink:href="#DejaVuSans-105"/>
     <use x="1683.064453" xlink:href="#DejaVuSans-116"/>
     <use x="1722.273438" xlink:href="#DejaVuSans-97"/>
     <use x="1783.552734" xlink:href="#DejaVuSans-108"/>
     <use x="1811.335938" xlink:href="#DejaVuSans-105"/>
     <use x="1839.119141" xlink:href="#DejaVuSans-115"/>
     <use x="1891.21875" xlink:href="#DejaVuSans-97"/>
     <use x="1952.498047" xlink:href="#DejaVuSans-116"/>
     <use x="1991.707031" xlink:href="#DejaVuSans-105"/>
     <use x="2019.490234" xlink:href="#DejaVuSans-111"/>
     <use x="2080.671875" xlink:href="#DejaVuSans-110"/>
     <use x="2144.050781" xlink:href="#DejaVuSans-32"/>
     <use x="2175.837891" xlink:href="#DejaVuSans-119"/>
     <use x="2257.625" xlink:href="#DejaVuSans-105"/>
     <use x="2285.408203" xlink:href="#DejaVuSans-116"/>
     <use x="2324.617188" xlink:href="#DejaVuSans-104"/>
     <use x="2387.996094" xlink:href="#DejaVuSans-32"/>
     <use x="2419.783203" xlink:href="#DejaVuSans-67"/>
     <use x="2489.607422" xlink:href="#DejaVuSans-79"/>
     <use x="2566.568359" xlink:href="#DejaVuSans-86"/>
     <use x="2634.976562" xlink:href="#DejaVuSans-73"/>
     <use x="2664.46875" xlink:href="#DejaVuSans-68"/>
     <use x="2741.470703" xlink:href="#DejaVuSans-45"/>
     <use x="2777.554688" xlink:href="#DejaVuSans-49"/>
     <use x="2841.177734" xlink:href="#DejaVuSans-57"/>
    </g>
   </g>
   <g id="legend_1">
    <g id="patch_49">
     <path d="M 57.87 137.626875 
L 210.204375 137.626875 
Q 212.204375 137.626875 212.204375 135.626875 
L 212.204375 33.88 
Q 212.204375 31.88 210.204375 31.88 
L 57.87 31.88 
Q 55.87 31.88 55.87 33.88 
L 55.87 135.626875 
Q 55.87 137.626875 57.87 137.626875 
z
" style="fill:#ffffff;opacity:0.8;stroke:#cccccc;stroke-linejoin:miter;"/>
    </g>
    <g id="text_16">
     <!-- Time since hospital discharge -->
     <g transform="translate(59.87 43.478438)scale(0.1 -0.1)">
      <use xlink:href="#DejaVuSans-84"/>
      <use x="57.958984" xlink:href="#DejaVuSans-105"/>
      <use x="85.742188" xlink:href="#DejaVuSans-109"/>
      <use x="183.154297" xlink:href="#DejaVuSans-101"/>
      <use x="244.677734" xlink:href="#DejaVuSans-32"/>
      <use x="276.464844" xlink:href="#DejaVuSans-115"/>
      <use x="328.564453" xlink:href="#DejaVuSans-105"/>
      <use x="356.347656" xlink:href="#DejaVuSans-110"/>
      <use x="419.726562" xlink:href="#DejaVuSans-99"/>
      <use x="474.707031" xlink:href="#DejaVuSans-101"/>
      <use x="536.230469" xlink:href="#DejaVuSans-32"/>
      <use x="568.017578" xlink:href="#DejaVuSans-104"/>
      <use x="631.396484" xlink:href="#DejaVuSans-111"/>
      <use x="692.578125" xlink:href="#DejaVuSans-115"/>
      <use x="744.677734" xlink:href="#DejaVuSans-112"/>
      <use x="808.154297" xlink:href="#DejaVuSans-105"/>
      <use x="835.9375" xlink:href="#DejaVuSans-116"/>
      <use x="875.146484" xlink:href="#DejaVuSans-97"/>
      <use x="936.425781" xlink:href="#DejaVuSans-108"/>
      <use x="964.208984" xlink:href="#DejaVuSans-32"/>
      <use x="995.996094" xlink:href="#DejaVuSans-100"/>
      <use x="1059.472656" xlink:href="#DejaVuSans-105"/>
      <use x="1087.255859" xlink:href="#DejaVuSans-115"/>
      <use x="1139.355469" xlink:href="#DejaVuSans-99"/>
      <use x="1194.335938" xlink:href="#DejaVuSans-104"/>
      <use x="1257.714844" xlink:href="#DejaVuSans-97"/>
      <use x="1318.994141" xlink:href="#DejaVuSans-114"/>
      <use x="1358.357422" xlink:href="#DejaVuSans-103"/>
      <use x="1421.833984" xlink:href="#DejaVuSans-101"/>
     </g>
    </g>
    <g id="patch_50">
     <path d="M 88.935625 58.156563 
L 108.935625 58.156563 
L 108.935625 51.156563 
L 88.935625 51.156563 
z
" style="fill:#ff7f00;"/>
    </g>
    <g id="text_17">
     <!-- Full period -->
     <g transform="translate(116.935625 58.156563)scale(0.1 -0.1)">
      <defs>
       <path d="M 9.8125 72.90625 
L 51.703125 72.90625 
L 51.703125 64.59375 
L 19.671875 64.59375 
L 19.671875 43.109375 
L 48.578125 43.109375 
L 48.578125 34.8125 
L 19.671875 34.8125 
L 19.671875 0 
L 9.8125 0 
z
" id="DejaVuSans-70"/>
      </defs>
      <use xlink:href="#DejaVuSans-70"/>
      <use x="52.019531" xlink:href="#DejaVuSans-117"/>
      <use x="115.398438" xlink:href="#DejaVuSans-108"/>
      <use x="143.181641" xlink:href="#DejaVuSans-108"/>
      <use x="170.964844" xlink:href="#DejaVuSans-32"/>
      <use x="202.751953" xlink:href="#DejaVuSans-112"/>
      <use x="266.228516" xlink:href="#DejaVuSans-101"/>
      <use x="327.751953" xlink:href="#DejaVuSans-114"/>
      <use x="368.865234" xlink:href="#DejaVuSans-105"/>
      <use x="396.648438" xlink:href="#DejaVuSans-111"/>
      <use x="457.830078" xlink:href="#DejaVuSans-100"/>
     </g>
    </g>
    <g id="patch_51">
     <path d="M 88.935625 72.834688 
L 108.935625 72.834688 
L 108.935625 65.834688 
L 88.935625 65.834688 
z
" style="fill:#3579b1;"/>
    </g>
    <g id="text_18">
     <!-- 0-29 days -->
     <g transform="translate(116.935625 72.834688)scale(0.1 -0.1)">
      <use xlink:href="#DejaVuSans-48"/>
      <use x="63.623047" xlink:href="#DejaVuSans-45"/>
      <use x="99.707031" xlink:href="#DejaVuSans-50"/>
      <use x="163.330078" xlink:href="#DejaVuSans-57"/>
      <use x="226.953125" xlink:href="#DejaVuSans-32"/>
      <use x="258.740234" xlink:href="#DejaVuSans-100"/>
      <use x="322.216797" xlink:href="#DejaVuSans-97"/>
      <use x="383.496094" xlink:href="#DejaVuSans-121"/>
      <use x="442.675781" xlink:href="#DejaVuSans-115"/>
     </g>
    </g>
    <g id="patch_52">
     <path d="M 88.935625 87.512813 
L 108.935625 87.512813 
L 108.935625 80.512813 
L 88.935625 80.512813 
z
" style="fill:#3b86c4;"/>
    </g>
    <g id="text_19">
     <!-- 30-59 days -->
     <g transform="translate(116.935625 87.512813)scale(0.1 -0.1)">
      <defs>
       <path d="M 40.578125 39.3125 
Q 47.65625 37.796875 51.625 33 
Q 55.609375 28.21875 55.609375 21.1875 
Q 55.609375 10.40625 48.1875 4.484375 
Q 40.765625 -1.421875 27.09375 -1.421875 
Q 22.515625 -1.421875 17.65625 -0.515625 
Q 12.796875 0.390625 7.625 2.203125 
L 7.625 11.71875 
Q 11.71875 9.328125 16.59375 8.109375 
Q 21.484375 6.890625 26.8125 6.890625 
Q 36.078125 6.890625 40.9375 10.546875 
Q 45.796875 14.203125 45.796875 21.1875 
Q 45.796875 27.640625 41.28125 31.265625 
Q 36.765625 34.90625 28.71875 34.90625 
L 20.21875 34.90625 
L 20.21875 43.015625 
L 29.109375 43.015625 
Q 36.375 43.015625 40.234375 45.921875 
Q 44.09375 48.828125 44.09375 54.296875 
Q 44.09375 59.90625 40.109375 62.90625 
Q 36.140625 65.921875 28.71875 65.921875 
Q 24.65625 65.921875 20.015625 65.03125 
Q 15.375 64.15625 9.8125 62.3125 
L 9.8125 71.09375 
Q 15.4375 72.65625 20.34375 73.4375 
Q 25.25 74.21875 29.59375 74.21875 
Q 40.828125 74.21875 47.359375 69.109375 
Q 53.90625 64.015625 53.90625 55.328125 
Q 53.90625 49.265625 50.4375 45.09375 
Q 46.96875 40.921875 40.578125 39.3125 
z
" id="DejaVuSans-51"/>
       <path d="M 10.796875 72.90625 
L 49.515625 72.90625 
L 49.515625 64.59375 
L 19.828125 64.59375 
L 19.828125 46.734375 
Q 21.96875 47.46875 24.109375 47.828125 
Q 26.265625 48.1875 28.421875 48.1875 
Q 40.625 48.1875 47.75 41.5 
Q 54.890625 34.8125 54.890625 23.390625 
Q 54.890625 11.625 47.5625 5.09375 
Q 40.234375 -1.421875 26.90625 -1.421875 
Q 22.3125 -1.421875 17.546875 -0.640625 
Q 12.796875 0.140625 7.71875 1.703125 
L 7.71875 11.625 
Q 12.109375 9.234375 16.796875 8.0625 
Q 21.484375 6.890625 26.703125 6.890625 
Q 35.15625 6.890625 40.078125 11.328125 
Q 45.015625 15.765625 45.015625 23.390625 
Q 45.015625 31 40.078125 35.4375 
Q 35.15625 39.890625 26.703125 39.890625 
Q 22.75 39.890625 18.8125 39.015625 
Q 14.890625 38.140625 10.796875 36.28125 
z
" id="DejaVuSans-53"/>
      </defs>
      <use xlink:href="#DejaVuSans-51"/>
      <use x="63.623047" xlink:href="#DejaVuSans-48"/>
      <use x="127.246094" xlink:href="#DejaVuSans-45"/>
      <use x="163.330078" xlink:href="#DejaVuSans-53"/>
      <use x="226.953125" xlink:href="#DejaVuSans-57"/>
      <use x="290.576172" xlink:href="#DejaVuSans-32"/>
      <use x="322.363281" xlink:href="#DejaVuSans-100"/>
      <use x="385.839844" xlink:href="#DejaVuSans-97"/>
      <use x="447.119141" xlink:href="#DejaVuSans-121"/>
      <use x="506.298828" xlink:href="#DejaVuSans-115"/>
     </g>
    </g>
    <g id="patch_53">
     <path d="M 88.935625 102.190938 
L 108.935625 102.190938 
L 108.935625 95.190938 
L 88.935625 95.190938 
z
" style="fill:#4e92ca;"/>
    </g>
    <g id="text_20">
     <!-- 60-89 days -->
     <g transform="translate(116.935625 102.190938)scale(0.1 -0.1)">
      <use xlink:href="#DejaVuSans-54"/>
      <use x="63.623047" xlink:href="#DejaVuSans-48"/>
      <use x="127.246094" xlink:href="#DejaVuSans-45"/>
      <use x="163.330078" xlink:href="#DejaVuSans-56"/>
      <use x="226.953125" xlink:href="#DejaVuSans-57"/>
      <use x="290.576172" xlink:href="#DejaVuSans-32"/>
      <use x="322.363281" xlink:href="#DejaVuSans-100"/>
      <use x="385.839844" xlink:href="#DejaVuSans-97"/>
      <use x="447.119141" xlink:href="#DejaVuSans-121"/>
      <use x="506.298828" xlink:href="#DejaVuSans-115"/>
     </g>
    </g>
    <g id="patch_54">
     <path d="M 88.935625 116.869063 
L 108.935625 116.869063 
L 108.935625 109.869063 
L 88.935625 109.869063 
z
" style="fill:#629fd0;"/>
    </g>
    <g id="text_21">
     <!-- 90-119 days -->
     <g transform="translate(116.935625 116.869063)scale(0.1 -0.1)">
      <use xlink:href="#DejaVuSans-57"/>
      <use x="63.623047" xlink:href="#DejaVuSans-48"/>
      <use x="127.246094" xlink:href="#DejaVuSans-45"/>
      <use x="163.330078" xlink:href="#DejaVuSans-49"/>
      <use x="226.953125" xlink:href="#DejaVuSans-49"/>
      <use x="290.576172" xlink:href="#DejaVuSans-57"/>
      <use x="354.199219" xlink:href="#DejaVuSans-32"/>
      <use x="385.986328" xlink:href="#DejaVuSans-100"/>
      <use x="449.462891" xlink:href="#DejaVuSans-97"/>
      <use x="510.742188" xlink:href="#DejaVuSans-121"/>
      <use x="569.921875" xlink:href="#DejaVuSans-115"/>
     </g>
    </g>
    <g id="patch_55">
     <path d="M 88.935625 131.547188 
L 108.935625 131.547188 
L 108.935625 124.547188 
L 88.935625 124.547188 
z
" style="fill:#76abd6;"/>
    </g>
    <g id="text_22">
     <!-- 120+ days -->
     <g transform="translate(116.935625 131.547188)scale(0.1 -0.1)">
      <defs>
       <path d="M 46 62.703125 
L 46 35.5 
L 73.1875 35.5 
L 73.1875 27.203125 
L 46 27.203125 
L 46 0 
L 37.796875 0 
L 37.796875 27.203125 
L 10.59375 27.203125 
L 10.59375 35.5 
L 37.796875 35.5 
L 37.796875 62.703125 
z
" id="DejaVuSans-43"/>
      </defs>
      <use xlink:href="#DejaVuSans-49"/>
      <use x="63.623047" xlink:href="#DejaVuSans-50"/>
      <use x="127.246094" xlink:href="#DejaVuSans-48"/>
      <use x="190.869141" xlink:href="#DejaVuSans-43"/>
      <use x="274.658203" xlink:href="#DejaVuSans-32"/>
      <use x="306.445312" xlink:href="#DejaVuSans-100"/>
      <use x="369.921875" xlink:href="#DejaVuSans-97"/>
      <use x="431.201172" xlink:href="#DejaVuSans-121"/>
      <use x="490.380859" xlink:href="#DejaVuSans-115"/>
     </g>
    </g>
   </g>
  </g>
  <g id="axes_2">
   <g id="patch_56">
    <path d="M 459.185 337.3 
L 853.2 337.3 
L 853.2 26.88 
L 459.185 26.88 
z
" style="fill:#ffffff;"/>
   </g>
   <g id="patch_57">
    <path clip-path="url(#pc174651d69)" d="M 472.678664 337.3 
L 479.875285 337.3 
L 479.875285 319.263403 
L 472.678664 319.263403 
z
" style="fill:#ff7f00;"/>
   </g>
   <g id="patch_58">
    <path clip-path="url(#pc174651d69)" d="M 526.653322 337.3 
L 533.849943 337.3 
L 533.849943 330.84255 
L 526.653322 330.84255 
z
" style="fill:#ff7f00;"/>
   </g>
   <g id="patch_59">
    <path clip-path="url(#pc174651d69)" d="M 580.627979 337.3 
L 587.8246 337.3 
L 587.8246 322.601304 
L 580.627979 322.601304 
z
" style="fill:#ff7f00;"/>
   </g>
   <g id="patch_60">
    <path clip-path="url(#pc174651d69)" d="M 634.602637 337.3 
L 641.799258 337.3 
L 641.799258 204.547787 
L 634.602637 204.547787 
z
" style="fill:#ff7f00;"/>
   </g>
   <g id="patch_61">
    <path clip-path="url(#pc174651d69)" d="M 688.577295 337.3 
L 695.773916 337.3 
L 695.773916 324.97955 
L 688.577295 324.97955 
z
" style="fill:#ff7f00;"/>
   </g>
   <g id="patch_62">
    <path clip-path="url(#pc174651d69)" d="M 742.551952 337.3 
L 749.748573 337.3 
L 749.748573 246.872932 
L 742.551952 246.872932 
z
" style="fill:#ff7f00;"/>
   </g>
   <g id="patch_63">
    <path clip-path="url(#pc174651d69)" d="M 796.52661 337.3 
L 803.723231 337.3 
L 803.723231 324.62627 
L 796.52661 324.62627 
z
" style="fill:#ff7f00;"/>
   </g>
   <g id="patch_64">
    <path clip-path="url(#pc174651d69)" d="M 479.875285 337.3 
L 487.071906 337.3 
L 487.071906 301.562632 
L 479.875285 301.562632 
z
" style="fill:#3579b1;"/>
   </g>
   <g id="patch_65">
    <path clip-path="url(#pc174651d69)" d="M 533.849943 337.3 
L 541.046564 337.3 
L 541.046564 323.993629 
L 533.849943 323.993629 
z
" style="fill:#3579b1;"/>
   </g>
   <g id="patch_66">
    <path clip-path="url(#pc174651d69)" d="M 587.8246 337.3 
L 595.021221 337.3 
L 595.021221 301.551845 
L 587.8246 301.551845 
z
" style="fill:#3579b1;"/>
   </g>
   <g id="patch_67">
    <path clip-path="url(#pc174651d69)" d="M 641.799258 337.3 
L 648.995879 337.3 
L 648.995879 44.568313 
L 641.799258 44.568313 
z
" style="fill:#3579b1;"/>
   </g>
   <g id="patch_68">
    <path clip-path="url(#pc174651d69)" d="M 695.773916 337.3 
L 702.970537 337.3 
L 702.970537 313.723903 
L 695.773916 313.723903 
z
" style="fill:#3579b1;"/>
   </g>
   <g id="patch_69">
    <path clip-path="url(#pc174651d69)" d="M 749.748573 337.3 
L 756.945194 337.3 
L 756.945194 157.692526 
L 749.748573 157.692526 
z
" style="fill:#3579b1;"/>
   </g>
   <g id="patch_70">
    <path clip-path="url(#pc174651d69)" d="M 803.723231 337.3 
L 810.919852 337.3 
L 810.919852 316.384622 
L 803.723231 316.384622 
z
" style="fill:#3579b1;"/>
   </g>
   <g id="patch_71">
    <path clip-path="url(#pc174651d69)" d="M 487.071906 337.3 
L 494.268527 337.3 
L 494.268527 319.164036 
L 487.071906 319.164036 
z
" style="fill:#3b86c4;"/>
   </g>
   <g id="patch_72">
    <path clip-path="url(#pc174651d69)" d="M 541.046564 337.3 
L 548.243185 337.3 
L 548.243185 330.089073 
L 541.046564 330.089073 
z
" style="fill:#3b86c4;"/>
   </g>
   <g id="patch_73">
    <path clip-path="url(#pc174651d69)" d="M 595.021221 337.3 
L 602.217842 337.3 
L 602.217842 322.294266 
L 595.021221 322.294266 
z
" style="fill:#3b86c4;"/>
   </g>
   <g id="patch_74">
    <path clip-path="url(#pc174651d69)" d="M 648.995879 337.3 
L 656.1925 337.3 
L 656.1925 200.593712 
L 648.995879 200.593712 
z
" style="fill:#3b86c4;"/>
   </g>
   <g id="patch_75">
    <path clip-path="url(#pc174651d69)" d="M 702.970537 337.3 
L 710.167158 337.3 
L 710.167158 326.044804 
L 702.970537 326.044804 
z
" style="fill:#3b86c4;"/>
   </g>
   <g id="patch_76">
    <path clip-path="url(#pc174651d69)" d="M 756.945194 337.3 
L 764.141815 337.3 
L 764.141815 245.309063 
L 756.945194 245.309063 
z
" style="fill:#3b86c4;"/>
   </g>
   <g id="patch_77">
    <path clip-path="url(#pc174651d69)" d="M 810.919852 337.3 
L 818.116473 337.3 
L 818.116473 325.024282 
L 810.919852 325.024282 
z
" style="fill:#3b86c4;"/>
   </g>
   <g id="patch_78">
    <path clip-path="url(#pc174651d69)" d="M 494.268527 337.3 
L 501.465148 337.3 
L 501.465148 322.734348 
L 494.268527 322.734348 
z
" style="fill:#4e92ca;"/>
   </g>
   <g id="patch_79">
    <path clip-path="url(#pc174651d69)" d="M 548.243185 337.3 
L 555.439806 337.3 
L 555.439806 332.385266 
L 548.243185 332.385266 
z
" style="fill:#4e92ca;"/>
   </g>
   <g id="patch_80">
    <path clip-path="url(#pc174651d69)" d="M 602.217842 337.3 
L 609.414463 337.3 
L 609.414463 328.710196 
L 602.217842 328.710196 
z
" style="fill:#4e92ca;"/>
   </g>
   <g id="patch_81">
    <path clip-path="url(#pc174651d69)" d="M 656.1925 337.3 
L 663.389121 337.3 
L 663.389121 241.643819 
L 656.1925 241.643819 
z
" style="fill:#4e92ca;"/>
   </g>
   <g id="patch_82">
    <path clip-path="url(#pc174651d69)" d="M 710.167158 337.3 
L 717.363779 337.3 
L 717.363779 326.990014 
L 710.167158 326.990014 
z
" style="fill:#4e92ca;"/>
   </g>
   <g id="patch_83">
    <path clip-path="url(#pc174651d69)" d="M 764.141815 337.3 
L 771.338436 337.3 
L 771.338436 266.152557 
L 764.141815 266.152557 
z
" style="fill:#4e92ca;"/>
   </g>
   <g id="patch_84">
    <path clip-path="url(#pc174651d69)" d="M 818.116473 337.3 
L 825.313094 337.3 
L 825.313094 327.929757 
L 818.116473 327.929757 
z
" style="fill:#4e92ca;"/>
   </g>
   <g id="patch_85">
    <path clip-path="url(#pc174651d69)" d="M 501.465148 337.3 
L 508.661769 337.3 
L 508.661769 323.116974 
L 501.465148 323.116974 
z
" style="fill:#629fd0;"/>
   </g>
   <g id="patch_86">
    <path clip-path="url(#pc174651d69)" d="M 555.439806 337.3 
L 562.636427 337.3 
L 562.636427 333.980015 
L 555.439806 333.980015 
z
" style="fill:#629fd0;"/>
   </g>
   <g id="patch_87">
    <path clip-path="url(#pc174651d69)" d="M 609.414463 337.3 
L 616.611084 337.3 
L 616.611084 329.115773 
L 609.414463 329.115773 
z
" style="fill:#629fd0;"/>
   </g>
   <g id="patch_88">
    <path clip-path="url(#pc174651d69)" d="M 663.389121 337.3 
L 670.585742 337.3 
L 670.585742 267.01922 
L 663.389121 267.01922 
z
" style="fill:#629fd0;"/>
   </g>
   <g id="patch_89">
    <path clip-path="url(#pc174651d69)" d="M 717.363779 337.3 
L 724.5604 337.3 
L 724.5604 328.037742 
L 717.363779 328.037742 
z
" style="fill:#629fd0;"/>
   </g>
   <g id="patch_90">
    <path clip-path="url(#pc174651d69)" d="M 771.338436 337.3 
L 778.535057 337.3 
L 778.535057 279.131464 
L 771.338436 279.131464 
z
" style="fill:#629fd0;"/>
   </g>
   <g id="patch_91">
    <path clip-path="url(#pc174651d69)" d="M 825.313094 337.3 
L 832.509715 337.3 
L 832.509715 326.631221 
L 825.313094 326.631221 
z
" style="fill:#629fd0;"/>
   </g>
   <g id="patch_92">
    <path clip-path="url(#pc174651d69)" d="M 508.661769 337.3 
L 515.85839 337.3 
L 515.85839 328.369406 
L 508.661769 328.369406 
z
" style="fill:#76abd6;"/>
   </g>
   <g id="patch_93">
    <path clip-path="url(#pc174651d69)" d="M 562.636427 337.3 
L 569.833048 337.3 
L 569.833048 333.969337 
L 562.636427 333.969337 
z
" style="fill:#76abd6;"/>
   </g>
   <g id="patch_94">
    <path clip-path="url(#pc174651d69)" d="M 616.611084 337.3 
L 623.807705 337.3 
L 623.807705 331.727638 
L 616.611084 331.727638 
z
" style="fill:#76abd6;"/>
   </g>
   <g id="patch_95">
    <path clip-path="url(#pc174651d69)" d="M 670.585742 337.3 
L 677.782363 337.3 
L 677.782363 282.62552 
L 670.585742 282.62552 
z
" style="fill:#76abd6;"/>
   </g>
   <g id="patch_96">
    <path clip-path="url(#pc174651d69)" d="M 724.5604 337.3 
L 731.757021 337.3 
L 731.757021 329.940043 
L 724.5604 329.940043 
z
" style="fill:#76abd6;"/>
   </g>
   <g id="patch_97">
    <path clip-path="url(#pc174651d69)" d="M 778.535057 337.3 
L 785.731678 337.3 
L 785.731678 289.937919 
L 778.535057 289.937919 
z
" style="fill:#76abd6;"/>
   </g>
   <g id="patch_98">
    <path clip-path="url(#pc174651d69)" d="M 832.509715 337.3 
L 839.706336 337.3 
L 839.706336 327.659178 
L 832.509715 327.659178 
z
" style="fill:#76abd6;"/>
   </g>
   <g id="matplotlib.axis_3">
    <g id="xtick_8">
     <g id="line2d_18">
      <g>
       <use style="stroke:#000000;stroke-width:0.8;" x="494.268527" xlink:href="#md9ab796638" y="337.3"/>
      </g>
     </g>
     <g id="text_23">
      <!-- Stroke -->
      <g transform="translate(497.027902 376.154687)rotate(-90)scale(0.1 -0.1)">
       <use xlink:href="#DejaVuSans-83"/>
       <use x="63.476562" xlink:href="#DejaVuSans-116"/>
       <use x="102.685547" xlink:href="#DejaVuSans-114"/>
       <use x="141.548828" xlink:href="#DejaVuSans-111"/>
       <use x="202.730469" xlink:href="#DejaVuSans-107"/>
       <use x="257.015625" xlink:href="#DejaVuSans-101"/>
      </g>
     </g>
    </g>
    <g id="xtick_9">
     <g id="line2d_19">
      <g>
       <use style="stroke:#000000;stroke-width:0.8;" x="548.243185" xlink:href="#md9ab796638" y="337.3"/>
      </g>
     </g>
     <g id="text_24">
      <!-- DVT -->
      <g transform="translate(551.00256 364.773438)rotate(-90)scale(0.1 -0.1)">
       <use xlink:href="#DejaVuSans-68"/>
       <use x="75.251953" xlink:href="#DejaVuSans-86"/>
       <use x="143.660156" xlink:href="#DejaVuSans-84"/>
      </g>
     </g>
    </g>
    <g id="xtick_10">
     <g id="line2d_20">
      <g>
       <use style="stroke:#000000;stroke-width:0.8;" x="602.217842" xlink:href="#md9ab796638" y="337.3"/>
      </g>
     </g>
     <g id="text_25">
      <!-- PE -->
      <g transform="translate(604.977217 356.648438)rotate(-90)scale(0.1 -0.1)">
       <use xlink:href="#DejaVuSans-80"/>
       <use x="60.302734" xlink:href="#DejaVuSans-69"/>
      </g>
     </g>
    </g>
    <g id="xtick_11">
     <g id="line2d_21">
      <g>
       <use style="stroke:#000000;stroke-width:0.8;" x="656.1925" xlink:href="#md9ab796638" y="337.3"/>
      </g>
     </g>
     <g id="text_26">
      <!-- Heart failure -->
      <g transform="translate(658.951875 406.892187)rotate(-90)scale(0.1 -0.1)">
       <use xlink:href="#DejaVuSans-72"/>
       <use x="75.195312" xlink:href="#DejaVuSans-101"/>
       <use x="136.71875" xlink:href="#DejaVuSans-97"/>
       <use x="197.998047" xlink:href="#DejaVuSans-114"/>
       <use x="239.111328" xlink:href="#DejaVuSans-116"/>
       <use x="278.320312" xlink:href="#DejaVuSans-32"/>
       <use x="310.107422" xlink:href="#DejaVuSans-102"/>
       <use x="345.3125" xlink:href="#DejaVuSans-97"/>
       <use x="406.591797" xlink:href="#DejaVuSans-105"/>
       <use x="434.375" xlink:href="#DejaVuSans-108"/>
       <use x="462.158203" xlink:href="#DejaVuSans-117"/>
       <use x="525.537109" xlink:href="#DejaVuSans-114"/>
       <use x="564.400391" xlink:href="#DejaVuSans-101"/>
      </g>
     </g>
    </g>
    <g id="xtick_12">
     <g id="line2d_22">
      <g>
       <use style="stroke:#000000;stroke-width:0.8;" x="710.167158" xlink:href="#md9ab796638" y="337.3"/>
      </g>
     </g>
     <g id="text_27">
      <!-- MI -->
      <g transform="translate(712.926533 355.878125)rotate(-90)scale(0.1 -0.1)">
       <use xlink:href="#DejaVuSans-77"/>
       <use x="86.279297" xlink:href="#DejaVuSans-73"/>
      </g>
     </g>
    </g>
    <g id="xtick_13">
     <g id="line2d_23">
      <g>
       <use style="stroke:#000000;stroke-width:0.8;" x="764.141815" xlink:href="#md9ab796638" y="337.3"/>
      </g>
     </g>
     <g id="text_28">
      <!-- AKI -->
      <g transform="translate(766.90119 360.648438)rotate(-90)scale(0.1 -0.1)">
       <use xlink:href="#DejaVuSans-65"/>
       <use x="68.408203" xlink:href="#DejaVuSans-75"/>
       <use x="133.984375" xlink:href="#DejaVuSans-73"/>
      </g>
     </g>
    </g>
    <g id="xtick_14">
     <g id="line2d_24">
      <g>
       <use style="stroke:#000000;stroke-width:0.8;" x="818.116473" xlink:href="#md9ab796638" y="337.3"/>
      </g>
     </g>
     <g id="text_29">
      <!-- T2DM -->
      <g transform="translate(820.875848 373.098437)rotate(-90)scale(0.1 -0.1)">
       <use xlink:href="#DejaVuSans-84"/>
       <use x="61.083984" xlink:href="#DejaVuSans-50"/>
       <use x="124.707031" xlink:href="#DejaVuSans-68"/>
       <use x="201.708984" xlink:href="#DejaVuSans-77"/>
      </g>
     </g>
    </g>
    <g id="text_30">
     <!-- outcome -->
     <g transform="translate(634.24875 418.490625)scale(0.1 -0.1)">
      <use xlink:href="#DejaVuSans-111"/>
      <use x="61.181641" xlink:href="#DejaVuSans-117"/>
      <use x="124.560547" xlink:href="#DejaVuSans-116"/>
      <use x="163.769531" xlink:href="#DejaVuSans-99"/>
      <use x="218.75" xlink:href="#DejaVuSans-111"/>
      <use x="279.931641" xlink:href="#DejaVuSans-109"/>
      <use x="377.34375" xlink:href="#DejaVuSans-101"/>
     </g>
    </g>
   </g>
   <g id="matplotlib.axis_4">
    <g id="ytick_6">
     <g id="line2d_25">
      <path clip-path="url(#pc174651d69)" d="M 459.185 337.3 
L 853.2 337.3 
" style="fill:none;stroke:#666666;stroke-linecap:square;stroke-opacity:0.1;stroke-width:0.8;"/>
     </g>
     <g id="line2d_26">
      <g>
       <use style="stroke:#000000;stroke-width:0.8;" x="459.185" xlink:href="#m8dd9acb34c" y="337.3"/>
      </g>
     </g>
    </g>
    <g id="ytick_7">
     <g id="line2d_27">
      <path clip-path="url(#pc174651d69)" d="M 459.185 273.138422 
L 853.2 273.138422 
" style="fill:none;stroke:#666666;stroke-linecap:square;stroke-opacity:0.1;stroke-width:0.8;"/>
     </g>
     <g id="line2d_28">
      <g>
       <use style="stroke:#000000;stroke-width:0.8;" x="459.185" xlink:href="#m8dd9acb34c" y="273.138422"/>
      </g>
     </g>
    </g>
    <g id="ytick_8">
     <g id="line2d_29">
      <path clip-path="url(#pc174651d69)" d="M 459.185 208.976844 
L 853.2 208.976844 
" style="fill:none;stroke:#666666;stroke-linecap:square;stroke-opacity:0.1;stroke-width:0.8;"/>
     </g>
     <g id="line2d_30">
      <g>
       <use style="stroke:#000000;stroke-width:0.8;" x="459.185" xlink:href="#m8dd9acb34c" y="208.976844"/>
      </g>
     </g>
    </g>
    <g id="ytick_9">
     <g id="line2d_31">
      <path clip-path="url(#pc174651d69)" d="M 459.185 144.815266 
L 853.2 144.815266 
" style="fill:none;stroke:#666666;stroke-linecap:square;stroke-opacity:0.1;stroke-width:0.8;"/>
     </g>
     <g id="line2d_32">
      <g>
       <use style="stroke:#000000;stroke-width:0.8;" x="459.185" xlink:href="#m8dd9acb34c" y="144.815266"/>
      </g>
     </g>
    </g>
    <g id="ytick_10">
     <g id="line2d_33">
      <path clip-path="url(#pc174651d69)" d="M 459.185 80.653689 
L 853.2 80.653689 
" style="fill:none;stroke:#666666;stroke-linecap:square;stroke-opacity:0.1;stroke-width:0.8;"/>
     </g>
     <g id="line2d_34">
      <g>
       <use style="stroke:#000000;stroke-width:0.8;" x="459.185" xlink:href="#m8dd9acb34c" y="80.653689"/>
      </g>
     </g>
    </g>
   </g>
   <g id="LineCollection_7">
    <path clip-path="url(#pc174651d69)" d="M 476.276975 321.750943 
L 476.276975 316.589762 
" style="fill:none;stroke:#000000;stroke-width:1.5;"/>
    <path clip-path="url(#pc174651d69)" d="M 530.251632 332.325852 
L 530.251632 329.173158 
" style="fill:none;stroke:#000000;stroke-width:1.5;"/>
    <path clip-path="url(#pc174651d69)" d="M 584.22629 325.091221 
L 584.22629 319.924975 
" style="fill:none;stroke:#000000;stroke-width:1.5;"/>
    <path clip-path="url(#pc174651d69)" d="M 638.200947 211.948856 
L 638.200947 196.95473 
" style="fill:none;stroke:#000000;stroke-width:1.5;"/>
    <path clip-path="url(#pc174651d69)" d="M 692.175605 326.983157 
L 692.175605 322.789853 
" style="fill:none;stroke:#000000;stroke-width:1.5;"/>
    <path clip-path="url(#pc174651d69)" d="M 746.150263 252.659447 
L 746.150263 240.893763 
" style="fill:none;stroke:#000000;stroke-width:1.5;"/>
    <path clip-path="url(#pc174651d69)" d="M 800.12492 326.846623 
L 800.12492 322.142213 
" style="fill:none;stroke:#000000;stroke-width:1.5;"/>
   </g>
   <g id="LineCollection_8">
    <path clip-path="url(#pc174651d69)" d="M 483.473596 302.581105 
L 483.473596 300.413058 
" style="fill:none;stroke:#000000;stroke-width:1.5;"/>
    <path clip-path="url(#pc174651d69)" d="M 537.448253 324.591878 
L 537.448253 323.264394 
" style="fill:none;stroke:#000000;stroke-width:1.5;"/>
    <path clip-path="url(#pc174651d69)" d="M 591.422911 302.344866 
L 591.422911 300.627241 
" style="fill:none;stroke:#000000;stroke-width:1.5;"/>
    <path clip-path="url(#pc174651d69)" d="M 645.397568 47.32802 
L 645.397568 41.661905 
" style="fill:none;stroke:#000000;stroke-width:1.5;"/>
    <path clip-path="url(#pc174651d69)" d="M 699.372226 314.642785 
L 699.372226 312.673934 
" style="fill:none;stroke:#000000;stroke-width:1.5;"/>
    <path clip-path="url(#pc174651d69)" d="M 753.346884 160.222172 
L 753.346884 155.020153 
" style="fill:none;stroke:#000000;stroke-width:1.5;"/>
    <path clip-path="url(#pc174651d69)" d="M 807.321541 317.632293 
L 807.321541 314.95148 
" style="fill:none;stroke:#000000;stroke-width:1.5;"/>
   </g>
   <g id="LineCollection_9">
    <path clip-path="url(#pc174651d69)" d="M 490.670217 321.063045 
L 490.670217 317.042923 
" style="fill:none;stroke:#000000;stroke-width:1.5;"/>
    <path clip-path="url(#pc174651d69)" d="M 544.644874 331.248579 
L 544.644874 328.707394 
" style="fill:none;stroke:#000000;stroke-width:1.5;"/>
    <path clip-path="url(#pc174651d69)" d="M 598.619532 324.014859 
L 598.619532 320.350834 
" style="fill:none;stroke:#000000;stroke-width:1.5;"/>
    <path clip-path="url(#pc174651d69)" d="M 652.594189 206.172382 
L 652.594189 194.777709 
" style="fill:none;stroke:#000000;stroke-width:1.5;"/>
    <path clip-path="url(#pc174651d69)" d="M 706.568847 327.518684 
L 706.568847 324.348833 
" style="fill:none;stroke:#000000;stroke-width:1.5;"/>
    <path clip-path="url(#pc174651d69)" d="M 760.543505 249.839707 
L 760.543505 240.543718 
" style="fill:none;stroke:#000000;stroke-width:1.5;"/>
    <path clip-path="url(#pc174651d69)" d="M 814.518162 326.839641 
L 814.518162 322.893874 
" style="fill:none;stroke:#000000;stroke-width:1.5;"/>
   </g>
   <g id="LineCollection_10">
    <path clip-path="url(#pc174651d69)" d="M 497.866838 324.552851 
L 497.866838 320.656415 
" style="fill:none;stroke:#000000;stroke-width:1.5;"/>
    <path clip-path="url(#pc174651d69)" d="M 551.841495 333.392721 
L 551.841495 331.118048 
" style="fill:none;stroke:#000000;stroke-width:1.5;"/>
    <path clip-path="url(#pc174651d69)" d="M 605.816153 330.081427 
L 605.816153 327.078487 
" style="fill:none;stroke:#000000;stroke-width:1.5;"/>
    <path clip-path="url(#pc174651d69)" d="M 659.790811 246.701055 
L 659.790811 236.304265 
" style="fill:none;stroke:#000000;stroke-width:1.5;"/>
    <path clip-path="url(#pc174651d69)" d="M 713.765468 328.500813 
L 713.765468 325.219814 
" style="fill:none;stroke:#000000;stroke-width:1.5;"/>
    <path clip-path="url(#pc174651d69)" d="M 767.740126 270.457674 
L 767.740126 261.57015 
" style="fill:none;stroke:#000000;stroke-width:1.5;"/>
    <path clip-path="url(#pc174651d69)" d="M 821.714783 329.612829 
L 821.714783 325.878183 
" style="fill:none;stroke:#000000;stroke-width:1.5;"/>
   </g>
   <g id="LineCollection_11">
    <path clip-path="url(#pc174651d69)" d="M 505.063459 325.04969 
L 505.063459 320.879338 
" style="fill:none;stroke:#000000;stroke-width:1.5;"/>
    <path clip-path="url(#pc174651d69)" d="M 559.038116 334.846461 
L 559.038116 332.80759 
" style="fill:none;stroke:#000000;stroke-width:1.5;"/>
    <path clip-path="url(#pc174651d69)" d="M 613.012774 330.553069 
L 613.012774 327.372292 
" style="fill:none;stroke:#000000;stroke-width:1.5;"/>
    <path clip-path="url(#pc174651d69)" d="M 666.987432 271.7103 
L 666.987432 261.992631 
" style="fill:none;stroke:#000000;stroke-width:1.5;"/>
    <path clip-path="url(#pc174651d69)" d="M 720.962089 329.57278 
L 720.962089 326.197763 
" style="fill:none;stroke:#000000;stroke-width:1.5;"/>
    <path clip-path="url(#pc174651d69)" d="M 774.936747 283.340243 
L 774.936747 274.594418 
" style="fill:none;stroke:#000000;stroke-width:1.5;"/>
    <path clip-path="url(#pc174651d69)" d="M 828.911404 328.574642 
L 828.911404 324.254939 
" style="fill:none;stroke:#000000;stroke-width:1.5;"/>
   </g>
   <g id="LineCollection_12">
    <path clip-path="url(#pc174651d69)" d="M 512.26008 329.204581 
L 512.26008 327.493681 
" style="fill:none;stroke:#000000;stroke-width:1.5;"/>
    <path clip-path="url(#pc174651d69)" d="M 566.234737 334.460813 
L 566.234737 333.437373 
" style="fill:none;stroke:#000000;stroke-width:1.5;"/>
    <path clip-path="url(#pc174651d69)" d="M 620.209395 332.480658 
L 620.209395 330.933959 
" style="fill:none;stroke:#000000;stroke-width:1.5;"/>
    <path clip-path="url(#pc174651d69)" d="M 674.184053 285.018455 
L 674.184053 280.188679 
" style="fill:none;stroke:#000000;stroke-width:1.5;"/>
    <path clip-path="url(#pc174651d69)" d="M 728.15871 330.626731 
L 728.15871 329.212823 
" style="fill:none;stroke:#000000;stroke-width:1.5;"/>
    <path clip-path="url(#pc174651d69)" d="M 782.133368 291.894272 
L 782.133368 287.938295 
" style="fill:none;stroke:#000000;stroke-width:1.5;"/>
    <path clip-path="url(#pc174651d69)" d="M 836.108025 328.484117 
L 836.108025 326.776807 
" style="fill:none;stroke:#000000;stroke-width:1.5;"/>
   </g>
   <g id="patch_99">
    <path d="M 459.185 337.3 
L 459.185 26.88 
" style="fill:none;stroke:#000000;stroke-linecap:square;stroke-linejoin:miter;stroke-width:0.8;"/>
   </g>
   <g id="patch_100">
    <path d="M 853.2 337.3 
L 853.2 26.88 
" style="fill:none;stroke:#000000;stroke-linecap:square;stroke-linejoin:miter;stroke-width:0.8;"/>
   </g>
   <g id="patch_101">
    <path d="M 459.185 337.3 
L 853.2 337.3 
" style="fill:none;stroke:#000000;stroke-linecap:square;stroke-linejoin:miter;stroke-width:0.8;"/>
   </g>
   <g id="patch_102">
    <path d="M 459.185 26.88 
L 853.2 26.88 
" style="fill:none;stroke:#000000;stroke-linecap:square;stroke-linejoin:miter;stroke-width:0.8;"/>
   </g>
   <g id="text_31">
    <!-- b) Patients discharged after hospitalisation with pneumonia -->
    <g transform="translate(459.185 20.88)scale(0.12 -0.12)">
     <defs>
      <path d="M 48.6875 27.296875 
Q 48.6875 37.203125 44.609375 42.84375 
Q 40.53125 48.484375 33.40625 48.484375 
Q 26.265625 48.484375 22.1875 42.84375 
Q 18.109375 37.203125 18.109375 27.296875 
Q 18.109375 17.390625 22.1875 11.75 
Q 26.265625 6.109375 33.40625 6.109375 
Q 40.53125 6.109375 44.609375 11.75 
Q 48.6875 17.390625 48.6875 27.296875 
z
M 18.109375 46.390625 
Q 20.953125 51.265625 25.265625 53.625 
Q 29.59375 56 35.59375 56 
Q 45.5625 56 51.78125 48.09375 
Q 58.015625 40.1875 58.015625 27.296875 
Q 58.015625 14.40625 51.78125 6.484375 
Q 45.5625 -1.421875 35.59375 -1.421875 
Q 29.59375 -1.421875 25.265625 0.953125 
Q 20.953125 3.328125 18.109375 8.203125 
L 18.109375 0 
L 9.078125 0 
L 9.078125 75.984375 
L 18.109375 75.984375 
z
" id="DejaVuSans-98"/>
     </defs>
     <use xlink:href="#DejaVuSans-98"/>
     <use x="63.476562" xlink:href="#DejaVuSans-41"/>
     <use x="102.490234" xlink:href="#DejaVuSans-32"/>
     <use x="134.277344" xlink:href="#DejaVuSans-80"/>
     <use x="190.080078" xlink:href="#DejaVuSans-97"/>
     <use x="251.359375" xlink:href="#DejaVuSans-116"/>
     <use x="290.568359" xlink:href="#DejaVuSans-105"/>
     <use x="318.351562" xlink:href="#DejaVuSans-101"/>
     <use x="379.875" xlink:href="#DejaVuSans-110"/>
     <use x="443.253906" xlink:href="#DejaVuSans-116"/>
     <use x="482.462891" xlink:href="#DejaVuSans-115"/>
     <use x="534.5625" xlink:href="#DejaVuSans-32"/>
     <use x="566.349609" xlink:href="#DejaVuSans-100"/>
     <use x="629.826172" xlink:href="#DejaVuSans-105"/>
     <use x="657.609375" xlink:href="#DejaVuSans-115"/>
     <use x="709.708984" xlink:href="#DejaVuSans-99"/>
     <use x="764.689453" xlink:href="#DejaVuSans-104"/>
     <use x="828.068359" xlink:href="#DejaVuSans-97"/>
     <use x="889.347656" xlink:href="#DejaVuSans-114"/>
     <use x="928.710938" xlink:href="#DejaVuSans-103"/>
     <use x="992.1875" xlink:href="#DejaVuSans-101"/>
     <use x="1053.710938" xlink:href="#DejaVuSans-100"/>
     <use x="1117.1875" xlink:href="#DejaVuSans-32"/>
     <use x="1148.974609" xlink:href="#DejaVuSans-97"/>
     <use x="1210.253906" xlink:href="#DejaVuSans-102"/>
     <use x="1243.708984" xlink:href="#DejaVuSans-116"/>
     <use x="1282.917969" xlink:href="#DejaVuSans-101"/>
     <use x="1344.441406" xlink:href="#DejaVuSans-114"/>
     <use x="1385.554688" xlink:href="#DejaVuSans-32"/>
     <use x="1417.341797" xlink:href="#DejaVuSans-104"/>
     <use x="1480.720703" xlink:href="#DejaVuSans-111"/>
     <use x="1541.902344" xlink:href="#DejaVuSans-115"/>
     <use x="1594.001953" xlink:href="#DejaVuSans-112"/>
     <use x="1657.478516" xlink:href="#DejaVuSans-105"/>
     <use x="1685.261719" xlink:href="#DejaVuSans-116"/>
     <use x="1724.470703" xlink:href="#DejaVuSans-97"/>
     <use x="1785.75" xlink:href="#DejaVuSans-108"/>
     <use x="1813.533203" xlink:href="#DejaVuSans-105"/>
     <use x="1841.316406" xlink:href="#DejaVuSans-115"/>
     <use x="1893.416016" xlink:href="#DejaVuSans-97"/>
     <use x="1954.695312" xlink:href="#DejaVuSans-116"/>
     <use x="1993.904297" xlink:href="#DejaVuSans-105"/>
     <use x="2021.6875" xlink:href="#DejaVuSans-111"/>
     <use x="2082.869141" xlink:href="#DejaVuSans-110"/>
     <use x="2146.248047" xlink:href="#DejaVuSans-32"/>
     <use x="2178.035156" xlink:href="#DejaVuSans-119"/>
     <use x="2259.822266" xlink:href="#DejaVuSans-105"/>
     <use x="2287.605469" xlink:href="#DejaVuSans-116"/>
     <use x="2326.814453" xlink:href="#DejaVuSans-104"/>
     <use x="2390.193359" xlink:href="#DejaVuSans-32"/>
     <use x="2421.980469" xlink:href="#DejaVuSans-112"/>
     <use x="2485.457031" xlink:href="#DejaVuSans-110"/>
     <use x="2548.835938" xlink:href="#DejaVuSans-101"/>
     <use x="2610.359375" xlink:href="#DejaVuSans-117"/>
     <use x="2673.738281" xlink:href="#DejaVuSans-109"/>
     <use x="2771.150391" xlink:href="#DejaVuSans-111"/>
     <use x="2832.332031" xlink:href="#DejaVuSans-110"/>
     <use x="2895.710938" xlink:href="#DejaVuSans-105"/>
     <use x="2923.494141" xlink:href="#DejaVuSans-97"/>
    </g>
   </g>
   <g id="legend_2">
    <g id="patch_103">
     <path d="M 466.185 137.626875 
L 618.519375 137.626875 
Q 620.519375 137.626875 620.519375 135.626875 
L 620.519375 33.88 
Q 620.519375 31.88 618.519375 31.88 
L 466.185 31.88 
Q 464.185 31.88 464.185 33.88 
L 464.185 135.626875 
Q 464.185 137.626875 466.185 137.626875 
z
" style="fill:#ffffff;opacity:0.8;stroke:#cccccc;stroke-linejoin:miter;"/>
    </g>
    <g id="text_32">
     <!-- Time since hospital discharge -->
     <g transform="translate(468.185 43.478438)scale(0.1 -0.1)">
      <use xlink:href="#DejaVuSans-84"/>
      <use x="57.958984" xlink:href="#DejaVuSans-105"/>
      <use x="85.742188" xlink:href="#DejaVuSans-109"/>
      <use x="183.154297" xlink:href="#DejaVuSans-101"/>
      <use x="244.677734" xlink:href="#DejaVuSans-32"/>
      <use x="276.464844" xlink:href="#DejaVuSans-115"/>
      <use x="328.564453" xlink:href="#DejaVuSans-105"/>
      <use x="356.347656" xlink:href="#DejaVuSans-110"/>
      <use x="419.726562" xlink:href="#DejaVuSans-99"/>
      <use x="474.707031" xlink:href="#DejaVuSans-101"/>
      <use x="536.230469" xlink:href="#DejaVuSans-32"/>
      <use x="568.017578" xlink:href="#DejaVuSans-104"/>
      <use x="631.396484" xlink:href="#DejaVuSans-111"/>
      <use x="692.578125" xlink:href="#DejaVuSans-115"/>
      <use x="744.677734" xlink:href="#DejaVuSans-112"/>
      <use x="808.154297" xlink:href="#DejaVuSans-105"/>
      <use x="835.9375" xlink:href="#DejaVuSans-116"/>
      <use x="875.146484" xlink:href="#DejaVuSans-97"/>
      <use x="936.425781" xlink:href="#DejaVuSans-108"/>
      <use x="964.208984" xlink:href="#DejaVuSans-32"/>
      <use x="995.996094" xlink:href="#DejaVuSans-100"/>
      <use x="1059.472656" xlink:href="#DejaVuSans-105"/>
      <use x="1087.255859" xlink:href="#DejaVuSans-115"/>
      <use x="1139.355469" xlink:href="#DejaVuSans-99"/>
      <use x="1194.335938" xlink:href="#DejaVuSans-104"/>
      <use x="1257.714844" xlink:href="#DejaVuSans-97"/>
      <use x="1318.994141" xlink:href="#DejaVuSans-114"/>
      <use x="1358.357422" xlink:href="#DejaVuSans-103"/>
      <use x="1421.833984" xlink:href="#DejaVuSans-101"/>
     </g>
    </g>
    <g id="patch_104">
     <path d="M 497.250625 58.156563 
L 517.250625 58.156563 
L 517.250625 51.156563 
L 497.250625 51.156563 
z
" style="fill:#ff7f00;"/>
    </g>
    <g id="text_33">
     <!-- Full period -->
     <g transform="translate(525.250625 58.156563)scale(0.1 -0.1)">
      <use xlink:href="#DejaVuSans-70"/>
      <use x="52.019531" xlink:href="#DejaVuSans-117"/>
      <use x="115.398438" xlink:href="#DejaVuSans-108"/>
      <use x="143.181641" xlink:href="#DejaVuSans-108"/>
      <use x="170.964844" xlink:href="#DejaVuSans-32"/>
      <use x="202.751953" xlink:href="#DejaVuSans-112"/>
      <use x="266.228516" xlink:href="#DejaVuSans-101"/>
      <use x="327.751953" xlink:href="#DejaVuSans-114"/>
      <use x="368.865234" xlink:href="#DejaVuSans-105"/>
      <use x="396.648438" xlink:href="#DejaVuSans-111"/>
      <use x="457.830078" xlink:href="#DejaVuSans-100"/>
     </g>
    </g>
    <g id="patch_105">
     <path d="M 497.250625 72.834688 
L 517.250625 72.834688 
L 517.250625 65.834688 
L 497.250625 65.834688 
z
" style="fill:#3579b1;"/>
    </g>
    <g id="text_34">
     <!-- 0-29 days -->
     <g transform="translate(525.250625 72.834688)scale(0.1 -0.1)">
      <use xlink:href="#DejaVuSans-48"/>
      <use x="63.623047" xlink:href="#DejaVuSans-45"/>
      <use x="99.707031" xlink:href="#DejaVuSans-50"/>
      <use x="163.330078" xlink:href="#DejaVuSans-57"/>
      <use x="226.953125" xlink:href="#DejaVuSans-32"/>
      <use x="258.740234" xlink:href="#DejaVuSans-100"/>
      <use x="322.216797" xlink:href="#DejaVuSans-97"/>
      <use x="383.496094" xlink:href="#DejaVuSans-121"/>
      <use x="442.675781" xlink:href="#DejaVuSans-115"/>
     </g>
    </g>
    <g id="patch_106">
     <path d="M 497.250625 87.512813 
L 517.250625 87.512813 
L 517.250625 80.512813 
L 497.250625 80.512813 
z
" style="fill:#3b86c4;"/>
    </g>
    <g id="text_35">
     <!-- 30-59 days -->
     <g transform="translate(525.250625 87.512813)scale(0.1 -0.1)">
      <use xlink:href="#DejaVuSans-51"/>
      <use x="63.623047" xlink:href="#DejaVuSans-48"/>
      <use x="127.246094" xlink:href="#DejaVuSans-45"/>
      <use x="163.330078" xlink:href="#DejaVuSans-53"/>
      <use x="226.953125" xlink:href="#DejaVuSans-57"/>
      <use x="290.576172" xlink:href="#DejaVuSans-32"/>
      <use x="322.363281" xlink:href="#DejaVuSans-100"/>
      <use x="385.839844" xlink:href="#DejaVuSans-97"/>
      <use x="447.119141" xlink:href="#DejaVuSans-121"/>
      <use x="506.298828" xlink:href="#DejaVuSans-115"/>
     </g>
    </g>
    <g id="patch_107">
     <path d="M 497.250625 102.190938 
L 517.250625 102.190938 
L 517.250625 95.190938 
L 497.250625 95.190938 
z
" style="fill:#4e92ca;"/>
    </g>
    <g id="text_36">
     <!-- 60-89 days -->
     <g transform="translate(525.250625 102.190938)scale(0.1 -0.1)">
      <use xlink:href="#DejaVuSans-54"/>
      <use x="63.623047" xlink:href="#DejaVuSans-48"/>
      <use x="127.246094" xlink:href="#DejaVuSans-45"/>
      <use x="163.330078" xlink:href="#DejaVuSans-56"/>
      <use x="226.953125" xlink:href="#DejaVuSans-57"/>
      <use x="290.576172" xlink:href="#DejaVuSans-32"/>
      <use x="322.363281" xlink:href="#DejaVuSans-100"/>
      <use x="385.839844" xlink:href="#DejaVuSans-97"/>
      <use x="447.119141" xlink:href="#DejaVuSans-121"/>
      <use x="506.298828" xlink:href="#DejaVuSans-115"/>
     </g>
    </g>
    <g id="patch_108">
     <path d="M 497.250625 116.869063 
L 517.250625 116.869063 
L 517.250625 109.869063 
L 497.250625 109.869063 
z
" style="fill:#629fd0;"/>
    </g>
    <g id="text_37">
     <!-- 90-119 days -->
     <g transform="translate(525.250625 116.869063)scale(0.1 -0.1)">
      <use xlink:href="#DejaVuSans-57"/>
      <use x="63.623047" xlink:href="#DejaVuSans-48"/>
      <use x="127.246094" xlink:href="#DejaVuSans-45"/>
      <use x="163.330078" xlink:href="#DejaVuSans-49"/>
      <use x="226.953125" xlink:href="#DejaVuSans-49"/>
      <use x="290.576172" xlink:href="#DejaVuSans-57"/>
      <use x="354.199219" xlink:href="#DejaVuSans-32"/>
      <use x="385.986328" xlink:href="#DejaVuSans-100"/>
      <use x="449.462891" xlink:href="#DejaVuSans-97"/>
      <use x="510.742188" xlink:href="#DejaVuSans-121"/>
      <use x="569.921875" xlink:href="#DejaVuSans-115"/>
     </g>
    </g>
    <g id="patch_109">
     <path d="M 497.250625 131.547188 
L 517.250625 131.547188 
L 517.250625 124.547188 
L 497.250625 124.547188 
z
" style="fill:#76abd6;"/>
    </g>
    <g id="text_38">
     <!-- 120+ days -->
     <g transform="translate(525.250625 131.547188)scale(0.1 -0.1)">
      <use xlink:href="#DejaVuSans-49"/>
      <use x="63.623047" xlink:href="#DejaVuSans-50"/>
      <use x="127.246094" xlink:href="#DejaVuSans-48"/>
      <use x="190.869141" xlink:href="#DejaVuSans-43"/>
      <use x="274.658203" xlink:href="#DejaVuSans-32"/>
      <use x="306.445312" xlink:href="#DejaVuSans-100"/>
      <use x="369.921875" xlink:href="#DejaVuSans-97"/>
      <use x="431.201172" xlink:href="#DejaVuSans-121"/>
      <use x="490.380859" xlink:href="#DejaVuSans-115"/>
     </g>
    </g>
   </g>
  </g>
 </g>
 <defs>
  <clipPath id="pd511e507ab">
   <rect height="310.42" width="394.015" x="50.87" y="26.88"/>
  </clipPath>
  <clipPath id="pc174651d69">
   <rect height="310.42" width="394.015" x="459.185" y="26.88"/>
  </clipPath>
 </defs>
</svg>
