<?xml version="1.0" encoding="UTF-8" standalone="no"?>
<!-- This is a Stata 16.1 generated SVG file (http://www.stata.com) -->

<svg version="1.1" width="5.50in" height="4.00in" viewBox="0 0 3960 2880" xmlns="http://www.w3.org/2000/svg" xmlns:xlink="http://www.w3.org/1999/xlink">
	<desc>Stata Graph - Graph</desc>
	<rect x="0" y="0" width="3960" height="2880" style="fill:#EAF2F3;stroke:none"/>
	<rect x="0.00" y="0.00" width="3959.88" height="2880.00" style="fill:#FFFFFF"/>
	<rect x="2.88" y="2.88" width="3954.12" height="2874.24" style="fill:none;stroke:#FFFFFF;stroke-width:5.76"/>
	<rect x="521.73" y="100.86" width="3337.29" height="2132.77" style="fill:#FFFFFF"/>
	<rect x="524.61" y="103.74" width="3331.53" height="2127.01" style="fill:none;stroke:#FFFFFF;stroke-width:5.76"/>
	<line x1="521.73" y1="2170.27" x2="3859.02" y2="2170.27" style="stroke:#EAF2F3;stroke-width:8.64"/>
	<line x1="521.73" y1="1501.63" x2="3859.02" y2="1501.63" style="stroke:#EAF2F3;stroke-width:8.64"/>
	<line x1="521.73" y1="832.86" x2="3859.02" y2="832.86" style="stroke:#EAF2F3;stroke-width:8.64"/>
	<line x1="521.73" y1="164.22" x2="3859.02" y2="164.22" style="stroke:#EAF2F3;stroke-width:8.64"/>
	<path d=" M601.18 2167.80 L601.18 2167.80 L601.18 2167.80 L601.18 2167.80 L601.18 2167.80 L617.14 2167.80 L617.14 2162.72 L617.14 2162.72 L617.14 2162.72 L617.14 2162.72 L617.14 2162.72 L617.14 2162.72 L617.14 2162.72 L617.14 2162.72 L617.14 2162.72 L617.14 2162.72 L617.14 2162.72 L625.18 2162.72 L625.18 2160.25 L625.18 2160.25 L625.18 2160.25 L625.18 2160.25 L625.18 2160.25 L633.23 2160.25 L633.23 2154.31 L633.23 2154.31 L633.23 2154.31 L633.23 2154.31 L633.23 2154.31 L633.23 2154.31 L633.23 2154.31 L633.23 2154.31 L633.23 2154.31 L633.23 2154.31 L633.23 2154.31 L633.23 2154.31 L633.23 2154.31 L641.27 2154.31 L641.27 2150.10 L641.27 2150.10 L641.27 2150.10 L641.27 2150.10 L641.27 2150.10 L641.27 2150.10 L641.27 2150.10 L641.27 2150.10 L641.27 2150.10 L649.32 2150.10 L649.32 2145.03 L649.32 2145.03 L649.32 2145.03 L649.32 2145.03 L649.32 2145.03 L649.32 2145.03 L649.32 2145.03 L649.32 2145.03 L649.32 2145.03 L649.32 2145.03 L649.32 2145.03 L657.36 2145.03 L657.36 2143.29 L657.36 2143.29 L657.36 2143.29 L665.28 2143.29 L665.28 2140.82 L665.28 2140.82 L665.28 2140.82 L665.28 2140.82 L665.28 2140.82 L673.32 2140.82 L673.32 2139.95 L681.37 2139.95 L681.37 2136.61 L681.37 2136.61 L681.37 2136.61 L681.37 2136.61 L681.37 2136.61 L681.37 2136.61 L681.37 2136.61 L689.41 2136.61 L689.41 2132.28 L689.41 2132.28 L689.41 2132.28 L689.41 2132.28 L689.41 2132.28 L689.41 2132.28 L689.41 2132.28 L689.41 2132.28 L689.41 2132.28 L697.46 2132.28 L697.46 2129.80 L697.46 2129.80 L697.46 2129.80 L697.46 2129.80 L697.46 2129.80 L705.50 2129.80 L705.50 2126.46 L705.50 2126.46 L705.50 2126.46 L705.50 2126.46 L705.50 2126.46 L705.50 2126.46 L705.50 2126.46 L713.54 2126.46 L713.54 2122.13 L713.54 2122.13 L713.54 2122.13 L713.54 2122.13 L713.54 2122.13 L713.54 2122.13 L713.54 2122.13 L713.54 2122.13 L713.54 2122.13 L721.46 2122.13 L721.46 2121.27 L729.51 2121.27 L729.51 2118.79 L729.51 2118.79 L729.51 2118.79 L729.51 2118.79 L729.51 2118.79 L737.55 2118.79 L737.55 2117.92 L745.59 2117.92 L745.59 2115.45 L745.59 2115.45 L745.59 2115.45 L745.59 2115.45 L745.59 2115.45 L753.64 2115.45 L753.64 2111.12 L753.64 2111.12 L753.64 2111.12 L753.64 2111.12 L753.64 2111.12 L753.64 2111.12 L753.64 2111.12 L753.64 2111.12 L753.64 2111.12 L761.68 2111.12 L761.68 2107.78 L761.68 2107.78 L761.68 2107.78 L761.68 2107.78 L761.68 2107.78 L761.68 2107.78 L761.68 2107.78 L769.73 2107.78 L769.73 2106.91 L777.77 2106.91 L777.77 2104.43 L777.77 2104.43 L777.77 2104.43 L777.77 2104.43 L777.77 2104.43 L785.69 2104.43 L785.69 2103.57 L793.73 2103.57 L793.73 2098.49 L793.73 2098.49 L793.73 2098.49 L793.73 2098.49 L793.73 2098.49 L793.73 2098.49 L793.73 2098.49 L793.73 2098.49 L793.73 2098.49 L793.73 2098.49 L793.73 2098.49 L801.78 2098.49 L801.78 2094.16 L801.78 2094.16 L801.78 2094.16 L801.78 2094.16 L801.78 2094.16 L801.78 2094.16 L801.78 2094.16 L801.78 2094.16 L801.78 2094.16 L809.82 2094.16 L809.82 2088.35 L809.82 2088.35 L809.82 2088.35 L809.82 2088.35 L809.82 2088.35 L809.82 2088.35 L809.82 2088.35 L809.82 2088.35 L809.82 2088.35 L809.82 2088.35 L809.82 2088.35 L809.82 2088.35 L809.82 2088.35 L817.86 2088.35 L817.86 2078.94 L817.86 2078.94 L817.86 2078.94 L817.86 2078.94 L817.86 2078.94 L817.86 2078.94 L817.86 2078.94 L817.86 2078.94 L817.86 2078.94 L817.86 2078.94 L817.86 2078.94 L817.86 2078.94 L817.86 2078.94 L817.86 2078.94 L817.86 2078.94 L817.86 2078.94 L817.86 2078.94 L817.86 2078.94 L817.86 2078.94 L817.86 2078.94 L817.86 2078.94 L825.91 2078.94 L825.91 2076.47 L825.91 2076.47 L825.91 2076.47 L825.91 2076.47 L825.91 2076.47 L833.95 2076.47 L833.95 2073.87 L833.95 2073.87 L833.95 2073.87 L833.95 2073.87 L833.95 2073.87 L841.87 2073.87 L841.87 2069.66 L841.87 2069.66 L841.87 2069.66 L841.87 2069.66 L841.87 2069.66 L841.87 2069.66 L841.87 2069.66 L841.87 2069.66 L841.87 2069.66 L849.91 2069.66 L849.91 2065.45 L849.91 2065.45 L849.91 2065.45 L849.91 2065.45 L849.91 2065.45 L849.91 2065.45 L849.91 2065.45 L849.91 2065.45 L849.91 2065.45 L857.96 2065.45 L857.96 2063.72 L857.96 2063.72 L857.96 2063.72 L866.00 2063.72 L866.00 2061.12 L866.00 2061.12 L866.00 2061.12 L866.00 2061.12 L866.00 2061.12 L874.05 2061.12 L874.05 2056.91 L874.05 2056.91 L874.05 2056.91 L874.05 2056.91 L874.05 2056.91 L874.05 2056.91 L874.05 2056.91 L874.05 2056.91 L874.05 2056.91 L882.09 2056.91 L882.09 2054.44 L882.09 2054.44 L882.09 2054.44 L882.09 2054.44 L882.09 2054.44 L890.13 2054.44 L890.13 2051.84 L890.13 2051.84 L890.13 2051.84 L890.13 2051.84 L890.13 2051.84 L898.05 2051.84 L898.05 2049.36 L898.05 2049.36 L898.05 2049.36 L898.05 2049.36 L898.05 2049.36 L906.10 2049.36 L906.10 2045.03 L906.10 2045.03 L906.10 2045.03 L906.10 2045.03 L906.10 2045.03 L906.10 2045.03 L906.10 2045.03 L906.10 2045.03 L906.10 2045.03 L914.14 2045.03 L914.14 2043.42 L914.14 2043.42 L914.14 2043.42 L922.18 2043.42 L922.18 2040.83 L922.18 2040.83 L922.18 2040.83 L922.18 2040.83 L922.18 2040.83 L930.23 2040.83 L930.23 2034.88 L930.23 2034.88 L930.23 2034.88 L930.23 2034.88 L930.23 2034.88 L930.23 2034.88 L930.23 2034.88 L930.23 2034.88 L930.23 2034.88 L930.23 2034.88 L930.23 2034.88 L930.23 2034.88 L930.23 2034.88 L938.27 2034.88 L938.27 2032.41 L938.27 2032.41 L938.27 2032.41 L938.27 2032.41 L938.27 2032.41 L946.32 2032.41 L946.32 2026.47 L946.32 2026.47 L946.32 2026.47 L946.32 2026.47 L946.32 2026.47 L946.32 2026.47 L946.32 2026.47 L946.32 2026.47 L946.32 2026.47 L946.32 2026.47 L946.32 2026.47 L946.32 2026.47 L946.32 2026.47 L954.24 2026.47 L954.24 2024.74 L954.24 2024.74 L954.24 2024.74 L962.28 2024.74 L962.28 2022.14 L962.28 2022.14 L962.28 2022.14 L962.28 2022.14 L962.28 2022.14 L970.32 2022.14 L970.32 2017.93 L970.32 2017.93 L970.32 2017.93 L970.32 2017.93 L970.32 2017.93 L970.32 2017.93 L970.32 2017.93 L970.32 2017.93 L970.32 2017.93 L978.37 2017.93 L978.37 2014.59 L978.37 2014.59 L978.37 2014.59 L978.37 2014.59 L978.37 2014.59 L978.37 2014.59 L978.37 2014.59 L994.46 2014.59 L994.46 2012.86 L994.46 2012.86 L994.46 2012.86 L1002.50 2012.86 L1002.50 2011.99 L1010.42 2011.99 L1010.42 2010.26 L1010.42 2010.26 L1010.42 2010.26 L1018.46 2010.26 L1018.46 2006.05 L1018.46 2006.05 L1018.46 2006.05 L1018.46 2006.05 L1018.46 2006.05 L1018.46 2006.05 L1018.46 2006.05 L1018.46 2006.05 L1018.46 2006.05 L1026.51 2006.05 L1026.51 2002.71 L1026.51 2002.71 L1026.51 2002.71 L1026.51 2002.71 L1026.51 2002.71 L1026.51 2002.71 L1026.51 2002.71 L1034.55 2002.71 L1034.55 1998.38 L1034.55 1998.38 L1034.55 1998.38 L1034.55 1998.38 L1034.55 1998.38 L1034.55 1998.38 L1034.55 1998.38 L1034.55 1998.38 L1034.55 1998.38 L1042.59 1998.38 L1042.59 1994.17 L1042.59 1994.17 L1042.59 1994.17 L1042.59 1994.17 L1042.59 1994.17 L1042.59 1994.17 L1042.59 1994.17 L1042.59 1994.17 L1042.59 1994.17 L1050.64 1994.17 L1050.64 1991.69 L1050.64 1991.69 L1050.64 1991.69 L1050.64 1991.69 L1050.64 1991.69 L1058.68 1991.69 L1058.68 1990.83 L1066.60 1990.83 L1066.60 1985.75 L1066.60 1985.75 L1066.60 1985.75 L1066.60 1985.75 L1066.60 1985.75 L1066.60 1985.75 L1066.60 1985.75 L1066.60 1985.75 L1066.60 1985.75 L1066.60 1985.75 L1066.60 1985.75 L1074.64 1985.75 L1074.64 1984.02 L1074.64 1984.02 L1074.64 1984.02 L1082.69 1984.02 L1082.69 1981.42 L1082.69 1981.42 L1082.69 1981.42 L1082.69 1981.42 L1082.69 1981.42 L1090.73 1981.42 L1090.73 1977.22 L1090.73 1977.22 L1090.73 1977.22 L1090.73 1977.22 L1090.73 1977.22 L1090.73 1977.22 L1090.73 1977.22 L1090.73 1977.22 L1090.73 1977.22 L1098.78 1977.22 L1098.78 1973.75 L1098.78 1973.75 L1098.78 1973.75 L1098.78 1973.75 L1098.78 1973.75 L1098.78 1973.75 L1098.78 1973.75 L1106.82 1973.75 L1106.82 1970.41 L1106.82 1970.41 L1106.82 1970.41 L1106.82 1970.41 L1106.82 1970.41 L1106.82 1970.41 L1106.82 1970.41 L1114.86 1970.41 L1114.86 1967.81 L1114.86 1967.81 L1114.86 1967.81 L1114.86 1967.81 L1114.86 1967.81 L1122.78 1967.81 L1122.78 1963.60 L1122.78 1963.60 L1122.78 1963.60 L1122.78 1963.60 L1122.78 1963.60 L1122.78 1963.60 L1122.78 1963.60 L1122.78 1963.60 L1122.78 1963.60 L1130.83 1963.60 L1130.83 1961.13 L1130.83 1961.13 L1130.83 1961.13 L1130.83 1961.13 L1130.83 1961.13 L1138.87 1961.13 L1138.87 1958.53 L1138.87 1958.53 L1138.87 1958.53 L1138.87 1958.53 L1138.87 1958.53 L1146.91 1958.53 L1146.91 1954.32 L1146.91 1954.32 L1146.91 1954.32 L1146.91 1954.32 L1146.91 1954.32 L1146.91 1954.32 L1146.91 1954.32 L1146.91 1954.32 L1146.91 1954.32 L1154.96 1954.32 L1154.96 1949.25 L1154.96 1949.25 L1154.96 1949.25 L1154.96 1949.25 L1154.96 1949.25 L1154.96 1949.25 L1154.96 1949.25 L1154.96 1949.25 L1154.96 1949.25 L1154.96 1949.25 L1154.96 1949.25 L1163.00 1949.25 L1163.00 1948.38 L1171.05 1948.38 L1171.05 1945.78 L1171.05 1945.78 L1171.05 1945.78 L1171.05 1945.78 L1171.05 1945.78 L1179.09 1945.78 L1179.09 1942.44 L1179.09 1942.44 L1179.09 1942.44 L1179.09 1942.44 L1179.09 1942.44 L1179.09 1942.44 L1179.09 1942.44 L1195.05 1942.44 L1195.05 1938.98 L1195.05 1938.98 L1195.05 1938.98 L1195.05 1938.98 L1195.05 1938.98 L1195.05 1938.98 L1195.05 1938.98 L1203.10 1938.98 L1203.10 1935.63 L1203.10 1935.63 L1203.10 1935.63 L1203.10 1935.63 L1203.10 1935.63 L1203.10 1935.63 L1203.10 1935.63 L1211.14 1935.63 L1211.14 1933.04 L1211.14 1933.04 L1211.14 1933.04 L1211.14 1933.04 L1211.14 1933.04 L1219.18 1933.04 L1219.18 1932.17 L1227.23 1932.17 L1227.23 1927.96 L1227.23 1927.96 L1227.23 1927.96 L1227.23 1927.96 L1227.23 1927.96 L1227.23 1927.96 L1227.23 1927.96 L1227.23 1927.96 L1227.23 1927.96 L1235.27 1927.96 L1235.27 1925.36 L1235.27 1925.36 L1235.27 1925.36 L1235.27 1925.36 L1235.27 1925.36 L1243.19 1925.36 L1243.19 1922.89 L1243.19 1922.89 L1243.19 1922.89 L1243.19 1922.89 L1243.19 1922.89 L1251.24 1922.89 L1251.24 1917.81 L1251.24 1917.81 L1251.24 1917.81 L1251.24 1917.81 L1251.24 1917.81 L1251.24 1917.81 L1251.24 1917.81 L1251.24 1917.81 L1251.24 1917.81 L1251.24 1917.81 L1251.24 1917.81 L1259.28 1917.81 L1259.28 1916.95 L1267.32 1916.95 L1267.32 1916.08 L1275.37 1916.08 L1275.37 1914.35 L1275.37 1914.35 L1275.37 1914.35 L1283.41 1914.35 L1283.41 1913.48 L1291.45 1913.48 L1291.45 1908.41 L1291.45 1908.41 L1291.45 1908.41 L1291.45 1908.41 L1291.45 1908.41 L1291.45 1908.41 L1291.45 1908.41 L1291.45 1908.41 L1291.45 1908.41 L1291.45 1908.41 L1291.45 1908.41 L1299.38 1908.41 L1299.38 1904.20 L1299.38 1904.20 L1299.38 1904.20 L1299.38 1904.20 L1299.38 1904.20 L1299.38 1904.20 L1299.38 1904.20 L1299.38 1904.20 L1299.38 1904.20 L1307.42 1904.20 L1307.42 1900.74 L1307.42 1900.74 L1307.42 1900.74 L1307.42 1900.74 L1307.42 1900.74 L1307.42 1900.74 L1307.42 1900.74 L1315.46 1900.74 L1315.46 1898.26 L1315.46 1898.26 L1315.46 1898.26 L1315.46 1898.26 L1315.46 1898.26 L1323.51 1898.26 L1323.51 1894.80 L1323.51 1894.80 L1323.51 1894.80 L1323.51 1894.80 L1323.51 1894.80 L1323.51 1894.80 L1323.51 1894.80 L1331.55 1894.80 L1331.55 1891.45 L1331.55 1891.45 L1331.55 1891.45 L1331.55 1891.45 L1331.55 1891.45 L1331.55 1891.45 L1331.55 1891.45 L1339.59 1891.45 L1339.59 1889.72 L1339.59 1889.72 L1339.59 1889.72 L1355.56 1889.72 L1355.56 1887.12 L1355.56 1887.12 L1355.56 1887.12 L1355.56 1887.12 L1355.56 1887.12 L1363.60 1887.12 L1363.60 1884.65 L1363.60 1884.65 L1363.60 1884.65 L1363.60 1884.65 L1363.60 1884.65 L1371.64 1884.65 L1371.64 1878.71 L1371.64 1878.71 L1371.64 1878.71 L1371.64 1878.71 L1371.64 1878.71 L1371.64 1878.71 L1371.64 1878.71 L1371.64 1878.71 L1371.64 1878.71 L1371.64 1878.71 L1371.64 1878.71 L1371.64 1878.71 L1371.64 1878.71 L1379.69 1878.71 L1379.69 1872.64 L1379.69 1872.64 L1379.69 1872.64 L1379.69 1872.64 L1379.69 1872.64 L1379.69 1872.64 L1379.69 1872.64 L1379.69 1872.64 L1379.69 1872.64 L1379.69 1872.64 L1379.69 1872.64 L1379.69 1872.64 L1379.69 1872.64 L1387.73 1872.64 L1387.73 1870.17 L1387.73 1870.17 L1387.73 1870.17 L1387.73 1870.17 L1387.73 1870.17 L1395.78 1870.17 L1395.78 1867.57 L1395.78 1867.57 L1395.78 1867.57 L1395.78 1867.57 L1395.78 1867.57 L1403.82 1867.57 L1403.82 1864.23 L1403.82 1864.23 L1403.82 1864.23 L1403.82 1864.23 L1403.82 1864.23 L1403.82 1864.23 L1403.82 1864.23 L1411.74 1864.23 L1411.74 1862.50 L1411.74 1862.50 L1411.74 1862.50 L1419.78 1862.50 L1419.78 1859.90 L1419.78 1859.90 L1419.78 1859.90 L1419.78 1859.90 L1419.78 1859.90 L1427.83 1859.90 L1427.83 1855.69 L1427.83 1855.69 L1427.83 1855.69 L1427.83 1855.69 L1427.83 1855.69 L1427.83 1855.69 L1427.83 1855.69 L1427.83 1855.69 L1427.83 1855.69 L1435.87 1855.69 L1435.87 1854.82 L1443.91 1854.82 L1443.91 1853.09 L1443.91 1853.09 L1443.91 1853.09 L1451.96 1853.09 L1451.96 1850.62 L1451.96 1850.62 L1451.96 1850.62 L1451.96 1850.62 L1451.96 1850.62 L1460.00 1850.62 L1460.00 1848.02 L1460.00 1848.02 L1460.00 1848.02 L1460.00 1848.02 L1460.00 1848.02 L1467.92 1848.02 L1467.92 1847.15 L1475.97 1847.15 L1475.97 1845.54 L1475.97 1845.54 L1475.97 1845.54 L1484.01 1845.54 L1484.01 1839.48 L1484.01 1839.48 L1484.01 1839.48 L1484.01 1839.48 L1484.01 1839.48 L1484.01 1839.48 L1484.01 1839.48 L1484.01 1839.48 L1484.01 1839.48 L1484.01 1839.48 L1484.01 1839.48 L1484.01 1839.48 L1484.01 1839.48 L1492.05 1839.48 L1492.05 1837.87 L1492.05 1837.87 L1492.05 1837.87 L1500.10 1837.87 L1500.10 1836.14 L1500.10 1836.14 L1500.10 1836.14 L1508.14 1836.14 L1508.14 1831.93 L1508.14 1831.93 L1508.14 1831.93 L1508.14 1831.93 L1508.14 1831.93 L1508.14 1831.93 L1508.14 1831.93 L1508.14 1831.93 L1508.14 1831.93 L1524.23 1831.93 L1524.23 1830.20 L1524.23 1830.20 L1524.23 1830.20 L1532.15 1830.20 L1532.15 1826.73 L1532.15 1826.73 L1532.15 1826.73 L1532.15 1826.73 L1532.15 1826.73 L1532.15 1826.73 L1532.15 1826.73 L1540.19 1826.73 L1540.19 1825.86 L1548.24 1825.86 L1548.24 1821.66 L1548.24 1821.66 L1548.24 1821.66 L1548.24 1821.66 L1548.24 1821.66 L1548.24 1821.66 L1548.24 1821.66 L1548.24 1821.66 L1548.24 1821.66 L1556.28 1821.66 L1556.28 1820.79 L1572.37 1820.79 L1572.37 1814.85 L1572.37 1814.85 L1572.37 1814.85 L1572.37 1814.85 L1572.37 1814.85 L1572.37 1814.85 L1572.37 1814.85 L1572.37 1814.85 L1572.37 1814.85 L1572.37 1814.85 L1572.37 1814.85 L1572.37 1814.85 L1572.37 1814.85 L1580.41 1814.85 L1580.41 1811.39 L1580.41 1811.39 L1580.41 1811.39 L1580.41 1811.39 L1580.41 1811.39 L1580.41 1811.39 L1580.41 1811.39 L1588.33 1811.39 L1588.33 1808.91 L1588.33 1808.91 L1588.33 1808.91 L1588.33 1808.91 L1588.33 1808.91 L1596.38 1808.91 L1596.38 1804.58 L1596.38 1804.58 L1596.38 1804.58 L1596.38 1804.58 L1596.38 1804.58 L1596.38 1804.58 L1596.38 1804.58 L1596.38 1804.58 L1596.38 1804.58 L1604.42 1804.58 L1604.42 1801.24 L1604.42 1801.24 L1604.42 1801.24 L1604.42 1801.24 L1604.42 1801.24 L1604.42 1801.24 L1604.42 1801.24 L1612.46 1801.24 L1612.46 1800.37 L1620.51 1800.37 L1620.51 1799.50 L1628.55 1799.50 L1628.55 1797.77 L1628.55 1797.77 L1628.55 1797.77 L1636.59 1797.77 L1636.59 1796.16 L1636.59 1796.16 L1636.59 1796.16 L1644.51 1796.16 L1644.51 1790.10 L1644.51 1790.10 L1644.51 1790.10 L1644.51 1790.10 L1644.51 1790.10 L1644.51 1790.10 L1644.51 1790.10 L1644.51 1790.10 L1644.51 1790.10 L1644.51 1790.10 L1644.51 1790.10 L1644.51 1790.10 L1644.51 1790.10 L1652.56 1790.10 L1652.56 1787.62 L1652.56 1787.62 L1652.56 1787.62 L1652.56 1787.62 L1652.56 1787.62 L1660.60 1787.62 L1660.60 1785.03 L1660.60 1785.03 L1660.60 1785.03 L1660.60 1785.03 L1660.60 1785.03 L1668.64 1785.03 L1668.64 1783.29 L1668.64 1783.29 L1668.64 1783.29 L1676.69 1783.29 L1676.69 1779.95 L1676.69 1779.95 L1676.69 1779.95 L1676.69 1779.95 L1676.69 1779.95 L1676.69 1779.95 L1676.69 1779.95 L1684.73 1779.95 L1684.73 1776.49 L1684.73 1776.49 L1684.73 1776.49 L1684.73 1776.49 L1684.73 1776.49 L1684.73 1776.49 L1684.73 1776.49 L1692.78 1776.49 L1692.78 1774.01 L1692.78 1774.01 L1692.78 1774.01 L1692.78 1774.01 L1692.78 1774.01 L1700.70 1774.01 L1700.70 1772.28 L1700.70 1772.28 L1700.70 1772.28 L1708.74 1772.28 L1708.74 1767.21 L1708.74 1767.21 L1708.74 1767.21 L1708.74 1767.21 L1708.74 1767.21 L1708.74 1767.21 L1708.74 1767.21 L1708.74 1767.21 L1708.74 1767.21 L1708.74 1767.21 L1708.74 1767.21 L1716.78 1767.21 L1716.78 1764.61 L1716.78 1764.61 L1716.78 1764.61 L1716.78 1764.61 L1716.78 1764.61 L1724.83 1764.61 L1724.83 1762.87 L1724.83 1762.87 L1724.83 1762.87 L1732.87 1762.87 L1732.87 1761.14 L1732.87 1761.14 L1732.87 1761.14 L1740.91 1761.14 L1740.91 1759.53 L1740.91 1759.53 L1740.91 1759.53 L1748.96 1759.53 L1748.96 1758.67 L1756.88 1758.67 L1756.88 1756.93 L1756.88 1756.93 L1756.88 1756.93 L1764.92 1756.93 L1764.92 1754.33 L1764.92 1754.33 L1764.92 1754.33 L1764.92 1754.33 L1764.92 1754.33 L1772.97 1754.33 L1772.97 1750.99 L1772.97 1750.99 L1772.97 1750.99 L1772.97 1750.99 L1772.97 1750.99 L1772.97 1750.99 L1772.97 1750.99 L1781.01 1750.99 L1781.01 1749.26 L1781.01 1749.26 L1781.01 1749.26 L1789.05 1749.26 L1789.05 1746.66 L1789.05 1746.66 L1789.05 1746.66 L1789.05 1746.66 L1789.05 1746.66 L1797.10 1746.66 L1797.10 1745.05 L1797.10 1745.05 L1797.10 1745.05 L1805.14 1745.05 L1805.14 1740.72 L1805.14 1740.72 L1805.14 1740.72 L1805.14 1740.72 L1805.14 1740.72 L1805.14 1740.72 L1805.14 1740.72 L1805.14 1740.72 L1805.14 1740.72 L1813.06 1740.72 L1813.06 1739.86 L1821.11 1739.86 L1821.11 1736.51 L1821.11 1736.51 L1821.11 1736.51 L1821.11 1736.51 L1821.11 1736.51 L1821.11 1736.51 L1821.11 1736.51 L1829.15 1736.51 L1829.15 1733.05 L1829.15 1733.05 L1829.15 1733.05 L1829.15 1733.05 L1829.15 1733.05 L1829.15 1733.05 L1829.15 1733.05 L1837.19 1733.05 L1837.19 1730.57 L1837.19 1730.57 L1837.19 1730.57 L1837.19 1730.57 L1837.19 1730.57 L1845.24 1730.57 L1845.24 1728.84 L1845.24 1728.84 L1845.24 1728.84 L1853.28 1728.84 L1853.28 1725.38 L1853.28 1725.38 L1853.28 1725.38 L1853.28 1725.38 L1853.28 1725.38 L1853.28 1725.38 L1853.28 1725.38 L1861.32 1725.38 L1861.32 1721.17 L1861.32 1721.17 L1861.32 1721.17 L1861.32 1721.17 L1861.32 1721.17 L1861.32 1721.17 L1861.32 1721.17 L1861.32 1721.17 L1861.32 1721.17 L1869.37 1721.17 L1869.37 1718.57 L1869.37 1718.57 L1869.37 1718.57 L1869.37 1718.57 L1869.37 1718.57 L1877.29 1718.57 L1877.29 1717.70 L1885.33 1717.70 L1885.33 1712.63 L1885.33 1712.63 L1885.33 1712.63 L1885.33 1712.63 L1885.33 1712.63 L1885.33 1712.63 L1885.33 1712.63 L1885.33 1712.63 L1885.33 1712.63 L1885.33 1712.63 L1885.33 1712.63 L1901.42 1712.63 L1901.42 1711.76 L1909.46 1711.76 L1909.46 1710.90 L1917.51 1710.90 L1917.51 1710.03 L1925.55 1710.03 L1925.55 1708.30 L1925.55 1708.30 L1925.55 1708.30 L1933.47 1708.30 L1933.47 1707.56 L1941.51 1707.56 L1941.51 1705.82 L1941.51 1705.82 L1941.51 1705.82 L1949.56 1705.82 L1949.56 1702.36 L1949.56 1702.36 L1949.56 1702.36 L1949.56 1702.36 L1949.56 1702.36 L1949.56 1702.36 L1949.56 1702.36 L1957.60 1702.36 L1957.60 1699.02 L1957.60 1699.02 L1957.60 1699.02 L1957.60 1699.02 L1957.60 1699.02 L1957.60 1699.02 L1957.60 1699.02 L1965.64 1699.02 L1965.64 1697.28 L1965.64 1697.28 L1965.64 1697.28 L1973.69 1697.28 L1973.69 1693.82 L1973.69 1693.82 L1973.69 1693.82 L1973.69 1693.82 L1973.69 1693.82 L1973.69 1693.82 L1973.69 1693.82 L1989.65 1693.82 L1989.65 1691.34 L1989.65 1691.34 L1989.65 1691.34 L1989.65 1691.34 L1989.65 1691.34 L1997.70 1691.34 L1997.70 1685.28 L1997.70 1685.28 L1997.70 1685.28 L1997.70 1685.28 L1997.70 1685.28 L1997.70 1685.28 L1997.70 1685.28 L1997.70 1685.28 L1997.70 1685.28 L1997.70 1685.28 L1997.70 1685.28 L1997.70 1685.28 L1997.70 1685.28 L2005.74 1685.28 L2005.74 1683.67 L2005.74 1683.67 L2005.74 1683.67 L2013.78 1683.67 L2013.78 1679.34 L2013.78 1679.34 L2013.78 1679.34 L2013.78 1679.34 L2013.78 1679.34 L2013.78 1679.34 L2013.78 1679.34 L2013.78 1679.34 L2013.78 1679.34 L2021.83 1679.34 L2021.83 1676.74 L2021.83 1676.74 L2021.83 1676.74 L2021.83 1676.74 L2021.83 1676.74 L2029.87 1676.74 L2029.87 1675.13 L2029.87 1675.13 L2029.87 1675.13 L2037.91 1675.13 L2037.91 1670.80 L2037.91 1670.80 L2037.91 1670.80 L2037.91 1670.80 L2037.91 1670.80 L2037.91 1670.80 L2037.91 1670.80 L2037.91 1670.80 L2037.91 1670.80 L2045.84 1670.80 L2045.84 1666.59 L2045.84 1666.59 L2045.84 1666.59 L2045.84 1666.59 L2045.84 1666.59 L2045.84 1666.59 L2045.84 1666.59 L2045.84 1666.59 L2045.84 1666.59 L2053.88 1666.59 L2053.88 1663.99 L2053.88 1663.99 L2053.88 1663.99 L2053.88 1663.99 L2053.88 1663.99 L2061.92 1663.99 L2061.92 1662.26 L2061.92 1662.26 L2061.92 1662.26 L2069.97 1662.26 L2069.97 1661.40 L2078.01 1661.40 L2078.01 1658.92 L2078.01 1658.92 L2078.01 1658.92 L2078.01 1658.92 L2078.01 1658.92 L2086.05 1658.92 L2086.05 1655.46 L2086.05 1655.46 L2086.05 1655.46 L2086.05 1655.46 L2086.05 1655.46 L2086.05 1655.46 L2086.05 1655.46 L2094.10 1655.46 L2094.10 1652.86 L2094.10 1652.86 L2094.10 1652.86 L2094.10 1652.86 L2094.10 1652.86 L2102.02 1652.86 L2102.02 1651.99 L2110.06 1651.99 L2110.06 1650.38 L2110.06 1650.38 L2110.06 1650.38 L2118.11 1650.38 L2118.11 1647.78 L2118.11 1647.78 L2118.11 1647.78 L2118.11 1647.78 L2118.11 1647.78 L2126.15 1647.78 L2126.15 1645.18 L2126.15 1645.18 L2126.15 1645.18 L2126.15 1645.18 L2126.15 1645.18 L2134.19 1645.18 L2134.19 1642.71 L2134.19 1642.71 L2134.19 1642.71 L2134.19 1642.71 L2134.19 1642.71 L2142.24 1642.71 L2142.24 1639.24 L2142.24 1639.24 L2142.24 1639.24 L2142.24 1639.24 L2142.24 1639.24 L2142.24 1639.24 L2142.24 1639.24 L2150.28 1639.24 L2150.28 1636.64 L2150.28 1636.64 L2150.28 1636.64 L2150.28 1636.64 L2150.28 1636.64 L2158.20 1636.64 L2158.20 1631.57 L2158.20 1631.57 L2158.20 1631.57 L2158.20 1631.57 L2158.20 1631.57 L2158.20 1631.57 L2158.20 1631.57 L2158.20 1631.57 L2158.20 1631.57 L2158.20 1631.57 L2158.20 1631.57 L2166.24 1631.57 L2166.24 1628.97 L2166.24 1628.97 L2166.24 1628.97 L2166.24 1628.97 L2166.24 1628.97 L2174.29 1628.97 L2174.29 1627.24 L2174.29 1627.24 L2174.29 1627.24 L2182.33 1627.24 L2182.33 1623.90 L2182.33 1623.90 L2182.33 1623.90 L2182.33 1623.90 L2182.33 1623.90 L2182.33 1623.90 L2182.33 1623.90 L2190.38 1623.90 L2190.38 1621.30 L2190.38 1621.30 L2190.38 1621.30 L2190.38 1621.30 L2190.38 1621.30 L2198.42 1621.30 L2198.42 1617.09 L2198.42 1617.09 L2198.42 1617.09 L2198.42 1617.09 L2198.42 1617.09 L2198.42 1617.09 L2198.42 1617.09 L2198.42 1617.09 L2198.42 1617.09 L2206.46 1617.09 L2206.46 1613.63 L2206.46 1613.63 L2206.46 1613.63 L2206.46 1613.63 L2206.46 1613.63 L2206.46 1613.63 L2206.46 1613.63 L2214.51 1613.63 L2214.51 1612.76 L2222.43 1612.76 L2222.43 1609.30 L2222.43 1609.30 L2222.43 1609.30 L2222.43 1609.30 L2222.43 1609.30 L2222.43 1609.30 L2222.43 1609.30 L2230.47 1609.30 L2230.47 1605.09 L2230.47 1605.09 L2230.47 1605.09 L2230.47 1605.09 L2230.47 1605.09 L2230.47 1605.09 L2230.47 1605.09 L2230.47 1605.09 L2230.47 1605.09 L2238.51 1605.09 L2238.51 1600.76 L2238.51 1600.76 L2238.51 1600.76 L2238.51 1600.76 L2238.51 1600.76 L2238.51 1600.76 L2238.51 1600.76 L2238.51 1600.76 L2238.51 1600.76 L2246.56 1600.76 L2246.56 1597.41 L2246.56 1597.41 L2246.56 1597.41 L2246.56 1597.41 L2246.56 1597.41 L2246.56 1597.41 L2246.56 1597.41 L2254.60 1597.41 L2254.60 1594.82 L2254.60 1594.82 L2254.60 1594.82 L2254.60 1594.82 L2254.60 1594.82 L2262.64 1594.82 L2262.64 1592.22 L2262.64 1592.22 L2262.64 1592.22 L2262.64 1592.22 L2262.64 1592.22 L2270.69 1592.22 L2270.69 1590.61 L2270.69 1590.61 L2270.69 1590.61 L2278.61 1590.61 L2278.61 1586.28 L2278.61 1586.28 L2278.61 1586.28 L2278.61 1586.28 L2278.61 1586.28 L2278.61 1586.28 L2278.61 1586.28 L2278.61 1586.28 L2278.61 1586.28 L2286.65 1586.28 L2286.65 1584.54 L2286.65 1584.54 L2286.65 1584.54 L2294.70 1584.54 L2294.70 1580.34 L2294.70 1580.34 L2294.70 1580.34 L2294.70 1580.34 L2294.70 1580.34 L2294.70 1580.34 L2294.70 1580.34 L2294.70 1580.34 L2294.70 1580.34 L2302.74 1580.34 L2302.74 1576.87 L2302.74 1576.87 L2302.74 1576.87 L2302.74 1576.87 L2302.74 1576.87 L2302.74 1576.87 L2302.74 1576.87 L2310.78 1576.87 L2310.78 1574.27 L2310.78 1574.27 L2310.78 1574.27 L2310.78 1574.27 L2310.78 1574.27 L2318.83 1574.27 L2318.83 1573.41 L2326.87 1573.41 L2326.87 1570.93 L2326.87 1570.93 L2326.87 1570.93 L2326.87 1570.93 L2326.87 1570.93 L2334.79 1570.93 L2334.79 1569.20 L2334.79 1569.20 L2334.79 1569.20 L2342.84 1569.20 L2342.84 1567.47 L2342.84 1567.47 L2342.84 1567.47 L2350.88 1567.47 L2350.88 1564.87 L2350.88 1564.87 L2350.88 1564.87 L2350.88 1564.87 L2350.88 1564.87 L2358.92 1564.87 L2358.92 1561.53 L2358.92 1561.53 L2358.92 1561.53 L2358.92 1561.53 L2358.92 1561.53 L2358.92 1561.53 L2358.92 1561.53 L2366.97 1561.53 L2366.97 1559.79 L2366.97 1559.79 L2366.97 1559.79 L2375.01 1559.79 L2375.01 1558.93 L2383.05 1558.93 L2383.05 1558.06 L2390.97 1558.06 L2390.97 1552.99 L2390.97 1552.99 L2390.97 1552.99 L2390.97 1552.99 L2390.97 1552.99 L2390.97 1552.99 L2390.97 1552.99 L2390.97 1552.99 L2390.97 1552.99 L2390.97 1552.99 L2390.97 1552.99 L2399.02 1552.99 L2399.02 1550.39 L2399.02 1550.39 L2399.02 1550.39 L2399.02 1550.39 L2399.02 1550.39 L2407.06 1550.39 L2407.06 1549.52 L2415.11 1549.52 L2415.11 1546.92 L2415.11 1546.92 L2415.11 1546.92 L2415.11 1546.92 L2415.11 1546.92 L2423.15 1546.92 L2423.15 1544.45 L2423.15 1544.45 L2423.15 1544.45 L2423.15 1544.45 L2423.15 1544.45 L2431.19 1544.45 L2431.19 1540.12 L2431.19 1540.12 L2431.19 1540.12 L2431.19 1540.12 L2431.19 1540.12 L2431.19 1540.12 L2431.19 1540.12 L2431.19 1540.12 L2431.19 1540.12 L2439.24 1540.12 L2439.24 1537.52 L2439.24 1537.52 L2439.24 1537.52 L2439.24 1537.52 L2439.24 1537.52 L2447.16 1537.52 L2447.16 1535.04 L2447.16 1535.04 L2447.16 1535.04 L2447.16 1535.04 L2447.16 1535.04 L2455.20 1535.04 L2455.20 1534.18 L2463.24 1534.18 L2463.24 1530.71 L2463.24 1530.71 L2463.24 1530.71 L2463.24 1530.71 L2463.24 1530.71 L2463.24 1530.71 L2463.24 1530.71 L2471.29 1530.71 L2471.29 1525.64 L2471.29 1525.64 L2471.29 1525.64 L2471.29 1525.64 L2471.29 1525.64 L2471.29 1525.64 L2471.29 1525.64 L2471.29 1525.64 L2471.29 1525.64 L2471.29 1525.64 L2471.29 1525.64 L2479.33 1525.64 L2479.33 1521.31 L2479.33 1521.31 L2479.33 1521.31 L2479.33 1521.31 L2479.33 1521.31 L2479.33 1521.31 L2479.33 1521.31 L2479.33 1521.31 L2479.33 1521.31 L2487.38 1521.31 L2487.38 1518.71 L2487.38 1518.71 L2487.38 1518.71 L2487.38 1518.71 L2487.38 1518.71 L2495.42 1518.71 L2495.42 1515.37 L2495.42 1515.37 L2495.42 1515.37 L2495.42 1515.37 L2495.42 1515.37 L2495.42 1515.37 L2495.42 1515.37 L2503.34 1515.37 L2503.34 1512.77 L2503.34 1512.77 L2503.34 1512.77 L2503.34 1512.77 L2503.34 1512.77 L2511.38 1512.77 L2511.38 1510.17 L2511.38 1510.17 L2511.38 1510.17 L2511.38 1510.17 L2511.38 1510.17 L2527.47 1510.17 L2527.47 1509.30 L2535.51 1509.30 L2535.51 1505.96 L2535.51 1505.96 L2535.51 1505.96 L2535.51 1505.96 L2535.51 1505.96 L2535.51 1505.96 L2535.51 1505.96 L2543.56 1505.96 L2543.56 1505.09 L2551.60 1505.09 L2551.60 1501.63 L2551.60 1501.63 L2551.60 1501.63 L2551.60 1501.63 L2551.60 1501.63 L2551.60 1501.63 L2551.60 1501.63 L2559.52 1501.63 L2559.52 1499.90 L2559.52 1499.90 L2559.52 1499.90 L2567.57 1499.90 L2567.57 1499.03 L2575.61 1499.03 L2575.61 1496.43 L2575.61 1496.43 L2575.61 1496.43 L2575.61 1496.43 L2575.61 1496.43 L2583.65 1496.43 L2583.65 1493.96 L2583.65 1493.96 L2583.65 1493.96 L2583.65 1493.96 L2583.65 1493.96 L2591.70 1493.96 L2591.70 1488.76 L2591.70 1488.76 L2591.70 1488.76 L2591.70 1488.76 L2591.70 1488.76 L2591.70 1488.76 L2591.70 1488.76 L2591.70 1488.76 L2591.70 1488.76 L2591.70 1488.76 L2591.70 1488.76 L2599.74 1488.76 L2599.74 1487.03 L2599.74 1487.03 L2599.74 1487.03 L2607.78 1487.03 L2607.78 1482.82 L2607.78 1482.82 L2607.78 1482.82 L2607.78 1482.82 L2607.78 1482.82 L2607.78 1482.82 L2607.78 1482.82 L2607.78 1482.82 L2607.78 1482.82 L2615.83 1482.82 L2615.83 1481.09 L2615.83 1481.09 L2615.83 1481.09 L2623.75 1481.09 L2623.75 1477.62 L2623.75 1477.62 L2623.75 1477.62 L2623.75 1477.62 L2623.75 1477.62 L2623.75 1477.62 L2623.75 1477.62 L2631.79 1477.62 L2631.79 1475.15 L2631.79 1475.15 L2631.79 1475.15 L2631.79 1475.15 L2631.79 1475.15 L2639.84 1475.15 L2639.84 1469.95 L2639.84 1469.95 L2639.84 1469.95 L2639.84 1469.95 L2639.84 1469.95 L2639.84 1469.95 L2639.84 1469.95 L2639.84 1469.95 L2639.84 1469.95 L2639.84 1469.95 L2639.84 1469.95 L2647.88 1469.95 L2647.88 1467.35 L2647.88 1467.35 L2647.88 1467.35 L2647.88 1467.35 L2647.88 1467.35 L2655.92 1467.35 L2655.92 1465.62 L2655.92 1465.62 L2655.92 1465.62 L2663.97 1465.62 L2663.97 1460.54 L2663.97 1460.54 L2663.97 1460.54 L2663.97 1460.54 L2663.97 1460.54 L2663.97 1460.54 L2663.97 1460.54 L2663.97 1460.54 L2663.97 1460.54 L2663.97 1460.54 L2663.97 1460.54 L2672.01 1460.54 L2672.01 1457.08 L2672.01 1457.08 L2672.01 1457.08 L2672.01 1457.08 L2672.01 1457.08 L2672.01 1457.08 L2672.01 1457.08 L2679.93 1457.08 L2679.93 1456.21 L2687.97 1456.21 L2687.97 1454.48 L2687.97 1454.48 L2687.97 1454.48 L2696.02 1454.48 L2696.02 1453.74 L2704.06 1453.74 L2704.06 1450.27 L2704.06 1450.27 L2704.06 1450.27 L2704.06 1450.27 L2704.06 1450.27 L2704.06 1450.27 L2704.06 1450.27 L2712.11 1450.27 L2712.11 1448.54 L2712.11 1448.54 L2712.11 1448.54 L2720.15 1448.54 L2720.15 1446.81 L2720.15 1446.81 L2720.15 1446.81 L2728.19 1446.81 L2728.19 1445.07 L2728.19 1445.07 L2728.19 1445.07 L2736.11 1445.07 L2736.11 1441.73 L2736.11 1441.73 L2736.11 1441.73 L2736.11 1441.73 L2736.11 1441.73 L2736.11 1441.73 L2736.11 1441.73 L2744.16 1441.73 L2744.16 1438.27 L2744.16 1438.27 L2744.16 1438.27 L2744.16 1438.27 L2744.16 1438.27 L2744.16 1438.27 L2744.16 1438.27 L2752.20 1438.27 L2752.20 1436.53 L2752.20 1436.53 L2752.20 1436.53 L2760.24 1436.53 L2760.24 1433.07 L2760.24 1433.07 L2760.24 1433.07 L2760.24 1433.07 L2760.24 1433.07 L2760.24 1433.07 L2760.24 1433.07 L2768.29 1433.07 L2768.29 1431.46 L2768.29 1431.46 L2768.29 1431.46 L2776.33 1431.46 L2776.33 1428.00 L2776.33 1428.00 L2776.33 1428.00 L2776.33 1428.00 L2776.33 1428.00 L2776.33 1428.00 L2776.33 1428.00 L2784.38 1428.00 L2784.38 1426.26 L2784.38 1426.26 L2784.38 1426.26 L2792.30 1426.26 L2792.30 1425.40 L2808.38 1425.40 L2808.38 1420.32 L2808.38 1420.32 L2808.38 1420.32 L2808.38 1420.32 L2808.38 1420.32 L2808.38 1420.32 L2808.38 1420.32 L2808.38 1420.32 L2808.38 1420.32 L2808.38 1420.32 L2808.38 1420.32 L2816.43 1420.32 L2816.43 1415.99 L2816.43 1415.99 L2816.43 1415.99 L2816.43 1415.99 L2816.43 1415.99 L2816.43 1415.99 L2816.43 1415.99 L2816.43 1415.99 L2816.43 1415.99 L2824.47 1415.99 L2824.47 1412.53 L2824.47 1412.53 L2824.47 1412.53 L2824.47 1412.53 L2824.47 1412.53 L2824.47 1412.53 L2824.47 1412.53 L2832.51 1412.53 L2832.51 1409.93 L2832.51 1409.93 L2832.51 1409.93 L2832.51 1409.93 L2832.51 1409.93 L2840.56 1409.93 L2840.56 1408.32 L2840.56 1408.32 L2840.56 1408.32 L2848.48 1408.32 L2848.48 1404.85 L2848.48 1404.85 L2848.48 1404.85 L2848.48 1404.85 L2848.48 1404.85 L2848.48 1404.85 L2848.48 1404.85 L2856.52 1404.85 L2856.52 1403.12 L2856.52 1403.12 L2856.52 1403.12 L2864.57 1403.12 L2864.57 1399.66 L2864.57 1399.66 L2864.57 1399.66 L2864.57 1399.66 L2864.57 1399.66 L2864.57 1399.66 L2864.57 1399.66 L2872.61 1399.66 L2872.61 1393.72 L2872.61 1393.72 L2872.61 1393.72 L2872.61 1393.72 L2872.61 1393.72 L2872.61 1393.72 L2872.61 1393.72 L2872.61 1393.72 L2872.61 1393.72 L2872.61 1393.72 L2872.61 1393.72 L2872.61 1393.72 L2872.61 1393.72 L2888.70 1393.72 L2888.70 1391.12 L2888.70 1391.12 L2888.70 1391.12 L2888.70 1391.12 L2888.70 1391.12 L2896.74 1391.12 L2896.74 1386.79 L2896.74 1386.79 L2896.74 1386.79 L2896.74 1386.79 L2896.74 1386.79 L2896.74 1386.79 L2896.74 1386.79 L2896.74 1386.79 L2896.74 1386.79 L2904.66 1386.79 L2904.66 1385.92 L2912.70 1385.92 L2912.70 1382.58 L2912.70 1382.58 L2912.70 1382.58 L2912.70 1382.58 L2912.70 1382.58 L2912.70 1382.58 L2912.70 1382.58 L2920.75 1382.58 L2920.75 1380.85 L2920.75 1380.85 L2920.75 1380.85 L2928.79 1380.85 L2928.79 1378.25 L2928.79 1378.25 L2928.79 1378.25 L2928.79 1378.25 L2928.79 1378.25 L2936.84 1378.25 L2936.84 1376.51 L2936.84 1376.51 L2936.84 1376.51 L2944.88 1376.51 L2944.88 1374.78 L2944.88 1374.78 L2944.88 1374.78 L2952.92 1374.78 L2952.92 1371.44 L2952.92 1371.44 L2952.92 1371.44 L2952.92 1371.44 L2952.92 1371.44 L2952.92 1371.44 L2952.92 1371.44 L2960.97 1371.44 L2960.97 1367.98 L2960.97 1367.98 L2960.97 1367.98 L2960.97 1367.98 L2960.97 1367.98 L2960.97 1367.98 L2960.97 1367.98 L2968.89 1367.98 L2968.89 1365.38 L2968.89 1365.38 L2968.89 1365.38 L2968.89 1365.38 L2968.89 1365.38 L2976.93 1365.38 L2976.93 1363.64 L2976.93 1363.64 L2976.93 1363.64 L2984.97 1363.64 L2984.97 1359.44 L2984.97 1359.44 L2984.97 1359.44 L2984.97 1359.44 L2984.97 1359.44 L2984.97 1359.44 L2984.97 1359.44 L2984.97 1359.44 L2984.97 1359.44 L2993.02 1359.44 L2993.02 1356.84 L2993.02 1356.84 L2993.02 1356.84 L2993.02 1356.84 L2993.02 1356.84 L3001.06 1356.84 L3001.06 1354.24 L3001.06 1354.24 L3001.06 1354.24 L3001.06 1354.24 L3001.06 1354.24 L3017.15 1354.24 L3017.15 1352.51 L3017.15 1352.51 L3017.15 1352.51 L3025.07 1352.51 L3025.07 1350.77 L3025.07 1350.77 L3025.07 1350.77 L3033.11 1350.77 L3033.11 1348.30 L3033.11 1348.30 L3033.11 1348.30 L3033.11 1348.30 L3033.11 1348.30 L3041.16 1348.30 L3041.16 1347.43 L3049.20 1347.43 L3049.20 1343.10 L3049.20 1343.10 L3049.20 1343.10 L3049.20 1343.10 L3049.20 1343.10 L3049.20 1343.10 L3049.20 1343.10 L3049.20 1343.10 L3049.20 1343.10 L3057.24 1343.10 L3057.24 1339.64 L3057.24 1339.64 L3057.24 1339.64 L3057.24 1339.64 L3057.24 1339.64 L3057.24 1339.64 L3057.24 1339.64 L3065.29 1339.64 L3065.29 1334.56 L3065.29 1334.56 L3065.29 1334.56 L3065.29 1334.56 L3065.29 1334.56 L3065.29 1334.56 L3065.29 1334.56 L3065.29 1334.56 L3065.29 1334.56 L3065.29 1334.56 L3065.29 1334.56 L3073.33 1334.56 L3073.33 1329.36 L3073.33 1329.36 L3073.33 1329.36 L3073.33 1329.36 L3073.33 1329.36 L3073.33 1329.36 L3073.33 1329.36 L3073.33 1329.36 L3073.33 1329.36 L3073.33 1329.36 L3073.33 1329.36 L3081.25 1329.36 L3081.25 1326.77 L3081.25 1326.77 L3081.25 1326.77 L3081.25 1326.77 L3081.25 1326.77 L3089.30 1326.77 L3089.30 1324.17 L3089.30 1324.17 L3089.30 1324.17 L3089.30 1324.17 L3089.30 1324.17 L3097.34 1324.17 L3097.34 1322.43 L3097.34 1322.43 L3097.34 1322.43 L3105.38 1322.43 L3105.38 1320.83 L3105.38 1320.83 L3105.38 1320.83 L3113.43 1320.83 L3113.43 1316.49 L3113.43 1316.49 L3113.43 1316.49 L3113.43 1316.49 L3113.43 1316.49 L3113.43 1316.49 L3113.43 1316.49 L3113.43 1316.49 L3113.43 1316.49 L3121.47 1316.49 L3121.47 1314.76 L3121.47 1314.76 L3121.47 1314.76 L3129.51 1314.76 L3129.51 1313.03 L3129.51 1313.03 L3129.51 1313.03 L3137.43 1313.03 L3137.43 1309.56 L3137.43 1309.56 L3137.43 1309.56 L3137.43 1309.56 L3137.43 1309.56 L3137.43 1309.56 L3137.43 1309.56 L3145.48 1309.56 L3145.48 1307.09 L3145.48 1307.09 L3145.48 1307.09 L3145.48 1307.09 L3145.48 1307.09 L3153.52 1307.09 L3153.52 1302.76 L3153.52 1302.76 L3153.52 1302.76 L3153.52 1302.76 L3153.52 1302.76 L3153.52 1302.76 L3153.52 1302.76 L3153.52 1302.76 L3153.52 1302.76 L3161.57 1302.76 L3161.57 1299.29 L3161.57 1299.29 L3161.57 1299.29 L3161.57 1299.29 L3161.57 1299.29 L3161.57 1299.29 L3161.57 1299.29 L3169.61 1299.29 L3169.61 1297.56 L3169.61 1297.56 L3169.61 1297.56 L3177.65 1297.56 L3177.65 1292.49 L3177.65 1292.49 L3177.65 1292.49 L3177.65 1292.49 L3177.65 1292.49 L3177.65 1292.49 L3177.65 1292.49 L3177.65 1292.49 L3177.65 1292.49 L3177.65 1292.49 L3177.65 1292.49 L3185.70 1292.49 L3185.70 1290.75 L3185.70 1290.75 L3185.70 1290.75 L3193.62 1290.75 L3193.62 1286.42 L3193.62 1286.42 L3193.62 1286.42 L3193.62 1286.42 L3193.62 1286.42 L3193.62 1286.42 L3193.62 1286.42 L3193.62 1286.42 L3193.62 1286.42 L3201.66 1286.42 L3201.66 1284.69 L3201.66 1284.69 L3201.66 1284.69 L3209.70 1284.69 L3209.70 1282.09 L3209.70 1282.09 L3209.70 1282.09 L3209.70 1282.09 L3209.70 1282.09 L3217.75 1282.09 L3217.75 1280.36 L3217.75 1280.36 L3217.75 1280.36 L3225.79 1280.36 L3225.79 1276.15 L3225.79 1276.15 L3225.79 1276.15 L3225.79 1276.15 L3225.79 1276.15 L3225.79 1276.15 L3225.79 1276.15 L3225.79 1276.15 L3225.79 1276.15 L3233.84 1276.15 L3233.84 1270.95 L3233.84 1270.95 L3233.84 1270.95 L3233.84 1270.95 L3233.84 1270.95 L3233.84 1270.95 L3233.84 1270.95 L3233.84 1270.95 L3233.84 1270.95 L3233.84 1270.95 L3233.84 1270.95 L3241.88 1270.95 L3241.88 1268.35 L3241.88 1268.35 L3241.88 1268.35 L3241.88 1268.35 L3241.88 1268.35 L3249.80 1268.35 L3249.80 1265.75 L3249.80 1265.75 L3249.80 1265.75 L3249.80 1265.75 L3249.80 1265.75 L3257.84 1265.75 L3257.84 1263.16 L3257.84 1263.16 L3257.84 1263.16 L3257.84 1263.16 L3257.84 1263.16 L3265.89 1263.16 L3265.89 1258.95 L3265.89 1258.95 L3265.89 1258.95 L3265.89 1258.95 L3265.89 1258.95 L3265.89 1258.95 L3265.89 1258.95 L3265.89 1258.95 L3265.89 1258.95 L3273.93 1258.95 L3273.93 1255.48 L3273.93 1255.48 L3273.93 1255.48 L3273.93 1255.48 L3273.93 1255.48 L3273.93 1255.48 L3273.93 1255.48 L3281.97 1255.48 L3281.97 1251.15 L3281.97 1251.15 L3281.97 1251.15 L3281.97 1251.15 L3281.97 1251.15 L3281.97 1251.15 L3281.97 1251.15 L3281.97 1251.15 L3281.97 1251.15 L3290.02 1251.15 L3290.02 1249.42 L3290.02 1249.42 L3290.02 1249.42 L3298.06 1249.42 L3298.06 1247.69 L3298.06 1247.69 L3298.06 1247.69 L3306.11 1247.69 L3306.11 1246.08 L3306.11 1246.08 L3306.11 1246.08 L3314.03 1246.08 L3314.03 1244.35 L3314.03 1244.35 L3314.03 1244.35 L3322.07 1244.35 L3322.07 1240.88 L3322.07 1240.88 L3322.07 1240.88 L3322.07 1240.88 L3322.07 1240.88 L3322.07 1240.88 L3322.07 1240.88 L3330.11 1240.88 L3330.11 1238.28 L3330.11 1238.28 L3330.11 1238.28 L3330.11 1238.28 L3330.11 1238.28 L3338.16 1238.28 L3338.16 1234.82 L3338.16 1234.82 L3338.16 1234.82 L3338.16 1234.82 L3338.16 1234.82 L3338.16 1234.82 L3338.16 1234.82 L3346.20 1234.82 L3346.20 1233.08 L3346.20 1233.08 L3346.20 1233.08 L3354.24 1233.08 L3354.24 1232.22 L3362.29 1232.22 L3362.29 1230.61 L3362.29 1230.61 L3362.29 1230.61 L3370.21 1230.61 L3370.21 1226.28 L3370.21 1226.28 L3370.21 1226.28 L3370.21 1226.28 L3370.21 1226.28 L3370.21 1226.28 L3370.21 1226.28 L3370.21 1226.28 L3370.21 1226.28 L3378.25 1226.28 L3378.25 1222.81 L3378.25 1222.81 L3378.25 1222.81 L3378.25 1222.81 L3378.25 1222.81 L3378.25 1222.81 L3378.25 1222.81 L3386.30 1222.81 L3386.30 1218.48 L3386.30 1218.48 L3386.30 1218.48 L3386.30 1218.48 L3386.30 1218.48 L3386.30 1218.48 L3386.30 1218.48 L3386.30 1218.48 L3386.30 1218.48 L3394.34 1218.48 L3394.34 1215.02 L3394.34 1215.02 L3394.34 1215.02 L3394.34 1215.02 L3394.34 1215.02 L3394.34 1215.02 L3394.34 1215.02 L3402.38 1215.02 L3402.38 1212.54 L3402.38 1212.54 L3402.38 1212.54 L3402.38 1212.54 L3402.38 1212.54 L3410.43 1212.54 L3410.43 1209.94 L3410.43 1209.94 L3410.43 1209.94 L3410.43 1209.94 L3410.43 1209.94 L3418.47 1209.94 L3418.47 1206.48 L3418.47 1206.48 L3418.47 1206.48 L3418.47 1206.48 L3418.47 1206.48 L3418.47 1206.48 L3418.47 1206.48 L3426.39 1206.48 L3426.39 1203.01 L3426.39 1203.01 L3426.39 1203.01 L3426.39 1203.01 L3426.39 1203.01 L3426.39 1203.01 L3426.39 1203.01 L3434.43 1203.01 L3434.43 1197.81 L3434.43 1197.81 L3434.43 1197.81 L3434.43 1197.81 L3434.43 1197.81 L3434.43 1197.81 L3434.43 1197.81 L3434.43 1197.81 L3434.43 1197.81 L3434.43 1197.81 L3434.43 1197.81 L3442.48 1197.81 L3442.48 1193.61 L3442.48 1193.61 L3442.48 1193.61 L3442.48 1193.61 L3442.48 1193.61 L3442.48 1193.61 L3442.48 1193.61 L3442.48 1193.61 L3442.48 1193.61 L3450.52 1193.61 L3450.52 1189.27 L3450.52 1189.27 L3450.52 1189.27 L3450.52 1189.27 L3450.52 1189.27 L3450.52 1189.27 L3450.52 1189.27 L3450.52 1189.27 L3450.52 1189.27 L3458.57 1189.27 L3458.57 1183.21 L3458.57 1183.21 L3458.57 1183.21 L3458.57 1183.21 L3458.57 1183.21 L3458.57 1183.21 L3458.57 1183.21 L3458.57 1183.21 L3458.57 1183.21 L3458.57 1183.21 L3458.57 1183.21 L3458.57 1183.21 L3458.57 1183.21 L3466.61 1183.21 L3466.61 1182.34 L3474.65 1182.34 L3474.65 1181.48 L3482.57 1181.48 L3482.57 1180.61 L3490.62 1180.61 L3490.62 1175.54 L3490.62 1175.54 L3490.62 1175.54 L3490.62 1175.54 L3490.62 1175.54 L3490.62 1175.54 L3490.62 1175.54 L3490.62 1175.54 L3490.62 1175.54 L3490.62 1175.54 L3490.62 1175.54 L3498.66 1175.54 L3498.66 1173.81 L3498.66 1173.81 L3498.66 1173.81 L3506.70 1173.81 L3506.70 1171.21 L3506.70 1171.21 L3506.70 1171.21 L3506.70 1171.21 L3506.70 1171.21 L3514.75 1171.21 L3514.75 1166.01 L3514.75 1166.01 L3514.75 1166.01 L3514.75 1166.01 L3514.75 1166.01 L3514.75 1166.01 L3514.75 1166.01 L3514.75 1166.01 L3514.75 1166.01 L3514.75 1166.01 L3514.75 1166.01 L3522.79 1166.01 L3522.79 1161.68 L3522.79 1161.68 L3522.79 1161.68 L3522.79 1161.68 L3522.79 1161.68 L3522.79 1161.68 L3522.79 1161.68 L3522.79 1161.68 L3522.79 1161.68" stroke-linejoin="round" style="fill:none;stroke:#1A476F;stroke-width:8.64"/>
	<path d=" M601.18 2117.43 L601.18 2117.43 L601.18 2117.43 L601.18 2117.43 L601.18 2117.43 L601.18 2117.43 L601.18 2117.43 L601.18 2117.43 L601.18 2117.43 L601.18 2117.43 L601.18 2117.43 L601.18 2117.43 L601.18 2117.43 L601.18 2117.43 L601.18 2117.43 L601.18 2117.43 L601.18 2117.43 L601.18 2117.43 L601.18 2117.43 L601.18 2117.43 L601.18 2117.43 L601.18 2117.43 L601.18 2117.43 L601.18 2117.43 L601.18 2117.43 L601.18 2117.43 L601.18 2117.43 L601.18 2117.43 L601.18 2117.43 L601.18 2117.43 L601.18 2117.43 L601.18 2117.43 L601.18 2117.43 L601.18 2117.43 L601.18 2117.43 L601.18 2117.43 L601.18 2117.43 L601.18 2117.43 L601.18 2117.43 L601.18 2117.43 L601.18 2117.43 L601.18 2117.43 L601.18 2117.43 L601.18 2117.43 L601.18 2117.43 L601.18 2117.43 L601.18 2117.43 L601.18 2117.43 L601.18 2117.43 L601.18 2117.43 L601.18 2117.43 L601.18 2117.43 L601.18 2117.43 L601.18 2117.43 L601.18 2117.43 L601.18 2117.43 L601.18 2117.43 L601.18 2117.43 L601.18 2117.43 L609.10 2117.43 L609.10 2069.54 L609.10 2069.54 L609.10 2069.54 L609.10 2069.54 L609.10 2069.54 L609.10 2069.54 L609.10 2069.54 L609.10 2069.54 L609.10 2069.54 L609.10 2069.54 L609.10 2069.54 L609.10 2069.54 L609.10 2069.54 L609.10 2069.54 L609.10 2069.54 L609.10 2069.54 L609.10 2069.54 L609.10 2069.54 L609.10 2069.54 L609.10 2069.54 L609.10 2069.54 L609.10 2069.54 L609.10 2069.54 L609.10 2069.54 L609.10 2069.54 L609.10 2069.54 L609.10 2069.54 L609.10 2069.54 L609.10 2069.54 L609.10 2069.54 L609.10 2069.54 L609.10 2069.54 L609.10 2069.54 L609.10 2069.54 L609.10 2069.54 L609.10 2069.54 L609.10 2069.54 L609.10 2069.54 L609.10 2069.54 L609.10 2069.54 L609.10 2069.54 L609.10 2069.54 L609.10 2069.54 L609.10 2069.54 L609.10 2069.54 L609.10 2069.54 L609.10 2069.54 L609.10 2069.54 L609.10 2069.54 L609.10 2069.54 L609.10 2069.54 L609.10 2069.54 L609.10 2069.54 L617.14 2069.54 L617.14 2019.54 L617.14 2019.54 L617.14 2019.54 L617.14 2019.54 L617.14 2019.54 L617.14 2019.54 L617.14 2019.54 L617.14 2019.54 L617.14 2019.54 L617.14 2019.54 L617.14 2019.54 L617.14 2019.54 L617.14 2019.54 L617.14 2019.54 L617.14 2019.54 L617.14 2019.54 L617.14 2019.54 L617.14 2019.54 L617.14 2019.54 L617.14 2019.54 L617.14 2019.54 L617.14 2019.54 L617.14 2019.54 L617.14 2019.54 L617.14 2019.54 L617.14 2019.54 L617.14 2019.54 L617.14 2019.54 L617.14 2019.54 L617.14 2019.54 L617.14 2019.54 L617.14 2019.54 L617.14 2019.54 L617.14 2019.54 L617.14 2019.54 L617.14 2019.54 L617.14 2019.54 L617.14 2019.54 L617.14 2019.54 L617.14 2019.54 L617.14 2019.54 L617.14 2019.54 L617.14 2019.54 L617.14 2019.54 L617.14 2019.54 L617.14 2019.54 L617.14 2019.54 L617.14 2019.54 L617.14 2019.54 L617.14 2019.54 L617.14 2019.54 L617.14 2019.54 L617.14 2019.54 L617.14 2019.54 L617.14 2019.54 L625.18 2019.54 L625.18 1986.99 L625.18 1986.99 L625.18 1986.99 L625.18 1986.99 L625.18 1986.99 L625.18 1986.99 L625.18 1986.99 L625.18 1986.99 L625.18 1986.99 L625.18 1986.99 L625.18 1986.99 L625.18 1986.99 L625.18 1986.99 L625.18 1986.99 L625.18 1986.99 L625.18 1986.99 L625.18 1986.99 L625.18 1986.99 L625.18 1986.99 L625.18 1986.99 L625.18 1986.99 L625.18 1986.99 L625.18 1986.99 L625.18 1986.99 L625.18 1986.99 L625.18 1986.99 L625.18 1986.99 L625.18 1986.99 L625.18 1986.99 L625.18 1986.99 L625.18 1986.99 L625.18 1986.99 L625.18 1986.99 L625.18 1986.99 L625.18 1986.99 L633.23 1986.99 L633.23 1961.38 L633.23 1961.38 L633.23 1961.38 L633.23 1961.38 L633.23 1961.38 L633.23 1961.38 L633.23 1961.38 L633.23 1961.38 L633.23 1961.38 L633.23 1961.38 L633.23 1961.38 L633.23 1961.38 L633.23 1961.38 L633.23 1961.38 L633.23 1961.38 L633.23 1961.38 L633.23 1961.38 L633.23 1961.38 L633.23 1961.38 L633.23 1961.38 L633.23 1961.38 L633.23 1961.38 L633.23 1961.38 L633.23 1961.38 L633.23 1961.38 L633.23 1961.38 L633.23 1961.38 L641.27 1961.38 L641.27 1915.09 L641.27 1915.09 L641.27 1915.09 L641.27 1915.09 L641.27 1915.09 L641.27 1915.09 L641.27 1915.09 L641.27 1915.09 L641.27 1915.09 L641.27 1915.09 L641.27 1915.09 L641.27 1915.09 L641.27 1915.09 L641.27 1915.09 L641.27 1915.09 L641.27 1915.09 L641.27 1915.09 L641.27 1915.09 L641.27 1915.09 L641.27 1915.09 L641.27 1915.09 L641.27 1915.09 L641.27 1915.09 L641.27 1915.09 L641.27 1915.09 L641.27 1915.09 L641.27 1915.09 L641.27 1915.09 L641.27 1915.09 L641.27 1915.09 L641.27 1915.09 L641.27 1915.09 L641.27 1915.09 L641.27 1915.09 L641.27 1915.09 L641.27 1915.09 L641.27 1915.09 L641.27 1915.09 L641.27 1915.09 L641.27 1915.09 L641.27 1915.09 L641.27 1915.09 L641.27 1915.09 L641.27 1915.09 L641.27 1915.09 L641.27 1915.09 L641.27 1915.09 L641.27 1915.09 L641.27 1915.09 L649.32 1915.09 L649.32 1885.02 L649.32 1885.02 L649.32 1885.02 L649.32 1885.02 L649.32 1885.02 L649.32 1885.02 L649.32 1885.02 L649.32 1885.02 L649.32 1885.02 L649.32 1885.02 L649.32 1885.02 L649.32 1885.02 L649.32 1885.02 L649.32 1885.02 L649.32 1885.02 L649.32 1885.02 L649.32 1885.02 L649.32 1885.02 L649.32 1885.02 L649.32 1885.02 L649.32 1885.02 L649.32 1885.02 L649.32 1885.02 L649.32 1885.02 L649.32 1885.02 L649.32 1885.02 L649.32 1885.02 L649.32 1885.02 L649.32 1885.02 L649.32 1885.02 L649.32 1885.02 L657.36 1885.02 L657.36 1858.29 L657.36 1858.29 L657.36 1858.29 L657.36 1858.29 L657.36 1858.29 L657.36 1858.29 L657.36 1858.29 L657.36 1858.29 L657.36 1858.29 L657.36 1858.29 L657.36 1858.29 L657.36 1858.29 L657.36 1858.29 L657.36 1858.29 L657.36 1858.29 L657.36 1858.29 L657.36 1858.29 L657.36 1858.29 L657.36 1858.29 L657.36 1858.29 L657.36 1858.29 L657.36 1858.29 L657.36 1858.29 L657.36 1858.29 L657.36 1858.29 L657.36 1858.29 L657.36 1858.29 L665.28 1858.29 L665.28 1835.27 L665.28 1835.27 L665.28 1835.27 L665.28 1835.27 L665.28 1835.27 L665.28 1835.27 L665.28 1835.27 L665.28 1835.27 L665.28 1835.27 L665.28 1835.27 L665.28 1835.27 L665.28 1835.27 L665.28 1835.27 L665.28 1835.27 L665.28 1835.27 L665.28 1835.27 L665.28 1835.27 L665.28 1835.27 L665.28 1835.27 L665.28 1835.27 L665.28 1835.27 L665.28 1835.27 L665.28 1835.27 L673.32 1835.27 L673.32 1819.80 L673.32 1819.80 L673.32 1819.80 L673.32 1819.80 L673.32 1819.80 L673.32 1819.80 L673.32 1819.80 L673.32 1819.80 L673.32 1819.80 L673.32 1819.80 L673.32 1819.80 L673.32 1819.80 L673.32 1819.80 L673.32 1819.80 L673.32 1819.80 L681.37 1819.80 L681.37 1798.27 L681.37 1798.27 L681.37 1798.27 L681.37 1798.27 L681.37 1798.27 L681.37 1798.27 L681.37 1798.27 L681.37 1798.27 L681.37 1798.27 L681.37 1798.27 L681.37 1798.27 L681.37 1798.27 L681.37 1798.27 L681.37 1798.27 L681.37 1798.27 L681.37 1798.27 L681.37 1798.27 L681.37 1798.27 L681.37 1798.27 L681.37 1798.27 L681.37 1798.27 L689.41 1798.27 L689.41 1776.36 L689.41 1776.36 L689.41 1776.36 L689.41 1776.36 L689.41 1776.36 L689.41 1776.36 L689.41 1776.36 L689.41 1776.36 L689.41 1776.36 L689.41 1776.36 L689.41 1776.36 L689.41 1776.36 L689.41 1776.36 L689.41 1776.36 L689.41 1776.36 L689.41 1776.36 L689.41 1776.36 L689.41 1776.36 L689.41 1776.36 L689.41 1776.36 L689.41 1776.36 L697.46 1776.36 L697.46 1762.26 L697.46 1762.26 L697.46 1762.26 L697.46 1762.26 L697.46 1762.26 L697.46 1762.26 L697.46 1762.26 L697.46 1762.26 L697.46 1762.26 L697.46 1762.26 L697.46 1762.26 L697.46 1762.26 L697.46 1762.26 L705.50 1762.26 L705.50 1741.84 L705.50 1741.84 L705.50 1741.84 L705.50 1741.84 L705.50 1741.84 L705.50 1741.84 L705.50 1741.84 L705.50 1741.84 L705.50 1741.84 L705.50 1741.84 L705.50 1741.84 L705.50 1741.84 L705.50 1741.84 L705.50 1741.84 L705.50 1741.84 L705.50 1741.84 L705.50 1741.84 L705.50 1741.84 L705.50 1741.84 L713.54 1741.84 L713.54 1716.96 L713.54 1716.96 L713.54 1716.96 L713.54 1716.96 L713.54 1716.96 L713.54 1716.96 L713.54 1716.96 L713.54 1716.96 L713.54 1716.96 L713.54 1716.96 L713.54 1716.96 L713.54 1716.96 L713.54 1716.96 L713.54 1716.96 L713.54 1716.96 L713.54 1716.96 L713.54 1716.96 L713.54 1716.96 L713.54 1716.96 L713.54 1716.96 L713.54 1716.96 L713.54 1716.96 L713.54 1716.96 L721.46 1716.96 L721.46 1710.65 L721.46 1710.65 L721.46 1710.65 L721.46 1710.65 L721.46 1710.65 L729.51 1710.65 L729.51 1695.92 L729.51 1695.92 L729.51 1695.92 L729.51 1695.92 L729.51 1695.92 L729.51 1695.92 L729.51 1695.92 L729.51 1695.92 L729.51 1695.92 L729.51 1695.92 L729.51 1695.92 L729.51 1695.92 L729.51 1695.92 L737.55 1695.92 L737.55 1693.82 L745.59 1693.82 L745.59 1689.36 L745.59 1689.36 L745.59 1689.36 L753.64 1689.36 L753.64 1674.02 L753.64 1674.02 L753.64 1674.02 L753.64 1674.02 L753.64 1674.02 L753.64 1674.02 L753.64 1674.02 L753.64 1674.02 L753.64 1674.02 L753.64 1674.02 L753.64 1674.02 L753.64 1674.02 L753.64 1674.02 L761.68 1674.02 L761.68 1656.20 L761.68 1656.20 L761.68 1656.20 L761.68 1656.20 L761.68 1656.20 L761.68 1656.20 L761.68 1656.20 L761.68 1656.20 L761.68 1656.20 L761.68 1656.20 L761.68 1656.20 L761.68 1656.20 L761.68 1656.20 L761.68 1656.20 L761.68 1656.20 L769.73 1656.20 L769.73 1651.62 L769.73 1651.62 L769.73 1651.62 L777.77 1651.62 L777.77 1635.65 L777.77 1635.65 L777.77 1635.65 L777.77 1635.65 L777.77 1635.65 L777.77 1635.65 L777.77 1635.65 L777.77 1635.65 L777.77 1635.65 L777.77 1635.65 L777.77 1635.65 L777.77 1635.65 L777.77 1635.65 L785.69 1635.65 L785.69 1621.92 L785.69 1621.92 L785.69 1621.92 L785.69 1621.92 L785.69 1621.92 L785.69 1621.92 L785.69 1621.92 L785.69 1621.92 L785.69 1621.92 L785.69 1621.92 L785.69 1621.92 L793.73 1621.92 L793.73 1610.16 L793.73 1610.16 L793.73 1610.16 L793.73 1610.16 L793.73 1610.16 L793.73 1610.16 L793.73 1610.16 L793.73 1610.16 L793.73 1610.16 L801.78 1610.16 L801.78 1600.76 L801.78 1600.76 L801.78 1600.76 L801.78 1600.76 L801.78 1600.76 L801.78 1600.76 L801.78 1600.76 L809.82 1600.76 L809.82 1583.93 L809.82 1583.93 L809.82 1583.93 L809.82 1583.93 L809.82 1583.93 L809.82 1583.93 L809.82 1583.93 L809.82 1583.93 L809.82 1583.93 L809.82 1583.93 L809.82 1583.93 L809.82 1583.93 L809.82 1583.93 L817.86 1583.93 L817.86 1569.32 L817.86 1569.32 L817.86 1569.32 L817.86 1569.32 L817.86 1569.32 L817.86 1569.32 L817.86 1569.32 L817.86 1569.32 L817.86 1569.32 L817.86 1569.32 L817.86 1569.32 L825.91 1569.32 L825.91 1554.60 L825.91 1554.60 L825.91 1554.60 L825.91 1554.60 L825.91 1554.60 L825.91 1554.60 L825.91 1554.60 L825.91 1554.60 L825.91 1554.60 L825.91 1554.60 L825.91 1554.60 L833.95 1554.60 L833.95 1549.65 L833.95 1549.65 L833.95 1549.65 L841.87 1549.65 L841.87 1524.65 L841.87 1524.65 L841.87 1524.65 L841.87 1524.65 L841.87 1524.65 L841.87 1524.65 L841.87 1524.65 L841.87 1524.65 L841.87 1524.65 L841.87 1524.65 L841.87 1524.65 L841.87 1524.65 L841.87 1524.65 L841.87 1524.65 L841.87 1524.65 L841.87 1524.65 L841.87 1524.65 L841.87 1524.65 L841.87 1524.65 L849.91 1524.65 L849.91 1522.17 L857.96 1522.17 L857.96 1517.10 L857.96 1517.10 L857.96 1517.10 L866.00 1517.10 L866.00 1499.03 L866.00 1499.03 L866.00 1499.03 L866.00 1499.03 L866.00 1499.03 L866.00 1499.03 L866.00 1499.03 L866.00 1499.03 L866.00 1499.03 L866.00 1499.03 L866.00 1499.03 L866.00 1499.03 L866.00 1499.03 L874.05 1499.03 L874.05 1491.23 L874.05 1491.23 L874.05 1491.23 L874.05 1491.23 L874.05 1491.23 L882.09 1491.23 L882.09 1475.52 L882.09 1475.52 L882.09 1475.52 L882.09 1475.52 L882.09 1475.52 L882.09 1475.52 L882.09 1475.52 L882.09 1475.52 L882.09 1475.52 L882.09 1475.52 L882.09 1475.52 L890.13 1475.52 L890.13 1470.20 L890.13 1470.20 L890.13 1470.20 L898.05 1470.20 L898.05 1459.68 L898.05 1459.68 L898.05 1459.68 L898.05 1459.68 L898.05 1459.68 L898.05 1459.68 L898.05 1459.68 L906.10 1459.68 L906.10 1456.95 L914.14 1456.95 L914.14 1446.19 L914.14 1446.19 L914.14 1446.19 L914.14 1446.19 L914.14 1446.19 L914.14 1446.19 L914.14 1446.19 L922.18 1446.19 L922.18 1435.30 L922.18 1435.30 L922.18 1435.30 L922.18 1435.30 L922.18 1435.30 L922.18 1435.30 L922.18 1435.30 L930.23 1435.30 L930.23 1427.01 L930.23 1427.01 L930.23 1427.01 L930.23 1427.01 L930.23 1427.01 L938.27 1427.01 L938.27 1415.99 L938.27 1415.99 L938.27 1415.99 L938.27 1415.99 L938.27 1415.99 L938.27 1415.99 L938.27 1415.99 L946.32 1415.99 L946.32 1404.85 L946.32 1404.85 L946.32 1404.85 L946.32 1404.85 L946.32 1404.85 L946.32 1404.85 L946.32 1404.85 L954.24 1404.85 L954.24 1402.01 L962.28 1402.01 L962.28 1399.16 L970.32 1399.16 L970.32 1393.47 L970.32 1393.47 L970.32 1393.47 L978.37 1393.47 L978.37 1390.62 L986.41 1390.62 L986.41 1378.99 L986.41 1378.99 L986.41 1378.99 L986.41 1378.99 L986.41 1378.99 L986.41 1378.99 L986.41 1378.99 L994.46 1378.99 L994.46 1370.20 L994.46 1370.20 L994.46 1370.20 L994.46 1370.20 L994.46 1370.20 L1002.50 1370.20 L1002.50 1364.39 L1002.50 1364.39 L1002.50 1364.39 L1010.42 1364.39 L1010.42 1355.48 L1010.42 1355.48 L1010.42 1355.48 L1010.42 1355.48 L1010.42 1355.48 L1018.46 1355.48 L1018.46 1352.51 L1026.51 1352.51 L1026.51 1349.54 L1034.55 1349.54 L1034.55 1340.50 L1034.55 1340.50 L1034.55 1340.50 L1034.55 1340.50 L1034.55 1340.50 L1042.59 1340.50 L1042.59 1337.41 L1050.64 1337.41 L1050.64 1334.44 L1058.68 1334.44 L1058.68 1325.16 L1058.68 1325.16 L1058.68 1325.16 L1058.68 1325.16 L1058.68 1325.16 L1066.60 1325.16 L1066.60 1318.97 L1066.60 1318.97 L1066.60 1318.97 L1074.64 1318.97 L1074.64 1306.47 L1074.64 1306.47 L1074.64 1306.47 L1074.64 1306.47 L1074.64 1306.47 L1074.64 1306.47 L1074.64 1306.47 L1090.73 1306.47 L1090.73 1296.94 L1090.73 1296.94 L1090.73 1296.94 L1090.73 1296.94 L1090.73 1296.94 L1098.78 1296.94 L1098.78 1293.72 L1114.86 1293.72 L1114.86 1290.51 L1122.78 1290.51 L1122.78 1287.29 L1130.83 1287.29 L1130.83 1274.05 L1130.83 1274.05 L1130.83 1274.05 L1130.83 1274.05 L1130.83 1274.05 L1130.83 1274.05 L1130.83 1274.05 L1146.91 1274.05 L1146.91 1267.36 L1146.91 1267.36 L1146.91 1267.36 L1163.00 1267.36 L1163.00 1256.97 L1163.00 1256.97 L1163.00 1256.97 L1163.00 1256.97 L1163.00 1256.97 L1187.01 1256.97 L1187.01 1246.33 L1187.01 1246.33 L1187.01 1246.33 L1187.01 1246.33 L1187.01 1246.33 L1203.10 1246.33 L1203.10 1235.56 L1203.10 1235.56 L1203.10 1235.56 L1203.10 1235.56 L1203.10 1235.56 L1211.14 1235.56 L1211.14 1231.85 L1219.18 1231.85 L1219.18 1220.71 L1219.18 1220.71 L1219.18 1220.71 L1219.18 1220.71 L1219.18 1220.71 L1235.27 1220.71 L1235.27 1213.16 L1235.27 1213.16 L1235.27 1213.16 L1243.19 1213.16 L1243.19 1209.45 L1251.24 1209.45 L1251.24 1197.81 L1251.24 1197.81 L1251.24 1197.81 L1251.24 1197.81 L1251.24 1197.81 L1267.32 1197.81 L1267.32 1186.06 L1267.32 1186.06 L1267.32 1186.06 L1267.32 1186.06 L1267.32 1186.06 L1275.37 1186.06 L1275.37 1181.97 L1283.41 1181.97 L1283.41 1178.01 L1291.45 1178.01 L1291.45 1169.97 L1291.45 1169.97 L1291.45 1169.97 L1299.38 1169.97 L1299.38 1149.43 L1299.38 1149.43 L1299.38 1149.43 L1299.38 1149.43 L1299.38 1149.43 L1299.38 1149.43 L1299.38 1149.43 L1299.38 1149.43 L1299.38 1149.43 L1307.42 1149.43 L1307.42 1145.34 L1315.46 1145.34 L1315.46 1141.13 L1323.51 1141.13 L1323.51 1128.39 L1323.51 1128.39 L1323.51 1128.39 L1323.51 1128.39 L1323.51 1128.39 L1339.59 1128.39 L1339.59 1119.85 L1339.59 1119.85 L1339.59 1119.85 L1347.64 1119.85 L1347.64 1115.52 L1363.60 1115.52 L1363.60 1111.06 L1379.69 1111.06 L1379.69 1093.12 L1379.69 1093.12 L1379.69 1093.12 L1379.69 1093.12 L1379.69 1093.12 L1379.69 1093.12 L1379.69 1093.12 L1387.73 1093.12 L1387.73 1088.54 L1395.78 1088.54 L1395.78 1079.50 L1395.78 1079.50 L1395.78 1079.50 L1460.00 1079.50 L1460.00 1069.85 L1460.00 1069.85 L1460.00 1069.85 L1467.92 1069.85 L1467.92 1050.67 L1467.92 1050.67 L1467.92 1050.67 L1467.92 1050.67 L1467.92 1050.67 L1467.92 1050.67 L1467.92 1050.67 L1500.10 1050.67 L1500.10 1030.99 L1500.10 1030.99 L1500.10 1030.99 L1500.10 1030.99 L1500.10 1030.99 L1500.10 1030.99 L1500.10 1030.99 L1508.14 1030.99 L1508.14 1026.04 L1516.18 1026.04 L1516.18 1006.24 L1516.18 1006.24 L1516.18 1006.24 L1516.18 1006.24 L1516.18 1006.24 L1516.18 1006.24 L1516.18 1006.24 L1540.19 1006.24 L1540.19 1001.17 L1548.24 1001.17 L1548.24 996.09 L1556.28 996.09 L1556.28 975.92 L1556.28 975.92 L1556.28 975.92 L1556.28 975.92 L1556.28 975.92 L1556.28 975.92 L1556.28 975.92 L1564.32 975.92 L1564.32 965.78 L1564.32 965.78 L1564.32 965.78 L1580.41 965.78 L1580.41 960.70 L1604.42 960.70 L1604.42 950.31 L1604.42 950.31 L1604.42 950.31 L1612.46 950.31 L1612.46 945.11 L1628.55 945.11 L1628.55 934.71 L1628.55 934.71 L1628.55 934.71 L1636.59 934.71 L1636.59 929.52 L1644.51 929.52 L1644.51 913.92 L1644.51 913.92 L1644.51 913.92 L1644.51 913.92 L1644.51 913.92 L1660.60 913.92 L1660.60 908.60 L1668.64 908.60 L1668.64 898.08 L1668.64 898.08 L1668.64 898.08 L1676.69 898.08 L1676.69 892.76 L1692.78 892.76 L1692.78 887.44 L1700.70 887.44 L1700.70 882.12 L1708.74 882.12 L1708.74 871.47 L1708.74 871.47 L1708.74 871.47 L1724.83 871.47 L1724.83 866.15 L1732.87 866.15 L1732.87 855.51 L1732.87 855.51 L1732.87 855.51 L1740.91 855.51 L1740.91 850.19 L1764.92 850.19 L1764.92 844.74 L1772.97 844.74 L1772.97 833.98 L1772.97 833.98 L1772.97 833.98 L1789.05 833.98 L1789.05 828.66 L1797.10 828.66 L1797.10 823.21 L1821.11 823.21 L1821.11 817.89 L1829.15 817.89 L1829.15 812.44 L1837.19 812.44 L1837.19 807.00 L1845.24 807.00 L1845.24 801.55 L1853.28 801.55 L1853.28 796.11 L1861.32 796.11 L1861.32 785.34 L1861.32 785.34 L1861.32 785.34 L1877.29 785.34 L1877.29 779.90 L1901.42 779.90 L1901.42 769.01 L1901.42 769.01 L1901.42 769.01 L1909.46 769.01 L1909.46 763.44 L1917.51 763.44 L1917.51 757.99 L1925.55 757.99 L1925.55 747.10 L1925.55 747.10 L1925.55 747.10 L1933.47 747.10 L1933.47 736.21 L1933.47 736.21 L1933.47 736.21 L1941.51 736.21 L1941.51 730.64 L1957.60 730.64 L1957.60 725.20 L1965.64 725.20 L1965.64 719.75 L1981.73 719.75 L1981.73 714.18 L1997.70 714.18 L1997.70 708.74 L2037.91 708.74 L2037.91 703.17 L2053.88 703.17 L2053.88 697.60 L2069.97 697.60 L2069.97 686.46 L2069.97 686.46 L2069.97 686.46 L2078.01 686.46 L2078.01 675.32 L2078.01 675.32 L2078.01 675.32 L2086.05 675.32 L2086.05 669.76 L2110.06 669.76 L2110.06 664.19 L2118.11 664.19 L2118.11 652.93 L2118.11 652.93 L2118.11 652.93 L2142.24 652.93 L2142.24 647.36 L2150.28 647.36 L2150.28 636.09 L2150.28 636.09 L2150.28 636.09 L2158.20 636.09 L2158.20 630.40 L2174.29 630.40 L2174.29 624.83 L2182.33 624.83 L2182.33 619.14 L2190.38 619.14 L2190.38 613.45 L2206.46 613.45 L2206.46 607.76 L2214.51 607.76 L2214.51 596.37 L2214.51 596.37 L2214.51 596.37 L2222.43 596.37 L2222.43 590.55 L2246.56 590.55 L2246.56 579.04 L2246.56 579.04 L2246.56 579.04 L2254.60 579.04 L2254.60 573.35 L2262.64 573.35 L2262.64 567.54 L2278.61 567.54 L2278.61 561.72 L2286.65 561.72 L2286.65 550.09 L2286.65 550.09 L2286.65 550.09 L2310.78 550.09 L2310.78 538.33 L2310.78 538.33 L2310.78 538.33 L2334.79 538.33 L2334.79 532.39 L2383.05 532.39 L2383.05 526.33 L2390.97 526.33 L2390.97 520.26 L2407.06 520.26 L2407.06 514.20 L2415.11 514.20 L2415.11 508.13 L2447.16 508.13 L2447.16 495.63 L2447.16 495.63 L2447.16 495.63 L2463.24 495.63 L2463.24 489.32 L2471.29 489.32 L2471.29 483.01 L2479.33 483.01 L2479.33 476.70 L2487.38 476.70 L2487.38 470.39 L2495.42 470.39 L2495.42 463.95 L2503.34 463.95 L2503.34 457.52 L2519.43 457.52 L2519.43 451.08 L2535.51 451.08 L2535.51 444.52 L2543.56 444.52 L2543.56 437.96 L2551.60 437.96 L2551.60 431.28 L2559.52 431.28 L2559.52 424.60 L2567.57 424.60 L2567.57 417.92 L2575.61 417.92 L2575.61 411.11 L2583.65 411.11 L2583.65 404.43 L2615.83 404.43 L2615.83 397.37 L2631.79 397.37 L2631.79 390.32 L2679.93 390.32 L2679.93 382.77 L2696.02 382.77 L2696.02 352.45 L2696.02 352.45 L2696.02 352.45 L2696.02 352.45 L2696.02 352.45 L2696.02 352.45 L2696.02 352.45 L2712.11 352.45 L2712.11 344.65 L2720.15 344.65 L2720.15 336.73 L2832.51 336.73 L2832.51 326.71 L2840.56 326.71 L2840.56 316.31 L2904.66 316.31 L2904.66 303.20 L2928.79 303.20 L2928.79 288.84" stroke-linejoin="round" style="fill:none;stroke:#90353B;stroke-width:8.64"/>
	<line x1="521.73" y1="2233.63" x2="521.73" y2="100.86" style="stroke:#000000;stroke-width:5.76"/>
	<line x1="521.73" y1="2170.27" x2="481.76" y2="2170.27" style="stroke:#000000;stroke-width:5.76"/>
	<text x="461.83" y="2205.30" style="font-family:'Helvetica';font-size:99.99px;fill:#000000" text-anchor="end">0</text>
	<line x1="521.73" y1="1501.63" x2="481.76" y2="1501.63" style="stroke:#000000;stroke-width:5.76"/>
	<text x="461.83" y="1536.66" style="font-family:'Helvetica';font-size:99.99px;fill:#000000" text-anchor="end">.005</text>
	<line x1="521.73" y1="832.86" x2="481.76" y2="832.86" style="stroke:#000000;stroke-width:5.76"/>
	<text x="461.83" y="867.89" style="font-family:'Helvetica';font-size:99.99px;fill:#000000" text-anchor="end">.01</text>
	<line x1="521.73" y1="164.22" x2="481.76" y2="164.22" style="stroke:#000000;stroke-width:5.76"/>
	<text x="461.83" y="199.25" style="font-family:'Helvetica';font-size:99.99px;fill:#000000" text-anchor="end">.015</text>
	<text x="190.71" y="1167.25" style="font-family:'Helvetica';font-size:99.99px;fill:#000000" transform="rotate(-90 190.71,1167.25)" text-anchor="middle">Cumulative Incidence</text>
	<line x1="521.73" y1="2233.63" x2="3859.02" y2="2233.63" style="stroke:#000000;stroke-width:5.76"/>
	<line x1="585.09" y1="2233.63" x2="585.09" y2="2273.73" style="stroke:#000000;stroke-width:5.76"/>
	<text x="585.09" y="2363.59" style="font-family:'Helvetica';font-size:99.99px;fill:#000000" text-anchor="middle">0</text>
	<line x1="1387.73" y1="2233.63" x2="1387.73" y2="2273.73" style="stroke:#000000;stroke-width:5.76"/>
	<text x="1387.73" y="2363.59" style="font-family:'Helvetica';font-size:99.99px;fill:#000000" text-anchor="middle">100</text>
	<line x1="2190.38" y1="2233.63" x2="2190.38" y2="2273.73" style="stroke:#000000;stroke-width:5.76"/>
	<text x="2190.38" y="2363.59" style="font-family:'Helvetica';font-size:99.99px;fill:#000000" text-anchor="middle">200</text>
	<line x1="2993.02" y1="2233.63" x2="2993.02" y2="2273.73" style="stroke:#000000;stroke-width:5.76"/>
	<text x="2993.02" y="2363.59" style="font-family:'Helvetica';font-size:99.99px;fill:#000000" text-anchor="middle">300</text>
	<line x1="3795.66" y1="2233.63" x2="3795.66" y2="2273.73" style="stroke:#000000;stroke-width:5.76"/>
	<text x="3795.66" y="2363.59" style="font-family:'Helvetica';font-size:99.99px;fill:#000000" text-anchor="middle">400</text>
	<text x="2190.38" y="2473.60" style="font-family:'Helvetica';font-size:99.99px;fill:#000000" text-anchor="middle">Time (Days)</text>
	<rect x="968.22" y="2558.24" width="2444.43" height="186.37" style="fill:#FFFFFF"/>
	<rect x="971.10" y="2561.12" width="2438.67" height="180.61" style="fill:none;stroke:#000000;stroke-width:5.76"/>
	<line x1="1011.41" y1="2651.43" x2="1385.88" y2="2651.43" style="stroke:#1A476F;stroke-width:8.64"/>
	<line x1="2464.61" y1="2651.43" x2="2839.07" y2="2651.43" style="stroke:#90353B;stroke-width:8.64"/>
	<text x="1445.77" y="2686.46" style="font-family:'Helvetica';font-size:99.99px;fill:#000000">General Population</text>
	<text x="2898.97" y="2686.46" style="font-family:'Helvetica';font-size:99.99px;fill:#000000">COVID-19</text>
</svg>
