<?xml version="1.0" encoding="UTF-8" standalone="no"?>
<!-- This is a Stata 16.1 generated SVG file (http://www.stata.com) -->

<svg version="1.1" width="5.50in" height="4.00in" viewBox="0 0 3960 2880" xmlns="http://www.w3.org/2000/svg" xmlns:xlink="http://www.w3.org/1999/xlink">
	<desc>Stata Graph - Graph</desc>
	<rect x="0" y="0" width="3960" height="2880" style="fill:#EAF2F3;stroke:none"/>
	<rect x="0.00" y="0.00" width="3959.88" height="2880.00" style="fill:#FFFFFF"/>
	<rect x="2.88" y="2.88" width="3954.12" height="2874.24" style="fill:none;stroke:#FFFFFF;stroke-width:5.76"/>
	<rect x="521.73" y="100.86" width="3337.29" height="2132.77" style="fill:#FFFFFF"/>
	<rect x="524.61" y="103.74" width="3331.53" height="2127.01" style="fill:none;stroke:#FFFFFF;stroke-width:5.76"/>
	<line x1="521.73" y1="2170.27" x2="3859.02" y2="2170.27" style="stroke:#EAF2F3;stroke-width:8.64"/>
	<line x1="521.73" y1="1770.42" x2="3859.02" y2="1770.42" style="stroke:#EAF2F3;stroke-width:8.64"/>
	<line x1="521.73" y1="1370.57" x2="3859.02" y2="1370.57" style="stroke:#EAF2F3;stroke-width:8.64"/>
	<line x1="521.73" y1="970.85" x2="3859.02" y2="970.85" style="stroke:#EAF2F3;stroke-width:8.64"/>
	<line x1="521.73" y1="571.00" x2="3859.02" y2="571.00" style="stroke:#EAF2F3;stroke-width:8.64"/>
	<line x1="521.73" y1="171.15" x2="3859.02" y2="171.15" style="stroke:#EAF2F3;stroke-width:8.64"/>
	<path d=" M617.14 2169.90 L625.18 2169.90 L625.18 2169.41 L641.27 2169.41 L641.27 2168.42 L641.27 2168.42 L641.27 2168.42 L649.32 2168.42 L649.32 2167.30 L649.32 2167.30 L649.32 2167.30 L657.36 2167.30 L657.36 2166.31 L657.36 2166.31 L657.36 2166.31 L665.28 2166.31 L665.28 2164.83 L665.28 2164.83 L665.28 2164.83 L665.28 2164.83 L665.28 2164.83 L673.32 2164.83 L673.32 2163.84 L673.32 2163.84 L673.32 2163.84 L681.37 2163.84 L681.37 2163.34 L689.41 2163.34 L689.41 2162.35 L689.41 2162.35 L689.41 2162.35 L697.46 2162.35 L697.46 2161.24 L697.46 2161.24 L697.46 2161.24 L713.54 2161.24 L713.54 2160.25 L713.54 2160.25 L713.54 2160.25 L729.51 2160.25 L729.51 2159.26 L729.51 2159.26 L729.51 2159.26 L737.55 2159.26 L737.55 2158.76 L745.59 2158.76 L745.59 2158.27 L753.64 2158.27 L753.64 2156.16 L753.64 2156.16 L753.64 2156.16 L753.64 2156.16 L753.64 2156.16 L753.64 2156.16 L753.64 2156.16 L769.73 2156.16 L769.73 2155.17 L769.73 2155.17 L769.73 2155.17 L777.77 2155.17 L777.77 2154.18 L777.77 2154.18 L777.77 2154.18 L785.69 2154.18 L785.69 2151.21 L785.69 2151.21 L785.69 2151.21 L785.69 2151.21 L785.69 2151.21 L785.69 2151.21 L785.69 2151.21 L785.69 2151.21 L785.69 2151.21 L785.69 2151.21 L785.69 2151.21 L793.73 2151.21 L793.73 2150.10 L793.73 2150.10 L793.73 2150.10 L801.78 2150.10 L801.78 2147.62 L801.78 2147.62 L801.78 2147.62 L801.78 2147.62 L801.78 2147.62 L801.78 2147.62 L801.78 2147.62 L801.78 2147.62 L801.78 2147.62 L809.82 2147.62 L809.82 2147.13 L817.86 2147.13 L817.86 2145.03 L817.86 2145.03 L817.86 2145.03 L817.86 2145.03 L817.86 2145.03 L817.86 2145.03 L817.86 2145.03 L825.91 2145.03 L825.91 2143.54 L825.91 2143.54 L825.91 2143.54 L825.91 2143.54 L825.91 2143.54 L833.95 2143.54 L833.95 2142.55 L833.95 2142.55 L833.95 2142.55 L841.87 2142.55 L841.87 2141.56 L841.87 2141.56 L841.87 2141.56 L857.96 2141.56 L857.96 2139.95 L857.96 2139.95 L857.96 2139.95 L857.96 2139.95 L857.96 2139.95 L866.00 2139.95 L866.00 2138.96 L866.00 2138.96 L866.00 2138.96 L874.05 2138.96 L874.05 2138.47 L906.10 2138.47 L906.10 2136.49 L906.10 2136.49 L906.10 2136.49 L906.10 2136.49 L906.10 2136.49 L906.10 2136.49 L906.10 2136.49 L922.18 2136.49 L922.18 2135.99 L930.23 2135.99 L930.23 2134.38 L930.23 2134.38 L930.23 2134.38 L930.23 2134.38 L930.23 2134.38 L938.27 2134.38 L938.27 2133.89 L946.32 2133.89 L946.32 2133.39 L954.24 2133.39 L954.24 2131.91 L954.24 2131.91 L954.24 2131.91 L954.24 2131.91 L954.24 2131.91 L962.28 2131.91 L962.28 2130.92 L962.28 2130.92 L962.28 2130.92 L970.32 2130.92 L970.32 2129.31 L970.32 2129.31 L970.32 2129.31 L970.32 2129.31 L970.32 2129.31 L978.37 2129.31 L978.37 2128.81 L986.41 2128.81 L986.41 2128.32 L1002.50 2128.32 L1002.50 2127.82 L1010.42 2127.82 L1010.42 2127.33 L1026.51 2127.33 L1026.51 2125.35 L1026.51 2125.35 L1026.51 2125.35 L1026.51 2125.35 L1026.51 2125.35 L1026.51 2125.35 L1026.51 2125.35 L1034.55 2125.35 L1034.55 2124.85 L1042.59 2124.85 L1042.59 2123.74 L1042.59 2123.74 L1042.59 2123.74 L1050.64 2123.74 L1050.64 2122.75 L1050.64 2122.75 L1050.64 2122.75 L1058.68 2122.75 L1058.68 2122.26 L1066.60 2122.26 L1066.60 2121.76 L1074.64 2121.76 L1074.64 2120.77 L1074.64 2120.77 L1074.64 2120.77 L1082.69 2120.77 L1082.69 2119.16 L1082.69 2119.16 L1082.69 2119.16 L1082.69 2119.16 L1082.69 2119.16 L1090.73 2119.16 L1090.73 2118.17 L1090.73 2118.17 L1090.73 2118.17 L1098.78 2118.17 L1098.78 2117.18 L1098.78 2117.18 L1098.78 2117.18 L1114.86 2117.18 L1114.86 2115.70 L1114.86 2115.70 L1114.86 2115.70 L1114.86 2115.70 L1114.86 2115.70 L1130.83 2115.70 L1130.83 2115.20 L1138.87 2115.20 L1138.87 2113.59 L1138.87 2113.59 L1138.87 2113.59 L1138.87 2113.59 L1138.87 2113.59 L1154.96 2113.59 L1154.96 2112.60 L1154.96 2112.60 L1154.96 2112.60 L1179.09 2112.60 L1179.09 2111.61 L1179.09 2111.61 L1179.09 2111.61 L1187.01 2111.61 L1187.01 2111.12 L1203.10 2111.12 L1203.10 2110.62 L1211.14 2110.62 L1211.14 2110.13 L1219.18 2110.13 L1219.18 2108.02 L1219.18 2108.02 L1219.18 2108.02 L1219.18 2108.02 L1219.18 2108.02 L1219.18 2108.02 L1219.18 2108.02 L1235.27 2108.02 L1235.27 2107.53 L1243.19 2107.53 L1243.19 2105.55 L1243.19 2105.55 L1243.19 2105.55 L1243.19 2105.55 L1243.19 2105.55 L1243.19 2105.55 L1243.19 2105.55 L1259.28 2105.55 L1259.28 2105.05 L1267.32 2105.05 L1267.32 2103.44 L1267.32 2103.44 L1267.32 2103.44 L1267.32 2103.44 L1267.32 2103.44 L1275.37 2103.44 L1275.37 2102.45 L1275.37 2102.45 L1275.37 2102.45 L1283.41 2102.45 L1283.41 2101.96 L1291.45 2101.96 L1291.45 2101.46 L1307.42 2101.46 L1307.42 2100.47 L1307.42 2100.47 L1307.42 2100.47 L1315.46 2100.47 L1315.46 2099.86 L1323.51 2099.86 L1323.51 2098.37 L1323.51 2098.37 L1323.51 2098.37 L1323.51 2098.37 L1323.51 2098.37 L1331.55 2098.37 L1331.55 2096.89 L1331.55 2096.89 L1331.55 2096.89 L1331.55 2096.89 L1331.55 2096.89 L1347.64 2096.89 L1347.64 2096.39 L1363.60 2096.39 L1363.60 2095.90 L1371.64 2095.90 L1371.64 2094.29 L1371.64 2094.29 L1371.64 2094.29 L1371.64 2094.29 L1371.64 2094.29 L1379.69 2094.29 L1379.69 2091.81 L1379.69 2091.81 L1379.69 2091.81 L1379.69 2091.81 L1379.69 2091.81 L1379.69 2091.81 L1379.69 2091.81 L1379.69 2091.81 L1379.69 2091.81 L1411.74 2091.81 L1411.74 2091.32 L1419.78 2091.32 L1419.78 2090.82 L1427.83 2090.82 L1427.83 2089.21 L1427.83 2089.21 L1427.83 2089.21 L1427.83 2089.21 L1427.83 2089.21 L1435.87 2089.21 L1435.87 2087.73 L1435.87 2087.73 L1435.87 2087.73 L1435.87 2087.73 L1435.87 2087.73 L1443.91 2087.73 L1443.91 2087.23 L1451.96 2087.23 L1451.96 2086.74 L1475.97 2086.74 L1475.97 2085.62 L1475.97 2085.62 L1475.97 2085.62 L1484.01 2085.62 L1484.01 2085.13 L1492.05 2085.13 L1492.05 2084.63 L1516.18 2084.63 L1516.18 2083.64 L1516.18 2083.64 L1516.18 2083.64 L1524.23 2083.64 L1524.23 2082.65 L1524.23 2082.65 L1524.23 2082.65 L1548.24 2082.65 L1548.24 2082.16 L1556.28 2082.16 L1556.28 2081.66 L1564.32 2081.66 L1564.32 2080.55 L1564.32 2080.55 L1564.32 2080.55 L1572.37 2080.55 L1572.37 2080.06 L1580.41 2080.06 L1580.41 2079.06 L1580.41 2079.06 L1580.41 2079.06 L1588.33 2079.06 L1588.33 2078.07 L1588.33 2078.07 L1588.33 2078.07 L1596.38 2078.07 L1596.38 2077.58 L1604.42 2077.58 L1604.42 2077.08 L1620.51 2077.08 L1620.51 2075.97 L1620.51 2075.97 L1620.51 2075.97 L1628.55 2075.97 L1628.55 2073.50 L1628.55 2073.50 L1628.55 2073.50 L1628.55 2073.50 L1628.55 2073.50 L1628.55 2073.50 L1628.55 2073.50 L1628.55 2073.50 L1628.55 2073.50 L1636.59 2073.50 L1636.59 2073.00 L1644.51 2073.00 L1644.51 2072.51 L1652.56 2072.51 L1652.56 2071.89 L1668.64 2071.89 L1668.64 2071.39 L1676.69 2071.39 L1676.69 2070.90 L1684.73 2070.90 L1684.73 2070.40 L1692.78 2070.40 L1692.78 2069.91 L1700.70 2069.91 L1700.70 2068.92 L1700.70 2068.92 L1700.70 2068.92 L1708.74 2068.92 L1708.74 2068.42 L1716.78 2068.42 L1716.78 2067.31 L1716.78 2067.31 L1716.78 2067.31 L1732.87 2067.31 L1732.87 2066.81 L1740.91 2066.81 L1740.91 2066.32 L1748.96 2066.32 L1748.96 2065.82 L1756.88 2065.82 L1756.88 2064.83 L1756.88 2064.83 L1756.88 2064.83 L1764.92 2064.83 L1764.92 2063.22 L1764.92 2063.22 L1764.92 2063.22 L1764.92 2063.22 L1764.92 2063.22 L1772.97 2063.22 L1772.97 2061.74 L1772.97 2061.74 L1772.97 2061.74 L1772.97 2061.74 L1772.97 2061.74 L1781.01 2061.74 L1781.01 2061.24 L1797.10 2061.24 L1797.10 2059.76 L1797.10 2059.76 L1797.10 2059.76 L1797.10 2059.76 L1797.10 2059.76 L1813.06 2059.76 L1813.06 2058.15 L1813.06 2058.15 L1813.06 2058.15 L1813.06 2058.15 L1813.06 2058.15 L1821.11 2058.15 L1821.11 2056.17 L1821.11 2056.17 L1821.11 2056.17 L1821.11 2056.17 L1821.11 2056.17 L1821.11 2056.17 L1821.11 2056.17 L1829.15 2056.17 L1829.15 2055.68 L1853.28 2055.68 L1853.28 2054.56 L1853.28 2054.56 L1853.28 2054.56 L1861.32 2054.56 L1861.32 2054.07 L1869.37 2054.07 L1869.37 2053.57 L1877.29 2053.57 L1877.29 2053.08 L1885.33 2053.08 L1885.33 2052.09 L1885.33 2052.09 L1885.33 2052.09 L1901.42 2052.09 L1901.42 2051.59 L1917.51 2051.59 L1917.51 2051.10 L1925.55 2051.10 L1925.55 2049.49 L1925.55 2049.49 L1925.55 2049.49 L1925.55 2049.49 L1925.55 2049.49 L1933.47 2049.49 L1933.47 2048.99 L1941.51 2048.99 L1941.51 2048.50 L1949.56 2048.50 L1949.56 2047.51 L1949.56 2047.51 L1949.56 2047.51 L1957.60 2047.51 L1957.60 2047.01 L1973.69 2047.01 L1973.69 2046.39 L1989.65 2046.39 L1989.65 2045.90 L1997.70 2045.90 L1997.70 2044.91 L1997.70 2044.91 L1997.70 2044.91 L2005.74 2044.91 L2005.74 2044.41 L2013.78 2044.41 L2013.78 2043.92 L2021.83 2043.92 L2021.83 2042.31 L2021.83 2042.31 L2021.83 2042.31 L2021.83 2042.31 L2021.83 2042.31 L2029.87 2042.31 L2029.87 2041.82 L2037.91 2041.82 L2037.91 2040.83 L2037.91 2040.83 L2037.91 2040.83 L2045.84 2040.83 L2045.84 2040.33 L2053.88 2040.33 L2053.88 2039.83 L2061.92 2039.83 L2061.92 2039.34 L2069.97 2039.34 L2069.97 2038.35 L2069.97 2038.35 L2069.97 2038.35 L2078.01 2038.35 L2078.01 2037.24 L2078.01 2037.24 L2078.01 2037.24 L2102.02 2037.24 L2102.02 2035.75 L2102.02 2035.75 L2102.02 2035.75 L2102.02 2035.75 L2102.02 2035.75 L2118.11 2035.75 L2118.11 2035.26 L2126.15 2035.26 L2126.15 2034.76 L2134.19 2034.76 L2134.19 2034.27 L2142.24 2034.27 L2142.24 2033.15 L2142.24 2033.15 L2142.24 2033.15 L2150.28 2033.15 L2150.28 2032.66 L2158.20 2032.66 L2158.20 2031.67 L2158.20 2031.67 L2158.20 2031.67 L2166.24 2031.67 L2166.24 2030.68 L2166.24 2030.68 L2166.24 2030.68 L2182.33 2030.68 L2182.33 2030.18 L2190.38 2030.18 L2190.38 2029.07 L2190.38 2029.07 L2190.38 2029.07 L2198.42 2029.07 L2198.42 2028.08 L2198.42 2028.08 L2198.42 2028.08 L2206.46 2028.08 L2206.46 2027.09 L2206.46 2027.09 L2206.46 2027.09 L2214.51 2027.09 L2214.51 2025.48 L2214.51 2025.48 L2214.51 2025.48 L2214.51 2025.48 L2214.51 2025.48 L2222.43 2025.48 L2222.43 2024.98 L2230.47 2024.98 L2230.47 2024.49 L2238.51 2024.49 L2238.51 2023.50 L2238.51 2023.50 L2238.51 2023.50 L2246.56 2023.50 L2246.56 2021.89 L2246.56 2021.89 L2246.56 2021.89 L2246.56 2021.89 L2246.56 2021.89 L2254.60 2021.89 L2254.60 2020.41 L2254.60 2020.41 L2254.60 2020.41 L2254.60 2020.41 L2254.60 2020.41 L2262.64 2020.41 L2262.64 2018.92 L2262.64 2018.92 L2262.64 2018.92 L2262.64 2018.92 L2262.64 2018.92 L2270.69 2018.92 L2270.69 2017.81 L2270.69 2017.81 L2270.69 2017.81 L2286.65 2017.81 L2286.65 2016.32 L2286.65 2016.32 L2286.65 2016.32 L2286.65 2016.32 L2286.65 2016.32 L2294.70 2016.32 L2294.70 2015.83 L2302.74 2015.83 L2302.74 2015.33 L2310.78 2015.33 L2310.78 2014.84 L2318.83 2014.84 L2318.83 2013.23 L2318.83 2013.23 L2318.83 2013.23 L2318.83 2013.23 L2318.83 2013.23 L2326.87 2013.23 L2326.87 2012.73 L2334.79 2012.73 L2334.79 2012.24 L2342.84 2012.24 L2342.84 2011.74 L2358.92 2011.74 L2358.92 2011.25 L2366.97 2011.25 L2366.97 2010.75 L2375.01 2010.75 L2375.01 2009.64 L2375.01 2009.64 L2375.01 2009.64 L2383.05 2009.64 L2383.05 2008.15 L2383.05 2008.15 L2383.05 2008.15 L2383.05 2008.15 L2383.05 2008.15 L2390.97 2008.15 L2390.97 2007.16 L2390.97 2007.16 L2390.97 2007.16 L2407.06 2007.16 L2407.06 2006.67 L2431.19 2006.67 L2431.19 2005.56 L2431.19 2005.56 L2431.19 2005.56 L2439.24 2005.56 L2439.24 2005.06 L2447.16 2005.06 L2447.16 2004.57 L2455.20 2004.57 L2455.20 2004.07 L2471.29 2004.07 L2471.29 2001.97 L2471.29 2001.97 L2471.29 2001.97 L2471.29 2001.97 L2471.29 2001.97 L2471.29 2001.97 L2471.29 2001.97 L2479.33 2001.97 L2479.33 2000.98 L2479.33 2000.98 L2479.33 2000.98 L2487.38 2000.98 L2487.38 1999.99 L2487.38 1999.99 L2487.38 1999.99 L2495.42 1999.99 L2495.42 1999.49 L2503.34 1999.49 L2503.34 1998.38 L2503.34 1998.38 L2503.34 1998.38 L2527.47 1998.38 L2527.47 1996.89 L2527.47 1996.89 L2527.47 1996.89 L2527.47 1996.89 L2527.47 1996.89 L2543.56 1996.89 L2543.56 1995.90 L2543.56 1995.90 L2543.56 1995.90 L2551.60 1995.90 L2551.60 1994.91 L2551.60 1994.91 L2551.60 1994.91 L2559.52 1994.91 L2559.52 1993.80 L2559.52 1993.80 L2559.52 1993.80 L2583.65 1993.80 L2583.65 1993.30 L2591.70 1993.30 L2591.70 1992.31 L2591.70 1992.31 L2591.70 1992.31 L2599.74 1992.31 L2599.74 1990.21 L2599.74 1990.21 L2599.74 1990.21 L2599.74 1990.21 L2599.74 1990.21 L2599.74 1990.21 L2599.74 1990.21 L2607.78 1990.21 L2607.78 1989.71 L2615.83 1989.71 L2615.83 1987.73 L2615.83 1987.73 L2615.83 1987.73 L2615.83 1987.73 L2615.83 1987.73 L2615.83 1987.73 L2615.83 1987.73 L2623.75 1987.73 L2623.75 1987.12 L2631.79 1987.12 L2631.79 1986.62 L2639.84 1986.62 L2639.84 1986.13 L2655.92 1986.13 L2655.92 1985.14 L2655.92 1985.14 L2655.92 1985.14 L2672.01 1985.14 L2672.01 1984.15 L2672.01 1984.15 L2672.01 1984.15 L2679.93 1984.15 L2679.93 1983.03 L2679.93 1983.03 L2679.93 1983.03 L2687.97 1983.03 L2687.97 1982.04 L2687.97 1982.04 L2687.97 1982.04 L2696.02 1982.04 L2696.02 1981.55 L2704.06 1981.55 L2704.06 1981.05 L2712.11 1981.05 L2712.11 1980.06 L2712.11 1980.06 L2712.11 1980.06 L2728.19 1980.06 L2728.19 1978.95 L2728.19 1978.95 L2728.19 1978.95 L2744.16 1978.95 L2744.16 1978.45 L2752.20 1978.45 L2752.20 1977.46 L2752.20 1977.46 L2752.20 1977.46 L2760.24 1977.46 L2760.24 1976.97 L2776.33 1976.97 L2776.33 1975.85 L2776.33 1975.85 L2776.33 1975.85 L2784.38 1975.85 L2784.38 1974.37 L2784.38 1974.37 L2784.38 1974.37 L2784.38 1974.37 L2784.38 1974.37 L2792.30 1974.37 L2792.30 1972.88 L2792.30 1972.88 L2792.30 1972.88 L2792.30 1972.88 L2792.30 1972.88 L2800.34 1972.88 L2800.34 1971.77 L2800.34 1971.77 L2800.34 1971.77 L2808.38 1971.77 L2808.38 1970.78 L2808.38 1970.78 L2808.38 1970.78 L2816.43 1970.78 L2816.43 1969.79 L2816.43 1969.79 L2816.43 1969.79 L2824.47 1969.79 L2824.47 1968.18 L2824.47 1968.18 L2824.47 1968.18 L2824.47 1968.18 L2824.47 1968.18 L2832.51 1968.18 L2832.51 1967.69 L2840.56 1967.69 L2840.56 1967.19 L2848.48 1967.19 L2848.48 1966.70 L2856.52 1966.70 L2856.52 1966.20 L2864.57 1966.20 L2864.57 1964.59 L2864.57 1964.59 L2864.57 1964.59 L2864.57 1964.59 L2864.57 1964.59 L2872.61 1964.59 L2872.61 1961.50 L2872.61 1961.50 L2872.61 1961.50 L2872.61 1961.50 L2872.61 1961.50 L2872.61 1961.50 L2872.61 1961.50 L2872.61 1961.50 L2872.61 1961.50 L2872.61 1961.50 L2872.61 1961.50 L2880.65 1961.50 L2880.65 1961.00 L2888.70 1961.00 L2888.70 1960.51 L2896.74 1960.51 L2896.74 1960.01 L2904.66 1960.01 L2904.66 1958.53 L2904.66 1958.53 L2904.66 1958.53 L2904.66 1958.53 L2904.66 1958.53 L2936.84 1958.53 L2936.84 1957.91 L2952.92 1957.91 L2952.92 1955.93 L2952.92 1955.93 L2952.92 1955.93 L2952.92 1955.93 L2952.92 1955.93 L2952.92 1955.93 L2952.92 1955.93 L2968.89 1955.93 L2968.89 1954.94 L2968.89 1954.94 L2968.89 1954.94 L2976.93 1954.94 L2976.93 1954.32 L2984.97 1954.32 L2984.97 1953.83 L2993.02 1953.83 L2993.02 1953.33 L3001.06 1953.33 L3001.06 1952.34 L3001.06 1952.34 L3001.06 1952.34 L3009.11 1952.34 L3009.11 1951.85 L3025.07 1951.85 L3025.07 1951.35 L3033.11 1951.35 L3033.11 1950.73 L3041.16 1950.73 L3041.16 1950.24 L3049.20 1950.24 L3049.20 1949.74 L3057.24 1949.74 L3057.24 1948.75 L3057.24 1948.75 L3057.24 1948.75 L3073.33 1948.75 L3073.33 1947.76 L3073.33 1947.76 L3073.33 1947.76 L3081.25 1947.76 L3081.25 1947.14 L3089.30 1947.14 L3089.30 1945.66 L3089.30 1945.66 L3089.30 1945.66 L3089.30 1945.66 L3089.30 1945.66 L3105.38 1945.66 L3105.38 1944.67 L3105.38 1944.67 L3105.38 1944.67 L3113.43 1944.67 L3113.43 1943.06 L3113.43 1943.06 L3113.43 1943.06 L3113.43 1943.06 L3113.43 1943.06 L3121.47 1943.06 L3121.47 1942.56 L3137.43 1942.56 L3137.43 1941.08 L3137.43 1941.08 L3137.43 1941.08 L3137.43 1941.08 L3137.43 1941.08 L3153.52 1941.08 L3153.52 1940.46 L3169.61 1940.46 L3169.61 1939.97 L3177.65 1939.97 L3177.65 1938.98 L3177.65 1938.98 L3177.65 1938.98 L3185.70 1938.98 L3185.70 1938.48 L3201.66 1938.48 L3201.66 1937.49 L3201.66 1937.49 L3201.66 1937.49 L3209.70 1937.49 L3209.70 1936.87 L3217.75 1936.87 L3217.75 1936.38 L3233.84 1936.38 L3233.84 1934.40 L3233.84 1934.40 L3233.84 1934.40 L3233.84 1934.40 L3233.84 1934.40 L3233.84 1934.40 L3233.84 1934.40 L3241.88 1934.40 L3241.88 1933.78 L3249.80 1933.78 L3249.80 1932.79 L3249.80 1932.79 L3249.80 1932.79 L3257.84 1932.79 L3257.84 1932.29 L3265.89 1932.29 L3265.89 1931.30 L3265.89 1931.30 L3265.89 1931.30 L3273.93 1931.30 L3273.93 1929.20 L3273.93 1929.20 L3273.93 1929.20 L3273.93 1929.20 L3273.93 1929.20 L3273.93 1929.20 L3273.93 1929.20 L3281.97 1929.20 L3281.97 1928.70 L3290.02 1928.70 L3290.02 1927.71 L3290.02 1927.71 L3290.02 1927.71 L3298.06 1927.71 L3298.06 1927.10 L3306.11 1927.10 L3306.11 1926.11 L3306.11 1926.11 L3306.11 1926.11 L3322.07 1926.11 L3322.07 1925.61 L3330.11 1925.61 L3330.11 1924.62 L3330.11 1924.62 L3330.11 1924.62 L3370.21 1924.62 L3370.21 1923.01 L3370.21 1923.01 L3370.21 1923.01 L3370.21 1923.01 L3370.21 1923.01 L3378.25 1923.01 L3378.25 1922.52 L3386.30 1922.52 L3386.30 1921.03 L3386.30 1921.03 L3386.30 1921.03 L3386.30 1921.03 L3386.30 1921.03 L3394.34 1921.03 L3394.34 1918.93 L3394.34 1918.93 L3394.34 1918.93 L3394.34 1918.93 L3394.34 1918.93 L3394.34 1918.93 L3394.34 1918.93 L3402.38 1918.93 L3402.38 1917.94 L3402.38 1917.94 L3402.38 1917.94 L3410.43 1917.94 L3410.43 1916.82 L3410.43 1916.82 L3410.43 1916.82 L3426.39 1916.82 L3426.39 1915.83 L3426.39 1915.83 L3426.39 1915.83 L3434.43 1915.83 L3434.43 1913.73 L3434.43 1913.73 L3434.43 1913.73 L3434.43 1913.73 L3434.43 1913.73 L3434.43 1913.73 L3434.43 1913.73 L3450.52 1913.73 L3450.52 1913.23 L3458.57 1913.23 L3458.57 1912.74 L3474.65 1912.74 L3474.65 1911.75 L3474.65 1911.75 L3474.65 1911.75 L3482.57 1911.75 L3482.57 1911.25 L3490.62 1911.25 L3490.62 1910.14 L3490.62 1910.14 L3490.62 1910.14 L3506.70 1910.14 L3506.70 1909.65 L3514.75 1909.65 L3514.75 1908.16 L3514.75 1908.16 L3514.75 1908.16 L3514.75 1908.16 L3514.75 1908.16 L3522.79 1908.16 L3522.79 1907.05 L3522.79 1907.05 L3522.79 1907.05" stroke-linejoin="round" style="fill:none;stroke:#1A476F;stroke-width:8.64"/>
	<path d=" M601.18 2100.72 L601.18 2100.72 L601.18 2100.72 L601.18 2100.72 L601.18 2100.72 L601.18 2100.72 L601.18 2100.72 L601.18 2100.72 L601.18 2100.72 L601.18 2100.72 L601.18 2100.72 L601.18 2100.72 L601.18 2100.72 L601.18 2100.72 L601.18 2100.72 L601.18 2100.72 L601.18 2100.72 L601.18 2100.72 L601.18 2100.72 L601.18 2100.72 L601.18 2100.72 L601.18 2100.72 L601.18 2100.72 L601.18 2100.72 L601.18 2100.72 L601.18 2100.72 L601.18 2100.72 L601.18 2100.72 L601.18 2100.72 L601.18 2100.72 L601.18 2100.72 L601.18 2100.72 L601.18 2100.72 L601.18 2100.72 L601.18 2100.72 L601.18 2100.72 L601.18 2100.72 L601.18 2100.72 L601.18 2100.72 L601.18 2100.72 L601.18 2100.72 L601.18 2100.72 L601.18 2100.72 L601.18 2100.72 L601.18 2100.72 L601.18 2100.72 L601.18 2100.72 L601.18 2100.72 L601.18 2100.72 L601.18 2100.72 L601.18 2100.72 L601.18 2100.72 L601.18 2100.72 L601.18 2100.72 L601.18 2100.72 L601.18 2100.72 L601.18 2100.72 L601.18 2100.72 L601.18 2100.72 L601.18 2100.72 L601.18 2100.72 L601.18 2100.72 L601.18 2100.72 L601.18 2100.72 L601.18 2100.72 L601.18 2100.72 L601.18 2100.72 L601.18 2100.72 L601.18 2100.72 L601.18 2100.72 L601.18 2100.72 L601.18 2100.72 L601.18 2100.72 L601.18 2100.72 L601.18 2100.72 L601.18 2100.72 L601.18 2100.72 L601.18 2100.72 L601.18 2100.72 L601.18 2100.72 L601.18 2100.72 L601.18 2100.72 L601.18 2100.72 L601.18 2100.72 L601.18 2100.72 L601.18 2100.72 L601.18 2100.72 L601.18 2100.72 L601.18 2100.72 L601.18 2100.72 L601.18 2100.72 L601.18 2100.72 L601.18 2100.72 L601.18 2100.72 L601.18 2100.72 L601.18 2100.72 L601.18 2100.72 L601.18 2100.72 L601.18 2100.72 L601.18 2100.72 L601.18 2100.72 L601.18 2100.72 L601.18 2100.72 L601.18 2100.72 L601.18 2100.72 L601.18 2100.72 L601.18 2100.72 L601.18 2100.72 L601.18 2100.72 L601.18 2100.72 L601.18 2100.72 L601.18 2100.72 L601.18 2100.72 L601.18 2100.72 L601.18 2100.72 L601.18 2100.72 L601.18 2100.72 L601.18 2100.72 L601.18 2100.72 L601.18 2100.72 L601.18 2100.72 L601.18 2100.72 L601.18 2100.72 L601.18 2100.72 L601.18 2100.72 L601.18 2100.72 L601.18 2100.72 L601.18 2100.72 L601.18 2100.72 L601.18 2100.72 L601.18 2100.72 L609.10 2100.72 L609.10 2004.19 L609.10 2004.19 L609.10 2004.19 L609.10 2004.19 L609.10 2004.19 L609.10 2004.19 L609.10 2004.19 L609.10 2004.19 L609.10 2004.19 L609.10 2004.19 L609.10 2004.19 L609.10 2004.19 L609.10 2004.19 L609.10 2004.19 L609.10 2004.19 L609.10 2004.19 L609.10 2004.19 L609.10 2004.19 L609.10 2004.19 L609.10 2004.19 L609.10 2004.19 L609.10 2004.19 L609.10 2004.19 L609.10 2004.19 L609.10 2004.19 L609.10 2004.19 L609.10 2004.19 L609.10 2004.19 L609.10 2004.19 L609.10 2004.19 L609.10 2004.19 L609.10 2004.19 L609.10 2004.19 L609.10 2004.19 L609.10 2004.19 L609.10 2004.19 L609.10 2004.19 L609.10 2004.19 L609.10 2004.19 L609.10 2004.19 L609.10 2004.19 L609.10 2004.19 L609.10 2004.19 L609.10 2004.19 L609.10 2004.19 L609.10 2004.19 L609.10 2004.19 L609.10 2004.19 L609.10 2004.19 L609.10 2004.19 L609.10 2004.19 L609.10 2004.19 L609.10 2004.19 L609.10 2004.19 L609.10 2004.19 L609.10 2004.19 L609.10 2004.19 L609.10 2004.19 L609.10 2004.19 L609.10 2004.19 L609.10 2004.19 L609.10 2004.19 L609.10 2004.19 L609.10 2004.19 L609.10 2004.19 L609.10 2004.19 L609.10 2004.19 L609.10 2004.19 L609.10 2004.19 L609.10 2004.19 L609.10 2004.19 L609.10 2004.19 L609.10 2004.19 L609.10 2004.19 L609.10 2004.19 L609.10 2004.19 L609.10 2004.19 L609.10 2004.19 L609.10 2004.19 L609.10 2004.19 L609.10 2004.19 L609.10 2004.19 L609.10 2004.19 L609.10 2004.19 L609.10 2004.19 L609.10 2004.19 L609.10 2004.19 L609.10 2004.19 L609.10 2004.19 L609.10 2004.19 L609.10 2004.19 L609.10 2004.19 L609.10 2004.19 L609.10 2004.19 L609.10 2004.19 L609.10 2004.19 L609.10 2004.19 L609.10 2004.19 L609.10 2004.19 L609.10 2004.19 L609.10 2004.19 L609.10 2004.19 L609.10 2004.19 L609.10 2004.19 L609.10 2004.19 L609.10 2004.19 L609.10 2004.19 L609.10 2004.19 L609.10 2004.19 L609.10 2004.19 L609.10 2004.19 L609.10 2004.19 L609.10 2004.19 L609.10 2004.19 L609.10 2004.19 L609.10 2004.19 L609.10 2004.19 L609.10 2004.19 L609.10 2004.19 L609.10 2004.19 L609.10 2004.19 L609.10 2004.19 L609.10 2004.19 L609.10 2004.19 L609.10 2004.19 L609.10 2004.19 L609.10 2004.19 L609.10 2004.19 L609.10 2004.19 L609.10 2004.19 L609.10 2004.19 L609.10 2004.19 L609.10 2004.19 L609.10 2004.19 L609.10 2004.19 L609.10 2004.19 L609.10 2004.19 L609.10 2004.19 L609.10 2004.19 L609.10 2004.19 L609.10 2004.19 L609.10 2004.19 L609.10 2004.19 L609.10 2004.19 L609.10 2004.19 L609.10 2004.19 L609.10 2004.19 L609.10 2004.19 L609.10 2004.19 L609.10 2004.19 L609.10 2004.19 L609.10 2004.19 L609.10 2004.19 L609.10 2004.19 L609.10 2004.19 L609.10 2004.19 L609.10 2004.19 L609.10 2004.19 L609.10 2004.19 L609.10 2004.19 L609.10 2004.19 L609.10 2004.19 L609.10 2004.19 L609.10 2004.19 L609.10 2004.19 L609.10 2004.19 L609.10 2004.19 L609.10 2004.19 L609.10 2004.19 L609.10 2004.19 L609.10 2004.19 L609.10 2004.19 L609.10 2004.19 L609.10 2004.19 L609.10 2004.19 L609.10 2004.19 L609.10 2004.19 L609.10 2004.19 L609.10 2004.19 L609.10 2004.19 L609.10 2004.19 L617.14 2004.19 L617.14 1929.45 L617.14 1929.45 L617.14 1929.45 L617.14 1929.45 L617.14 1929.45 L617.14 1929.45 L617.14 1929.45 L617.14 1929.45 L617.14 1929.45 L617.14 1929.45 L617.14 1929.45 L617.14 1929.45 L617.14 1929.45 L617.14 1929.45 L617.14 1929.45 L617.14 1929.45 L617.14 1929.45 L617.14 1929.45 L617.14 1929.45 L617.14 1929.45 L617.14 1929.45 L617.14 1929.45 L617.14 1929.45 L617.14 1929.45 L617.14 1929.45 L617.14 1929.45 L617.14 1929.45 L617.14 1929.45 L617.14 1929.45 L617.14 1929.45 L617.14 1929.45 L617.14 1929.45 L617.14 1929.45 L617.14 1929.45 L617.14 1929.45 L617.14 1929.45 L617.14 1929.45 L617.14 1929.45 L617.14 1929.45 L617.14 1929.45 L617.14 1929.45 L617.14 1929.45 L617.14 1929.45 L617.14 1929.45 L617.14 1929.45 L617.14 1929.45 L617.14 1929.45 L617.14 1929.45 L617.14 1929.45 L617.14 1929.45 L617.14 1929.45 L617.14 1929.45 L617.14 1929.45 L617.14 1929.45 L617.14 1929.45 L617.14 1929.45 L617.14 1929.45 L617.14 1929.45 L617.14 1929.45 L617.14 1929.45 L617.14 1929.45 L617.14 1929.45 L617.14 1929.45 L617.14 1929.45 L617.14 1929.45 L617.14 1929.45 L617.14 1929.45 L617.14 1929.45 L617.14 1929.45 L617.14 1929.45 L617.14 1929.45 L617.14 1929.45 L617.14 1929.45 L617.14 1929.45 L617.14 1929.45 L617.14 1929.45 L617.14 1929.45 L617.14 1929.45 L617.14 1929.45 L617.14 1929.45 L617.14 1929.45 L617.14 1929.45 L617.14 1929.45 L617.14 1929.45 L617.14 1929.45 L617.14 1929.45 L617.14 1929.45 L617.14 1929.45 L617.14 1929.45 L617.14 1929.45 L617.14 1929.45 L617.14 1929.45 L617.14 1929.45 L617.14 1929.45 L617.14 1929.45 L617.14 1929.45 L617.14 1929.45 L617.14 1929.45 L617.14 1929.45 L617.14 1929.45 L617.14 1929.45 L617.14 1929.45 L617.14 1929.45 L617.14 1929.45 L617.14 1929.45 L617.14 1929.45 L617.14 1929.45 L617.14 1929.45 L617.14 1929.45 L617.14 1929.45 L617.14 1929.45 L617.14 1929.45 L617.14 1929.45 L617.14 1929.45 L617.14 1929.45 L617.14 1929.45 L617.14 1929.45 L617.14 1929.45 L617.14 1929.45 L617.14 1929.45 L617.14 1929.45 L617.14 1929.45 L617.14 1929.45 L617.14 1929.45 L617.14 1929.45 L617.14 1929.45 L617.14 1929.45 L617.14 1929.45 L617.14 1929.45 L617.14 1929.45 L617.14 1929.45 L617.14 1929.45 L617.14 1929.45 L617.14 1929.45 L617.14 1929.45 L617.14 1929.45 L617.14 1929.45 L617.14 1929.45 L617.14 1929.45 L625.18 1929.45 L625.18 1860.27 L625.18 1860.27 L625.18 1860.27 L625.18 1860.27 L625.18 1860.27 L625.18 1860.27 L625.18 1860.27 L625.18 1860.27 L625.18 1860.27 L625.18 1860.27 L625.18 1860.27 L625.18 1860.27 L625.18 1860.27 L625.18 1860.27 L625.18 1860.27 L625.18 1860.27 L625.18 1860.27 L625.18 1860.27 L625.18 1860.27 L625.18 1860.27 L625.18 1860.27 L625.18 1860.27 L625.18 1860.27 L625.18 1860.27 L625.18 1860.27 L625.18 1860.27 L625.18 1860.27 L625.18 1860.27 L625.18 1860.27 L625.18 1860.27 L625.18 1860.27 L625.18 1860.27 L625.18 1860.27 L625.18 1860.27 L625.18 1860.27 L625.18 1860.27 L625.18 1860.27 L625.18 1860.27 L625.18 1860.27 L625.18 1860.27 L625.18 1860.27 L625.18 1860.27 L625.18 1860.27 L625.18 1860.27 L625.18 1860.27 L625.18 1860.27 L625.18 1860.27 L625.18 1860.27 L625.18 1860.27 L625.18 1860.27 L625.18 1860.27 L625.18 1860.27 L625.18 1860.27 L625.18 1860.27 L625.18 1860.27 L625.18 1860.27 L625.18 1860.27 L625.18 1860.27 L625.18 1860.27 L625.18 1860.27 L625.18 1860.27 L625.18 1860.27 L625.18 1860.27 L625.18 1860.27 L625.18 1860.27 L625.18 1860.27 L625.18 1860.27 L625.18 1860.27 L625.18 1860.27 L625.18 1860.27 L625.18 1860.27 L625.18 1860.27 L625.18 1860.27 L625.18 1860.27 L625.18 1860.27 L625.18 1860.27 L625.18 1860.27 L625.18 1860.27 L625.18 1860.27 L625.18 1860.27 L625.18 1860.27 L625.18 1860.27 L625.18 1860.27 L625.18 1860.27 L625.18 1860.27 L625.18 1860.27 L625.18 1860.27 L625.18 1860.27 L625.18 1860.27 L625.18 1860.27 L625.18 1860.27 L625.18 1860.27 L625.18 1860.27 L625.18 1860.27 L625.18 1860.27 L625.18 1860.27 L625.18 1860.27 L625.18 1860.27 L625.18 1860.27 L625.18 1860.27 L625.18 1860.27 L625.18 1860.27 L625.18 1860.27 L625.18 1860.27 L625.18 1860.27 L625.18 1860.27 L625.18 1860.27 L625.18 1860.27 L625.18 1860.27 L625.18 1860.27 L625.18 1860.27 L625.18 1860.27 L625.18 1860.27 L625.18 1860.27 L625.18 1860.27 L625.18 1860.27 L625.18 1860.27 L625.18 1860.27 L625.18 1860.27 L625.18 1860.27 L625.18 1860.27 L625.18 1860.27 L625.18 1860.27 L625.18 1860.27 L625.18 1860.27 L625.18 1860.27 L625.18 1860.27 L633.23 1860.27 L633.23 1789.23 L633.23 1789.23 L633.23 1789.23 L633.23 1789.23 L633.23 1789.23 L633.23 1789.23 L633.23 1789.23 L633.23 1789.23 L633.23 1789.23 L633.23 1789.23 L633.23 1789.23 L633.23 1789.23 L633.23 1789.23 L633.23 1789.23 L633.23 1789.23 L633.23 1789.23 L633.23 1789.23 L633.23 1789.23 L633.23 1789.23 L633.23 1789.23 L633.23 1789.23 L633.23 1789.23 L633.23 1789.23 L633.23 1789.23 L633.23 1789.23 L633.23 1789.23 L633.23 1789.23 L633.23 1789.23 L633.23 1789.23 L633.23 1789.23 L633.23 1789.23 L633.23 1789.23 L633.23 1789.23 L633.23 1789.23 L633.23 1789.23 L633.23 1789.23 L633.23 1789.23 L633.23 1789.23 L633.23 1789.23 L633.23 1789.23 L633.23 1789.23 L633.23 1789.23 L633.23 1789.23 L633.23 1789.23 L633.23 1789.23 L633.23 1789.23 L633.23 1789.23 L633.23 1789.23 L633.23 1789.23 L633.23 1789.23 L633.23 1789.23 L633.23 1789.23 L633.23 1789.23 L633.23 1789.23 L633.23 1789.23 L633.23 1789.23 L633.23 1789.23 L633.23 1789.23 L633.23 1789.23 L633.23 1789.23 L633.23 1789.23 L633.23 1789.23 L633.23 1789.23 L633.23 1789.23 L633.23 1789.23 L633.23 1789.23 L633.23 1789.23 L633.23 1789.23 L633.23 1789.23 L633.23 1789.23 L633.23 1789.23 L633.23 1789.23 L633.23 1789.23 L633.23 1789.23 L633.23 1789.23 L633.23 1789.23 L633.23 1789.23 L633.23 1789.23 L633.23 1789.23 L633.23 1789.23 L633.23 1789.23 L633.23 1789.23 L633.23 1789.23 L633.23 1789.23 L633.23 1789.23 L633.23 1789.23 L633.23 1789.23 L633.23 1789.23 L633.23 1789.23 L633.23 1789.23 L633.23 1789.23 L633.23 1789.23 L633.23 1789.23 L633.23 1789.23 L633.23 1789.23 L633.23 1789.23 L633.23 1789.23 L633.23 1789.23 L633.23 1789.23 L633.23 1789.23 L633.23 1789.23 L633.23 1789.23 L633.23 1789.23 L633.23 1789.23 L633.23 1789.23 L633.23 1789.23 L633.23 1789.23 L633.23 1789.23 L633.23 1789.23 L633.23 1789.23 L633.23 1789.23 L633.23 1789.23 L633.23 1789.23 L633.23 1789.23 L633.23 1789.23 L633.23 1789.23 L633.23 1789.23 L633.23 1789.23 L633.23 1789.23 L633.23 1789.23 L633.23 1789.23 L633.23 1789.23 L633.23 1789.23 L633.23 1789.23 L633.23 1789.23 L633.23 1789.23 L633.23 1789.23 L633.23 1789.23 L633.23 1789.23 L641.27 1789.23 L641.27 1726.00 L641.27 1726.00 L641.27 1726.00 L641.27 1726.00 L641.27 1726.00 L641.27 1726.00 L641.27 1726.00 L641.27 1726.00 L641.27 1726.00 L641.27 1726.00 L641.27 1726.00 L641.27 1726.00 L641.27 1726.00 L641.27 1726.00 L641.27 1726.00 L641.27 1726.00 L641.27 1726.00 L641.27 1726.00 L641.27 1726.00 L641.27 1726.00 L641.27 1726.00 L641.27 1726.00 L641.27 1726.00 L641.27 1726.00 L641.27 1726.00 L641.27 1726.00 L641.27 1726.00 L641.27 1726.00 L641.27 1726.00 L641.27 1726.00 L641.27 1726.00 L641.27 1726.00 L641.27 1726.00 L641.27 1726.00 L641.27 1726.00 L641.27 1726.00 L641.27 1726.00 L641.27 1726.00 L641.27 1726.00 L641.27 1726.00 L641.27 1726.00 L641.27 1726.00 L641.27 1726.00 L641.27 1726.00 L641.27 1726.00 L641.27 1726.00 L641.27 1726.00 L641.27 1726.00 L641.27 1726.00 L641.27 1726.00 L641.27 1726.00 L641.27 1726.00 L641.27 1726.00 L641.27 1726.00 L641.27 1726.00 L641.27 1726.00 L641.27 1726.00 L641.27 1726.00 L641.27 1726.00 L641.27 1726.00 L641.27 1726.00 L641.27 1726.00 L641.27 1726.00 L641.27 1726.00 L641.27 1726.00 L641.27 1726.00 L641.27 1726.00 L641.27 1726.00 L641.27 1726.00 L641.27 1726.00 L641.27 1726.00 L641.27 1726.00 L641.27 1726.00 L641.27 1726.00 L641.27 1726.00 L641.27 1726.00 L641.27 1726.00 L641.27 1726.00 L641.27 1726.00 L641.27 1726.00 L641.27 1726.00 L641.27 1726.00 L641.27 1726.00 L641.27 1726.00 L641.27 1726.00 L641.27 1726.00 L641.27 1726.00 L641.27 1726.00 L641.27 1726.00 L641.27 1726.00 L641.27 1726.00 L641.27 1726.00 L641.27 1726.00 L641.27 1726.00 L641.27 1726.00 L641.27 1726.00 L641.27 1726.00 L641.27 1726.00 L641.27 1726.00 L641.27 1726.00 L641.27 1726.00 L641.27 1726.00 L641.27 1726.00 L641.27 1726.00 L641.27 1726.00 L641.27 1726.00 L641.27 1726.00 L641.27 1726.00 L641.27 1726.00 L641.27 1726.00 L641.27 1726.00 L641.27 1726.00 L641.27 1726.00 L649.32 1726.00 L649.32 1667.58 L649.32 1667.58 L649.32 1667.58 L649.32 1667.58 L649.32 1667.58 L649.32 1667.58 L649.32 1667.58 L649.32 1667.58 L649.32 1667.58 L649.32 1667.58 L649.32 1667.58 L649.32 1667.58 L649.32 1667.58 L649.32 1667.58 L649.32 1667.58 L649.32 1667.58 L649.32 1667.58 L649.32 1667.58 L649.32 1667.58 L649.32 1667.58 L649.32 1667.58 L649.32 1667.58 L649.32 1667.58 L649.32 1667.58 L649.32 1667.58 L649.32 1667.58 L649.32 1667.58 L649.32 1667.58 L649.32 1667.58 L649.32 1667.58 L649.32 1667.58 L649.32 1667.58 L649.32 1667.58 L649.32 1667.58 L649.32 1667.58 L649.32 1667.58 L649.32 1667.58 L649.32 1667.58 L649.32 1667.58 L649.32 1667.58 L649.32 1667.58 L649.32 1667.58 L649.32 1667.58 L649.32 1667.58 L649.32 1667.58 L649.32 1667.58 L649.32 1667.58 L649.32 1667.58 L649.32 1667.58 L649.32 1667.58 L649.32 1667.58 L649.32 1667.58 L649.32 1667.58 L649.32 1667.58 L649.32 1667.58 L649.32 1667.58 L649.32 1667.58 L649.32 1667.58 L649.32 1667.58 L649.32 1667.58 L649.32 1667.58 L649.32 1667.58 L649.32 1667.58 L649.32 1667.58 L649.32 1667.58 L649.32 1667.58 L649.32 1667.58 L649.32 1667.58 L649.32 1667.58 L649.32 1667.58 L649.32 1667.58 L649.32 1667.58 L649.32 1667.58 L649.32 1667.58 L649.32 1667.58 L649.32 1667.58 L649.32 1667.58 L649.32 1667.58 L649.32 1667.58 L649.32 1667.58 L649.32 1667.58 L649.32 1667.58 L649.32 1667.58 L649.32 1667.58 L649.32 1667.58 L649.32 1667.58 L649.32 1667.58 L649.32 1667.58 L649.32 1667.58 L649.32 1667.58 L649.32 1667.58 L649.32 1667.58 L649.32 1667.58 L649.32 1667.58 L649.32 1667.58 L649.32 1667.58 L649.32 1667.58 L649.32 1667.58 L649.32 1667.58 L649.32 1667.58 L649.32 1667.58 L649.32 1667.58 L649.32 1667.58 L657.36 1667.58 L657.36 1611.77 L657.36 1611.77 L657.36 1611.77 L657.36 1611.77 L657.36 1611.77 L657.36 1611.77 L657.36 1611.77 L657.36 1611.77 L657.36 1611.77 L657.36 1611.77 L657.36 1611.77 L657.36 1611.77 L657.36 1611.77 L657.36 1611.77 L657.36 1611.77 L657.36 1611.77 L657.36 1611.77 L657.36 1611.77 L657.36 1611.77 L657.36 1611.77 L657.36 1611.77 L657.36 1611.77 L657.36 1611.77 L657.36 1611.77 L657.36 1611.77 L657.36 1611.77 L657.36 1611.77 L657.36 1611.77 L657.36 1611.77 L657.36 1611.77 L657.36 1611.77 L657.36 1611.77 L657.36 1611.77 L657.36 1611.77 L657.36 1611.77 L657.36 1611.77 L657.36 1611.77 L657.36 1611.77 L657.36 1611.77 L657.36 1611.77 L657.36 1611.77 L657.36 1611.77 L657.36 1611.77 L657.36 1611.77 L657.36 1611.77 L657.36 1611.77 L657.36 1611.77 L657.36 1611.77 L657.36 1611.77 L657.36 1611.77 L657.36 1611.77 L657.36 1611.77 L657.36 1611.77 L657.36 1611.77 L657.36 1611.77 L657.36 1611.77 L657.36 1611.77 L657.36 1611.77 L657.36 1611.77 L657.36 1611.77 L657.36 1611.77 L657.36 1611.77 L657.36 1611.77 L657.36 1611.77 L657.36 1611.77 L657.36 1611.77 L657.36 1611.77 L657.36 1611.77 L657.36 1611.77 L657.36 1611.77 L657.36 1611.77 L657.36 1611.77 L657.36 1611.77 L657.36 1611.77 L657.36 1611.77 L657.36 1611.77 L657.36 1611.77 L657.36 1611.77 L657.36 1611.77 L657.36 1611.77 L657.36 1611.77 L657.36 1611.77 L657.36 1611.77 L657.36 1611.77 L657.36 1611.77 L657.36 1611.77 L657.36 1611.77 L657.36 1611.77 L657.36 1611.77 L657.36 1611.77 L657.36 1611.77 L657.36 1611.77 L657.36 1611.77 L657.36 1611.77 L657.36 1611.77 L657.36 1611.77 L657.36 1611.77 L665.28 1611.77 L665.28 1557.94 L665.28 1557.94 L665.28 1557.94 L665.28 1557.94 L665.28 1557.94 L665.28 1557.94 L665.28 1557.94 L665.28 1557.94 L665.28 1557.94 L665.28 1557.94 L665.28 1557.94 L665.28 1557.94 L665.28 1557.94 L665.28 1557.94 L665.28 1557.94 L665.28 1557.94 L665.28 1557.94 L665.28 1557.94 L665.28 1557.94 L665.28 1557.94 L665.28 1557.94 L665.28 1557.94 L665.28 1557.94 L665.28 1557.94 L665.28 1557.94 L665.28 1557.94 L665.28 1557.94 L665.28 1557.94 L665.28 1557.94 L665.28 1557.94 L665.28 1557.94 L665.28 1557.94 L665.28 1557.94 L665.28 1557.94 L665.28 1557.94 L665.28 1557.94 L665.28 1557.94 L665.28 1557.94 L665.28 1557.94 L665.28 1557.94 L665.28 1557.94 L665.28 1557.94 L665.28 1557.94 L665.28 1557.94 L665.28 1557.94 L665.28 1557.94 L665.28 1557.94 L665.28 1557.94 L665.28 1557.94 L665.28 1557.94 L665.28 1557.94 L665.28 1557.94 L665.28 1557.94 L665.28 1557.94 L665.28 1557.94 L665.28 1557.94 L665.28 1557.94 L665.28 1557.94 L665.28 1557.94 L665.28 1557.94 L665.28 1557.94 L665.28 1557.94 L665.28 1557.94 L665.28 1557.94 L665.28 1557.94 L665.28 1557.94 L665.28 1557.94 L665.28 1557.94 L665.28 1557.94 L665.28 1557.94 L665.28 1557.94 L665.28 1557.94 L665.28 1557.94 L665.28 1557.94 L665.28 1557.94 L665.28 1557.94 L665.28 1557.94 L665.28 1557.94 L665.28 1557.94 L665.28 1557.94 L665.28 1557.94 L665.28 1557.94 L665.28 1557.94 L665.28 1557.94 L665.28 1557.94 L665.28 1557.94 L665.28 1557.94 L665.28 1557.94 L665.28 1557.94 L665.28 1557.94 L665.28 1557.94 L665.28 1557.94 L665.28 1557.94 L673.32 1557.94 L673.32 1521.06 L673.32 1521.06 L673.32 1521.06 L673.32 1521.06 L673.32 1521.06 L673.32 1521.06 L673.32 1521.06 L673.32 1521.06 L673.32 1521.06 L673.32 1521.06 L673.32 1521.06 L673.32 1521.06 L673.32 1521.06 L673.32 1521.06 L673.32 1521.06 L673.32 1521.06 L673.32 1521.06 L673.32 1521.06 L673.32 1521.06 L673.32 1521.06 L673.32 1521.06 L673.32 1521.06 L673.32 1521.06 L673.32 1521.06 L673.32 1521.06 L673.32 1521.06 L673.32 1521.06 L673.32 1521.06 L673.32 1521.06 L673.32 1521.06 L673.32 1521.06 L673.32 1521.06 L673.32 1521.06 L673.32 1521.06 L673.32 1521.06 L673.32 1521.06 L673.32 1521.06 L673.32 1521.06 L673.32 1521.06 L673.32 1521.06 L673.32 1521.06 L673.32 1521.06 L673.32 1521.06 L673.32 1521.06 L673.32 1521.06 L673.32 1521.06 L673.32 1521.06 L673.32 1521.06 L673.32 1521.06 L673.32 1521.06 L673.32 1521.06 L673.32 1521.06 L673.32 1521.06 L673.32 1521.06 L673.32 1521.06 L673.32 1521.06 L673.32 1521.06 L673.32 1521.06 L673.32 1521.06 L673.32 1521.06 L673.32 1521.06 L673.32 1521.06 L673.32 1521.06 L681.37 1521.06 L681.37 1484.68 L681.37 1484.68 L681.37 1484.68 L681.37 1484.68 L681.37 1484.68 L681.37 1484.68 L681.37 1484.68 L681.37 1484.68 L681.37 1484.68 L681.37 1484.68 L681.37 1484.68 L681.37 1484.68 L681.37 1484.68 L681.37 1484.68 L681.37 1484.68 L681.37 1484.68 L681.37 1484.68 L681.37 1484.68 L681.37 1484.68 L681.37 1484.68 L681.37 1484.68 L681.37 1484.68 L681.37 1484.68 L681.37 1484.68 L681.37 1484.68 L681.37 1484.68 L681.37 1484.68 L681.37 1484.68 L681.37 1484.68 L681.37 1484.68 L681.37 1484.68 L681.37 1484.68 L681.37 1484.68 L681.37 1484.68 L681.37 1484.68 L681.37 1484.68 L681.37 1484.68 L681.37 1484.68 L681.37 1484.68 L681.37 1484.68 L681.37 1484.68 L681.37 1484.68 L681.37 1484.68 L681.37 1484.68 L681.37 1484.68 L681.37 1484.68 L681.37 1484.68 L681.37 1484.68 L681.37 1484.68 L681.37 1484.68 L681.37 1484.68 L681.37 1484.68 L681.37 1484.68 L681.37 1484.68 L681.37 1484.68 L681.37 1484.68 L681.37 1484.68 L681.37 1484.68 L681.37 1484.68 L681.37 1484.68 L681.37 1484.68 L689.41 1484.68 L689.41 1439.50 L689.41 1439.50 L689.41 1439.50 L689.41 1439.50 L689.41 1439.50 L689.41 1439.50 L689.41 1439.50 L689.41 1439.50 L689.41 1439.50 L689.41 1439.50 L689.41 1439.50 L689.41 1439.50 L689.41 1439.50 L689.41 1439.50 L689.41 1439.50 L689.41 1439.50 L689.41 1439.50 L689.41 1439.50 L689.41 1439.50 L689.41 1439.50 L689.41 1439.50 L689.41 1439.50 L689.41 1439.50 L689.41 1439.50 L689.41 1439.50 L689.41 1439.50 L689.41 1439.50 L689.41 1439.50 L689.41 1439.50 L689.41 1439.50 L689.41 1439.50 L689.41 1439.50 L689.41 1439.50 L689.41 1439.50 L689.41 1439.50 L689.41 1439.50 L689.41 1439.50 L689.41 1439.50 L689.41 1439.50 L689.41 1439.50 L689.41 1439.50 L689.41 1439.50 L689.41 1439.50 L689.41 1439.50 L689.41 1439.50 L689.41 1439.50 L689.41 1439.50 L689.41 1439.50 L689.41 1439.50 L689.41 1439.50 L689.41 1439.50 L689.41 1439.50 L689.41 1439.50 L689.41 1439.50 L689.41 1439.50 L689.41 1439.50 L689.41 1439.50 L689.41 1439.50 L689.41 1439.50 L689.41 1439.50 L689.41 1439.50 L689.41 1439.50 L689.41 1439.50 L689.41 1439.50 L689.41 1439.50 L689.41 1439.50 L689.41 1439.50 L689.41 1439.50 L689.41 1439.50 L689.41 1439.50 L689.41 1439.50 L689.41 1439.50 L689.41 1439.50 L689.41 1439.50 L689.41 1439.50 L697.46 1439.50 L697.46 1405.84 L697.46 1405.84 L697.46 1405.84 L697.46 1405.84 L697.46 1405.84 L697.46 1405.84 L697.46 1405.84 L697.46 1405.84 L697.46 1405.84 L697.46 1405.84 L697.46 1405.84 L697.46 1405.84 L697.46 1405.84 L697.46 1405.84 L697.46 1405.84 L697.46 1405.84 L697.46 1405.84 L697.46 1405.84 L697.46 1405.84 L697.46 1405.84 L697.46 1405.84 L697.46 1405.84 L697.46 1405.84 L697.46 1405.84 L697.46 1405.84 L697.46 1405.84 L697.46 1405.84 L697.46 1405.84 L697.46 1405.84 L697.46 1405.84 L697.46 1405.84 L697.46 1405.84 L697.46 1405.84 L697.46 1405.84 L697.46 1405.84 L697.46 1405.84 L697.46 1405.84 L697.46 1405.84 L697.46 1405.84 L697.46 1405.84 L697.46 1405.84 L697.46 1405.84 L697.46 1405.84 L697.46 1405.84 L697.46 1405.84 L697.46 1405.84 L697.46 1405.84 L697.46 1405.84 L697.46 1405.84 L697.46 1405.84 L697.46 1405.84 L697.46 1405.84 L697.46 1405.84 L697.46 1405.84 L697.46 1405.84 L705.50 1405.84 L705.50 1377.63 L705.50 1377.63 L705.50 1377.63 L705.50 1377.63 L705.50 1377.63 L705.50 1377.63 L705.50 1377.63 L705.50 1377.63 L705.50 1377.63 L705.50 1377.63 L705.50 1377.63 L705.50 1377.63 L705.50 1377.63 L705.50 1377.63 L705.50 1377.63 L705.50 1377.63 L705.50 1377.63 L705.50 1377.63 L705.50 1377.63 L705.50 1377.63 L705.50 1377.63 L705.50 1377.63 L705.50 1377.63 L705.50 1377.63 L705.50 1377.63 L705.50 1377.63 L705.50 1377.63 L705.50 1377.63 L705.50 1377.63 L705.50 1377.63 L705.50 1377.63 L705.50 1377.63 L705.50 1377.63 L705.50 1377.63 L705.50 1377.63 L705.50 1377.63 L705.50 1377.63 L705.50 1377.63 L705.50 1377.63 L705.50 1377.63 L705.50 1377.63 L705.50 1377.63 L705.50 1377.63 L705.50 1377.63 L705.50 1377.63 L713.54 1377.63 L713.54 1355.35 L713.54 1355.35 L713.54 1355.35 L713.54 1355.35 L713.54 1355.35 L713.54 1355.35 L713.54 1355.35 L713.54 1355.35 L713.54 1355.35 L713.54 1355.35 L713.54 1355.35 L713.54 1355.35 L713.54 1355.35 L713.54 1355.35 L713.54 1355.35 L713.54 1355.35 L713.54 1355.35 L713.54 1355.35 L713.54 1355.35 L713.54 1355.35 L713.54 1355.35 L713.54 1355.35 L713.54 1355.35 L713.54 1355.35 L713.54 1355.35 L713.54 1355.35 L713.54 1355.35 L713.54 1355.35 L713.54 1355.35 L713.54 1355.35 L713.54 1355.35 L713.54 1355.35 L713.54 1355.35 L713.54 1355.35 L713.54 1355.35 L721.46 1355.35 L721.46 1327.88 L721.46 1327.88 L721.46 1327.88 L721.46 1327.88 L721.46 1327.88 L721.46 1327.88 L721.46 1327.88 L721.46 1327.88 L721.46 1327.88 L721.46 1327.88 L721.46 1327.88 L721.46 1327.88 L721.46 1327.88 L721.46 1327.88 L721.46 1327.88 L721.46 1327.88 L721.46 1327.88 L721.46 1327.88 L721.46 1327.88 L721.46 1327.88 L721.46 1327.88 L721.46 1327.88 L721.46 1327.88 L721.46 1327.88 L721.46 1327.88 L721.46 1327.88 L721.46 1327.88 L721.46 1327.88 L721.46 1327.88 L721.46 1327.88 L721.46 1327.88 L721.46 1327.88 L721.46 1327.88 L721.46 1327.88 L721.46 1327.88 L721.46 1327.88 L721.46 1327.88 L721.46 1327.88 L721.46 1327.88 L721.46 1327.88 L721.46 1327.88 L721.46 1327.88 L721.46 1327.88 L729.51 1327.88 L729.51 1293.85 L729.51 1293.85 L729.51 1293.85 L729.51 1293.85 L729.51 1293.85 L729.51 1293.85 L729.51 1293.85 L729.51 1293.85 L729.51 1293.85 L729.51 1293.85 L729.51 1293.85 L729.51 1293.85 L729.51 1293.85 L729.51 1293.85 L729.51 1293.85 L729.51 1293.85 L729.51 1293.85 L729.51 1293.85 L729.51 1293.85 L729.51 1293.85 L729.51 1293.85 L729.51 1293.85 L729.51 1293.85 L729.51 1293.85 L729.51 1293.85 L729.51 1293.85 L729.51 1293.85 L729.51 1293.85 L729.51 1293.85 L729.51 1293.85 L729.51 1293.85 L729.51 1293.85 L729.51 1293.85 L729.51 1293.85 L729.51 1293.85 L729.51 1293.85 L729.51 1293.85 L729.51 1293.85 L729.51 1293.85 L729.51 1293.85 L729.51 1293.85 L729.51 1293.85 L729.51 1293.85 L729.51 1293.85 L729.51 1293.85 L729.51 1293.85 L729.51 1293.85 L729.51 1293.85 L729.51 1293.85 L729.51 1293.85 L729.51 1293.85 L729.51 1293.85 L729.51 1293.85 L737.55 1293.85 L737.55 1277.14 L737.55 1277.14 L737.55 1277.14 L737.55 1277.14 L737.55 1277.14 L737.55 1277.14 L737.55 1277.14 L737.55 1277.14 L737.55 1277.14 L737.55 1277.14 L737.55 1277.14 L737.55 1277.14 L737.55 1277.14 L737.55 1277.14 L737.55 1277.14 L737.55 1277.14 L737.55 1277.14 L737.55 1277.14 L737.55 1277.14 L737.55 1277.14 L737.55 1277.14 L737.55 1277.14 L737.55 1277.14 L737.55 1277.14 L737.55 1277.14 L745.59 1277.14 L745.59 1261.55 L745.59 1261.55 L745.59 1261.55 L745.59 1261.55 L745.59 1261.55 L745.59 1261.55 L745.59 1261.55 L745.59 1261.55 L745.59 1261.55 L745.59 1261.55 L745.59 1261.55 L745.59 1261.55 L745.59 1261.55 L745.59 1261.55 L745.59 1261.55 L745.59 1261.55 L745.59 1261.55 L745.59 1261.55 L745.59 1261.55 L745.59 1261.55 L745.59 1261.55 L745.59 1261.55 L745.59 1261.55 L753.64 1261.55 L753.64 1244.47 L753.64 1244.47 L753.64 1244.47 L753.64 1244.47 L753.64 1244.47 L753.64 1244.47 L753.64 1244.47 L753.64 1244.47 L753.64 1244.47 L753.64 1244.47 L753.64 1244.47 L753.64 1244.47 L753.64 1244.47 L753.64 1244.47 L753.64 1244.47 L753.64 1244.47 L753.64 1244.47 L753.64 1244.47 L753.64 1244.47 L753.64 1244.47 L753.64 1244.47 L753.64 1244.47 L753.64 1244.47 L753.64 1244.47 L753.64 1244.47 L761.68 1244.47 L761.68 1219.10 L761.68 1219.10 L761.68 1219.10 L761.68 1219.10 L761.68 1219.10 L761.68 1219.10 L761.68 1219.10 L761.68 1219.10 L761.68 1219.10 L761.68 1219.10 L761.68 1219.10 L761.68 1219.10 L761.68 1219.10 L761.68 1219.10 L761.68 1219.10 L761.68 1219.10 L761.68 1219.10 L761.68 1219.10 L761.68 1219.10 L761.68 1219.10 L761.68 1219.10 L761.68 1219.10 L761.68 1219.10 L761.68 1219.10 L761.68 1219.10 L761.68 1219.10 L761.68 1219.10 L761.68 1219.10 L761.68 1219.10 L761.68 1219.10 L761.68 1219.10 L761.68 1219.10 L761.68 1219.10 L761.68 1219.10 L761.68 1219.10 L761.68 1219.10 L761.68 1219.10 L769.73 1219.10 L769.73 1211.06 L769.73 1211.06 L769.73 1211.06 L769.73 1211.06 L769.73 1211.06 L769.73 1211.06 L769.73 1211.06 L769.73 1211.06 L769.73 1211.06 L769.73 1211.06 L769.73 1211.06 L777.77 1211.06 L777.77 1200.17 L777.77 1200.17 L777.77 1200.17 L777.77 1200.17 L777.77 1200.17 L777.77 1200.17 L777.77 1200.17 L777.77 1200.17 L777.77 1200.17 L777.77 1200.17 L777.77 1200.17 L777.77 1200.17 L777.77 1200.17 L777.77 1200.17 L777.77 1200.17 L785.69 1200.17 L785.69 1189.15 L785.69 1189.15 L785.69 1189.15 L785.69 1189.15 L785.69 1189.15 L785.69 1189.15 L785.69 1189.15 L785.69 1189.15 L785.69 1189.15 L785.69 1189.15 L785.69 1189.15 L785.69 1189.15 L785.69 1189.15 L785.69 1189.15 L785.69 1189.15 L793.73 1189.15 L793.73 1176.65 L793.73 1176.65 L793.73 1176.65 L793.73 1176.65 L793.73 1176.65 L793.73 1176.65 L793.73 1176.65 L793.73 1176.65 L793.73 1176.65 L793.73 1176.65 L793.73 1176.65 L793.73 1176.65 L793.73 1176.65 L793.73 1176.65 L793.73 1176.65 L793.73 1176.65 L793.73 1176.65 L801.78 1176.65 L801.78 1155.37 L801.78 1155.37 L801.78 1155.37 L801.78 1155.37 L801.78 1155.37 L801.78 1155.37 L801.78 1155.37 L801.78 1155.37 L801.78 1155.37 L801.78 1155.37 L801.78 1155.37 L801.78 1155.37 L801.78 1155.37 L801.78 1155.37 L801.78 1155.37 L801.78 1155.37 L801.78 1155.37 L801.78 1155.37 L801.78 1155.37 L801.78 1155.37 L801.78 1155.37 L801.78 1155.37 L801.78 1155.37 L801.78 1155.37 L801.78 1155.37 L801.78 1155.37 L801.78 1155.37 L801.78 1155.37 L801.78 1155.37 L809.82 1155.37 L809.82 1136.80 L809.82 1136.80 L809.82 1136.80 L809.82 1136.80 L809.82 1136.80 L809.82 1136.80 L809.82 1136.80 L809.82 1136.80 L809.82 1136.80 L809.82 1136.80 L809.82 1136.80 L809.82 1136.80 L809.82 1136.80 L809.82 1136.80 L809.82 1136.80 L809.82 1136.80 L809.82 1136.80 L809.82 1136.80 L809.82 1136.80 L809.82 1136.80 L809.82 1136.80 L809.82 1136.80 L809.82 1136.80 L809.82 1136.80 L809.82 1136.80 L817.86 1136.80 L817.86 1123.69 L817.86 1123.69 L817.86 1123.69 L817.86 1123.69 L817.86 1123.69 L817.86 1123.69 L817.86 1123.69 L817.86 1123.69 L817.86 1123.69 L817.86 1123.69 L817.86 1123.69 L817.86 1123.69 L817.86 1123.69 L817.86 1123.69 L817.86 1123.69 L817.86 1123.69 L817.86 1123.69 L825.91 1123.69 L825.91 1113.41 L825.91 1113.41 L825.91 1113.41 L825.91 1113.41 L825.91 1113.41 L825.91 1113.41 L825.91 1113.41 L825.91 1113.41 L825.91 1113.41 L825.91 1113.41 L825.91 1113.41 L825.91 1113.41 L825.91 1113.41 L833.95 1113.41 L833.95 1104.50 L833.95 1104.50 L833.95 1104.50 L833.95 1104.50 L833.95 1104.50 L833.95 1104.50 L833.95 1104.50 L833.95 1104.50 L833.95 1104.50 L833.95 1104.50 L833.95 1104.50 L841.87 1104.50 L841.87 1100.05 L841.87 1100.05 L841.87 1100.05 L841.87 1100.05 L841.87 1100.05 L849.91 1100.05 L849.91 1083.59 L849.91 1083.59 L849.91 1083.59 L849.91 1083.59 L849.91 1083.59 L849.91 1083.59 L849.91 1083.59 L849.91 1083.59 L849.91 1083.59 L849.91 1083.59 L849.91 1083.59 L849.91 1083.59 L849.91 1083.59 L849.91 1083.59 L849.91 1083.59 L849.91 1083.59 L849.91 1083.59 L849.91 1083.59 L849.91 1083.59 L849.91 1083.59 L849.91 1083.59 L857.96 1083.59 L857.96 1065.27 L857.96 1065.27 L857.96 1065.27 L857.96 1065.27 L857.96 1065.27 L857.96 1065.27 L857.96 1065.27 L857.96 1065.27 L857.96 1065.27 L857.96 1065.27 L857.96 1065.27 L857.96 1065.27 L857.96 1065.27 L857.96 1065.27 L857.96 1065.27 L857.96 1065.27 L857.96 1065.27 L857.96 1065.27 L857.96 1065.27 L857.96 1065.27 L857.96 1065.27 L857.96 1065.27 L857.96 1065.27 L866.00 1065.27 L866.00 1059.09 L866.00 1059.09 L866.00 1059.09 L866.00 1059.09 L866.00 1059.09 L866.00 1059.09 L866.00 1059.09 L874.05 1059.09 L874.05 1049.80 L874.05 1049.80 L874.05 1049.80 L874.05 1049.80 L874.05 1049.80 L874.05 1049.80 L874.05 1049.80 L874.05 1049.80 L874.05 1049.80 L874.05 1049.80 L874.05 1049.80 L882.09 1049.80 L882.09 1040.40 L882.09 1040.40 L882.09 1040.40 L882.09 1040.40 L882.09 1040.40 L882.09 1040.40 L882.09 1040.40 L882.09 1040.40 L882.09 1040.40 L882.09 1040.40 L882.09 1040.40 L890.13 1040.40 L890.13 1030.87 L890.13 1030.87 L890.13 1030.87 L890.13 1030.87 L890.13 1030.87 L890.13 1030.87 L890.13 1030.87 L890.13 1030.87 L890.13 1030.87 L890.13 1030.87 L890.13 1030.87 L898.05 1030.87 L898.05 1023.07 L898.05 1023.07 L898.05 1023.07 L898.05 1023.07 L898.05 1023.07 L898.05 1023.07 L898.05 1023.07 L898.05 1023.07 L898.05 1023.07 L906.10 1023.07 L906.10 1011.94 L906.10 1011.94 L906.10 1011.94 L906.10 1011.94 L906.10 1011.94 L906.10 1011.94 L906.10 1011.94 L906.10 1011.94 L906.10 1011.94 L906.10 1011.94 L906.10 1011.94 L906.10 1011.94 L906.10 1011.94 L914.14 1011.94 L914.14 999.06 L914.14 999.06 L914.14 999.06 L914.14 999.06 L914.14 999.06 L914.14 999.06 L914.14 999.06 L914.14 999.06 L914.14 999.06 L914.14 999.06 L914.14 999.06 L914.14 999.06 L914.14 999.06 L914.14 999.06 L914.14 999.06 L922.18 999.06 L922.18 992.51 L922.18 992.51 L922.18 992.51 L922.18 992.51 L922.18 992.51 L922.18 992.51 L922.18 992.51 L930.23 992.51 L930.23 977.78 L930.23 977.78 L930.23 977.78 L930.23 977.78 L930.23 977.78 L930.23 977.78 L930.23 977.78 L930.23 977.78 L930.23 977.78 L930.23 977.78 L930.23 977.78 L930.23 977.78 L930.23 977.78 L930.23 977.78 L930.23 977.78 L930.23 977.78 L930.23 977.78 L938.27 977.78 L938.27 967.76 L938.27 967.76 L938.27 967.76 L938.27 967.76 L938.27 967.76 L938.27 967.76 L938.27 967.76 L938.27 967.76 L938.27 967.76 L938.27 967.76 L938.27 967.76 L946.32 967.76 L946.32 961.07 L946.32 961.07 L946.32 961.07 L946.32 961.07 L946.32 961.07 L946.32 961.07 L946.32 961.07 L954.24 961.07 L954.24 951.05 L954.24 951.05 L954.24 951.05 L954.24 951.05 L954.24 951.05 L954.24 951.05 L954.24 951.05 L954.24 951.05 L954.24 951.05 L954.24 951.05 L954.24 951.05 L962.28 951.05 L962.28 947.71 L962.28 947.71 L962.28 947.71 L970.32 947.71 L970.32 937.44 L970.32 937.44 L970.32 937.44 L970.32 937.44 L970.32 937.44 L970.32 937.44 L970.32 937.44 L970.32 937.44 L970.32 937.44 L970.32 937.44 L970.32 937.44 L978.37 937.44 L978.37 928.90 L978.37 928.90 L978.37 928.90 L978.37 928.90 L978.37 928.90 L978.37 928.90 L978.37 928.90 L978.37 928.90 L978.37 928.90 L986.41 928.90 L986.41 927.16 L994.46 927.16 L994.46 920.11 L994.46 920.11 L994.46 920.11 L994.46 920.11 L994.46 920.11 L994.46 920.11 L994.46 920.11 L1002.50 920.11 L1002.50 914.91 L1002.50 914.91 L1002.50 914.91 L1002.50 914.91 L1002.50 914.91 L1010.42 914.91 L1010.42 906.13 L1010.42 906.13 L1010.42 906.13 L1010.42 906.13 L1010.42 906.13 L1010.42 906.13 L1010.42 906.13 L1010.42 906.13 L1010.42 906.13 L1018.46 906.13 L1018.46 897.22 L1018.46 897.22 L1018.46 897.22 L1018.46 897.22 L1018.46 897.22 L1018.46 897.22 L1018.46 897.22 L1018.46 897.22 L1018.46 897.22 L1026.51 897.22 L1026.51 893.63 L1026.51 893.63 L1026.51 893.63 L1034.55 893.63 L1034.55 886.45 L1034.55 886.45 L1034.55 886.45 L1034.55 886.45 L1034.55 886.45 L1034.55 886.45 L1034.55 886.45 L1042.59 886.45 L1042.59 884.59 L1050.64 884.59 L1050.64 871.85 L1050.64 871.85 L1050.64 871.85 L1050.64 871.85 L1050.64 871.85 L1050.64 871.85 L1050.64 871.85 L1050.64 871.85 L1050.64 871.85 L1050.64 871.85 L1050.64 871.85 L1050.64 871.85 L1050.64 871.85 L1058.68 871.85 L1058.68 868.13 L1058.68 868.13 L1058.68 868.13 L1074.64 868.13 L1074.64 866.28 L1082.69 866.28 L1082.69 860.58 L1082.69 860.58 L1082.69 860.58 L1082.69 860.58 L1082.69 860.58 L1090.73 860.58 L1090.73 855.02 L1090.73 855.02 L1090.73 855.02 L1090.73 855.02 L1090.73 855.02 L1106.82 855.02 L1106.82 853.04 L1114.86 853.04 L1114.86 845.24 L1114.86 845.24 L1114.86 845.24 L1114.86 845.24 L1114.86 845.24 L1114.86 845.24 L1114.86 845.24 L1122.78 845.24 L1122.78 839.42 L1122.78 839.42 L1122.78 839.42 L1122.78 839.42 L1122.78 839.42 L1130.83 839.42 L1130.83 837.44 L1138.87 837.44 L1138.87 835.46 L1146.91 835.46 L1146.91 827.42 L1146.91 827.42 L1146.91 827.42 L1146.91 827.42 L1146.91 827.42 L1146.91 827.42 L1146.91 827.42 L1154.96 827.42 L1154.96 823.33 L1154.96 823.33 L1154.96 823.33 L1163.00 823.33 L1163.00 817.15 L1163.00 817.15 L1163.00 817.15 L1163.00 817.15 L1163.00 817.15 L1171.05 817.15 L1171.05 815.04 L1179.09 815.04 L1179.09 812.94 L1187.01 812.94 L1187.01 808.73 L1187.01 808.73 L1187.01 808.73 L1195.05 808.73 L1195.05 806.63 L1203.10 806.63 L1203.10 797.96 L1203.10 797.96 L1203.10 797.96 L1203.10 797.96 L1203.10 797.96 L1203.10 797.96 L1203.10 797.96 L1211.14 797.96 L1211.14 791.41 L1211.14 791.41 L1211.14 791.41 L1211.14 791.41 L1211.14 791.41 L1219.18 791.41 L1219.18 789.18 L1227.23 789.18 L1227.23 786.95 L1235.27 786.95 L1235.27 782.50 L1235.27 782.50 L1235.27 782.50 L1243.19 782.50 L1243.19 777.92 L1243.19 777.92 L1243.19 777.92 L1251.24 777.92 L1251.24 766.53 L1251.24 766.53 L1251.24 766.53 L1251.24 766.53 L1251.24 766.53 L1251.24 766.53 L1251.24 766.53 L1251.24 766.53 L1251.24 766.53 L1259.28 766.53 L1259.28 761.83 L1259.28 761.83 L1259.28 761.83 L1267.32 761.83 L1267.32 757.13 L1267.32 757.13 L1267.32 757.13 L1275.37 757.13 L1275.37 752.30 L1275.37 752.30 L1275.37 752.30 L1283.41 752.30 L1283.41 745.12 L1283.41 745.12 L1283.41 745.12 L1283.41 745.12 L1283.41 745.12 L1291.45 745.12 L1291.45 742.77 L1299.38 742.77 L1299.38 740.30 L1307.42 740.30 L1307.42 737.82 L1315.46 737.82 L1315.46 735.35 L1323.51 735.35 L1323.51 727.80 L1323.51 727.80 L1323.51 727.80 L1323.51 727.80 L1323.51 727.80 L1339.59 727.80 L1339.59 722.60 L1339.59 722.60 L1339.59 722.60 L1347.64 722.60 L1347.64 717.40 L1347.64 717.40 L1347.64 717.40 L1355.56 717.40 L1355.56 712.20 L1355.56 712.20 L1355.56 712.20 L1363.60 712.20 L1363.60 709.60 L1371.64 709.60 L1371.64 707.01 L1379.69 707.01 L1379.69 704.28 L1387.73 704.28 L1387.73 696.12 L1387.73 696.12 L1387.73 696.12 L1387.73 696.12 L1387.73 696.12 L1395.78 696.12 L1395.78 690.67 L1395.78 690.67 L1395.78 690.67 L1403.82 690.67 L1403.82 685.23 L1403.82 685.23 L1403.82 685.23 L1419.78 685.23 L1419.78 674.21 L1419.78 674.21 L1419.78 674.21 L1419.78 674.21 L1419.78 674.21 L1419.78 674.21 L1419.78 674.21 L1427.83 674.21 L1427.83 668.64 L1427.83 668.64 L1427.83 668.64 L1435.87 668.64 L1435.87 665.80 L1443.91 665.80 L1443.91 660.10 L1443.91 660.10 L1443.91 660.10 L1451.96 660.10 L1451.96 654.41 L1451.96 654.41 L1451.96 654.41 L1460.00 654.41 L1460.00 651.56 L1467.92 651.56 L1467.92 648.72 L1475.97 648.72 L1475.97 645.87 L1492.05 645.87 L1492.05 639.93 L1492.05 639.93 L1492.05 639.93 L1500.10 639.93 L1500.10 634.11 L1500.10 634.11 L1500.10 634.11 L1508.14 634.11 L1508.14 631.14 L1516.18 631.14 L1516.18 628.17 L1524.23 628.17 L1524.23 625.20 L1532.15 625.20 L1532.15 622.23 L1540.19 622.23 L1540.19 619.26 L1548.24 619.26 L1548.24 610.23 L1548.24 610.23 L1548.24 610.23 L1548.24 610.23 L1548.24 610.23 L1564.32 610.23 L1564.32 607.26 L1572.37 607.26 L1572.37 604.17 L1580.41 604.17 L1580.41 601.07 L1596.38 601.07 L1596.38 598.10 L1628.55 598.10 L1628.55 595.01 L1636.59 595.01 L1636.59 591.91 L1644.51 591.91 L1644.51 585.60 L1644.51 585.60 L1644.51 585.60 L1684.73 585.60 L1684.73 579.29 L1684.73 579.29 L1684.73 579.29 L1692.78 579.29 L1692.78 569.89 L1692.78 569.89 L1692.78 569.89 L1692.78 569.89 L1692.78 569.89 L1700.70 569.89 L1700.70 566.67 L1708.74 566.67 L1708.74 563.45 L1716.78 563.45 L1716.78 560.36 L1740.91 560.36 L1740.91 557.14 L1748.96 557.14 L1748.96 553.92 L1756.88 553.92 L1756.88 550.70 L1764.92 550.70 L1764.92 547.49 L1797.10 547.49 L1797.10 544.27 L1805.14 544.27 L1805.14 537.83 L1805.14 537.83 L1805.14 537.83 L1829.15 537.83 L1829.15 534.62 L1845.24 534.62 L1845.24 528.18 L1845.24 528.18 L1845.24 528.18 L1853.28 528.18 L1853.28 524.96 L1861.32 524.96 L1861.32 511.97 L1861.32 511.97 L1861.32 511.97 L1861.32 511.97 L1861.32 511.97 L1861.32 511.97 L1861.32 511.97 L1877.29 511.97 L1877.29 505.53 L1877.29 505.53 L1877.29 505.53 L1909.46 505.53 L1909.46 502.19 L1917.51 502.19 L1917.51 498.98 L1941.51 498.98 L1941.51 495.76 L1949.56 495.76 L1949.56 492.42 L1965.64 492.42 L1965.64 489.20 L1973.69 489.20 L1973.69 485.86 L1981.73 485.86 L1981.73 482.64 L1997.70 482.64 L1997.70 479.30 L2005.74 479.30 L2005.74 476.08 L2021.83 476.08 L2021.83 469.40 L2021.83 469.40 L2021.83 469.40 L2045.84 469.40 L2045.84 466.18 L2053.88 466.18 L2053.88 462.84 L2061.92 462.84 L2061.92 459.50 L2078.01 459.50 L2078.01 456.16 L2086.05 456.16 L2086.05 449.47 L2086.05 449.47 L2086.05 449.47 L2110.06 449.47 L2110.06 446.13 L2118.11 446.13 L2118.11 442.79 L2142.24 442.79 L2142.24 439.45 L2158.20 439.45 L2158.20 436.11 L2190.38 436.11 L2190.38 432.77 L2198.42 432.77 L2198.42 429.30 L2230.47 429.30 L2230.47 425.96 L2246.56 425.96 L2246.56 422.50 L2254.60 422.50 L2254.60 415.57 L2254.60 415.57 L2254.60 415.57 L2286.65 415.57 L2286.65 408.64 L2286.65 408.64 L2286.65 408.64 L2326.87 408.64 L2326.87 405.17 L2334.79 405.17 L2334.79 401.58 L2350.88 401.58 L2350.88 397.99 L2366.97 397.99 L2366.97 390.94 L2366.97 390.94 L2366.97 390.94 L2383.05 390.94 L2383.05 387.35 L2407.06 387.35 L2407.06 383.64 L2431.19 383.64 L2431.19 380.05 L2439.24 380.05 L2439.24 365.20 L2439.24 365.20 L2439.24 365.20 L2439.24 365.20 L2439.24 365.20 L2439.24 365.20 L2439.24 365.20 L2463.24 365.20 L2463.24 361.49 L2495.42 361.49 L2495.42 353.81 L2495.42 353.81 L2495.42 353.81 L2519.43 353.81 L2519.43 349.98 L2543.56 349.98 L2543.56 346.02 L2583.65 346.02 L2583.65 341.93 L2591.70 341.93 L2591.70 337.85 L2607.78 337.85 L2607.78 329.56 L2607.78 329.56 L2607.78 329.56 L2631.79 329.56 L2631.79 325.35 L2647.88 325.35 L2647.88 321.02 L2672.01 321.02 L2672.01 316.69 L2728.19 316.69 L2728.19 311.86 L2760.24 311.86 L2760.24 301.84 L2760.24 301.84 L2760.24 301.84 L2800.34 301.84 L2800.34 296.27 L2824.47 296.27 L2824.47 290.45 L2840.56 290.45 L2840.56 278.07 L2840.56 278.07 L2840.56 278.07 L2880.65 278.07 L2880.65 271.02 L2912.70 271.02 L2912.70 263.10 L2936.84 263.10 L2936.84 254.07 L2944.88 254.07 L2944.88 244.54 L2984.97 244.54 L2984.97 231.67 L3025.07 231.67 L3025.07 210.51 L3033.11 210.51 L3033.11 164.22 L3033.11 164.22 L3033.11 164.22" stroke-linejoin="round" style="fill:none;stroke:#90353B;stroke-width:8.64"/>
	<line x1="521.73" y1="2233.63" x2="521.73" y2="100.86" style="stroke:#000000;stroke-width:5.76"/>
	<line x1="521.73" y1="2170.27" x2="481.76" y2="2170.27" style="stroke:#000000;stroke-width:5.76"/>
	<text x="461.83" y="2205.30" style="font-family:'Helvetica';font-size:99.99px;fill:#000000" text-anchor="end">0</text>
	<line x1="521.73" y1="1770.42" x2="481.76" y2="1770.42" style="stroke:#000000;stroke-width:5.76"/>
	<text x="461.83" y="1805.45" style="font-family:'Helvetica';font-size:99.99px;fill:#000000" text-anchor="end">.005</text>
	<line x1="521.73" y1="1370.57" x2="481.76" y2="1370.57" style="stroke:#000000;stroke-width:5.76"/>
	<text x="461.83" y="1405.60" style="font-family:'Helvetica';font-size:99.99px;fill:#000000" text-anchor="end">.01</text>
	<line x1="521.73" y1="970.85" x2="481.76" y2="970.85" style="stroke:#000000;stroke-width:5.76"/>
	<text x="461.83" y="1005.88" style="font-family:'Helvetica';font-size:99.99px;fill:#000000" text-anchor="end">.015</text>
	<line x1="521.73" y1="571.00" x2="481.76" y2="571.00" style="stroke:#000000;stroke-width:5.76"/>
	<text x="461.83" y="606.03" style="font-family:'Helvetica';font-size:99.99px;fill:#000000" text-anchor="end">.02</text>
	<line x1="521.73" y1="171.15" x2="481.76" y2="171.15" style="stroke:#000000;stroke-width:5.76"/>
	<text x="461.83" y="206.18" style="font-family:'Helvetica';font-size:99.99px;fill:#000000" text-anchor="end">.025</text>
	<text x="190.71" y="1167.25" style="font-family:'Helvetica';font-size:99.99px;fill:#000000" transform="rotate(-90 190.71,1167.25)" text-anchor="middle">Cumulative Incidence</text>
	<line x1="521.73" y1="2233.63" x2="3859.02" y2="2233.63" style="stroke:#000000;stroke-width:5.76"/>
	<line x1="585.09" y1="2233.63" x2="585.09" y2="2273.73" style="stroke:#000000;stroke-width:5.76"/>
	<text x="585.09" y="2363.59" style="font-family:'Helvetica';font-size:99.99px;fill:#000000" text-anchor="middle">0</text>
	<line x1="1387.73" y1="2233.63" x2="1387.73" y2="2273.73" style="stroke:#000000;stroke-width:5.76"/>
	<text x="1387.73" y="2363.59" style="font-family:'Helvetica';font-size:99.99px;fill:#000000" text-anchor="middle">100</text>
	<line x1="2190.38" y1="2233.63" x2="2190.38" y2="2273.73" style="stroke:#000000;stroke-width:5.76"/>
	<text x="2190.38" y="2363.59" style="font-family:'Helvetica';font-size:99.99px;fill:#000000" text-anchor="middle">200</text>
	<line x1="2993.02" y1="2233.63" x2="2993.02" y2="2273.73" style="stroke:#000000;stroke-width:5.76"/>
	<text x="2993.02" y="2363.59" style="font-family:'Helvetica';font-size:99.99px;fill:#000000" text-anchor="middle">300</text>
	<line x1="3795.66" y1="2233.63" x2="3795.66" y2="2273.73" style="stroke:#000000;stroke-width:5.76"/>
	<text x="3795.66" y="2363.59" style="font-family:'Helvetica';font-size:99.99px;fill:#000000" text-anchor="middle">400</text>
	<text x="2190.38" y="2473.60" style="font-family:'Helvetica';font-size:99.99px;fill:#000000" text-anchor="middle">Time (Days)</text>
	<rect x="968.22" y="2558.24" width="2444.43" height="186.37" style="fill:#FFFFFF"/>
	<rect x="971.10" y="2561.12" width="2438.67" height="180.61" style="fill:none;stroke:#000000;stroke-width:5.76"/>
	<line x1="1011.41" y1="2651.43" x2="1385.88" y2="2651.43" style="stroke:#1A476F;stroke-width:8.64"/>
	<line x1="2464.61" y1="2651.43" x2="2839.07" y2="2651.43" style="stroke:#90353B;stroke-width:8.64"/>
	<text x="1445.77" y="2686.46" style="font-family:'Helvetica';font-size:99.99px;fill:#000000">General Population</text>
	<text x="2898.97" y="2686.46" style="font-family:'Helvetica';font-size:99.99px;fill:#000000">COVID-19</text>
</svg>
