<?xml version="1.0" encoding="UTF-8" standalone="no"?>
<!-- This is a Stata 16.1 generated SVG file (http://www.stata.com) -->

<svg version="1.1" width="5.50in" height="4.00in" viewBox="0 0 3960 2880" xmlns="http://www.w3.org/2000/svg" xmlns:xlink="http://www.w3.org/1999/xlink">
	<desc>Stata Graph - Graph</desc>
	<rect x="0" y="0" width="3960" height="2880" style="fill:#EAF2F3;stroke:none"/>
	<rect x="0.00" y="0.00" width="3959.88" height="2880.00" style="fill:#FFFFFF"/>
	<rect x="2.88" y="2.88" width="3954.12" height="2874.24" style="fill:none;stroke:#FFFFFF;stroke-width:5.76"/>
	<rect x="521.73" y="100.86" width="3337.29" height="2132.77" style="fill:#FFFFFF"/>
	<rect x="524.61" y="103.74" width="3331.53" height="2127.01" style="fill:none;stroke:#FFFFFF;stroke-width:5.76"/>
	<line x1="521.73" y1="2170.27" x2="3859.02" y2="2170.27" style="stroke:#EAF2F3;stroke-width:8.64"/>
	<line x1="521.73" y1="1501.63" x2="3859.02" y2="1501.63" style="stroke:#EAF2F3;stroke-width:8.64"/>
	<line x1="521.73" y1="832.86" x2="3859.02" y2="832.86" style="stroke:#EAF2F3;stroke-width:8.64"/>
	<line x1="521.73" y1="164.22" x2="3859.02" y2="164.22" style="stroke:#EAF2F3;stroke-width:8.64"/>
	<path d=" M601.18 2168.66 L601.18 2168.66 L601.18 2168.66 L617.14 2168.66 L617.14 2166.19 L617.14 2166.19 L617.14 2166.19 L617.14 2166.19 L617.14 2166.19 L625.18 2166.19 L625.18 2163.59 L625.18 2163.59 L625.18 2163.59 L625.18 2163.59 L625.18 2163.59 L641.27 2163.59 L641.27 2161.11 L641.27 2161.11 L641.27 2161.11 L641.27 2161.11 L641.27 2161.11 L649.32 2161.11 L649.32 2158.51 L649.32 2158.51 L649.32 2158.51 L649.32 2158.51 L649.32 2158.51 L657.36 2158.51 L657.36 2157.65 L665.28 2157.65 L665.28 2156.91 L673.32 2156.91 L673.32 2153.44 L673.32 2153.44 L673.32 2153.44 L673.32 2153.44 L673.32 2153.44 L673.32 2153.44 L673.32 2153.44 L681.37 2153.44 L681.37 2151.83 L681.37 2151.83 L681.37 2151.83 L689.41 2151.83 L689.41 2150.97 L697.46 2150.97 L697.46 2150.10 L705.50 2150.10 L705.50 2149.23 L729.51 2149.23 L729.51 2147.50 L729.51 2147.50 L729.51 2147.50 L737.55 2147.50 L737.55 2145.03 L737.55 2145.03 L737.55 2145.03 L737.55 2145.03 L737.55 2145.03 L745.59 2145.03 L745.59 2143.29 L745.59 2143.29 L745.59 2143.29 L753.64 2143.29 L753.64 2140.82 L753.64 2140.82 L753.64 2140.82 L753.64 2140.82 L753.64 2140.82 L761.68 2140.82 L761.68 2138.22 L761.68 2138.22 L761.68 2138.22 L761.68 2138.22 L761.68 2138.22 L769.73 2138.22 L769.73 2137.35 L785.69 2137.35 L785.69 2135.74 L785.69 2135.74 L785.69 2135.74 L793.73 2135.74 L793.73 2134.01 L793.73 2134.01 L793.73 2134.01 L801.78 2134.01 L801.78 2132.28 L801.78 2132.28 L801.78 2132.28 L809.82 2132.28 L809.82 2131.41 L817.86 2131.41 L817.86 2128.94 L817.86 2128.94 L817.86 2128.94 L817.86 2128.94 L817.86 2128.94 L825.91 2128.94 L825.91 2127.21 L825.91 2127.21 L825.91 2127.21 L857.96 2127.21 L857.96 2125.47 L857.96 2125.47 L857.96 2125.47 L866.00 2125.47 L866.00 2123.00 L866.00 2123.00 L866.00 2123.00 L866.00 2123.00 L866.00 2123.00 L874.05 2123.00 L874.05 2122.13 L898.05 2122.13 L898.05 2121.27 L906.10 2121.27 L906.10 2118.79 L906.10 2118.79 L906.10 2118.79 L906.10 2118.79 L906.10 2118.79 L914.14 2118.79 L914.14 2117.92 L922.18 2117.92 L922.18 2114.46 L922.18 2114.46 L922.18 2114.46 L922.18 2114.46 L922.18 2114.46 L922.18 2114.46 L922.18 2114.46 L930.23 2114.46 L930.23 2113.72 L938.27 2113.72 L938.27 2112.85 L946.32 2112.85 L946.32 2111.98 L954.24 2111.98 L954.24 2111.12 L962.28 2111.12 L962.28 2110.25 L970.32 2110.25 L970.32 2108.52 L970.32 2108.52 L970.32 2108.52 L986.41 2108.52 L986.41 2106.91 L986.41 2106.91 L986.41 2106.91 L1002.50 2106.91 L1002.50 2106.04 L1010.42 2106.04 L1010.42 2103.44 L1010.42 2103.44 L1010.42 2103.44 L1010.42 2103.44 L1010.42 2103.44 L1018.46 2103.44 L1018.46 2100.10 L1018.46 2100.10 L1018.46 2100.10 L1018.46 2100.10 L1018.46 2100.10 L1018.46 2100.10 L1018.46 2100.10 L1026.51 2100.10 L1026.51 2098.37 L1026.51 2098.37 L1026.51 2098.37 L1034.55 2098.37 L1034.55 2095.90 L1034.55 2095.90 L1034.55 2095.90 L1034.55 2095.90 L1034.55 2095.90 L1042.59 2095.90 L1042.59 2095.03 L1050.64 2095.03 L1050.64 2094.16 L1058.68 2094.16 L1058.68 2093.30 L1066.60 2093.30 L1066.60 2091.56 L1066.60 2091.56 L1066.60 2091.56 L1074.64 2091.56 L1074.64 2090.70 L1082.69 2090.70 L1082.69 2087.36 L1082.69 2087.36 L1082.69 2087.36 L1082.69 2087.36 L1082.69 2087.36 L1082.69 2087.36 L1082.69 2087.36 L1090.73 2087.36 L1090.73 2085.62 L1090.73 2085.62 L1090.73 2085.62 L1098.78 2085.62 L1098.78 2083.15 L1098.78 2083.15 L1098.78 2083.15 L1098.78 2083.15 L1098.78 2083.15 L1106.82 2083.15 L1106.82 2081.42 L1106.82 2081.42 L1106.82 2081.42 L1114.86 2081.42 L1114.86 2080.55 L1122.78 2080.55 L1122.78 2077.21 L1122.78 2077.21 L1122.78 2077.21 L1122.78 2077.21 L1122.78 2077.21 L1122.78 2077.21 L1122.78 2077.21 L1130.83 2077.21 L1130.83 2073.74 L1130.83 2073.74 L1130.83 2073.74 L1130.83 2073.74 L1130.83 2073.74 L1130.83 2073.74 L1130.83 2073.74 L1138.87 2073.74 L1138.87 2072.13 L1138.87 2072.13 L1138.87 2072.13 L1146.91 2072.13 L1146.91 2071.27 L1154.96 2071.27 L1154.96 2070.40 L1171.05 2070.40 L1171.05 2069.54 L1187.01 2069.54 L1187.01 2066.94 L1187.01 2066.94 L1187.01 2066.94 L1187.01 2066.94 L1187.01 2066.94 L1195.05 2066.94 L1195.05 2064.46 L1195.05 2064.46 L1195.05 2064.46 L1195.05 2064.46 L1195.05 2064.46 L1203.10 2064.46 L1203.10 2061.00 L1203.10 2061.00 L1203.10 2061.00 L1203.10 2061.00 L1203.10 2061.00 L1203.10 2061.00 L1203.10 2061.00 L1211.14 2061.00 L1211.14 2059.39 L1211.14 2059.39 L1211.14 2059.39 L1235.27 2059.39 L1235.27 2058.52 L1243.19 2058.52 L1243.19 2055.06 L1243.19 2055.06 L1243.19 2055.06 L1243.19 2055.06 L1243.19 2055.06 L1243.19 2055.06 L1243.19 2055.06 L1251.24 2055.06 L1251.24 2052.58 L1251.24 2052.58 L1251.24 2052.58 L1251.24 2052.58 L1251.24 2052.58 L1259.28 2052.58 L1259.28 2051.72 L1267.32 2051.72 L1267.32 2050.85 L1283.41 2050.85 L1283.41 2049.12 L1283.41 2049.12 L1283.41 2049.12 L1291.45 2049.12 L1291.45 2048.25 L1299.38 2048.25 L1299.38 2046.64 L1299.38 2046.64 L1299.38 2046.64 L1307.42 2046.64 L1307.42 2045.78 L1323.51 2045.78 L1323.51 2042.31 L1323.51 2042.31 L1323.51 2042.31 L1323.51 2042.31 L1323.51 2042.31 L1323.51 2042.31 L1323.51 2042.31 L1331.55 2042.31 L1331.55 2041.44 L1339.59 2041.44 L1339.59 2039.83 L1339.59 2039.83 L1339.59 2039.83 L1347.64 2039.83 L1347.64 2038.10 L1347.64 2038.10 L1347.64 2038.10 L1355.56 2038.10 L1355.56 2034.64 L1355.56 2034.64 L1355.56 2034.64 L1355.56 2034.64 L1355.56 2034.64 L1355.56 2034.64 L1355.56 2034.64 L1363.60 2034.64 L1363.60 2031.30 L1363.60 2031.30 L1363.60 2031.30 L1363.60 2031.30 L1363.60 2031.30 L1363.60 2031.30 L1363.60 2031.30 L1371.64 2031.30 L1371.64 2029.56 L1371.64 2029.56 L1371.64 2029.56 L1395.78 2029.56 L1395.78 2028.70 L1403.82 2028.70 L1403.82 2027.83 L1411.74 2027.83 L1411.74 2025.36 L1411.74 2025.36 L1411.74 2025.36 L1411.74 2025.36 L1411.74 2025.36 L1419.78 2025.36 L1419.78 2023.62 L1419.78 2023.62 L1419.78 2023.62 L1427.83 2023.62 L1427.83 2019.42 L1427.83 2019.42 L1427.83 2019.42 L1427.83 2019.42 L1427.83 2019.42 L1427.83 2019.42 L1427.83 2019.42 L1427.83 2019.42 L1427.83 2019.42 L1435.87 2019.42 L1435.87 2018.55 L1443.91 2018.55 L1443.91 2017.68 L1451.96 2017.68 L1451.96 2016.82 L1460.00 2016.82 L1460.00 2015.95 L1467.92 2015.95 L1467.92 2013.48 L1467.92 2013.48 L1467.92 2013.48 L1467.92 2013.48 L1467.92 2013.48 L1475.97 2013.48 L1475.97 2010.88 L1475.97 2010.88 L1475.97 2010.88 L1475.97 2010.88 L1475.97 2010.88 L1484.01 2010.88 L1484.01 2009.14 L1484.01 2009.14 L1484.01 2009.14 L1508.14 2009.14 L1508.14 2007.41 L1508.14 2007.41 L1508.14 2007.41 L1516.18 2007.41 L1516.18 2005.80 L1516.18 2005.80 L1516.18 2005.80 L1532.15 2005.80 L1532.15 2001.47 L1532.15 2001.47 L1532.15 2001.47 L1532.15 2001.47 L1532.15 2001.47 L1532.15 2001.47 L1532.15 2001.47 L1532.15 2001.47 L1532.15 2001.47 L1556.28 2001.47 L1556.28 2000.61 L1564.32 2000.61 L1564.32 1999.86 L1572.37 1999.86 L1572.37 1998.13 L1572.37 1998.13 L1572.37 1998.13 L1580.41 1998.13 L1580.41 1996.40 L1580.41 1996.40 L1580.41 1996.40 L1588.33 1996.40 L1588.33 1995.53 L1596.38 1995.53 L1596.38 1994.66 L1604.42 1994.66 L1604.42 1990.46 L1604.42 1990.46 L1604.42 1990.46 L1604.42 1990.46 L1604.42 1990.46 L1604.42 1990.46 L1604.42 1990.46 L1604.42 1990.46 L1604.42 1990.46 L1628.55 1990.46 L1628.55 1989.59 L1652.56 1989.59 L1652.56 1986.99 L1652.56 1986.99 L1652.56 1986.99 L1652.56 1986.99 L1652.56 1986.99 L1676.69 1986.99 L1676.69 1986.13 L1684.73 1986.13 L1684.73 1982.78 L1684.73 1982.78 L1684.73 1982.78 L1684.73 1982.78 L1684.73 1982.78 L1684.73 1982.78 L1684.73 1982.78 L1692.78 1982.78 L1692.78 1981.05 L1692.78 1981.05 L1692.78 1981.05 L1708.74 1981.05 L1708.74 1980.19 L1716.78 1980.19 L1716.78 1979.32 L1724.83 1979.32 L1724.83 1978.58 L1740.91 1978.58 L1740.91 1977.71 L1748.96 1977.71 L1748.96 1975.11 L1748.96 1975.11 L1748.96 1975.11 L1748.96 1975.11 L1748.96 1975.11 L1756.88 1975.11 L1756.88 1971.65 L1756.88 1971.65 L1756.88 1971.65 L1756.88 1971.65 L1756.88 1971.65 L1756.88 1971.65 L1756.88 1971.65 L1772.97 1971.65 L1772.97 1970.04 L1772.97 1970.04 L1772.97 1970.04 L1797.10 1970.04 L1797.10 1968.31 L1797.10 1968.31 L1797.10 1968.31 L1805.14 1968.31 L1805.14 1966.57 L1805.14 1966.57 L1805.14 1966.57 L1813.06 1966.57 L1813.06 1964.84 L1813.06 1964.84 L1813.06 1964.84 L1821.11 1964.84 L1821.11 1960.63 L1821.11 1960.63 L1821.11 1960.63 L1821.11 1960.63 L1821.11 1960.63 L1821.11 1960.63 L1821.11 1960.63 L1821.11 1960.63 L1821.11 1960.63 L1837.19 1960.63 L1837.19 1959.77 L1845.24 1959.77 L1845.24 1958.03 L1845.24 1958.03 L1845.24 1958.03 L1853.28 1958.03 L1853.28 1956.30 L1853.28 1956.30 L1853.28 1956.30 L1861.32 1956.30 L1861.32 1955.56 L1869.37 1955.56 L1869.37 1954.69 L1877.29 1954.69 L1877.29 1953.83 L1909.46 1953.83 L1909.46 1952.96 L1917.51 1952.96 L1917.51 1952.09 L1925.55 1952.09 L1925.55 1950.36 L1925.55 1950.36 L1925.55 1950.36 L1933.47 1950.36 L1933.47 1948.63 L1933.47 1948.63 L1933.47 1948.63 L1949.56 1948.63 L1949.56 1947.02 L1949.56 1947.02 L1949.56 1947.02 L1965.64 1947.02 L1965.64 1945.29 L1965.64 1945.29 L1965.64 1945.29 L1973.69 1945.29 L1973.69 1944.42 L1981.73 1944.42 L1981.73 1943.55 L1989.65 1943.55 L1989.65 1942.69 L2005.74 1942.69 L2005.74 1941.82 L2013.78 1941.82 L2013.78 1940.96 L2021.83 1940.96 L2021.83 1935.88 L2021.83 1935.88 L2021.83 1935.88 L2021.83 1935.88 L2021.83 1935.88 L2021.83 1935.88 L2021.83 1935.88 L2021.83 1935.88 L2021.83 1935.88 L2021.83 1935.88 L2021.83 1935.88 L2029.87 1935.88 L2029.87 1934.15 L2029.87 1934.15 L2029.87 1934.15 L2037.91 1934.15 L2037.91 1933.28 L2045.84 1933.28 L2045.84 1931.67 L2045.84 1931.67 L2045.84 1931.67 L2053.88 1931.67 L2053.88 1930.81 L2069.97 1930.81 L2069.97 1929.08 L2069.97 1929.08 L2069.97 1929.08 L2086.05 1929.08 L2086.05 1926.48 L2086.05 1926.48 L2086.05 1926.48 L2086.05 1926.48 L2086.05 1926.48 L2094.10 1926.48 L2094.10 1925.61 L2102.02 1925.61 L2102.02 1923.14 L2102.02 1923.14 L2102.02 1923.14 L2102.02 1923.14 L2102.02 1923.14 L2110.06 1923.14 L2110.06 1921.40 L2110.06 1921.40 L2110.06 1921.40 L2134.19 1921.40 L2134.19 1918.80 L2134.19 1918.80 L2134.19 1918.80 L2134.19 1918.80 L2134.19 1918.80 L2142.24 1918.80 L2142.24 1916.20 L2142.24 1916.20 L2142.24 1916.20 L2142.24 1916.20 L2142.24 1916.20 L2150.28 1916.20 L2150.28 1914.60 L2150.28 1914.60 L2150.28 1914.60 L2158.20 1914.60 L2158.20 1912.00 L2158.20 1912.00 L2158.20 1912.00 L2158.20 1912.00 L2158.20 1912.00 L2166.24 1912.00 L2166.24 1911.13 L2174.29 1911.13 L2174.29 1910.26 L2182.33 1910.26 L2182.33 1907.67 L2182.33 1907.67 L2182.33 1907.67 L2182.33 1907.67 L2182.33 1907.67 L2190.38 1907.67 L2190.38 1905.19 L2190.38 1905.19 L2190.38 1905.19 L2190.38 1905.19 L2190.38 1905.19 L2198.42 1905.19 L2198.42 1904.32 L2214.51 1904.32 L2214.51 1902.59 L2214.51 1902.59 L2214.51 1902.59 L2222.43 1902.59 L2222.43 1898.26 L2222.43 1898.26 L2222.43 1898.26 L2222.43 1898.26 L2222.43 1898.26 L2222.43 1898.26 L2222.43 1898.26 L2222.43 1898.26 L2222.43 1898.26 L2230.47 1898.26 L2230.47 1896.65 L2230.47 1896.65 L2230.47 1896.65 L2246.56 1896.65 L2246.56 1894.92 L2246.56 1894.92 L2246.56 1894.92 L2254.60 1894.92 L2254.60 1893.19 L2254.60 1893.19 L2254.60 1893.19 L2262.64 1893.19 L2262.64 1891.45 L2262.64 1891.45 L2262.64 1891.45 L2270.69 1891.45 L2270.69 1890.59 L2278.61 1890.59 L2278.61 1888.86 L2278.61 1888.86 L2278.61 1888.86 L2286.65 1888.86 L2286.65 1888.11 L2294.70 1888.11 L2294.70 1886.38 L2294.70 1886.38 L2294.70 1886.38 L2302.74 1886.38 L2302.74 1884.65 L2302.74 1884.65 L2302.74 1884.65 L2318.83 1884.65 L2318.83 1883.78 L2326.87 1883.78 L2326.87 1877.84 L2326.87 1877.84 L2326.87 1877.84 L2326.87 1877.84 L2326.87 1877.84 L2326.87 1877.84 L2326.87 1877.84 L2326.87 1877.84 L2326.87 1877.84 L2326.87 1877.84 L2326.87 1877.84 L2326.87 1877.84 L2326.87 1877.84 L2334.79 1877.84 L2334.79 1874.38 L2334.79 1874.38 L2334.79 1874.38 L2334.79 1874.38 L2334.79 1874.38 L2334.79 1874.38 L2334.79 1874.38 L2342.84 1874.38 L2342.84 1873.51 L2350.88 1873.51 L2350.88 1872.64 L2358.92 1872.64 L2358.92 1870.91 L2358.92 1870.91 L2358.92 1870.91 L2375.01 1870.91 L2375.01 1869.30 L2375.01 1869.30 L2375.01 1869.30 L2383.05 1869.30 L2383.05 1866.70 L2383.05 1866.70 L2383.05 1866.70 L2383.05 1866.70 L2383.05 1866.70 L2390.97 1866.70 L2390.97 1864.10 L2390.97 1864.10 L2390.97 1864.10 L2390.97 1864.10 L2390.97 1864.10 L2407.06 1864.10 L2407.06 1863.24 L2415.11 1863.24 L2415.11 1862.37 L2423.15 1862.37 L2423.15 1861.51 L2431.19 1861.51 L2431.19 1860.76 L2439.24 1860.76 L2439.24 1859.03 L2439.24 1859.03 L2439.24 1859.03 L2447.16 1859.03 L2447.16 1858.16 L2463.24 1858.16 L2463.24 1857.30 L2471.29 1857.30 L2471.29 1855.57 L2471.29 1855.57 L2471.29 1855.57 L2495.42 1855.57 L2495.42 1852.97 L2495.42 1852.97 L2495.42 1852.97 L2495.42 1852.97 L2495.42 1852.97 L2527.47 1852.97 L2527.47 1850.49 L2527.47 1850.49 L2527.47 1850.49 L2527.47 1850.49 L2527.47 1850.49 L2543.56 1850.49 L2543.56 1848.76 L2543.56 1848.76 L2543.56 1848.76 L2551.60 1848.76 L2551.60 1847.03 L2551.60 1847.03 L2551.60 1847.03 L2559.52 1847.03 L2559.52 1842.70 L2559.52 1842.70 L2559.52 1842.70 L2559.52 1842.70 L2559.52 1842.70 L2559.52 1842.70 L2559.52 1842.70 L2559.52 1842.70 L2559.52 1842.70 L2583.65 1842.70 L2583.65 1839.35 L2583.65 1839.35 L2583.65 1839.35 L2583.65 1839.35 L2583.65 1839.35 L2583.65 1839.35 L2583.65 1839.35 L2591.70 1839.35 L2591.70 1836.75 L2591.70 1836.75 L2591.70 1836.75 L2591.70 1836.75 L2591.70 1836.75 L2599.74 1836.75 L2599.74 1835.89 L2607.78 1835.89 L2607.78 1834.16 L2607.78 1834.16 L2607.78 1834.16 L2623.75 1834.16 L2623.75 1831.56 L2623.75 1831.56 L2623.75 1831.56 L2623.75 1831.56 L2623.75 1831.56 L2639.84 1831.56 L2639.84 1829.08 L2639.84 1829.08 L2639.84 1829.08 L2639.84 1829.08 L2639.84 1829.08 L2647.88 1829.08 L2647.88 1828.22 L2655.92 1828.22 L2655.92 1825.62 L2655.92 1825.62 L2655.92 1825.62 L2655.92 1825.62 L2655.92 1825.62 L2663.97 1825.62 L2663.97 1823.02 L2663.97 1823.02 L2663.97 1823.02 L2663.97 1823.02 L2663.97 1823.02 L2687.97 1823.02 L2687.97 1821.29 L2687.97 1821.29 L2687.97 1821.29 L2704.06 1821.29 L2704.06 1819.68 L2704.06 1819.68 L2704.06 1819.68 L2712.11 1819.68 L2712.11 1818.81 L2720.15 1818.81 L2720.15 1817.08 L2720.15 1817.08 L2720.15 1817.08 L2728.19 1817.08 L2728.19 1814.48 L2728.19 1814.48 L2728.19 1814.48 L2728.19 1814.48 L2728.19 1814.48 L2744.16 1814.48 L2744.16 1813.61 L2752.20 1813.61 L2752.20 1811.88 L2752.20 1811.88 L2752.20 1811.88 L2760.24 1811.88 L2760.24 1810.15 L2760.24 1810.15 L2760.24 1810.15 L2768.29 1810.15 L2768.29 1807.67 L2768.29 1807.67 L2768.29 1807.67 L2768.29 1807.67 L2768.29 1807.67 L2784.38 1807.67 L2784.38 1805.07 L2784.38 1805.07 L2784.38 1805.07 L2784.38 1805.07 L2784.38 1805.07 L2792.30 1805.07 L2792.30 1803.34 L2792.30 1803.34 L2792.30 1803.34 L2808.38 1803.34 L2808.38 1801.61 L2808.38 1801.61 L2808.38 1801.61 L2816.43 1801.61 L2816.43 1800.74 L2824.47 1800.74 L2824.47 1799.01 L2824.47 1799.01 L2824.47 1799.01 L2832.51 1799.01 L2832.51 1794.80 L2832.51 1794.80 L2832.51 1794.80 L2832.51 1794.80 L2832.51 1794.80 L2832.51 1794.80 L2832.51 1794.80 L2832.51 1794.80 L2832.51 1794.80 L2840.56 1794.80 L2840.56 1793.94 L2848.48 1793.94 L2848.48 1793.07 L2856.52 1793.07 L2856.52 1792.20 L2864.57 1792.20 L2864.57 1791.34 L2872.61 1791.34 L2872.61 1789.60 L2872.61 1789.60 L2872.61 1789.60 L2888.70 1789.60 L2888.70 1787.01 L2888.70 1787.01 L2888.70 1787.01 L2888.70 1787.01 L2888.70 1787.01 L2896.74 1787.01 L2896.74 1785.40 L2896.74 1785.40 L2896.74 1785.40 L2920.75 1785.40 L2920.75 1782.80 L2920.75 1782.80 L2920.75 1782.80 L2920.75 1782.80 L2920.75 1782.80 L2936.84 1782.80 L2936.84 1781.93 L2944.88 1781.93 L2944.88 1781.07 L2952.92 1781.07 L2952.92 1778.47 L2952.92 1778.47 L2952.92 1778.47 L2952.92 1778.47 L2952.92 1778.47 L2968.89 1778.47 L2968.89 1777.60 L2976.93 1777.60 L2976.93 1775.87 L2976.93 1775.87 L2976.93 1775.87 L2984.97 1775.87 L2984.97 1774.14 L2984.97 1774.14 L2984.97 1774.14 L2993.02 1774.14 L2993.02 1772.53 L2993.02 1772.53 L2993.02 1772.53 L3001.06 1772.53 L3001.06 1771.66 L3009.11 1771.66 L3009.11 1770.79 L3017.15 1770.79 L3017.15 1769.06 L3017.15 1769.06 L3017.15 1769.06 L3025.07 1769.06 L3025.07 1766.46 L3025.07 1766.46 L3025.07 1766.46 L3025.07 1766.46 L3025.07 1766.46 L3033.11 1766.46 L3033.11 1764.73 L3033.11 1764.73 L3033.11 1764.73 L3041.16 1764.73 L3041.16 1762.13 L3041.16 1762.13 L3041.16 1762.13 L3041.16 1762.13 L3041.16 1762.13 L3049.20 1762.13 L3049.20 1761.27 L3081.25 1761.27 L3081.25 1760.40 L3089.30 1760.40 L3089.30 1758.79 L3089.30 1758.79 L3089.30 1758.79 L3097.34 1758.79 L3097.34 1757.92 L3105.38 1757.92 L3105.38 1757.06 L3113.43 1757.06 L3113.43 1756.19 L3145.48 1756.19 L3145.48 1755.32 L3153.52 1755.32 L3153.52 1753.59 L3153.52 1753.59 L3153.52 1753.59 L3161.57 1753.59 L3161.57 1752.73 L3169.61 1752.73 L3169.61 1751.86 L3177.65 1751.86 L3177.65 1750.13 L3177.65 1750.13 L3177.65 1750.13 L3185.70 1750.13 L3185.70 1749.26 L3193.62 1749.26 L3193.62 1748.39 L3201.66 1748.39 L3201.66 1745.05 L3201.66 1745.05 L3201.66 1745.05 L3201.66 1745.05 L3201.66 1745.05 L3201.66 1745.05 L3201.66 1745.05 L3209.70 1745.05 L3209.70 1741.59 L3209.70 1741.59 L3209.70 1741.59 L3209.70 1741.59 L3209.70 1741.59 L3209.70 1741.59 L3209.70 1741.59 L3217.75 1741.59 L3217.75 1740.72 L3225.79 1740.72 L3225.79 1739.86 L3249.80 1739.86 L3249.80 1737.26 L3249.80 1737.26 L3249.80 1737.26 L3249.80 1737.26 L3249.80 1737.26 L3257.84 1737.26 L3257.84 1735.52 L3257.84 1735.52 L3257.84 1735.52 L3265.89 1735.52 L3265.89 1733.79 L3265.89 1733.79 L3265.89 1733.79 L3273.93 1733.79 L3273.93 1731.19 L3273.93 1731.19 L3273.93 1731.19 L3273.93 1731.19 L3273.93 1731.19 L3281.97 1731.19 L3281.97 1728.72 L3281.97 1728.72 L3281.97 1728.72 L3281.97 1728.72 L3281.97 1728.72 L3314.03 1728.72 L3314.03 1727.85 L3330.11 1727.85 L3330.11 1726.99 L3338.16 1726.99 L3338.16 1726.12 L3346.20 1726.12 L3346.20 1724.39 L3346.20 1724.39 L3346.20 1724.39 L3354.24 1724.39 L3354.24 1723.52 L3370.21 1723.52 L3370.21 1722.65 L3378.25 1722.65 L3378.25 1720.06 L3378.25 1720.06 L3378.25 1720.06 L3378.25 1720.06 L3378.25 1720.06 L3394.34 1720.06 L3394.34 1718.32 L3394.34 1718.32 L3394.34 1718.32 L3402.38 1718.32 L3402.38 1716.59 L3402.38 1716.59 L3402.38 1716.59 L3410.43 1716.59 L3410.43 1713.99 L3410.43 1713.99 L3410.43 1713.99 L3410.43 1713.99 L3410.43 1713.99 L3418.47 1713.99 L3418.47 1713.12 L3426.39 1713.12 L3426.39 1711.52 L3426.39 1711.52 L3426.39 1711.52 L3434.43 1711.52 L3434.43 1708.05 L3434.43 1708.05 L3434.43 1708.05 L3434.43 1708.05 L3434.43 1708.05 L3434.43 1708.05 L3434.43 1708.05 L3442.48 1708.05 L3442.48 1707.18 L3458.57 1707.18 L3458.57 1706.32 L3474.65 1706.32 L3474.65 1705.45 L3482.57 1705.45 L3482.57 1704.59 L3498.66 1704.59 L3498.66 1700.25 L3498.66 1700.25 L3498.66 1700.25 L3498.66 1700.25 L3498.66 1700.25 L3498.66 1700.25 L3498.66 1700.25 L3498.66 1700.25 L3498.66 1700.25 L3506.70 1700.25 L3506.70 1697.66 L3506.70 1697.66 L3506.70 1697.66 L3506.70 1697.66 L3506.70 1697.66 L3522.79 1697.66 L3522.79 1696.79" stroke-linejoin="round" style="fill:none;stroke:#1A476F;stroke-width:8.64"/>
	<path d=" M601.18 2140.45 L601.18 2140.45 L601.18 2140.45 L601.18 2140.45 L601.18 2140.45 L601.18 2140.45 L601.18 2140.45 L601.18 2140.45 L601.18 2140.45 L601.18 2140.45 L601.18 2140.45 L601.18 2140.45 L601.18 2140.45 L601.18 2140.45 L601.18 2140.45 L601.18 2140.45 L601.18 2140.45 L601.18 2140.45 L601.18 2140.45 L601.18 2140.45 L601.18 2140.45 L601.18 2140.45 L601.18 2140.45 L601.18 2140.45 L601.18 2140.45 L601.18 2140.45 L601.18 2140.45 L601.18 2140.45 L601.18 2140.45 L601.18 2140.45 L601.18 2140.45 L601.18 2140.45 L601.18 2140.45 L609.10 2140.45 L609.10 2111.98 L609.10 2111.98 L609.10 2111.98 L609.10 2111.98 L609.10 2111.98 L609.10 2111.98 L609.10 2111.98 L609.10 2111.98 L609.10 2111.98 L609.10 2111.98 L609.10 2111.98 L609.10 2111.98 L609.10 2111.98 L609.10 2111.98 L609.10 2111.98 L609.10 2111.98 L609.10 2111.98 L609.10 2111.98 L609.10 2111.98 L609.10 2111.98 L609.10 2111.98 L609.10 2111.98 L609.10 2111.98 L609.10 2111.98 L609.10 2111.98 L609.10 2111.98 L609.10 2111.98 L609.10 2111.98 L609.10 2111.98 L609.10 2111.98 L609.10 2111.98 L617.14 2111.98 L617.14 2078.07 L617.14 2078.07 L617.14 2078.07 L617.14 2078.07 L617.14 2078.07 L617.14 2078.07 L617.14 2078.07 L617.14 2078.07 L617.14 2078.07 L617.14 2078.07 L617.14 2078.07 L617.14 2078.07 L617.14 2078.07 L617.14 2078.07 L617.14 2078.07 L617.14 2078.07 L617.14 2078.07 L617.14 2078.07 L617.14 2078.07 L617.14 2078.07 L617.14 2078.07 L617.14 2078.07 L617.14 2078.07 L617.14 2078.07 L617.14 2078.07 L617.14 2078.07 L617.14 2078.07 L617.14 2078.07 L617.14 2078.07 L617.14 2078.07 L617.14 2078.07 L617.14 2078.07 L617.14 2078.07 L617.14 2078.07 L617.14 2078.07 L617.14 2078.07 L617.14 2078.07 L625.18 2078.07 L625.18 2056.42 L625.18 2056.42 L625.18 2056.42 L625.18 2056.42 L625.18 2056.42 L625.18 2056.42 L625.18 2056.42 L625.18 2056.42 L625.18 2056.42 L625.18 2056.42 L625.18 2056.42 L625.18 2056.42 L625.18 2056.42 L625.18 2056.42 L625.18 2056.42 L625.18 2056.42 L625.18 2056.42 L625.18 2056.42 L625.18 2056.42 L625.18 2056.42 L625.18 2056.42 L625.18 2056.42 L625.18 2056.42 L633.23 2056.42 L633.23 2041.69 L633.23 2041.69 L633.23 2041.69 L633.23 2041.69 L633.23 2041.69 L633.23 2041.69 L633.23 2041.69 L633.23 2041.69 L633.23 2041.69 L633.23 2041.69 L633.23 2041.69 L633.23 2041.69 L633.23 2041.69 L633.23 2041.69 L633.23 2041.69 L641.27 2041.69 L641.27 2015.83 L641.27 2015.83 L641.27 2015.83 L641.27 2015.83 L641.27 2015.83 L641.27 2015.83 L641.27 2015.83 L641.27 2015.83 L641.27 2015.83 L641.27 2015.83 L641.27 2015.83 L641.27 2015.83 L641.27 2015.83 L641.27 2015.83 L641.27 2015.83 L641.27 2015.83 L641.27 2015.83 L641.27 2015.83 L641.27 2015.83 L641.27 2015.83 L641.27 2015.83 L641.27 2015.83 L641.27 2015.83 L641.27 2015.83 L641.27 2015.83 L641.27 2015.83 L641.27 2015.83 L649.32 2015.83 L649.32 1976.35 L649.32 1976.35 L649.32 1976.35 L649.32 1976.35 L649.32 1976.35 L649.32 1976.35 L649.32 1976.35 L649.32 1976.35 L649.32 1976.35 L649.32 1976.35 L649.32 1976.35 L649.32 1976.35 L649.32 1976.35 L649.32 1976.35 L649.32 1976.35 L649.32 1976.35 L649.32 1976.35 L649.32 1976.35 L649.32 1976.35 L649.32 1976.35 L649.32 1976.35 L649.32 1976.35 L649.32 1976.35 L649.32 1976.35 L649.32 1976.35 L649.32 1976.35 L649.32 1976.35 L649.32 1976.35 L649.32 1976.35 L649.32 1976.35 L649.32 1976.35 L649.32 1976.35 L649.32 1976.35 L649.32 1976.35 L649.32 1976.35 L649.32 1976.35 L649.32 1976.35 L649.32 1976.35 L649.32 1976.35 L649.32 1976.35 L649.32 1976.35 L657.36 1976.35 L657.36 1961.13 L657.36 1961.13 L657.36 1961.13 L657.36 1961.13 L657.36 1961.13 L657.36 1961.13 L657.36 1961.13 L657.36 1961.13 L657.36 1961.13 L657.36 1961.13 L657.36 1961.13 L657.36 1961.13 L657.36 1961.13 L657.36 1961.13 L657.36 1961.13 L665.28 1961.13 L665.28 1955.31 L665.28 1955.31 L665.28 1955.31 L665.28 1955.31 L665.28 1955.31 L673.32 1955.31 L673.32 1930.19 L673.32 1930.19 L673.32 1930.19 L673.32 1930.19 L673.32 1930.19 L673.32 1930.19 L673.32 1930.19 L673.32 1930.19 L673.32 1930.19 L673.32 1930.19 L673.32 1930.19 L673.32 1930.19 L673.32 1930.19 L673.32 1930.19 L673.32 1930.19 L673.32 1930.19 L673.32 1930.19 L673.32 1930.19 L673.32 1930.19 L673.32 1930.19 L673.32 1930.19 L673.32 1930.19 L673.32 1930.19 L673.32 1930.19 L673.32 1930.19 L681.37 1930.19 L681.37 1906.68 L681.37 1906.68 L681.37 1906.68 L681.37 1906.68 L681.37 1906.68 L681.37 1906.68 L681.37 1906.68 L681.37 1906.68 L681.37 1906.68 L681.37 1906.68 L681.37 1906.68 L681.37 1906.68 L681.37 1906.68 L681.37 1906.68 L681.37 1906.68 L681.37 1906.68 L681.37 1906.68 L681.37 1906.68 L681.37 1906.68 L681.37 1906.68 L681.37 1906.68 L681.37 1906.68 L681.37 1906.68 L689.41 1906.68 L689.41 1878.83 L689.41 1878.83 L689.41 1878.83 L689.41 1878.83 L689.41 1878.83 L689.41 1878.83 L689.41 1878.83 L689.41 1878.83 L689.41 1878.83 L689.41 1878.83 L689.41 1878.83 L689.41 1878.83 L689.41 1878.83 L689.41 1878.83 L689.41 1878.83 L689.41 1878.83 L689.41 1878.83 L689.41 1878.83 L689.41 1878.83 L689.41 1878.83 L689.41 1878.83 L689.41 1878.83 L689.41 1878.83 L689.41 1878.83 L689.41 1878.83 L689.41 1878.83 L689.41 1878.83 L697.46 1878.83 L697.46 1862.74 L697.46 1862.74 L697.46 1862.74 L697.46 1862.74 L697.46 1862.74 L697.46 1862.74 L697.46 1862.74 L697.46 1862.74 L697.46 1862.74 L697.46 1862.74 L697.46 1862.74 L697.46 1862.74 L697.46 1862.74 L697.46 1862.74 L697.46 1862.74 L705.50 1862.74 L705.50 1832.05 L705.50 1832.05 L705.50 1832.05 L705.50 1832.05 L705.50 1832.05 L705.50 1832.05 L705.50 1832.05 L705.50 1832.05 L705.50 1832.05 L705.50 1832.05 L705.50 1832.05 L705.50 1832.05 L705.50 1832.05 L705.50 1832.05 L705.50 1832.05 L705.50 1832.05 L705.50 1832.05 L705.50 1832.05 L705.50 1832.05 L705.50 1832.05 L705.50 1832.05 L705.50 1832.05 L705.50 1832.05 L705.50 1832.05 L705.50 1832.05 L705.50 1832.05 L705.50 1832.05 L705.50 1832.05 L705.50 1832.05 L713.54 1832.05 L713.54 1815.47 L713.54 1815.47 L713.54 1815.47 L713.54 1815.47 L713.54 1815.47 L713.54 1815.47 L713.54 1815.47 L713.54 1815.47 L713.54 1815.47 L713.54 1815.47 L713.54 1815.47 L713.54 1815.47 L713.54 1815.47 L713.54 1815.47 L713.54 1815.47 L721.46 1815.47 L721.46 1800.74 L721.46 1800.74 L721.46 1800.74 L721.46 1800.74 L721.46 1800.74 L721.46 1800.74 L721.46 1800.74 L721.46 1800.74 L721.46 1800.74 L721.46 1800.74 L721.46 1800.74 L721.46 1800.74 L721.46 1800.74 L729.51 1800.74 L729.51 1777.60 L729.51 1777.60 L729.51 1777.60 L729.51 1777.60 L729.51 1777.60 L729.51 1777.60 L729.51 1777.60 L729.51 1777.60 L729.51 1777.60 L729.51 1777.60 L729.51 1777.60 L729.51 1777.60 L729.51 1777.60 L729.51 1777.60 L729.51 1777.60 L729.51 1777.60 L729.51 1777.60 L729.51 1777.60 L729.51 1777.60 L729.51 1777.60 L729.51 1777.60 L737.55 1777.60 L737.55 1760.40 L737.55 1760.40 L737.55 1760.40 L737.55 1760.40 L737.55 1760.40 L737.55 1760.40 L737.55 1760.40 L737.55 1760.40 L737.55 1760.40 L737.55 1760.40 L737.55 1760.40 L737.55 1760.40 L737.55 1760.40 L737.55 1760.40 L737.55 1760.40 L745.59 1760.40 L745.59 1756.07 L745.59 1756.07 L745.59 1756.07 L753.64 1756.07 L753.64 1747.28 L753.64 1747.28 L753.64 1747.28 L753.64 1747.28 L753.64 1747.28 L753.64 1747.28 L753.64 1747.28 L761.68 1747.28 L761.68 1725.01 L761.68 1725.01 L761.68 1725.01 L761.68 1725.01 L761.68 1725.01 L761.68 1725.01 L761.68 1725.01 L761.68 1725.01 L761.68 1725.01 L761.68 1725.01 L761.68 1725.01 L761.68 1725.01 L761.68 1725.01 L761.68 1725.01 L761.68 1725.01 L761.68 1725.01 L761.68 1725.01 L761.68 1725.01 L761.68 1725.01 L769.73 1725.01 L769.73 1713.62 L769.73 1713.62 L769.73 1713.62 L769.73 1713.62 L769.73 1713.62 L769.73 1713.62 L769.73 1713.62 L769.73 1713.62 L769.73 1713.62 L777.77 1713.62 L777.77 1702.23 L777.77 1702.23 L777.77 1702.23 L777.77 1702.23 L777.77 1702.23 L777.77 1702.23 L777.77 1702.23 L777.77 1702.23 L777.77 1702.23 L785.69 1702.23 L785.69 1693.08 L785.69 1693.08 L785.69 1693.08 L785.69 1693.08 L785.69 1693.08 L785.69 1693.08 L785.69 1693.08 L793.73 1693.08 L793.73 1669.81 L793.73 1669.81 L793.73 1669.81 L793.73 1669.81 L793.73 1669.81 L793.73 1669.81 L793.73 1669.81 L793.73 1669.81 L793.73 1669.81 L793.73 1669.81 L793.73 1669.81 L793.73 1669.81 L793.73 1669.81 L793.73 1669.81 L793.73 1669.81 L793.73 1669.81 L793.73 1669.81 L793.73 1669.81 L793.73 1669.81 L801.78 1669.81 L801.78 1662.63 L801.78 1662.63 L801.78 1662.63 L801.78 1662.63 L801.78 1662.63 L809.82 1662.63 L809.82 1650.63 L809.82 1650.63 L809.82 1650.63 L809.82 1650.63 L809.82 1650.63 L809.82 1650.63 L809.82 1650.63 L809.82 1650.63 L809.82 1650.63 L817.86 1650.63 L817.86 1631.20 L817.86 1631.20 L817.86 1631.20 L817.86 1631.20 L817.86 1631.20 L817.86 1631.20 L817.86 1631.20 L817.86 1631.20 L817.86 1631.20 L817.86 1631.20 L817.86 1631.20 L817.86 1631.20 L817.86 1631.20 L817.86 1631.20 L817.86 1631.20 L825.91 1631.20 L825.91 1616.47 L825.91 1616.47 L825.91 1616.47 L825.91 1616.47 L825.91 1616.47 L825.91 1616.47 L825.91 1616.47 L825.91 1616.47 L825.91 1616.47 L825.91 1616.47 L825.91 1616.47 L833.95 1616.47 L833.95 1609.05 L833.95 1609.05 L833.95 1609.05 L833.95 1609.05 L833.95 1609.05 L841.87 1609.05 L841.87 1591.60 L841.87 1591.60 L841.87 1591.60 L841.87 1591.60 L841.87 1591.60 L841.87 1591.60 L841.87 1591.60 L841.87 1591.60 L841.87 1591.60 L841.87 1591.60 L841.87 1591.60 L841.87 1591.60 L841.87 1591.60 L849.91 1591.60 L849.91 1574.03 L849.91 1574.03 L849.91 1574.03 L849.91 1574.03 L849.91 1574.03 L849.91 1574.03 L849.91 1574.03 L849.91 1574.03 L849.91 1574.03 L849.91 1574.03 L849.91 1574.03 L849.91 1574.03 L849.91 1574.03 L857.96 1574.03 L857.96 1558.68 L857.96 1558.68 L857.96 1558.68 L857.96 1558.68 L857.96 1558.68 L857.96 1558.68 L857.96 1558.68 L857.96 1558.68 L857.96 1558.68 L857.96 1558.68 L857.96 1558.68 L866.00 1558.68 L866.00 1550.88 L866.00 1550.88 L866.00 1550.88 L866.00 1550.88 L866.00 1550.88 L874.05 1550.88 L874.05 1537.89 L874.05 1537.89 L874.05 1537.89 L874.05 1537.89 L874.05 1537.89 L874.05 1537.89 L874.05 1537.89 L874.05 1537.89 L874.05 1537.89 L882.09 1537.89 L882.09 1530.09 L882.09 1530.09 L882.09 1530.09 L882.09 1530.09 L882.09 1530.09 L890.13 1530.09 L890.13 1519.57 L890.13 1519.57 L890.13 1519.57 L890.13 1519.57 L890.13 1519.57 L890.13 1519.57 L890.13 1519.57 L898.05 1519.57 L898.05 1511.53 L898.05 1511.53 L898.05 1511.53 L898.05 1511.53 L898.05 1511.53 L906.10 1511.53 L906.10 1506.33 L906.10 1506.33 L906.10 1506.33 L914.14 1506.33 L914.14 1495.44 L914.14 1495.44 L914.14 1495.44 L914.14 1495.44 L914.14 1495.44 L914.14 1495.44 L914.14 1495.44 L922.18 1495.44 L922.18 1487.27 L922.18 1487.27 L922.18 1487.27 L922.18 1487.27 L922.18 1487.27 L930.23 1487.27 L930.23 1476.38 L930.23 1476.38 L930.23 1476.38 L930.23 1476.38 L930.23 1476.38 L930.23 1476.38 L930.23 1476.38 L938.27 1476.38 L938.27 1470.81 L938.27 1470.81 L938.27 1470.81 L946.32 1470.81 L946.32 1462.40 L946.32 1462.40 L946.32 1462.40 L946.32 1462.40 L946.32 1462.40 L954.24 1462.40 L954.24 1451.26 L954.24 1451.26 L954.24 1451.26 L954.24 1451.26 L954.24 1451.26 L954.24 1451.26 L954.24 1451.26 L962.28 1451.26 L962.28 1445.57 L962.28 1445.57 L962.28 1445.57 L970.32 1445.57 L970.32 1439.88 L970.32 1439.88 L970.32 1439.88 L978.37 1439.88 L978.37 1434.06 L978.37 1434.06 L978.37 1434.06 L986.41 1434.06 L986.41 1425.40 L986.41 1425.40 L986.41 1425.40 L986.41 1425.40 L986.41 1425.40 L994.46 1425.40 L994.46 1419.58 L994.46 1419.58 L994.46 1419.58 L1002.50 1419.58 L1002.50 1413.64 L1002.50 1413.64 L1002.50 1413.64 L1010.42 1413.64 L1010.42 1404.85 L1010.42 1404.85 L1010.42 1404.85 L1010.42 1404.85 L1010.42 1404.85 L1018.46 1404.85 L1018.46 1401.88 L1026.51 1401.88 L1026.51 1395.82 L1026.51 1395.82 L1026.51 1395.82 L1034.55 1395.82 L1034.55 1389.88 L1034.55 1389.88 L1034.55 1389.88 L1042.59 1389.88 L1042.59 1380.72 L1042.59 1380.72 L1042.59 1380.72 L1042.59 1380.72 L1042.59 1380.72 L1050.64 1380.72 L1050.64 1368.47 L1050.64 1368.47 L1050.64 1368.47 L1050.64 1368.47 L1050.64 1368.47 L1050.64 1368.47 L1050.64 1368.47 L1058.68 1368.47 L1058.68 1365.38 L1066.60 1365.38 L1066.60 1362.28 L1082.69 1362.28 L1082.69 1359.19 L1090.73 1359.19 L1090.73 1349.66 L1090.73 1349.66 L1090.73 1349.66 L1090.73 1349.66 L1090.73 1349.66 L1098.78 1349.66 L1098.78 1346.44 L1106.82 1346.44 L1106.82 1340.01 L1106.82 1340.01 L1106.82 1340.01 L1122.78 1340.01 L1122.78 1333.45 L1122.78 1333.45 L1122.78 1333.45 L1130.83 1333.45 L1130.83 1323.55 L1130.83 1323.55 L1130.83 1323.55 L1130.83 1323.55 L1130.83 1323.55 L1146.91 1323.55 L1146.91 1320.21 L1154.96 1320.21 L1154.96 1316.74 L1163.00 1316.74 L1163.00 1309.81 L1163.00 1309.81 L1163.00 1309.81 L1179.09 1309.81 L1179.09 1306.35 L1195.05 1306.35 L1195.05 1299.17 L1195.05 1299.17 L1195.05 1299.17 L1203.10 1299.17 L1203.10 1295.58 L1211.14 1295.58 L1211.14 1288.28 L1211.14 1288.28 L1211.14 1288.28 L1219.18 1288.28 L1219.18 1284.57 L1227.23 1284.57 L1227.23 1273.43 L1227.23 1273.43 L1227.23 1273.43 L1227.23 1273.43 L1227.23 1273.43 L1235.27 1273.43 L1235.27 1265.88 L1235.27 1265.88 L1235.27 1265.88 L1251.24 1265.88 L1251.24 1262.04 L1259.28 1262.04 L1259.28 1258.08 L1267.32 1258.08 L1267.32 1250.16 L1267.32 1250.16 L1267.32 1250.16 L1275.37 1250.16 L1275.37 1246.20 L1283.41 1246.20 L1283.41 1242.24 L1307.42 1242.24 L1307.42 1238.03 L1315.46 1238.03 L1315.46 1229.74 L1315.46 1229.74 L1315.46 1229.74 L1331.55 1229.74 L1331.55 1225.41 L1339.59 1225.41 L1339.59 1221.08 L1347.64 1221.08 L1347.64 1216.75 L1371.64 1216.75 L1371.64 1212.29 L1379.69 1212.29 L1379.69 1207.84 L1387.73 1207.84 L1387.73 1203.26 L1403.82 1203.26 L1403.82 1194.10 L1403.82 1194.10 L1403.82 1194.10 L1411.74 1194.10 L1411.74 1184.94 L1411.74 1184.94 L1411.74 1184.94 L1419.78 1184.94 L1419.78 1166.38 L1419.78 1166.38 L1419.78 1166.38 L1419.78 1166.38 L1419.78 1166.38 L1419.78 1166.38 L1419.78 1166.38 L1427.83 1166.38 L1427.83 1161.68 L1435.87 1161.68 L1435.87 1147.45 L1435.87 1147.45 L1435.87 1147.45 L1435.87 1147.45 L1435.87 1147.45 L1443.91 1147.45 L1443.91 1142.74 L1467.92 1142.74 L1467.92 1133.09 L1467.92 1133.09 L1467.92 1133.09 L1475.97 1133.09 L1475.97 1128.26 L1492.05 1128.26 L1492.05 1123.31 L1500.10 1123.31 L1500.10 1113.54 L1500.10 1113.54 L1500.10 1113.54 L1524.23 1113.54 L1524.23 1108.59 L1556.28 1108.59 L1556.28 1103.51 L1564.32 1103.51 L1564.32 1098.44 L1572.37 1098.44 L1572.37 1093.37 L1596.38 1093.37 L1596.38 1088.17 L1628.55 1088.17 L1628.55 1082.97 L1636.59 1082.97 L1636.59 1077.77 L1644.51 1077.77 L1644.51 1072.57 L1652.56 1072.57 L1652.56 1067.25 L1660.60 1067.25 L1660.60 1056.73 L1660.60 1056.73 L1660.60 1056.73 L1668.64 1056.73 L1668.64 1046.22 L1668.64 1046.22 L1668.64 1046.22 L1724.83 1046.22 L1724.83 1030.25 L1724.83 1030.25 L1724.83 1030.25 L1724.83 1030.25 L1724.83 1030.25 L1732.87 1030.25 L1732.87 1024.81 L1740.91 1024.81 L1740.91 1019.48 L1748.96 1019.48 L1748.96 1014.16 L1764.92 1014.16 L1764.92 998.07 L1764.92 998.07 L1764.92 998.07 L1764.92 998.07 L1764.92 998.07 L1789.05 998.07 L1789.05 992.63 L1805.14 992.63 L1805.14 987.18 L1813.06 987.18 L1813.06 981.86 L1821.11 981.86 L1821.11 976.42 L1829.15 976.42 L1829.15 965.53 L1829.15 965.53 L1829.15 965.53 L1837.19 965.53 L1837.19 954.76 L1837.19 954.76 L1837.19 954.76 L1845.24 954.76 L1845.24 943.87 L1845.24 943.87 L1845.24 943.87 L1853.28 943.87 L1853.28 938.43 L1869.37 938.43 L1869.37 927.54 L1869.37 927.54 L1869.37 927.54 L1877.29 927.54 L1877.29 922.21 L1901.42 922.21 L1901.42 916.64 L1909.46 916.64 L1909.46 905.75 L1909.46 905.75 L1909.46 905.75 L1917.51 905.75 L1917.51 900.31 L1925.55 900.31 L1925.55 894.86 L1933.47 894.86 L1933.47 889.42 L1949.56 889.42 L1949.56 878.40 L1949.56 878.40 L1949.56 878.40 L1957.60 878.40 L1957.60 872.96 L1973.69 872.96 L1973.69 861.95 L1973.69 861.95 L1973.69 861.95 L1981.73 861.95 L1981.73 856.38 L2021.83 856.38 L2021.83 845.36 L2021.83 845.36 L2021.83 845.36 L2029.87 845.36 L2029.87 839.79 L2069.97 839.79 L2069.97 823.21 L2069.97 823.21 L2069.97 823.21 L2069.97 823.21 L2069.97 823.21 L2086.05 823.21 L2086.05 811.95 L2086.05 811.95 L2086.05 811.95 L2102.02 811.95 L2102.02 806.38 L2110.06 806.38 L2110.06 800.81 L2126.15 800.81 L2126.15 789.55 L2126.15 789.55 L2126.15 789.55 L2134.19 789.55 L2134.19 783.98 L2142.24 783.98 L2142.24 778.29 L2174.29 778.29 L2174.29 772.72 L2238.51 772.72 L2238.51 766.90 L2262.64 766.90 L2262.64 761.09 L2270.69 761.09 L2270.69 755.39 L2286.65 755.39 L2286.65 749.45 L2294.70 749.45 L2294.70 743.64 L2318.83 743.64 L2318.83 737.82 L2334.79 737.82 L2334.79 731.88 L2366.97 731.88 L2366.97 725.82 L2390.97 725.82 L2390.97 719.75 L2415.11 719.75 L2415.11 707.62 L2415.11 707.62 L2415.11 707.62 L2439.24 707.62 L2439.24 701.44 L2455.20 701.44 L2455.20 688.81 L2455.20 688.81 L2455.20 688.81 L2495.42 688.81 L2495.42 676.07 L2495.42 676.07 L2495.42 676.07 L2503.34 676.07 L2503.34 669.63 L2543.56 669.63 L2543.56 656.39 L2543.56 656.39 L2543.56 656.39 L2551.60 656.39 L2551.60 636.47 L2551.60 636.47 L2551.60 636.47 L2551.60 636.47 L2551.60 636.47 L2559.52 636.47 L2559.52 629.91 L2607.78 629.91 L2607.78 622.85 L2655.92 622.85 L2655.92 615.68 L2736.11 615.68 L2736.11 607.51 L2752.20 607.51 L2752.20 599.22 L2760.24 599.22 L2760.24 590.80 L2768.29 590.80 L2768.29 582.14 L2792.30 582.14 L2792.30 573.10 L2824.47 573.10 L2824.47 563.20 L2840.56 563.20 L2840.56 552.81 L2880.65 552.81 L2880.65 541.05 L2912.70 541.05 L2912.70 527.69 L2936.84 527.69 L2936.84 512.46" stroke-linejoin="round" style="fill:none;stroke:#90353B;stroke-width:8.64"/>
	<line x1="521.73" y1="2233.63" x2="521.73" y2="100.86" style="stroke:#000000;stroke-width:5.76"/>
	<line x1="521.73" y1="2170.27" x2="481.76" y2="2170.27" style="stroke:#000000;stroke-width:5.76"/>
	<text x="461.83" y="2205.30" style="font-family:'Helvetica';font-size:99.99px;fill:#000000" text-anchor="end">0</text>
	<line x1="521.73" y1="1501.63" x2="481.76" y2="1501.63" style="stroke:#000000;stroke-width:5.76"/>
	<text x="461.83" y="1536.66" style="font-family:'Helvetica';font-size:99.99px;fill:#000000" text-anchor="end">.005</text>
	<line x1="521.73" y1="832.86" x2="481.76" y2="832.86" style="stroke:#000000;stroke-width:5.76"/>
	<text x="461.83" y="867.89" style="font-family:'Helvetica';font-size:99.99px;fill:#000000" text-anchor="end">.01</text>
	<line x1="521.73" y1="164.22" x2="481.76" y2="164.22" style="stroke:#000000;stroke-width:5.76"/>
	<text x="461.83" y="199.25" style="font-family:'Helvetica';font-size:99.99px;fill:#000000" text-anchor="end">.015</text>
	<text x="190.71" y="1167.25" style="font-family:'Helvetica';font-size:99.99px;fill:#000000" transform="rotate(-90 190.71,1167.25)" text-anchor="middle">Cumulative Incidence</text>
	<line x1="521.73" y1="2233.63" x2="3859.02" y2="2233.63" style="stroke:#000000;stroke-width:5.76"/>
	<line x1="585.09" y1="2233.63" x2="585.09" y2="2273.73" style="stroke:#000000;stroke-width:5.76"/>
	<text x="585.09" y="2363.59" style="font-family:'Helvetica';font-size:99.99px;fill:#000000" text-anchor="middle">0</text>
	<line x1="1387.73" y1="2233.63" x2="1387.73" y2="2273.73" style="stroke:#000000;stroke-width:5.76"/>
	<text x="1387.73" y="2363.59" style="font-family:'Helvetica';font-size:99.99px;fill:#000000" text-anchor="middle">100</text>
	<line x1="2190.38" y1="2233.63" x2="2190.38" y2="2273.73" style="stroke:#000000;stroke-width:5.76"/>
	<text x="2190.38" y="2363.59" style="font-family:'Helvetica';font-size:99.99px;fill:#000000" text-anchor="middle">200</text>
	<line x1="2993.02" y1="2233.63" x2="2993.02" y2="2273.73" style="stroke:#000000;stroke-width:5.76"/>
	<text x="2993.02" y="2363.59" style="font-family:'Helvetica';font-size:99.99px;fill:#000000" text-anchor="middle">300</text>
	<line x1="3795.66" y1="2233.63" x2="3795.66" y2="2273.73" style="stroke:#000000;stroke-width:5.76"/>
	<text x="3795.66" y="2363.59" style="font-family:'Helvetica';font-size:99.99px;fill:#000000" text-anchor="middle">400</text>
	<text x="2190.38" y="2473.60" style="font-family:'Helvetica';font-size:99.99px;fill:#000000" text-anchor="middle">Time (Days)</text>
	<rect x="968.22" y="2558.24" width="2444.43" height="186.37" style="fill:#FFFFFF"/>
	<rect x="971.10" y="2561.12" width="2438.67" height="180.61" style="fill:none;stroke:#000000;stroke-width:5.76"/>
	<line x1="1011.41" y1="2651.43" x2="1385.88" y2="2651.43" style="stroke:#1A476F;stroke-width:8.64"/>
	<line x1="2464.61" y1="2651.43" x2="2839.07" y2="2651.43" style="stroke:#90353B;stroke-width:8.64"/>
	<text x="1445.77" y="2686.46" style="font-family:'Helvetica';font-size:99.99px;fill:#000000">General Population</text>
	<text x="2898.97" y="2686.46" style="font-family:'Helvetica';font-size:99.99px;fill:#000000">COVID-19</text>
</svg>
