<?xml version="1.0" encoding="UTF-8" standalone="no"?>
<!-- This is a Stata 16.1 generated SVG file (http://www.stata.com) -->

<svg version="1.1" width="5.50in" height="4.00in" viewBox="0 0 3960 2880" xmlns="http://www.w3.org/2000/svg" xmlns:xlink="http://www.w3.org/1999/xlink">
	<desc>Stata Graph - Graph</desc>
	<rect x="0" y="0" width="3960" height="2880" style="fill:#EAF2F3;stroke:none"/>
	<rect x="0.00" y="0.00" width="3959.88" height="2880.00" style="fill:#FFFFFF"/>
	<rect x="2.88" y="2.88" width="3954.12" height="2874.24" style="fill:none;stroke:#FFFFFF;stroke-width:5.76"/>
	<rect x="465.05" y="100.86" width="3393.97" height="2132.77" style="fill:#FFFFFF"/>
	<rect x="467.93" y="103.74" width="3388.21" height="2127.01" style="fill:none;stroke:#FFFFFF;stroke-width:5.76"/>
	<line x1="465.05" y1="2170.27" x2="3859.02" y2="2170.27" style="stroke:#EAF2F3;stroke-width:8.64"/>
	<line x1="465.05" y1="1501.63" x2="3859.02" y2="1501.63" style="stroke:#EAF2F3;stroke-width:8.64"/>
	<line x1="465.05" y1="832.86" x2="3859.02" y2="832.86" style="stroke:#EAF2F3;stroke-width:8.64"/>
	<line x1="465.05" y1="164.22" x2="3859.02" y2="164.22" style="stroke:#EAF2F3;stroke-width:8.64"/>
	<path d=" M544.75 2169.16 L544.75 2169.16 L544.75 2169.16 L544.75 2169.16 L544.75 2169.16 L552.91 2169.16 L552.91 2165.69 L552.91 2165.69 L552.91 2165.69 L552.91 2165.69 L552.91 2165.69 L552.91 2165.69 L552.91 2165.69 L552.91 2165.69 L552.91 2165.69 L552.91 2165.69 L552.91 2165.69 L552.91 2165.69 L552.91 2165.69 L552.91 2165.69 L552.91 2165.69 L561.08 2165.69 L561.08 2160.62 L561.08 2160.62 L561.08 2160.62 L561.08 2160.62 L561.08 2160.62 L561.08 2160.62 L561.08 2160.62 L561.08 2160.62 L561.08 2160.62 L561.08 2160.62 L561.08 2160.62 L561.08 2160.62 L561.08 2160.62 L561.08 2160.62 L561.08 2160.62 L561.08 2160.62 L561.08 2160.62 L561.08 2160.62 L561.08 2160.62 L561.08 2160.62 L561.08 2160.62 L561.08 2160.62 L561.08 2160.62 L569.25 2160.62 L569.25 2155.54 L569.25 2155.54 L569.25 2155.54 L569.25 2155.54 L569.25 2155.54 L569.25 2155.54 L569.25 2155.54 L569.25 2155.54 L569.25 2155.54 L569.25 2155.54 L569.25 2155.54 L569.25 2155.54 L569.25 2155.54 L569.25 2155.54 L569.25 2155.54 L569.25 2155.54 L569.25 2155.54 L569.25 2155.54 L569.25 2155.54 L569.25 2155.54 L569.25 2155.54 L569.25 2155.54 L569.25 2155.54 L577.42 2155.54 L577.42 2152.20 L577.42 2152.20 L577.42 2152.20 L577.42 2152.20 L577.42 2152.20 L577.42 2152.20 L577.42 2152.20 L577.42 2152.20 L577.42 2152.20 L577.42 2152.20 L577.42 2152.20 L577.42 2152.20 L577.42 2152.20 L577.42 2152.20 L577.42 2152.20 L585.59 2152.20 L585.59 2149.73 L585.59 2149.73 L585.59 2149.73 L585.59 2149.73 L585.59 2149.73 L585.59 2149.73 L585.59 2149.73 L585.59 2149.73 L585.59 2149.73 L585.59 2149.73 L585.59 2149.73 L593.75 2149.73 L593.75 2147.50 L593.75 2147.50 L593.75 2147.50 L593.75 2147.50 L593.75 2147.50 L593.75 2147.50 L593.75 2147.50 L593.75 2147.50 L593.75 2147.50 L601.92 2147.50 L601.92 2146.76 L601.92 2146.76 L601.92 2146.76 L610.09 2146.76 L610.09 2145.89 L610.09 2145.89 L610.09 2145.89 L618.25 2145.89 L618.25 2143.79 L618.25 2143.79 L618.25 2143.79 L618.25 2143.79 L618.25 2143.79 L618.25 2143.79 L618.25 2143.79 L618.25 2143.79 L618.25 2143.79 L626.42 2143.79 L626.42 2140.32 L626.42 2140.32 L626.42 2140.32 L626.42 2140.32 L626.42 2140.32 L626.42 2140.32 L626.42 2140.32 L626.42 2140.32 L626.42 2140.32 L626.42 2140.32 L626.42 2140.32 L626.42 2140.32 L626.42 2140.32 L626.42 2140.32 L626.42 2140.32 L634.59 2140.32 L634.59 2138.22 L634.59 2138.22 L634.59 2138.22 L634.59 2138.22 L634.59 2138.22 L634.59 2138.22 L634.59 2138.22 L634.59 2138.22 L634.59 2138.22 L642.76 2138.22 L642.76 2135.74 L642.76 2135.74 L642.76 2135.74 L642.76 2135.74 L642.76 2135.74 L642.76 2135.74 L642.76 2135.74 L642.76 2135.74 L642.76 2135.74 L642.76 2135.74 L642.76 2135.74 L650.92 2135.74 L650.92 2134.01 L650.92 2134.01 L650.92 2134.01 L650.92 2134.01 L650.92 2134.01 L650.92 2134.01 L650.92 2134.01 L659.09 2134.01 L659.09 2132.28 L659.09 2132.28 L659.09 2132.28 L659.09 2132.28 L659.09 2132.28 L659.09 2132.28 L659.09 2132.28 L667.26 2132.28 L667.26 2129.80 L667.26 2129.80 L667.26 2129.80 L667.26 2129.80 L667.26 2129.80 L667.26 2129.80 L667.26 2129.80 L667.26 2129.80 L667.26 2129.80 L667.26 2129.80 L667.26 2129.80 L675.43 2129.80 L675.43 2128.57 L675.43 2128.57 L675.43 2128.57 L675.43 2128.57 L675.43 2128.57 L683.60 2128.57 L683.60 2125.97 L683.60 2125.97 L683.60 2125.97 L683.60 2125.97 L683.60 2125.97 L683.60 2125.97 L683.60 2125.97 L683.60 2125.97 L683.60 2125.97 L683.60 2125.97 L683.60 2125.97 L691.76 2125.97 L691.76 2123.00 L691.76 2123.00 L691.76 2123.00 L691.76 2123.00 L691.76 2123.00 L691.76 2123.00 L691.76 2123.00 L691.76 2123.00 L691.76 2123.00 L691.76 2123.00 L691.76 2123.00 L691.76 2123.00 L691.76 2123.00 L699.93 2123.00 L699.93 2120.89 L699.93 2120.89 L699.93 2120.89 L699.93 2120.89 L699.93 2120.89 L699.93 2120.89 L699.93 2120.89 L699.93 2120.89 L699.93 2120.89 L708.10 2120.89 L708.10 2117.92 L708.10 2117.92 L708.10 2117.92 L708.10 2117.92 L708.10 2117.92 L708.10 2117.92 L708.10 2117.92 L708.10 2117.92 L708.10 2117.92 L708.10 2117.92 L708.10 2117.92 L708.10 2117.92 L708.10 2117.92 L716.26 2117.92 L716.26 2116.69 L716.26 2116.69 L716.26 2116.69 L716.26 2116.69 L716.26 2116.69 L724.43 2116.69 L724.43 2114.09 L724.43 2114.09 L724.43 2114.09 L724.43 2114.09 L724.43 2114.09 L724.43 2114.09 L724.43 2114.09 L724.43 2114.09 L724.43 2114.09 L724.43 2114.09 L724.43 2114.09 L732.60 2114.09 L732.60 2111.61 L732.60 2111.61 L732.60 2111.61 L732.60 2111.61 L732.60 2111.61 L732.60 2111.61 L732.60 2111.61 L732.60 2111.61 L732.60 2111.61 L732.60 2111.61 L732.60 2111.61 L740.77 2111.61 L740.77 2107.40 L740.77 2107.40 L740.77 2107.40 L740.77 2107.40 L740.77 2107.40 L740.77 2107.40 L740.77 2107.40 L740.77 2107.40 L740.77 2107.40 L740.77 2107.40 L740.77 2107.40 L740.77 2107.40 L740.77 2107.40 L740.77 2107.40 L740.77 2107.40 L740.77 2107.40 L740.77 2107.40 L740.77 2107.40 L740.77 2107.40 L748.93 2107.40 L748.93 2105.67 L748.93 2105.67 L748.93 2105.67 L748.93 2105.67 L748.93 2105.67 L748.93 2105.67 L748.93 2105.67 L757.10 2105.67 L757.10 2105.18 L765.27 2105.18 L765.27 2102.21 L765.27 2102.21 L765.27 2102.21 L765.27 2102.21 L765.27 2102.21 L765.27 2102.21 L765.27 2102.21 L765.27 2102.21 L765.27 2102.21 L765.27 2102.21 L765.27 2102.21 L765.27 2102.21 L765.27 2102.21 L773.44 2102.21 L773.44 2100.97 L773.44 2100.97 L773.44 2100.97 L773.44 2100.97 L773.44 2100.97 L781.61 2100.97 L781.61 2097.63 L781.61 2097.63 L781.61 2097.63 L781.61 2097.63 L781.61 2097.63 L781.61 2097.63 L781.61 2097.63 L781.61 2097.63 L781.61 2097.63 L781.61 2097.63 L781.61 2097.63 L781.61 2097.63 L781.61 2097.63 L781.61 2097.63 L781.61 2097.63 L789.77 2097.63 L789.77 2095.03 L789.77 2095.03 L789.77 2095.03 L789.77 2095.03 L789.77 2095.03 L789.77 2095.03 L789.77 2095.03 L789.77 2095.03 L789.77 2095.03 L789.77 2095.03 L789.77 2095.03 L797.94 2095.03 L797.94 2092.06 L797.94 2092.06 L797.94 2092.06 L797.94 2092.06 L797.94 2092.06 L797.94 2092.06 L797.94 2092.06 L797.94 2092.06 L797.94 2092.06 L797.94 2092.06 L797.94 2092.06 L797.94 2092.06 L797.94 2092.06 L806.11 2092.06 L806.11 2090.82 L806.11 2090.82 L806.11 2090.82 L806.11 2090.82 L806.11 2090.82 L814.27 2090.82 L814.27 2088.22 L814.27 2088.22 L814.27 2088.22 L814.27 2088.22 L814.27 2088.22 L814.27 2088.22 L814.27 2088.22 L814.27 2088.22 L814.27 2088.22 L814.27 2088.22 L814.27 2088.22 L822.44 2088.22 L822.44 2085.75 L822.44 2085.75 L822.44 2085.75 L822.44 2085.75 L822.44 2085.75 L822.44 2085.75 L822.44 2085.75 L822.44 2085.75 L822.44 2085.75 L822.44 2085.75 L822.44 2085.75 L830.61 2085.75 L830.61 2084.51 L830.61 2084.51 L830.61 2084.51 L830.61 2084.51 L830.61 2084.51 L838.78 2084.51 L838.78 2082.78 L838.78 2082.78 L838.78 2082.78 L838.78 2082.78 L838.78 2082.78 L838.78 2082.78 L838.78 2082.78 L846.95 2082.78 L846.95 2081.54 L846.95 2081.54 L846.95 2081.54 L846.95 2081.54 L846.95 2081.54 L855.11 2081.54 L855.11 2078.94 L855.11 2078.94 L855.11 2078.94 L855.11 2078.94 L855.11 2078.94 L855.11 2078.94 L855.11 2078.94 L855.11 2078.94 L855.11 2078.94 L855.11 2078.94 L855.11 2078.94 L863.28 2078.94 L863.28 2078.07 L863.28 2078.07 L863.28 2078.07 L871.45 2078.07 L871.45 2075.60 L871.45 2075.60 L871.45 2075.60 L871.45 2075.60 L871.45 2075.60 L871.45 2075.60 L871.45 2075.60 L871.45 2075.60 L871.45 2075.60 L871.45 2075.60 L871.45 2075.60 L879.62 2075.60 L879.62 2073.87 L879.62 2073.87 L879.62 2073.87 L879.62 2073.87 L879.62 2073.87 L879.62 2073.87 L879.62 2073.87 L887.78 2073.87 L887.78 2072.63 L887.78 2072.63 L887.78 2072.63 L887.78 2072.63 L887.78 2072.63 L895.95 2072.63 L895.95 2071.76 L895.95 2071.76 L895.95 2071.76 L904.12 2071.76 L904.12 2070.90 L904.12 2070.90 L904.12 2070.90 L912.28 2070.90 L912.28 2069.16 L912.28 2069.16 L912.28 2069.16 L912.28 2069.16 L912.28 2069.16 L912.28 2069.16 L912.28 2069.16 L920.45 2069.16 L920.45 2067.93 L920.45 2067.93 L920.45 2067.93 L920.45 2067.93 L920.45 2067.93 L928.62 2067.93 L928.62 2066.19 L928.62 2066.19 L928.62 2066.19 L928.62 2066.19 L928.62 2066.19 L928.62 2066.19 L928.62 2066.19 L936.79 2066.19 L936.79 2064.96 L936.79 2064.96 L936.79 2064.96 L936.79 2064.96 L936.79 2064.96 L944.96 2064.96 L944.96 2063.22 L944.96 2063.22 L944.96 2063.22 L944.96 2063.22 L944.96 2063.22 L944.96 2063.22 L944.96 2063.22 L961.29 2063.22 L961.29 2062.36 L961.29 2062.36 L961.29 2062.36 L969.46 2062.36 L969.46 2059.39 L969.46 2059.39 L969.46 2059.39 L969.46 2059.39 L969.46 2059.39 L969.46 2059.39 L969.46 2059.39 L969.46 2059.39 L969.46 2059.39 L969.46 2059.39 L969.46 2059.39 L969.46 2059.39 L969.46 2059.39 L977.62 2059.39 L977.62 2057.28 L977.62 2057.28 L977.62 2057.28 L977.62 2057.28 L977.62 2057.28 L977.62 2057.28 L977.62 2057.28 L977.62 2057.28 L977.62 2057.28 L985.79 2057.28 L985.79 2056.05 L985.79 2056.05 L985.79 2056.05 L985.79 2056.05 L985.79 2056.05 L993.96 2056.05 L993.96 2055.18 L993.96 2055.18 L993.96 2055.18 L1002.13 2055.18 L1002.13 2054.81 L1010.29 2054.81 L1010.29 2054.31 L1018.46 2054.31 L1018.46 2052.71 L1018.46 2052.71 L1018.46 2052.71 L1018.46 2052.71 L1018.46 2052.71 L1018.46 2052.71 L1018.46 2052.71 L1026.63 2052.71 L1026.63 2050.11 L1026.63 2050.11 L1026.63 2050.11 L1026.63 2050.11 L1026.63 2050.11 L1026.63 2050.11 L1026.63 2050.11 L1026.63 2050.11 L1026.63 2050.11 L1026.63 2050.11 L1026.63 2050.11 L1034.80 2050.11 L1034.80 2048.37 L1034.80 2048.37 L1034.80 2048.37 L1034.80 2048.37 L1034.80 2048.37 L1034.80 2048.37 L1034.80 2048.37 L1042.96 2048.37 L1042.96 2047.51 L1042.96 2047.51 L1042.96 2047.51 L1051.13 2047.51 L1051.13 2045.40 L1051.13 2045.40 L1051.13 2045.40 L1051.13 2045.40 L1051.13 2045.40 L1051.13 2045.40 L1051.13 2045.40 L1051.13 2045.40 L1051.13 2045.40 L1059.30 2045.40 L1059.30 2044.17 L1059.30 2044.17 L1059.30 2044.17 L1059.30 2044.17 L1059.30 2044.17 L1067.47 2044.17 L1067.47 2041.57 L1067.47 2041.57 L1067.47 2041.57 L1067.47 2041.57 L1067.47 2041.57 L1067.47 2041.57 L1067.47 2041.57 L1067.47 2041.57 L1067.47 2041.57 L1067.47 2041.57 L1067.47 2041.57 L1075.63 2041.57 L1075.63 2040.83 L1075.63 2040.83 L1075.63 2040.83 L1083.80 2040.83 L1083.80 2039.46 L1083.80 2039.46 L1083.80 2039.46 L1083.80 2039.46 L1083.80 2039.46 L1091.97 2039.46 L1091.97 2038.23 L1091.97 2038.23 L1091.97 2038.23 L1091.97 2038.23 L1091.97 2038.23 L1100.14 2038.23 L1100.14 2034.02 L1100.14 2034.02 L1100.14 2034.02 L1100.14 2034.02 L1100.14 2034.02 L1100.14 2034.02 L1100.14 2034.02 L1100.14 2034.02 L1100.14 2034.02 L1100.14 2034.02 L1100.14 2034.02 L1100.14 2034.02 L1100.14 2034.02 L1100.14 2034.02 L1100.14 2034.02 L1100.14 2034.02 L1100.14 2034.02 L1100.14 2034.02 L1100.14 2034.02 L1108.31 2034.02 L1108.31 2032.66 L1108.31 2032.66 L1108.31 2032.66 L1108.31 2032.66 L1108.31 2032.66 L1116.47 2032.66 L1116.47 2032.29 L1124.64 2032.29 L1124.64 2031.42 L1124.64 2031.42 L1124.64 2031.42 L1132.81 2031.42 L1132.81 2028.08 L1132.81 2028.08 L1132.81 2028.08 L1132.81 2028.08 L1132.81 2028.08 L1132.81 2028.08 L1132.81 2028.08 L1132.81 2028.08 L1132.81 2028.08 L1132.81 2028.08 L1132.81 2028.08 L1132.81 2028.08 L1132.81 2028.08 L1132.81 2028.08 L1132.81 2028.08 L1140.97 2028.08 L1140.97 2026.35 L1140.97 2026.35 L1140.97 2026.35 L1140.97 2026.35 L1140.97 2026.35 L1140.97 2026.35 L1140.97 2026.35 L1149.14 2026.35 L1149.14 2025.11 L1149.14 2025.11 L1149.14 2025.11 L1149.14 2025.11 L1149.14 2025.11 L1157.31 2025.11 L1157.31 2022.51 L1157.31 2022.51 L1157.31 2022.51 L1157.31 2022.51 L1157.31 2022.51 L1157.31 2022.51 L1157.31 2022.51 L1157.31 2022.51 L1157.31 2022.51 L1157.31 2022.51 L1157.31 2022.51 L1165.48 2022.51 L1165.48 2020.41 L1165.48 2020.41 L1165.48 2020.41 L1165.48 2020.41 L1165.48 2020.41 L1165.48 2020.41 L1165.48 2020.41 L1165.48 2020.41 L1165.48 2020.41 L1173.64 2020.41 L1173.64 2019.17 L1173.64 2019.17 L1173.64 2019.17 L1173.64 2019.17 L1173.64 2019.17 L1181.81 2019.17 L1181.81 2018.30 L1181.81 2018.30 L1181.81 2018.30 L1189.98 2018.30 L1189.98 2016.57 L1189.98 2016.57 L1189.98 2016.57 L1189.98 2016.57 L1189.98 2016.57 L1189.98 2016.57 L1189.98 2016.57 L1198.15 2016.57 L1198.15 2014.47 L1198.15 2014.47 L1198.15 2014.47 L1198.15 2014.47 L1198.15 2014.47 L1198.15 2014.47 L1198.15 2014.47 L1198.15 2014.47 L1198.15 2014.47 L1206.32 2014.47 L1206.32 2013.23 L1206.32 2013.23 L1206.32 2013.23 L1206.32 2013.23 L1206.32 2013.23 L1214.48 2013.23 L1214.48 2011.50 L1214.48 2011.50 L1214.48 2011.50 L1214.48 2011.50 L1214.48 2011.50 L1214.48 2011.50 L1214.48 2011.50 L1222.65 2011.50 L1222.65 2009.39 L1222.65 2009.39 L1222.65 2009.39 L1222.65 2009.39 L1222.65 2009.39 L1222.65 2009.39 L1222.65 2009.39 L1222.65 2009.39 L1222.65 2009.39 L1230.82 2009.39 L1230.82 2008.90 L1238.98 2008.90 L1238.98 2008.03 L1238.98 2008.03 L1238.98 2008.03 L1247.15 2008.03 L1247.15 2005.56 L1247.15 2005.56 L1247.15 2005.56 L1247.15 2005.56 L1247.15 2005.56 L1247.15 2005.56 L1247.15 2005.56 L1247.15 2005.56 L1247.15 2005.56 L1247.15 2005.56 L1247.15 2005.56 L1255.32 2005.56 L1255.32 2003.45 L1255.32 2003.45 L1255.32 2003.45 L1255.32 2003.45 L1255.32 2003.45 L1255.32 2003.45 L1255.32 2003.45 L1255.32 2003.45 L1255.32 2003.45 L1263.49 2003.45 L1263.49 1999.61 L1263.49 1999.61 L1263.49 1999.61 L1263.49 1999.61 L1263.49 1999.61 L1263.49 1999.61 L1263.49 1999.61 L1263.49 1999.61 L1263.49 1999.61 L1263.49 1999.61 L1263.49 1999.61 L1263.49 1999.61 L1263.49 1999.61 L1263.49 1999.61 L1263.49 1999.61 L1263.49 1999.61 L1263.49 1999.61 L1271.65 1999.61 L1271.65 1996.15 L1271.65 1996.15 L1271.65 1996.15 L1271.65 1996.15 L1271.65 1996.15 L1271.65 1996.15 L1271.65 1996.15 L1271.65 1996.15 L1271.65 1996.15 L1271.65 1996.15 L1271.65 1996.15 L1271.65 1996.15 L1271.65 1996.15 L1271.65 1996.15 L1271.65 1996.15 L1279.82 1996.15 L1279.82 1994.91 L1279.82 1994.91 L1279.82 1994.91 L1279.82 1994.91 L1279.82 1994.91 L1287.99 1994.91 L1287.99 1994.05 L1287.99 1994.05 L1287.99 1994.05 L1296.16 1994.05 L1296.16 1992.31 L1296.16 1992.31 L1296.16 1992.31 L1296.16 1992.31 L1296.16 1992.31 L1296.16 1992.31 L1296.16 1992.31 L1304.33 1992.31 L1304.33 1991.08 L1304.33 1991.08 L1304.33 1991.08 L1304.33 1991.08 L1304.33 1991.08 L1312.49 1991.08 L1312.49 1988.97 L1312.49 1988.97 L1312.49 1988.97 L1312.49 1988.97 L1312.49 1988.97 L1312.49 1988.97 L1312.49 1988.97 L1312.49 1988.97 L1312.49 1988.97 L1320.66 1988.97 L1320.66 1987.61 L1320.66 1987.61 L1320.66 1987.61 L1320.66 1987.61 L1320.66 1987.61 L1328.83 1987.61 L1328.83 1986.87 L1328.83 1986.87 L1328.83 1986.87 L1336.99 1986.87 L1336.99 1983.40 L1336.99 1983.40 L1336.99 1983.40 L1336.99 1983.40 L1336.99 1983.40 L1336.99 1983.40 L1336.99 1983.40 L1336.99 1983.40 L1336.99 1983.40 L1336.99 1983.40 L1336.99 1983.40 L1336.99 1983.40 L1336.99 1983.40 L1336.99 1983.40 L1336.99 1983.40 L1345.16 1983.40 L1345.16 1981.30 L1345.16 1981.30 L1345.16 1981.30 L1345.16 1981.30 L1345.16 1981.30 L1345.16 1981.30 L1345.16 1981.30 L1345.16 1981.30 L1345.16 1981.30 L1353.33 1981.30 L1353.33 1978.70 L1353.33 1978.70 L1353.33 1978.70 L1353.33 1978.70 L1353.33 1978.70 L1353.33 1978.70 L1353.33 1978.70 L1353.33 1978.70 L1353.33 1978.70 L1353.33 1978.70 L1353.33 1978.70 L1361.50 1978.70 L1361.50 1977.46 L1361.50 1977.46 L1361.50 1977.46 L1361.50 1977.46 L1361.50 1977.46 L1369.66 1977.46 L1369.66 1974.49 L1369.66 1974.49 L1369.66 1974.49 L1369.66 1974.49 L1369.66 1974.49 L1369.66 1974.49 L1369.66 1974.49 L1369.66 1974.49 L1369.66 1974.49 L1369.66 1974.49 L1369.66 1974.49 L1369.66 1974.49 L1369.66 1974.49 L1377.83 1974.49 L1377.83 1973.63 L1377.83 1973.63 L1377.83 1973.63 L1386.00 1973.63 L1386.00 1971.52 L1386.00 1971.52 L1386.00 1971.52 L1386.00 1971.52 L1386.00 1971.52 L1386.00 1971.52 L1386.00 1971.52 L1386.00 1971.52 L1386.00 1971.52 L1394.17 1971.52 L1394.17 1968.92 L1394.17 1968.92 L1394.17 1968.92 L1394.17 1968.92 L1394.17 1968.92 L1394.17 1968.92 L1394.17 1968.92 L1394.17 1968.92 L1394.17 1968.92 L1394.17 1968.92 L1394.17 1968.92 L1402.34 1968.92 L1402.34 1967.32 L1402.34 1967.32 L1402.34 1967.32 L1402.34 1967.32 L1402.34 1967.32 L1402.34 1967.32 L1402.34 1967.32 L1410.50 1967.32 L1410.50 1966.82 L1418.67 1966.82 L1418.67 1965.58 L1418.67 1965.58 L1418.67 1965.58 L1418.67 1965.58 L1418.67 1965.58 L1426.84 1965.58 L1426.84 1965.09 L1435.01 1965.09 L1435.01 1963.85 L1435.01 1963.85 L1435.01 1963.85 L1435.01 1963.85 L1435.01 1963.85 L1443.17 1963.85 L1443.17 1961.25 L1443.17 1961.25 L1443.17 1961.25 L1443.17 1961.25 L1443.17 1961.25 L1443.17 1961.25 L1443.17 1961.25 L1443.17 1961.25 L1443.17 1961.25 L1443.17 1961.25 L1443.17 1961.25 L1451.34 1961.25 L1451.34 1960.88 L1459.51 1960.88 L1459.51 1960.01 L1459.51 1960.01 L1459.51 1960.01 L1467.67 1960.01 L1467.67 1957.91 L1467.67 1957.91 L1467.67 1957.91 L1467.67 1957.91 L1467.67 1957.91 L1467.67 1957.91 L1467.67 1957.91 L1467.67 1957.91 L1467.67 1957.91 L1475.84 1957.91 L1475.84 1957.04 L1475.84 1957.04 L1475.84 1957.04 L1484.01 1957.04 L1484.01 1955.31 L1484.01 1955.31 L1484.01 1955.31 L1484.01 1955.31 L1484.01 1955.31 L1484.01 1955.31 L1484.01 1955.31 L1492.18 1955.31 L1492.18 1953.21 L1492.18 1953.21 L1492.18 1953.21 L1492.18 1953.21 L1492.18 1953.21 L1492.18 1953.21 L1492.18 1953.21 L1492.18 1953.21 L1492.18 1953.21 L1500.35 1953.21 L1500.35 1949.87 L1500.35 1949.87 L1500.35 1949.87 L1500.35 1949.87 L1500.35 1949.87 L1500.35 1949.87 L1500.35 1949.87 L1500.35 1949.87 L1500.35 1949.87 L1500.35 1949.87 L1500.35 1949.87 L1500.35 1949.87 L1500.35 1949.87 L1500.35 1949.87 L1500.35 1949.87 L1508.51 1949.87 L1508.51 1946.90 L1508.51 1946.90 L1508.51 1946.90 L1508.51 1946.90 L1508.51 1946.90 L1508.51 1946.90 L1508.51 1946.90 L1508.51 1946.90 L1508.51 1946.90 L1508.51 1946.90 L1508.51 1946.90 L1508.51 1946.90 L1508.51 1946.90 L1516.68 1946.90 L1516.68 1943.80 L1516.68 1943.80 L1516.68 1943.80 L1516.68 1943.80 L1516.68 1943.80 L1516.68 1943.80 L1516.68 1943.80 L1516.68 1943.80 L1516.68 1943.80 L1516.68 1943.80 L1516.68 1943.80 L1516.68 1943.80 L1516.68 1943.80 L1524.85 1943.80 L1524.85 1943.06 L1524.85 1943.06 L1524.85 1943.06 L1533.02 1943.06 L1533.02 1940.46 L1533.02 1940.46 L1533.02 1940.46 L1533.02 1940.46 L1533.02 1940.46 L1533.02 1940.46 L1533.02 1940.46 L1533.02 1940.46 L1533.02 1940.46 L1533.02 1940.46 L1533.02 1940.46 L1541.18 1940.46 L1541.18 1938.73 L1541.18 1938.73 L1541.18 1938.73 L1541.18 1938.73 L1541.18 1938.73 L1541.18 1938.73 L1541.18 1938.73 L1549.35 1938.73 L1549.35 1937.49 L1549.35 1937.49 L1549.35 1937.49 L1549.35 1937.49 L1549.35 1937.49 L1557.52 1937.49 L1557.52 1934.52 L1557.52 1934.52 L1557.52 1934.52 L1557.52 1934.52 L1557.52 1934.52 L1557.52 1934.52 L1557.52 1934.52 L1557.52 1934.52 L1557.52 1934.52 L1557.52 1934.52 L1557.52 1934.52 L1557.52 1934.52 L1557.52 1934.52 L1565.68 1934.52 L1565.68 1931.06 L1565.68 1931.06 L1565.68 1931.06 L1565.68 1931.06 L1565.68 1931.06 L1565.68 1931.06 L1565.68 1931.06 L1565.68 1931.06 L1565.68 1931.06 L1565.68 1931.06 L1565.68 1931.06 L1565.68 1931.06 L1565.68 1931.06 L1565.68 1931.06 L1565.68 1931.06 L1573.85 1931.06 L1573.85 1928.95 L1573.85 1928.95 L1573.85 1928.95 L1573.85 1928.95 L1573.85 1928.95 L1573.85 1928.95 L1573.85 1928.95 L1573.85 1928.95 L1573.85 1928.95 L1582.02 1928.95 L1582.02 1928.58 L1590.19 1928.58 L1590.19 1927.22 L1590.19 1927.22 L1590.19 1927.22 L1590.19 1927.22 L1590.19 1927.22 L1598.36 1927.22 L1598.36 1923.38 L1598.36 1923.38 L1598.36 1923.38 L1598.36 1923.38 L1598.36 1923.38 L1598.36 1923.38 L1598.36 1923.38 L1598.36 1923.38 L1598.36 1923.38 L1598.36 1923.38 L1598.36 1923.38 L1598.36 1923.38 L1598.36 1923.38 L1598.36 1923.38 L1598.36 1923.38 L1598.36 1923.38 L1598.36 1923.38 L1606.52 1923.38 L1606.52 1923.01 L1614.69 1923.01 L1614.69 1920.41 L1614.69 1920.41 L1614.69 1920.41 L1614.69 1920.41 L1614.69 1920.41 L1614.69 1920.41 L1614.69 1920.41 L1614.69 1920.41 L1614.69 1920.41 L1614.69 1920.41 L1614.69 1920.41 L1622.86 1920.41 L1622.86 1919.17 L1622.86 1919.17 L1622.86 1919.17 L1622.86 1919.17 L1622.86 1919.17 L1631.03 1919.17 L1631.03 1917.94 L1631.03 1917.94 L1631.03 1917.94 L1631.03 1917.94 L1631.03 1917.94 L1639.19 1917.94 L1639.19 1917.07 L1639.19 1917.07 L1639.19 1917.07 L1647.36 1917.07 L1647.36 1915.34 L1647.36 1915.34 L1647.36 1915.34 L1647.36 1915.34 L1647.36 1915.34 L1647.36 1915.34 L1647.36 1915.34 L1655.53 1915.34 L1655.53 1911.87 L1655.53 1911.87 L1655.53 1911.87 L1655.53 1911.87 L1655.53 1911.87 L1655.53 1911.87 L1655.53 1911.87 L1655.53 1911.87 L1655.53 1911.87 L1655.53 1911.87 L1655.53 1911.87 L1655.53 1911.87 L1655.53 1911.87 L1655.53 1911.87 L1655.53 1911.87 L1671.99 1911.87 L1671.99 1910.26 L1671.99 1910.26 L1671.99 1910.26 L1671.99 1910.26 L1671.99 1910.26 L1671.99 1910.26 L1671.99 1910.26 L1680.15 1910.26 L1680.15 1907.67 L1680.15 1907.67 L1680.15 1907.67 L1680.15 1907.67 L1680.15 1907.67 L1680.15 1907.67 L1680.15 1907.67 L1680.15 1907.67 L1680.15 1907.67 L1680.15 1907.67 L1680.15 1907.67 L1688.32 1907.67 L1688.32 1906.43 L1688.32 1906.43 L1688.32 1906.43 L1688.32 1906.43 L1688.32 1906.43 L1696.49 1906.43 L1696.49 1905.93 L1704.66 1905.93 L1704.66 1904.20 L1704.66 1904.20 L1704.66 1904.20 L1704.66 1904.20 L1704.66 1904.20 L1704.66 1904.20 L1704.66 1904.20 L1712.82 1904.20 L1712.82 1902.96 L1712.82 1902.96 L1712.82 1902.96 L1712.82 1902.96 L1712.82 1902.96 L1720.99 1902.96 L1720.99 1901.73 L1720.99 1901.73 L1720.99 1901.73 L1720.99 1901.73 L1720.99 1901.73 L1729.16 1901.73 L1729.16 1899.13 L1729.16 1899.13 L1729.16 1899.13 L1729.16 1899.13 L1729.16 1899.13 L1729.16 1899.13 L1729.16 1899.13 L1729.16 1899.13 L1729.16 1899.13 L1729.16 1899.13 L1729.16 1899.13 L1737.33 1899.13 L1737.33 1897.39 L1737.33 1897.39 L1737.33 1897.39 L1737.33 1897.39 L1737.33 1897.39 L1737.33 1897.39 L1737.33 1897.39 L1745.49 1897.39 L1745.49 1897.02 L1753.66 1897.02 L1753.66 1895.79 L1753.66 1895.79 L1753.66 1895.79 L1753.66 1895.79 L1753.66 1895.79 L1761.83 1895.79 L1761.83 1891.08 L1761.83 1891.08 L1761.83 1891.08 L1761.83 1891.08 L1761.83 1891.08 L1761.83 1891.08 L1761.83 1891.08 L1761.83 1891.08 L1761.83 1891.08 L1761.83 1891.08 L1761.83 1891.08 L1761.83 1891.08 L1761.83 1891.08 L1761.83 1891.08 L1761.83 1891.08 L1761.83 1891.08 L1761.83 1891.08 L1761.83 1891.08 L1761.83 1891.08 L1761.83 1891.08 L1761.83 1891.08 L1770.00 1891.08 L1770.00 1890.22 L1770.00 1890.22 L1770.00 1890.22 L1778.16 1890.22 L1778.16 1888.48 L1778.16 1888.48 L1778.16 1888.48 L1778.16 1888.48 L1778.16 1888.48 L1778.16 1888.48 L1778.16 1888.48 L1786.33 1888.48 L1786.33 1888.11 L1794.50 1888.11 L1794.50 1886.38 L1794.50 1886.38 L1794.50 1886.38 L1794.50 1886.38 L1794.50 1886.38 L1794.50 1886.38 L1794.50 1886.38 L1802.67 1886.38 L1802.67 1885.51 L1802.67 1885.51 L1802.67 1885.51 L1810.83 1885.51 L1810.83 1883.78 L1810.83 1883.78 L1810.83 1883.78 L1810.83 1883.78 L1810.83 1883.78 L1810.83 1883.78 L1810.83 1883.78 L1819.00 1883.78 L1819.00 1882.92 L1819.00 1882.92 L1819.00 1882.92 L1827.17 1882.92 L1827.17 1882.54 L1835.34 1882.54 L1835.34 1879.57 L1835.34 1879.57 L1835.34 1879.57 L1835.34 1879.57 L1835.34 1879.57 L1835.34 1879.57 L1835.34 1879.57 L1835.34 1879.57 L1835.34 1879.57 L1835.34 1879.57 L1835.34 1879.57 L1835.34 1879.57 L1835.34 1879.57 L1843.50 1879.57 L1843.50 1879.08 L1851.67 1879.08 L1851.67 1877.47 L1851.67 1877.47 L1851.67 1877.47 L1851.67 1877.47 L1851.67 1877.47 L1851.67 1877.47 L1851.67 1877.47 L1859.84 1877.47 L1859.84 1876.11 L1859.84 1876.11 L1859.84 1876.11 L1859.84 1876.11 L1859.84 1876.11 L1868.01 1876.11 L1868.01 1875.24 L1868.01 1875.24 L1868.01 1875.24 L1876.17 1875.24 L1876.17 1872.77 L1876.17 1872.77 L1876.17 1872.77 L1876.17 1872.77 L1876.17 1872.77 L1876.17 1872.77 L1876.17 1872.77 L1876.17 1872.77 L1876.17 1872.77 L1876.17 1872.77 L1876.17 1872.77 L1884.34 1872.77 L1884.34 1871.90 L1884.34 1871.90 L1884.34 1871.90 L1892.51 1871.90 L1892.51 1869.30 L1892.51 1869.30 L1892.51 1869.30 L1892.51 1869.30 L1892.51 1869.30 L1892.51 1869.30 L1892.51 1869.30 L1892.51 1869.30 L1892.51 1869.30 L1892.51 1869.30 L1892.51 1869.30 L1900.68 1869.30 L1900.68 1868.06 L1900.68 1868.06 L1900.68 1868.06 L1900.68 1868.06 L1900.68 1868.06 L1908.84 1868.06 L1908.84 1866.33 L1908.84 1866.33 L1908.84 1866.33 L1908.84 1866.33 L1908.84 1866.33 L1908.84 1866.33 L1908.84 1866.33 L1917.01 1866.33 L1917.01 1865.84 L1925.18 1865.84 L1925.18 1865.47 L1933.35 1865.47 L1933.35 1864.60 L1933.35 1864.60 L1933.35 1864.60 L1941.51 1864.60 L1941.51 1862.87 L1941.51 1862.87 L1941.51 1862.87 L1941.51 1862.87 L1941.51 1862.87 L1941.51 1862.87 L1941.51 1862.87 L1949.68 1862.87 L1949.68 1861.26 L1949.68 1861.26 L1949.68 1861.26 L1949.68 1861.26 L1949.68 1861.26 L1949.68 1861.26 L1949.68 1861.26 L1957.85 1861.26 L1957.85 1859.53 L1957.85 1859.53 L1957.85 1859.53 L1957.85 1859.53 L1957.85 1859.53 L1957.85 1859.53 L1957.85 1859.53 L1966.02 1859.53 L1966.02 1855.69 L1966.02 1855.69 L1966.02 1855.69 L1966.02 1855.69 L1966.02 1855.69 L1966.02 1855.69 L1966.02 1855.69 L1966.02 1855.69 L1966.02 1855.69 L1966.02 1855.69 L1966.02 1855.69 L1966.02 1855.69 L1966.02 1855.69 L1966.02 1855.69 L1966.02 1855.69 L1966.02 1855.69 L1966.02 1855.69 L1974.18 1855.69 L1974.18 1854.33 L1974.18 1854.33 L1974.18 1854.33 L1974.18 1854.33 L1974.18 1854.33 L1982.35 1854.33 L1982.35 1853.96 L1990.52 1853.96 L1990.52 1852.22 L1990.52 1852.22 L1990.52 1852.22 L1990.52 1852.22 L1990.52 1852.22 L1990.52 1852.22 L1990.52 1852.22 L1998.69 1852.22 L1998.69 1850.99 L1998.69 1850.99 L1998.69 1850.99 L1998.69 1850.99 L1998.69 1850.99 L2006.85 1850.99 L2006.85 1849.25 L2006.85 1849.25 L2006.85 1849.25 L2006.85 1849.25 L2006.85 1849.25 L2006.85 1849.25 L2006.85 1849.25 L2015.02 1849.25 L2015.02 1846.66 L2015.02 1846.66 L2015.02 1846.66 L2015.02 1846.66 L2015.02 1846.66 L2015.02 1846.66 L2015.02 1846.66 L2015.02 1846.66 L2015.02 1846.66 L2015.02 1846.66 L2015.02 1846.66 L2023.19 1846.66 L2023.19 1845.79 L2023.19 1845.79 L2023.19 1845.79 L2031.36 1845.79 L2031.36 1845.42 L2039.52 1845.42 L2039.52 1843.69 L2039.52 1843.69 L2039.52 1843.69 L2039.52 1843.69 L2039.52 1843.69 L2039.52 1843.69 L2039.52 1843.69 L2047.69 1843.69 L2047.69 1843.31 L2064.03 1843.31 L2064.03 1842.45 L2064.03 1842.45 L2064.03 1842.45 L2072.19 1842.45 L2072.19 1841.58 L2072.19 1841.58 L2072.19 1841.58 L2080.36 1841.58 L2080.36 1837.74 L2080.36 1837.74 L2080.36 1837.74 L2080.36 1837.74 L2080.36 1837.74 L2080.36 1837.74 L2080.36 1837.74 L2080.36 1837.74 L2080.36 1837.74 L2080.36 1837.74 L2080.36 1837.74 L2080.36 1837.74 L2080.36 1837.74 L2080.36 1837.74 L2080.36 1837.74 L2080.36 1837.74 L2080.36 1837.74 L2088.53 1837.74 L2088.53 1835.64 L2088.53 1835.64 L2088.53 1835.64 L2088.53 1835.64 L2088.53 1835.64 L2088.53 1835.64 L2088.53 1835.64 L2088.53 1835.64 L2088.53 1835.64 L2096.70 1835.64 L2096.70 1834.77 L2096.70 1834.77 L2096.70 1834.77 L2104.86 1834.77 L2104.86 1832.67 L2104.86 1832.67 L2104.86 1832.67 L2104.86 1832.67 L2104.86 1832.67 L2104.86 1832.67 L2104.86 1832.67 L2104.86 1832.67 L2104.86 1832.67 L2113.03 1832.67 L2113.03 1830.44 L2113.03 1830.44 L2113.03 1830.44 L2113.03 1830.44 L2113.03 1830.44 L2113.03 1830.44 L2113.03 1830.44 L2113.03 1830.44 L2113.03 1830.44 L2121.20 1830.44 L2121.20 1829.58 L2121.20 1829.58 L2121.20 1829.58 L2137.53 1829.58 L2137.53 1829.21 L2145.70 1829.21 L2145.70 1827.97 L2145.70 1827.97 L2145.70 1827.97 L2145.70 1827.97 L2145.70 1827.97 L2153.87 1827.97 L2153.87 1827.47 L2162.04 1827.47 L2162.04 1823.27 L2162.04 1823.27 L2162.04 1823.27 L2162.04 1823.27 L2162.04 1823.27 L2162.04 1823.27 L2162.04 1823.27 L2162.04 1823.27 L2162.04 1823.27 L2162.04 1823.27 L2162.04 1823.27 L2162.04 1823.27 L2162.04 1823.27 L2162.04 1823.27 L2162.04 1823.27 L2162.04 1823.27 L2162.04 1823.27 L2162.04 1823.27 L2162.04 1823.27 L2170.20 1823.27 L2170.20 1821.04 L2170.20 1821.04 L2170.20 1821.04 L2170.20 1821.04 L2170.20 1821.04 L2170.20 1821.04 L2170.20 1821.04 L2170.20 1821.04 L2170.20 1821.04 L2178.37 1821.04 L2178.37 1819.80 L2178.37 1819.80 L2178.37 1819.80 L2178.37 1819.80 L2178.37 1819.80 L2186.54 1819.80 L2186.54 1818.56 L2186.54 1818.56 L2186.54 1818.56 L2186.54 1818.56 L2186.54 1818.56 L2194.71 1818.56 L2194.71 1818.07 L2202.87 1818.07 L2202.87 1817.70 L2211.04 1817.70 L2211.04 1817.20 L2219.21 1817.20 L2219.21 1815.10 L2219.21 1815.10 L2219.21 1815.10 L2219.21 1815.10 L2219.21 1815.10 L2219.21 1815.10 L2219.21 1815.10 L2219.21 1815.10 L2219.21 1815.10 L2227.38 1815.10 L2227.38 1812.50 L2227.38 1812.50 L2227.38 1812.50 L2227.38 1812.50 L2227.38 1812.50 L2227.38 1812.50 L2227.38 1812.50 L2227.38 1812.50 L2227.38 1812.50 L2227.38 1812.50 L2227.38 1812.50 L2235.54 1812.50 L2235.54 1810.02 L2235.54 1810.02 L2235.54 1810.02 L2235.54 1810.02 L2235.54 1810.02 L2235.54 1810.02 L2235.54 1810.02 L2235.54 1810.02 L2235.54 1810.02 L2235.54 1810.02 L2235.54 1810.02 L2243.71 1810.02 L2243.71 1807.43 L2243.71 1807.43 L2243.71 1807.43 L2243.71 1807.43 L2243.71 1807.43 L2243.71 1807.43 L2243.71 1807.43 L2243.71 1807.43 L2243.71 1807.43 L2243.71 1807.43 L2243.71 1807.43 L2251.88 1807.43 L2251.88 1806.56 L2251.88 1806.56 L2251.88 1806.56 L2260.05 1806.56 L2260.05 1805.69 L2260.05 1805.69 L2260.05 1805.69 L2268.21 1805.69 L2268.21 1804.46 L2268.21 1804.46 L2268.21 1804.46 L2268.21 1804.46 L2268.21 1804.46 L2276.38 1804.46 L2276.38 1802.35 L2276.38 1802.35 L2276.38 1802.35 L2276.38 1802.35 L2276.38 1802.35 L2276.38 1802.35 L2276.38 1802.35 L2276.38 1802.35 L2276.38 1802.35 L2284.55 1802.35 L2284.55 1800.62 L2284.55 1800.62 L2284.55 1800.62 L2284.55 1800.62 L2284.55 1800.62 L2284.55 1800.62 L2284.55 1800.62 L2292.72 1800.62 L2292.72 1798.39 L2292.72 1798.39 L2292.72 1798.39 L2292.72 1798.39 L2292.72 1798.39 L2292.72 1798.39 L2292.72 1798.39 L2292.72 1798.39 L2292.72 1798.39 L2300.88 1798.39 L2300.88 1795.92 L2300.88 1795.92 L2300.88 1795.92 L2300.88 1795.92 L2300.88 1795.92 L2300.88 1795.92 L2300.88 1795.92 L2300.88 1795.92 L2300.88 1795.92 L2300.88 1795.92 L2300.88 1795.92 L2309.05 1795.92 L2309.05 1795.05 L2309.05 1795.05 L2309.05 1795.05 L2325.39 1795.05 L2325.39 1793.32 L2325.39 1793.32 L2325.39 1793.32 L2325.39 1793.32 L2325.39 1793.32 L2325.39 1793.32 L2325.39 1793.32 L2333.55 1793.32 L2333.55 1791.58 L2333.55 1791.58 L2333.55 1791.58 L2333.55 1791.58 L2333.55 1791.58 L2333.55 1791.58 L2333.55 1791.58 L2341.72 1791.58 L2341.72 1789.85 L2341.72 1789.85 L2341.72 1789.85 L2341.72 1789.85 L2341.72 1789.85 L2341.72 1789.85 L2341.72 1789.85 L2349.89 1789.85 L2349.89 1786.88 L2349.89 1786.88 L2349.89 1786.88 L2349.89 1786.88 L2349.89 1786.88 L2349.89 1786.88 L2349.89 1786.88 L2349.89 1786.88 L2349.89 1786.88 L2349.89 1786.88 L2349.89 1786.88 L2349.89 1786.88 L2349.89 1786.88 L2358.06 1786.88 L2358.06 1785.15 L2358.06 1785.15 L2358.06 1785.15 L2358.06 1785.15 L2358.06 1785.15 L2358.06 1785.15 L2358.06 1785.15 L2366.22 1785.15 L2366.22 1782.67 L2366.22 1782.67 L2366.22 1782.67 L2366.22 1782.67 L2366.22 1782.67 L2366.22 1782.67 L2366.22 1782.67 L2366.22 1782.67 L2366.22 1782.67 L2366.22 1782.67 L2366.22 1782.67 L2374.39 1782.67 L2374.39 1780.08 L2374.39 1780.08 L2374.39 1780.08 L2374.39 1780.08 L2374.39 1780.08 L2374.39 1780.08 L2374.39 1780.08 L2374.39 1780.08 L2374.39 1780.08 L2374.39 1780.08 L2374.39 1780.08 L2382.56 1780.08 L2382.56 1778.34 L2382.56 1778.34 L2382.56 1778.34 L2382.56 1778.34 L2382.56 1778.34 L2382.56 1778.34 L2382.56 1778.34 L2390.73 1778.34 L2390.73 1776.61 L2390.73 1776.61 L2390.73 1776.61 L2390.73 1776.61 L2390.73 1776.61 L2390.73 1776.61 L2390.73 1776.61 L2398.89 1776.61 L2398.89 1774.88 L2398.89 1774.88 L2398.89 1774.88 L2398.89 1774.88 L2398.89 1774.88 L2398.89 1774.88 L2398.89 1774.88 L2407.06 1774.88 L2407.06 1772.77 L2407.06 1772.77 L2407.06 1772.77 L2407.06 1772.77 L2407.06 1772.77 L2407.06 1772.77 L2407.06 1772.77 L2407.06 1772.77 L2407.06 1772.77 L2415.23 1772.77 L2415.23 1771.54 L2415.23 1771.54 L2415.23 1771.54 L2415.23 1771.54 L2415.23 1771.54 L2423.40 1771.54 L2423.40 1770.18 L2423.40 1770.18 L2423.40 1770.18 L2423.40 1770.18 L2423.40 1770.18 L2431.56 1770.18 L2431.56 1769.80 L2439.73 1769.80 L2439.73 1767.70 L2439.73 1767.70 L2439.73 1767.70 L2439.73 1767.70 L2439.73 1767.70 L2439.73 1767.70 L2439.73 1767.70 L2439.73 1767.70 L2439.73 1767.70 L2447.90 1767.70 L2447.90 1767.21 L2456.07 1767.21 L2456.07 1765.10 L2456.07 1765.10 L2456.07 1765.10 L2456.07 1765.10 L2456.07 1765.10 L2456.07 1765.10 L2456.07 1765.10 L2456.07 1765.10 L2456.07 1765.10 L2464.23 1765.10 L2464.23 1763.00 L2464.23 1763.00 L2464.23 1763.00 L2464.23 1763.00 L2464.23 1763.00 L2464.23 1763.00 L2464.23 1763.00 L2464.23 1763.00 L2464.23 1763.00 L2472.40 1763.00 L2472.40 1760.40 L2472.40 1760.40 L2472.40 1760.40 L2472.40 1760.40 L2472.40 1760.40 L2472.40 1760.40 L2472.40 1760.40 L2472.40 1760.40 L2472.40 1760.40 L2472.40 1760.40 L2472.40 1760.40 L2480.57 1760.40 L2480.57 1759.16 L2480.57 1759.16 L2480.57 1759.16 L2480.57 1759.16 L2480.57 1759.16 L2488.74 1759.16 L2488.74 1758.67 L2496.90 1758.67 L2496.90 1756.93 L2496.90 1756.93 L2496.90 1756.93 L2496.90 1756.93 L2496.90 1756.93 L2496.90 1756.93 L2496.90 1756.93 L2505.07 1756.93 L2505.07 1754.83 L2505.07 1754.83 L2505.07 1754.83 L2505.07 1754.83 L2505.07 1754.83 L2505.07 1754.83 L2505.07 1754.83 L2505.07 1754.83 L2505.07 1754.83 L2513.24 1754.83 L2513.24 1751.36 L2513.24 1751.36 L2513.24 1751.36 L2513.24 1751.36 L2513.24 1751.36 L2513.24 1751.36 L2513.24 1751.36 L2513.24 1751.36 L2513.24 1751.36 L2513.24 1751.36 L2513.24 1751.36 L2513.24 1751.36 L2513.24 1751.36 L2513.24 1751.36 L2513.24 1751.36 L2521.41 1751.36 L2521.41 1749.76 L2521.41 1749.76 L2521.41 1749.76 L2521.41 1749.76 L2521.41 1749.76 L2521.41 1749.76 L2521.41 1749.76 L2529.57 1749.76 L2529.57 1748.02 L2529.57 1748.02 L2529.57 1748.02 L2529.57 1748.02 L2529.57 1748.02 L2529.57 1748.02 L2529.57 1748.02 L2537.74 1748.02 L2537.74 1746.29 L2537.74 1746.29 L2537.74 1746.29 L2537.74 1746.29 L2537.74 1746.29 L2537.74 1746.29 L2537.74 1746.29 L2545.91 1746.29 L2545.91 1744.56 L2545.91 1744.56 L2545.91 1744.56 L2545.91 1744.56 L2545.91 1744.56 L2545.91 1744.56 L2545.91 1744.56 L2554.08 1744.56 L2554.08 1743.32 L2554.08 1743.32 L2554.08 1743.32 L2554.08 1743.32 L2554.08 1743.32 L2562.24 1743.32 L2562.24 1739.48 L2562.24 1739.48 L2562.24 1739.48 L2562.24 1739.48 L2562.24 1739.48 L2562.24 1739.48 L2562.24 1739.48 L2562.24 1739.48 L2562.24 1739.48 L2562.24 1739.48 L2562.24 1739.48 L2562.24 1739.48 L2562.24 1739.48 L2562.24 1739.48 L2562.24 1739.48 L2562.24 1739.48 L2562.24 1739.48 L2570.41 1739.48 L2570.41 1737.75 L2570.41 1737.75 L2570.41 1737.75 L2570.41 1737.75 L2570.41 1737.75 L2570.41 1737.75 L2570.41 1737.75 L2578.58 1737.75 L2578.58 1736.39 L2578.58 1736.39 L2578.58 1736.39 L2578.58 1736.39 L2578.58 1736.39 L2586.75 1736.39 L2586.75 1734.78 L2586.75 1734.78 L2586.75 1734.78 L2586.75 1734.78 L2586.75 1734.78 L2586.75 1734.78 L2586.75 1734.78 L2594.91 1734.78 L2594.91 1733.05 L2594.91 1733.05 L2594.91 1733.05 L2594.91 1733.05 L2594.91 1733.05 L2594.91 1733.05 L2594.91 1733.05 L2603.08 1733.05 L2603.08 1732.55 L2611.25 1732.55 L2611.25 1729.96 L2611.25 1729.96 L2611.25 1729.96 L2611.25 1729.96 L2611.25 1729.96 L2611.25 1729.96 L2611.25 1729.96 L2611.25 1729.96 L2611.25 1729.96 L2611.25 1729.96 L2611.25 1729.96 L2619.42 1729.96 L2619.42 1727.85 L2619.42 1727.85 L2619.42 1727.85 L2619.42 1727.85 L2619.42 1727.85 L2619.42 1727.85 L2619.42 1727.85 L2619.42 1727.85 L2619.42 1727.85 L2627.58 1727.85 L2627.58 1727.48 L2635.75 1727.48 L2635.75 1725.75 L2635.75 1725.75 L2635.75 1725.75 L2635.75 1725.75 L2635.75 1725.75 L2635.75 1725.75 L2635.75 1725.75 L2643.92 1725.75 L2643.92 1725.25 L2652.09 1725.25 L2652.09 1721.91 L2652.09 1721.91 L2652.09 1721.91 L2652.09 1721.91 L2652.09 1721.91 L2652.09 1721.91 L2652.09 1721.91 L2652.09 1721.91 L2652.09 1721.91 L2652.09 1721.91 L2652.09 1721.91 L2652.09 1721.91 L2652.09 1721.91 L2652.09 1721.91 L2652.09 1721.91 L2660.25 1721.91 L2660.25 1721.05 L2660.25 1721.05 L2660.25 1721.05 L2668.42 1721.05 L2668.42 1719.31 L2668.42 1719.31 L2668.42 1719.31 L2668.42 1719.31 L2668.42 1719.31 L2668.42 1719.31 L2668.42 1719.31 L2676.59 1719.31 L2676.59 1716.71 L2676.59 1716.71 L2676.59 1716.71 L2676.59 1716.71 L2676.59 1716.71 L2676.59 1716.71 L2676.59 1716.71 L2676.59 1716.71 L2676.59 1716.71 L2676.59 1716.71 L2676.59 1716.71 L2684.76 1716.71 L2684.76 1712.01 L2684.76 1712.01 L2684.76 1712.01 L2684.76 1712.01 L2684.76 1712.01 L2684.76 1712.01 L2684.76 1712.01 L2684.76 1712.01 L2684.76 1712.01 L2684.76 1712.01 L2684.76 1712.01 L2684.76 1712.01 L2684.76 1712.01 L2684.76 1712.01 L2684.76 1712.01 L2684.76 1712.01 L2684.76 1712.01 L2684.76 1712.01 L2684.76 1712.01 L2684.76 1712.01 L2684.76 1712.01 L2692.92 1712.01 L2692.92 1710.28 L2692.92 1710.28 L2692.92 1710.28 L2692.92 1710.28 L2692.92 1710.28 L2692.92 1710.28 L2692.92 1710.28 L2701.09 1710.28 L2701.09 1708.55 L2701.09 1708.55 L2701.09 1708.55 L2701.09 1708.55 L2701.09 1708.55 L2701.09 1708.55 L2701.09 1708.55 L2709.26 1708.55 L2709.26 1707.31 L2709.26 1707.31 L2709.26 1707.31 L2709.26 1707.31 L2709.26 1707.31 L2717.43 1707.31 L2717.43 1705.58 L2717.43 1705.58 L2717.43 1705.58 L2717.43 1705.58 L2717.43 1705.58 L2717.43 1705.58 L2717.43 1705.58 L2725.59 1705.58 L2725.59 1703.84 L2725.59 1703.84 L2725.59 1703.84 L2725.59 1703.84 L2725.59 1703.84 L2725.59 1703.84 L2725.59 1703.84 L2733.76 1703.84 L2733.76 1701.74 L2733.76 1701.74 L2733.76 1701.74 L2733.76 1701.74 L2733.76 1701.74 L2733.76 1701.74 L2733.76 1701.74 L2733.76 1701.74 L2733.76 1701.74 L2741.93 1701.74 L2741.93 1698.77 L2741.93 1698.77 L2741.93 1698.77 L2741.93 1698.77 L2741.93 1698.77 L2741.93 1698.77 L2741.93 1698.77 L2741.93 1698.77 L2741.93 1698.77 L2741.93 1698.77 L2741.93 1698.77 L2741.93 1698.77 L2741.93 1698.77 L2750.10 1698.77 L2750.10 1696.67 L2750.10 1696.67 L2750.10 1696.67 L2750.10 1696.67 L2750.10 1696.67 L2750.10 1696.67 L2750.10 1696.67 L2750.10 1696.67 L2750.10 1696.67 L2758.26 1696.67 L2758.26 1692.71 L2758.26 1692.71 L2758.26 1692.71 L2758.26 1692.71 L2758.26 1692.71 L2758.26 1692.71 L2758.26 1692.71 L2758.26 1692.71 L2758.26 1692.71 L2758.26 1692.71 L2758.26 1692.71 L2758.26 1692.71 L2758.26 1692.71 L2758.26 1692.71 L2758.26 1692.71 L2758.26 1692.71 L2758.26 1692.71 L2766.43 1692.71 L2766.43 1688.00 L2766.43 1688.00 L2766.43 1688.00 L2766.43 1688.00 L2766.43 1688.00 L2766.43 1688.00 L2766.43 1688.00 L2766.43 1688.00 L2766.43 1688.00 L2766.43 1688.00 L2766.43 1688.00 L2766.43 1688.00 L2766.43 1688.00 L2766.43 1688.00 L2766.43 1688.00 L2766.43 1688.00 L2766.43 1688.00 L2766.43 1688.00 L2766.43 1688.00 L2766.43 1688.00 L2766.43 1688.00 L2774.60 1688.00 L2774.60 1687.14 L2774.60 1687.14 L2774.60 1687.14 L2782.77 1687.14 L2782.77 1685.53 L2782.77 1685.53 L2782.77 1685.53 L2782.77 1685.53 L2782.77 1685.53 L2782.77 1685.53 L2782.77 1685.53 L2790.93 1685.53 L2790.93 1682.93 L2790.93 1682.93 L2790.93 1682.93 L2790.93 1682.93 L2790.93 1682.93 L2790.93 1682.93 L2790.93 1682.93 L2790.93 1682.93 L2790.93 1682.93 L2790.93 1682.93 L2790.93 1682.93 L2799.10 1682.93 L2799.10 1680.70 L2799.10 1680.70 L2799.10 1680.70 L2799.10 1680.70 L2799.10 1680.70 L2799.10 1680.70 L2799.10 1680.70 L2799.10 1680.70 L2799.10 1680.70 L2807.27 1680.70 L2807.27 1678.23 L2807.27 1678.23 L2807.27 1678.23 L2807.27 1678.23 L2807.27 1678.23 L2807.27 1678.23 L2807.27 1678.23 L2807.27 1678.23 L2807.27 1678.23 L2807.27 1678.23 L2807.27 1678.23 L2815.44 1678.23 L2815.44 1676.86 L2815.44 1676.86 L2815.44 1676.86 L2815.44 1676.86 L2815.44 1676.86 L2823.60 1676.86 L2823.60 1674.76 L2823.60 1674.76 L2823.60 1674.76 L2823.60 1674.76 L2823.60 1674.76 L2823.60 1674.76 L2823.60 1674.76 L2823.60 1674.76 L2823.60 1674.76 L2831.77 1674.76 L2831.77 1673.03 L2831.77 1673.03 L2831.77 1673.03 L2831.77 1673.03 L2831.77 1673.03 L2831.77 1673.03 L2831.77 1673.03 L2839.94 1673.03 L2839.94 1670.43 L2839.94 1670.43 L2839.94 1670.43 L2839.94 1670.43 L2839.94 1670.43 L2839.94 1670.43 L2839.94 1670.43 L2839.94 1670.43 L2839.94 1670.43 L2839.94 1670.43 L2839.94 1670.43 L2848.11 1670.43 L2848.11 1667.95 L2848.11 1667.95 L2848.11 1667.95 L2848.11 1667.95 L2848.11 1667.95 L2848.11 1667.95 L2848.11 1667.95 L2848.11 1667.95 L2848.11 1667.95 L2848.11 1667.95 L2848.11 1667.95 L2856.27 1667.95 L2856.27 1664.86 L2856.27 1664.86 L2856.27 1664.86 L2856.27 1664.86 L2856.27 1664.86 L2856.27 1664.86 L2856.27 1664.86 L2856.27 1664.86 L2856.27 1664.86 L2856.27 1664.86 L2856.27 1664.86 L2856.27 1664.86 L2856.27 1664.86 L2864.44 1664.86 L2864.44 1661.02 L2864.44 1661.02 L2864.44 1661.02 L2864.44 1661.02 L2864.44 1661.02 L2864.44 1661.02 L2864.44 1661.02 L2864.44 1661.02 L2864.44 1661.02 L2864.44 1661.02 L2864.44 1661.02 L2864.44 1661.02 L2864.44 1661.02 L2864.44 1661.02 L2864.44 1661.02 L2864.44 1661.02 L2864.44 1661.02 L2872.61 1661.02 L2872.61 1659.79 L2872.61 1659.79 L2872.61 1659.79 L2872.61 1659.79 L2872.61 1659.79 L2880.78 1659.79 L2880.78 1655.95 L2880.78 1655.95 L2880.78 1655.95 L2880.78 1655.95 L2880.78 1655.95 L2880.78 1655.95 L2880.78 1655.95 L2880.78 1655.95 L2880.78 1655.95 L2880.78 1655.95 L2880.78 1655.95 L2880.78 1655.95 L2880.78 1655.95 L2880.78 1655.95 L2880.78 1655.95 L2880.78 1655.95 L2880.78 1655.95 L2888.94 1655.95 L2888.94 1654.59 L2888.94 1654.59 L2888.94 1654.59 L2888.94 1654.59 L2888.94 1654.59 L2897.11 1654.59 L2897.11 1653.35 L2897.11 1653.35 L2897.11 1653.35 L2897.11 1653.35 L2897.11 1653.35 L2905.28 1653.35 L2905.28 1651.62 L2905.28 1651.62 L2905.28 1651.62 L2905.28 1651.62 L2905.28 1651.62 L2905.28 1651.62 L2905.28 1651.62 L2913.45 1651.62 L2913.45 1649.02 L2913.45 1649.02 L2913.45 1649.02 L2913.45 1649.02 L2913.45 1649.02 L2913.45 1649.02 L2913.45 1649.02 L2913.45 1649.02 L2913.45 1649.02 L2913.45 1649.02 L2913.45 1649.02 L2921.61 1649.02 L2921.61 1647.78 L2921.61 1647.78 L2921.61 1647.78 L2921.61 1647.78 L2921.61 1647.78 L2929.78 1647.78 L2929.78 1644.81 L2929.78 1644.81 L2929.78 1644.81 L2929.78 1644.81 L2929.78 1644.81 L2929.78 1644.81 L2929.78 1644.81 L2929.78 1644.81 L2929.78 1644.81 L2929.78 1644.81 L2929.78 1644.81 L2929.78 1644.81 L2929.78 1644.81 L2937.95 1644.81 L2937.95 1643.08 L2937.95 1643.08 L2937.95 1643.08 L2937.95 1643.08 L2937.95 1643.08 L2937.95 1643.08 L2937.95 1643.08 L2946.12 1643.08 L2946.12 1641.72 L2946.12 1641.72 L2946.12 1641.72 L2946.12 1641.72 L2946.12 1641.72 L2954.28 1641.72 L2954.28 1640.85 L2954.28 1640.85 L2954.28 1640.85 L2962.45 1640.85 L2962.45 1639.12 L2962.45 1639.12 L2962.45 1639.12 L2962.45 1639.12 L2962.45 1639.12 L2962.45 1639.12 L2962.45 1639.12 L2970.62 1639.12 L2970.62 1638.38 L2970.62 1638.38 L2970.62 1638.38 L2978.79 1638.38 L2978.79 1637.51 L2978.79 1637.51 L2978.79 1637.51 L2986.95 1637.51 L2986.95 1637.02 L2995.12 1637.02 L2995.12 1634.91 L2995.12 1634.91 L2995.12 1634.91 L2995.12 1634.91 L2995.12 1634.91 L2995.12 1634.91 L2995.12 1634.91 L2995.12 1634.91 L2995.12 1634.91 L3003.29 1634.91 L3003.29 1631.94 L3003.29 1631.94 L3003.29 1631.94 L3003.29 1631.94 L3003.29 1631.94 L3003.29 1631.94 L3003.29 1631.94 L3003.29 1631.94 L3003.29 1631.94 L3003.29 1631.94 L3003.29 1631.94 L3003.29 1631.94 L3003.29 1631.94 L3011.46 1631.94 L3011.46 1628.85 L3011.46 1628.85 L3011.46 1628.85 L3011.46 1628.85 L3011.46 1628.85 L3011.46 1628.85 L3011.46 1628.85 L3011.46 1628.85 L3011.46 1628.85 L3011.46 1628.85 L3011.46 1628.85 L3011.46 1628.85 L3011.46 1628.85 L3019.62 1628.85 L3019.62 1624.15 L3019.62 1624.15 L3019.62 1624.15 L3019.62 1624.15 L3019.62 1624.15 L3019.62 1624.15 L3019.62 1624.15 L3019.62 1624.15 L3019.62 1624.15 L3019.62 1624.15 L3019.62 1624.15 L3019.62 1624.15 L3019.62 1624.15 L3019.62 1624.15 L3019.62 1624.15 L3019.62 1624.15 L3019.62 1624.15 L3019.62 1624.15 L3019.62 1624.15 L3019.62 1624.15 L3019.62 1624.15 L3027.79 1624.15 L3027.79 1621.55 L3027.79 1621.55 L3027.79 1621.55 L3027.79 1621.55 L3027.79 1621.55 L3027.79 1621.55 L3027.79 1621.55 L3027.79 1621.55 L3027.79 1621.55 L3027.79 1621.55 L3027.79 1621.55 L3035.96 1621.55 L3035.96 1619.81 L3035.96 1619.81 L3035.96 1619.81 L3035.96 1619.81 L3035.96 1619.81 L3035.96 1619.81 L3035.96 1619.81 L3044.13 1619.81 L3044.13 1617.71 L3044.13 1617.71 L3044.13 1617.71 L3044.13 1617.71 L3044.13 1617.71 L3044.13 1617.71 L3044.13 1617.71 L3044.13 1617.71 L3044.13 1617.71 L3052.29 1617.71 L3052.29 1615.98 L3052.29 1615.98 L3052.29 1615.98 L3052.29 1615.98 L3052.29 1615.98 L3052.29 1615.98 L3052.29 1615.98 L3060.46 1615.98 L3060.46 1613.87 L3060.46 1613.87 L3060.46 1613.87 L3060.46 1613.87 L3060.46 1613.87 L3060.46 1613.87 L3060.46 1613.87 L3060.46 1613.87 L3060.46 1613.87 L3068.63 1613.87 L3068.63 1612.64 L3068.63 1612.64 L3068.63 1612.64 L3068.63 1612.64 L3068.63 1612.64 L3076.80 1612.64 L3076.80 1611.77 L3076.80 1611.77 L3076.80 1611.77 L3085.09 1611.77 L3085.09 1609.54 L3085.09 1609.54 L3085.09 1609.54 L3085.09 1609.54 L3085.09 1609.54 L3085.09 1609.54 L3085.09 1609.54 L3085.09 1609.54 L3085.09 1609.54 L3093.26 1609.54 L3093.26 1608.68 L3093.26 1608.68 L3093.26 1608.68 L3101.42 1608.68 L3101.42 1606.57 L3101.42 1606.57 L3101.42 1606.57 L3101.42 1606.57 L3101.42 1606.57 L3101.42 1606.57 L3101.42 1606.57 L3101.42 1606.57 L3101.42 1606.57 L3109.59 1606.57 L3109.59 1605.71 L3109.59 1605.71 L3109.59 1605.71 L3117.76 1605.71 L3117.76 1604.84 L3117.76 1604.84 L3117.76 1604.84 L3125.93 1604.84 L3125.93 1602.74 L3125.93 1602.74 L3125.93 1602.74 L3125.93 1602.74 L3125.93 1602.74 L3125.93 1602.74 L3125.93 1602.74 L3125.93 1602.74 L3125.93 1602.74 L3134.09 1602.74 L3134.09 1601.38 L3134.09 1601.38 L3134.09 1601.38 L3134.09 1601.38 L3134.09 1601.38 L3142.26 1601.38 L3142.26 1599.64 L3142.26 1599.64 L3142.26 1599.64 L3142.26 1599.64 L3142.26 1599.64 L3142.26 1599.64 L3142.26 1599.64 L3150.43 1599.64 L3150.43 1598.78 L3150.43 1598.78 L3150.43 1598.78 L3158.59 1598.78 L3158.59 1597.17 L3158.59 1597.17 L3158.59 1597.17 L3158.59 1597.17 L3158.59 1597.17 L3158.59 1597.17 L3158.59 1597.17 L3166.76 1597.17 L3166.76 1595.81 L3166.76 1595.81 L3166.76 1595.81 L3166.76 1595.81 L3166.76 1595.81 L3174.93 1595.81 L3174.93 1593.21 L3174.93 1593.21 L3174.93 1593.21 L3174.93 1593.21 L3174.93 1593.21 L3174.93 1593.21 L3174.93 1593.21 L3174.93 1593.21 L3174.93 1593.21 L3174.93 1593.21 L3174.93 1593.21 L3183.10 1593.21 L3183.10 1591.97 L3183.10 1591.97 L3183.10 1591.97 L3183.10 1591.97 L3183.10 1591.97 L3191.26 1591.97 L3191.26 1591.47 L3199.43 1591.47 L3199.43 1588.50 L3199.43 1588.50 L3199.43 1588.50 L3199.43 1588.50 L3199.43 1588.50 L3199.43 1588.50 L3199.43 1588.50 L3199.43 1588.50 L3199.43 1588.50 L3199.43 1588.50 L3199.43 1588.50 L3199.43 1588.50 L3199.43 1588.50 L3207.60 1588.50 L3207.60 1586.77 L3207.60 1586.77 L3207.60 1586.77 L3207.60 1586.77 L3207.60 1586.77 L3207.60 1586.77 L3207.60 1586.77 L3215.77 1586.77 L3215.77 1586.40 L3223.93 1586.40 L3223.93 1585.04 L3223.93 1585.04 L3223.93 1585.04 L3223.93 1585.04 L3223.93 1585.04 L3232.10 1585.04 L3232.10 1584.17 L3232.10 1584.17 L3232.10 1584.17 L3240.27 1584.17 L3240.27 1582.56 L3240.27 1582.56 L3240.27 1582.56 L3240.27 1582.56 L3240.27 1582.56 L3240.27 1582.56 L3240.27 1582.56 L3248.44 1582.56 L3248.44 1581.20 L3248.44 1581.20 L3248.44 1581.20 L3248.44 1581.20 L3248.44 1581.20 L3256.61 1581.20 L3256.61 1578.60 L3256.61 1578.60 L3256.61 1578.60 L3256.61 1578.60 L3256.61 1578.60 L3256.61 1578.60 L3256.61 1578.60 L3256.61 1578.60 L3256.61 1578.60 L3256.61 1578.60 L3256.61 1578.60 L3264.77 1578.60 L3264.77 1576.13 L3264.77 1576.13 L3264.77 1576.13 L3264.77 1576.13 L3264.77 1576.13 L3264.77 1576.13 L3264.77 1576.13 L3264.77 1576.13 L3264.77 1576.13 L3264.77 1576.13 L3264.77 1576.13 L3272.94 1576.13 L3272.94 1574.77 L3272.94 1574.77 L3272.94 1574.77 L3272.94 1574.77 L3272.94 1574.77 L3281.11 1574.77 L3281.11 1574.40 L3289.28 1574.40 L3289.28 1573.53 L3289.28 1573.53 L3289.28 1573.53 L3297.44 1573.53 L3297.44 1570.93 L3297.44 1570.93 L3297.44 1570.93 L3297.44 1570.93 L3297.44 1570.93 L3297.44 1570.93 L3297.44 1570.93 L3297.44 1570.93 L3297.44 1570.93 L3297.44 1570.93 L3297.44 1570.93 L3305.61 1570.93 L3305.61 1570.07 L3305.61 1570.07 L3305.61 1570.07 L3313.78 1570.07 L3313.78 1567.47 L3313.78 1567.47 L3313.78 1567.47 L3313.78 1567.47 L3313.78 1567.47 L3313.78 1567.47 L3313.78 1567.47 L3313.78 1567.47 L3313.78 1567.47 L3313.78 1567.47 L3313.78 1567.47 L3321.95 1567.47 L3321.95 1566.23 L3321.95 1566.23 L3321.95 1566.23 L3321.95 1566.23 L3321.95 1566.23 L3330.11 1566.23 L3330.11 1562.27 L3330.11 1562.27 L3330.11 1562.27 L3330.11 1562.27 L3330.11 1562.27 L3330.11 1562.27 L3330.11 1562.27 L3330.11 1562.27 L3330.11 1562.27 L3330.11 1562.27 L3330.11 1562.27 L3330.11 1562.27 L3330.11 1562.27 L3330.11 1562.27 L3330.11 1562.27 L3330.11 1562.27 L3330.11 1562.27 L3338.28 1562.27 L3338.28 1561.03 L3338.28 1561.03 L3338.28 1561.03 L3338.28 1561.03 L3338.28 1561.03 L3346.45 1561.03 L3346.45 1560.54 L3354.61 1560.54 L3354.61 1558.93 L3354.61 1558.93 L3354.61 1558.93 L3354.61 1558.93 L3354.61 1558.93 L3354.61 1558.93 L3354.61 1558.93 L3362.78 1558.93 L3362.78 1556.70 L3362.78 1556.70 L3362.78 1556.70 L3362.78 1556.70 L3362.78 1556.70 L3362.78 1556.70 L3362.78 1556.70 L3362.78 1556.70 L3362.78 1556.70 L3370.95 1556.70 L3370.95 1554.60 L3370.95 1554.60 L3370.95 1554.60 L3370.95 1554.60 L3370.95 1554.60 L3370.95 1554.60 L3370.95 1554.60 L3370.95 1554.60 L3370.95 1554.60 L3379.12 1554.60 L3379.12 1553.73 L3379.12 1553.73 L3379.12 1553.73 L3387.28 1553.73 L3387.28 1552.37 L3387.28 1552.37 L3387.28 1552.37 L3387.28 1552.37 L3387.28 1552.37 L3395.45 1552.37 L3395.45 1549.89 L3395.45 1549.89 L3395.45 1549.89 L3395.45 1549.89 L3395.45 1549.89 L3395.45 1549.89 L3395.45 1549.89 L3395.45 1549.89 L3395.45 1549.89 L3395.45 1549.89 L3395.45 1549.89 L3403.62 1549.89 L3403.62 1548.16 L3403.62 1548.16 L3403.62 1548.16 L3403.62 1548.16 L3403.62 1548.16 L3403.62 1548.16 L3403.62 1548.16 L3411.79 1548.16 L3411.79 1547.67 L3419.95 1547.67 L3419.95 1545.56 L3419.95 1545.56 L3419.95 1545.56 L3419.95 1545.56 L3419.95 1545.56 L3419.95 1545.56 L3419.95 1545.56 L3419.95 1545.56 L3419.95 1545.56 L3428.12 1545.56 L3428.12 1542.10 L3428.12 1542.10 L3428.12 1542.10 L3428.12 1542.10 L3428.12 1542.10 L3428.12 1542.10 L3428.12 1542.10 L3428.12 1542.10 L3428.12 1542.10 L3428.12 1542.10 L3428.12 1542.10 L3428.12 1542.10 L3428.12 1542.10 L3428.12 1542.10 L3428.12 1542.10 L3444.46 1542.10 L3444.46 1540.36 L3444.46 1540.36 L3444.46 1540.36 L3444.46 1540.36 L3444.46 1540.36 L3444.46 1540.36 L3444.46 1540.36 L3452.62 1540.36 L3452.62 1537.39 L3452.62 1537.39 L3452.62 1537.39 L3452.62 1537.39 L3452.62 1537.39 L3452.62 1537.39 L3452.62 1537.39 L3452.62 1537.39 L3452.62 1537.39 L3452.62 1537.39 L3452.62 1537.39 L3452.62 1537.39 L3452.62 1537.39 L3460.79 1537.39 L3460.79 1534.30 L3460.79 1534.30 L3460.79 1534.30 L3460.79 1534.30 L3460.79 1534.30 L3460.79 1534.30 L3460.79 1534.30 L3460.79 1534.30 L3460.79 1534.30 L3460.79 1534.30 L3460.79 1534.30 L3460.79 1534.30 L3460.79 1534.30 L3468.96 1534.30 L3468.96 1532.20 L3468.96 1532.20 L3468.96 1532.20 L3468.96 1532.20 L3468.96 1532.20 L3468.96 1532.20 L3468.96 1532.20 L3468.96 1532.20 L3468.96 1532.20 L3477.13 1532.20 L3477.13 1530.96 L3477.13 1530.96 L3477.13 1530.96 L3477.13 1530.96 L3477.13 1530.96 L3485.30 1530.96 L3485.30 1529.23 L3485.30 1529.23 L3485.30 1529.23 L3485.30 1529.23 L3485.30 1529.23 L3485.30 1529.23 L3485.30 1529.23 L3493.46 1529.23 L3493.46 1526.63 L3493.46 1526.63 L3493.46 1526.63 L3493.46 1526.63 L3493.46 1526.63 L3493.46 1526.63 L3493.46 1526.63 L3493.46 1526.63 L3493.46 1526.63 L3493.46 1526.63 L3493.46 1526.63 L3501.63 1526.63 L3501.63 1525.27 L3501.63 1525.27 L3501.63 1525.27 L3501.63 1525.27 L3501.63 1525.27 L3509.80 1525.27 L3509.80 1523.66 L3509.80 1523.66 L3509.80 1523.66 L3509.80 1523.66 L3509.80 1523.66 L3509.80 1523.66 L3509.80 1523.66 L3517.97 1523.66 L3517.97 1522.30 L3517.97 1522.30 L3517.97 1522.30 L3517.97 1522.30 L3517.97 1522.30" stroke-linejoin="round" style="fill:none;stroke:#1A476F;stroke-width:8.64"/>
	<path d=" M544.75 2108.64 L544.75 2108.64 L544.75 2108.64 L544.75 2108.64 L544.75 2108.64 L544.75 2108.64 L544.75 2108.64 L544.75 2108.64 L544.75 2108.64 L544.75 2108.64 L544.75 2108.64 L544.75 2108.64 L544.75 2108.64 L544.75 2108.64 L544.75 2108.64 L544.75 2108.64 L544.75 2108.64 L544.75 2108.64 L544.75 2108.64 L544.75 2108.64 L544.75 2108.64 L544.75 2108.64 L544.75 2108.64 L544.75 2108.64 L544.75 2108.64 L544.75 2108.64 L544.75 2108.64 L544.75 2108.64 L544.75 2108.64 L544.75 2108.64 L544.75 2108.64 L544.75 2108.64 L544.75 2108.64 L544.75 2108.64 L544.75 2108.64 L544.75 2108.64 L544.75 2108.64 L544.75 2108.64 L544.75 2108.64 L544.75 2108.64 L544.75 2108.64 L544.75 2108.64 L544.75 2108.64 L544.75 2108.64 L544.75 2108.64 L544.75 2108.64 L544.75 2108.64 L544.75 2108.64 L544.75 2108.64 L544.75 2108.64 L544.75 2108.64 L544.75 2108.64 L544.75 2108.64 L544.75 2108.64 L544.75 2108.64 L544.75 2108.64 L544.75 2108.64 L544.75 2108.64 L544.75 2108.64 L544.75 2108.64 L544.75 2108.64 L544.75 2108.64 L544.75 2108.64 L544.75 2108.64 L544.75 2108.64 L544.75 2108.64 L544.75 2108.64 L544.75 2108.64 L544.75 2108.64 L544.75 2108.64 L544.75 2108.64 L544.75 2108.64 L544.75 2108.64 L544.75 2108.64 L544.75 2108.64 L544.75 2108.64 L544.75 2108.64 L544.75 2108.64 L544.75 2108.64 L544.75 2108.64 L544.75 2108.64 L544.75 2108.64 L544.75 2108.64 L544.75 2108.64 L544.75 2108.64 L544.75 2108.64 L544.75 2108.64 L544.75 2108.64 L544.75 2108.64 L544.75 2108.64 L544.75 2108.64 L544.75 2108.64 L544.75 2108.64 L544.75 2108.64 L544.75 2108.64 L544.75 2108.64 L544.75 2108.64 L544.75 2108.64 L544.75 2108.64 L544.75 2108.64 L544.75 2108.64 L544.75 2108.64 L544.75 2108.64 L544.75 2108.64 L544.75 2108.64 L544.75 2108.64 L544.75 2108.64 L544.75 2108.64 L544.75 2108.64 L544.75 2108.64 L544.75 2108.64 L544.75 2108.64 L544.75 2108.64 L544.75 2108.64 L544.75 2108.64 L544.75 2108.64 L544.75 2108.64 L544.75 2108.64 L544.75 2108.64 L544.75 2108.64 L544.75 2108.64 L544.75 2108.64 L544.75 2108.64 L544.75 2108.64 L544.75 2108.64 L544.75 2108.64 L544.75 2108.64 L544.75 2108.64 L544.75 2108.64 L544.75 2108.64 L544.75 2108.64 L544.75 2108.64 L544.75 2108.64 L544.75 2108.64 L544.75 2108.64 L544.75 2108.64 L544.75 2108.64 L544.75 2108.64 L544.75 2108.64 L552.91 2108.64 L552.91 2067.80 L552.91 2067.80 L552.91 2067.80 L552.91 2067.80 L552.91 2067.80 L552.91 2067.80 L552.91 2067.80 L552.91 2067.80 L552.91 2067.80 L552.91 2067.80 L552.91 2067.80 L552.91 2067.80 L552.91 2067.80 L552.91 2067.80 L552.91 2067.80 L552.91 2067.80 L552.91 2067.80 L552.91 2067.80 L552.91 2067.80 L552.91 2067.80 L552.91 2067.80 L552.91 2067.80 L552.91 2067.80 L552.91 2067.80 L552.91 2067.80 L552.91 2067.80 L552.91 2067.80 L552.91 2067.80 L552.91 2067.80 L552.91 2067.80 L552.91 2067.80 L552.91 2067.80 L552.91 2067.80 L552.91 2067.80 L552.91 2067.80 L552.91 2067.80 L552.91 2067.80 L552.91 2067.80 L552.91 2067.80 L552.91 2067.80 L552.91 2067.80 L552.91 2067.80 L552.91 2067.80 L552.91 2067.80 L552.91 2067.80 L552.91 2067.80 L552.91 2067.80 L552.91 2067.80 L552.91 2067.80 L552.91 2067.80 L552.91 2067.80 L552.91 2067.80 L552.91 2067.80 L552.91 2067.80 L552.91 2067.80 L552.91 2067.80 L552.91 2067.80 L552.91 2067.80 L552.91 2067.80 L552.91 2067.80 L552.91 2067.80 L552.91 2067.80 L552.91 2067.80 L552.91 2067.80 L552.91 2067.80 L552.91 2067.80 L552.91 2067.80 L552.91 2067.80 L552.91 2067.80 L552.91 2067.80 L552.91 2067.80 L552.91 2067.80 L552.91 2067.80 L552.91 2067.80 L552.91 2067.80 L552.91 2067.80 L552.91 2067.80 L552.91 2067.80 L552.91 2067.80 L552.91 2067.80 L552.91 2067.80 L552.91 2067.80 L552.91 2067.80 L552.91 2067.80 L552.91 2067.80 L552.91 2067.80 L552.91 2067.80 L552.91 2067.80 L552.91 2067.80 L552.91 2067.80 L552.91 2067.80 L561.08 2067.80 L561.08 2025.85 L561.08 2025.85 L561.08 2025.85 L561.08 2025.85 L561.08 2025.85 L561.08 2025.85 L561.08 2025.85 L561.08 2025.85 L561.08 2025.85 L561.08 2025.85 L561.08 2025.85 L561.08 2025.85 L561.08 2025.85 L561.08 2025.85 L561.08 2025.85 L561.08 2025.85 L561.08 2025.85 L561.08 2025.85 L561.08 2025.85 L561.08 2025.85 L561.08 2025.85 L561.08 2025.85 L561.08 2025.85 L561.08 2025.85 L561.08 2025.85 L561.08 2025.85 L561.08 2025.85 L561.08 2025.85 L561.08 2025.85 L561.08 2025.85 L561.08 2025.85 L561.08 2025.85 L561.08 2025.85 L561.08 2025.85 L561.08 2025.85 L561.08 2025.85 L561.08 2025.85 L561.08 2025.85 L561.08 2025.85 L561.08 2025.85 L561.08 2025.85 L561.08 2025.85 L561.08 2025.85 L561.08 2025.85 L561.08 2025.85 L561.08 2025.85 L561.08 2025.85 L561.08 2025.85 L561.08 2025.85 L561.08 2025.85 L561.08 2025.85 L561.08 2025.85 L561.08 2025.85 L561.08 2025.85 L561.08 2025.85 L561.08 2025.85 L561.08 2025.85 L561.08 2025.85 L561.08 2025.85 L561.08 2025.85 L561.08 2025.85 L561.08 2025.85 L561.08 2025.85 L561.08 2025.85 L561.08 2025.85 L561.08 2025.85 L561.08 2025.85 L561.08 2025.85 L561.08 2025.85 L561.08 2025.85 L561.08 2025.85 L561.08 2025.85 L561.08 2025.85 L561.08 2025.85 L561.08 2025.85 L561.08 2025.85 L561.08 2025.85 L561.08 2025.85 L561.08 2025.85 L561.08 2025.85 L561.08 2025.85 L561.08 2025.85 L561.08 2025.85 L561.08 2025.85 L561.08 2025.85 L561.08 2025.85 L561.08 2025.85 L561.08 2025.85 L561.08 2025.85 L561.08 2025.85 L561.08 2025.85 L561.08 2025.85 L561.08 2025.85 L569.25 2025.85 L569.25 1984.27 L569.25 1984.27 L569.25 1984.27 L569.25 1984.27 L569.25 1984.27 L569.25 1984.27 L569.25 1984.27 L569.25 1984.27 L569.25 1984.27 L569.25 1984.27 L569.25 1984.27 L569.25 1984.27 L569.25 1984.27 L569.25 1984.27 L569.25 1984.27 L569.25 1984.27 L569.25 1984.27 L569.25 1984.27 L569.25 1984.27 L569.25 1984.27 L569.25 1984.27 L569.25 1984.27 L569.25 1984.27 L569.25 1984.27 L569.25 1984.27 L569.25 1984.27 L569.25 1984.27 L569.25 1984.27 L569.25 1984.27 L569.25 1984.27 L569.25 1984.27 L569.25 1984.27 L569.25 1984.27 L569.25 1984.27 L569.25 1984.27 L569.25 1984.27 L569.25 1984.27 L569.25 1984.27 L569.25 1984.27 L569.25 1984.27 L569.25 1984.27 L569.25 1984.27 L569.25 1984.27 L569.25 1984.27 L569.25 1984.27 L569.25 1984.27 L569.25 1984.27 L569.25 1984.27 L569.25 1984.27 L569.25 1984.27 L569.25 1984.27 L569.25 1984.27 L569.25 1984.27 L569.25 1984.27 L569.25 1984.27 L569.25 1984.27 L569.25 1984.27 L569.25 1984.27 L569.25 1984.27 L569.25 1984.27 L569.25 1984.27 L569.25 1984.27 L569.25 1984.27 L569.25 1984.27 L569.25 1984.27 L569.25 1984.27 L569.25 1984.27 L569.25 1984.27 L569.25 1984.27 L569.25 1984.27 L569.25 1984.27 L569.25 1984.27 L569.25 1984.27 L569.25 1984.27 L569.25 1984.27 L569.25 1984.27 L569.25 1984.27 L569.25 1984.27 L569.25 1984.27 L569.25 1984.27 L569.25 1984.27 L569.25 1984.27 L569.25 1984.27 L569.25 1984.27 L569.25 1984.27 L569.25 1984.27 L569.25 1984.27 L569.25 1984.27 L569.25 1984.27 L569.25 1984.27 L569.25 1984.27 L577.42 1984.27 L577.42 1951.35 L577.42 1951.35 L577.42 1951.35 L577.42 1951.35 L577.42 1951.35 L577.42 1951.35 L577.42 1951.35 L577.42 1951.35 L577.42 1951.35 L577.42 1951.35 L577.42 1951.35 L577.42 1951.35 L577.42 1951.35 L577.42 1951.35 L577.42 1951.35 L577.42 1951.35 L577.42 1951.35 L577.42 1951.35 L577.42 1951.35 L577.42 1951.35 L577.42 1951.35 L577.42 1951.35 L577.42 1951.35 L577.42 1951.35 L577.42 1951.35 L577.42 1951.35 L577.42 1951.35 L577.42 1951.35 L577.42 1951.35 L577.42 1951.35 L577.42 1951.35 L577.42 1951.35 L577.42 1951.35 L577.42 1951.35 L577.42 1951.35 L577.42 1951.35 L577.42 1951.35 L577.42 1951.35 L577.42 1951.35 L577.42 1951.35 L577.42 1951.35 L577.42 1951.35 L577.42 1951.35 L577.42 1951.35 L577.42 1951.35 L577.42 1951.35 L577.42 1951.35 L577.42 1951.35 L577.42 1951.35 L577.42 1951.35 L577.42 1951.35 L577.42 1951.35 L577.42 1951.35 L577.42 1951.35 L577.42 1951.35 L577.42 1951.35 L577.42 1951.35 L577.42 1951.35 L577.42 1951.35 L577.42 1951.35 L577.42 1951.35 L577.42 1951.35 L577.42 1951.35 L577.42 1951.35 L577.42 1951.35 L577.42 1951.35 L577.42 1951.35 L577.42 1951.35 L577.42 1951.35 L577.42 1951.35 L577.42 1951.35 L585.59 1951.35 L585.59 1917.07 L585.59 1917.07 L585.59 1917.07 L585.59 1917.07 L585.59 1917.07 L585.59 1917.07 L585.59 1917.07 L585.59 1917.07 L585.59 1917.07 L585.59 1917.07 L585.59 1917.07 L585.59 1917.07 L585.59 1917.07 L585.59 1917.07 L585.59 1917.07 L585.59 1917.07 L585.59 1917.07 L585.59 1917.07 L585.59 1917.07 L585.59 1917.07 L585.59 1917.07 L585.59 1917.07 L585.59 1917.07 L585.59 1917.07 L585.59 1917.07 L585.59 1917.07 L585.59 1917.07 L585.59 1917.07 L585.59 1917.07 L585.59 1917.07 L585.59 1917.07 L585.59 1917.07 L585.59 1917.07 L585.59 1917.07 L585.59 1917.07 L585.59 1917.07 L585.59 1917.07 L585.59 1917.07 L585.59 1917.07 L585.59 1917.07 L585.59 1917.07 L585.59 1917.07 L585.59 1917.07 L585.59 1917.07 L585.59 1917.07 L585.59 1917.07 L585.59 1917.07 L585.59 1917.07 L585.59 1917.07 L585.59 1917.07 L585.59 1917.07 L585.59 1917.07 L585.59 1917.07 L585.59 1917.07 L585.59 1917.07 L585.59 1917.07 L585.59 1917.07 L585.59 1917.07 L585.59 1917.07 L585.59 1917.07 L585.59 1917.07 L585.59 1917.07 L585.59 1917.07 L585.59 1917.07 L585.59 1917.07 L585.59 1917.07 L585.59 1917.07 L585.59 1917.07 L585.59 1917.07 L585.59 1917.07 L585.59 1917.07 L585.59 1917.07 L585.59 1917.07 L593.75 1917.07 L593.75 1889.85 L593.75 1889.85 L593.75 1889.85 L593.75 1889.85 L593.75 1889.85 L593.75 1889.85 L593.75 1889.85 L593.75 1889.85 L593.75 1889.85 L593.75 1889.85 L593.75 1889.85 L593.75 1889.85 L593.75 1889.85 L593.75 1889.85 L593.75 1889.85 L593.75 1889.85 L593.75 1889.85 L593.75 1889.85 L593.75 1889.85 L593.75 1889.85 L593.75 1889.85 L593.75 1889.85 L593.75 1889.85 L593.75 1889.85 L593.75 1889.85 L593.75 1889.85 L593.75 1889.85 L593.75 1889.85 L593.75 1889.85 L593.75 1889.85 L593.75 1889.85 L593.75 1889.85 L593.75 1889.85 L593.75 1889.85 L593.75 1889.85 L593.75 1889.85 L593.75 1889.85 L593.75 1889.85 L593.75 1889.85 L593.75 1889.85 L593.75 1889.85 L593.75 1889.85 L593.75 1889.85 L593.75 1889.85 L593.75 1889.85 L593.75 1889.85 L593.75 1889.85 L593.75 1889.85 L593.75 1889.85 L593.75 1889.85 L593.75 1889.85 L593.75 1889.85 L593.75 1889.85 L593.75 1889.85 L593.75 1889.85 L593.75 1889.85 L593.75 1889.85 L601.92 1889.85 L601.92 1857.42 L601.92 1857.42 L601.92 1857.42 L601.92 1857.42 L601.92 1857.42 L601.92 1857.42 L601.92 1857.42 L601.92 1857.42 L601.92 1857.42 L601.92 1857.42 L601.92 1857.42 L601.92 1857.42 L601.92 1857.42 L601.92 1857.42 L601.92 1857.42 L601.92 1857.42 L601.92 1857.42 L601.92 1857.42 L601.92 1857.42 L601.92 1857.42 L601.92 1857.42 L601.92 1857.42 L601.92 1857.42 L601.92 1857.42 L601.92 1857.42 L601.92 1857.42 L601.92 1857.42 L601.92 1857.42 L601.92 1857.42 L601.92 1857.42 L601.92 1857.42 L601.92 1857.42 L601.92 1857.42 L601.92 1857.42 L601.92 1857.42 L601.92 1857.42 L601.92 1857.42 L601.92 1857.42 L601.92 1857.42 L601.92 1857.42 L601.92 1857.42 L601.92 1857.42 L601.92 1857.42 L601.92 1857.42 L601.92 1857.42 L601.92 1857.42 L601.92 1857.42 L601.92 1857.42 L601.92 1857.42 L601.92 1857.42 L601.92 1857.42 L601.92 1857.42 L601.92 1857.42 L601.92 1857.42 L601.92 1857.42 L601.92 1857.42 L601.92 1857.42 L601.92 1857.42 L601.92 1857.42 L601.92 1857.42 L601.92 1857.42 L601.92 1857.42 L601.92 1857.42 L601.92 1857.42 L601.92 1857.42 L601.92 1857.42 L601.92 1857.42 L610.09 1857.42 L610.09 1828.71 L610.09 1828.71 L610.09 1828.71 L610.09 1828.71 L610.09 1828.71 L610.09 1828.71 L610.09 1828.71 L610.09 1828.71 L610.09 1828.71 L610.09 1828.71 L610.09 1828.71 L610.09 1828.71 L610.09 1828.71 L610.09 1828.71 L610.09 1828.71 L610.09 1828.71 L610.09 1828.71 L610.09 1828.71 L610.09 1828.71 L610.09 1828.71 L610.09 1828.71 L610.09 1828.71 L610.09 1828.71 L610.09 1828.71 L610.09 1828.71 L610.09 1828.71 L610.09 1828.71 L610.09 1828.71 L610.09 1828.71 L610.09 1828.71 L610.09 1828.71 L610.09 1828.71 L610.09 1828.71 L610.09 1828.71 L610.09 1828.71 L610.09 1828.71 L610.09 1828.71 L610.09 1828.71 L610.09 1828.71 L610.09 1828.71 L610.09 1828.71 L610.09 1828.71 L610.09 1828.71 L610.09 1828.71 L610.09 1828.71 L610.09 1828.71 L610.09 1828.71 L610.09 1828.71 L610.09 1828.71 L610.09 1828.71 L610.09 1828.71 L610.09 1828.71 L610.09 1828.71 L610.09 1828.71 L610.09 1828.71 L610.09 1828.71 L610.09 1828.71 L610.09 1828.71 L610.09 1828.71 L618.25 1828.71 L618.25 1807.43 L618.25 1807.43 L618.25 1807.43 L618.25 1807.43 L618.25 1807.43 L618.25 1807.43 L618.25 1807.43 L618.25 1807.43 L618.25 1807.43 L618.25 1807.43 L618.25 1807.43 L618.25 1807.43 L618.25 1807.43 L618.25 1807.43 L618.25 1807.43 L618.25 1807.43 L618.25 1807.43 L618.25 1807.43 L618.25 1807.43 L618.25 1807.43 L618.25 1807.43 L618.25 1807.43 L618.25 1807.43 L618.25 1807.43 L618.25 1807.43 L618.25 1807.43 L618.25 1807.43 L618.25 1807.43 L618.25 1807.43 L618.25 1807.43 L618.25 1807.43 L618.25 1807.43 L618.25 1807.43 L618.25 1807.43 L618.25 1807.43 L618.25 1807.43 L618.25 1807.43 L618.25 1807.43 L618.25 1807.43 L618.25 1807.43 L618.25 1807.43 L618.25 1807.43 L618.25 1807.43 L626.42 1807.43 L626.42 1787.87 L626.42 1787.87 L626.42 1787.87 L626.42 1787.87 L626.42 1787.87 L626.42 1787.87 L626.42 1787.87 L626.42 1787.87 L626.42 1787.87 L626.42 1787.87 L626.42 1787.87 L626.42 1787.87 L626.42 1787.87 L626.42 1787.87 L626.42 1787.87 L626.42 1787.87 L626.42 1787.87 L626.42 1787.87 L626.42 1787.87 L626.42 1787.87 L626.42 1787.87 L626.42 1787.87 L626.42 1787.87 L626.42 1787.87 L626.42 1787.87 L626.42 1787.87 L626.42 1787.87 L626.42 1787.87 L626.42 1787.87 L626.42 1787.87 L626.42 1787.87 L626.42 1787.87 L626.42 1787.87 L626.42 1787.87 L626.42 1787.87 L626.42 1787.87 L626.42 1787.87 L626.42 1787.87 L626.42 1787.87 L634.59 1787.87 L634.59 1765.97 L634.59 1765.97 L634.59 1765.97 L634.59 1765.97 L634.59 1765.97 L634.59 1765.97 L634.59 1765.97 L634.59 1765.97 L634.59 1765.97 L634.59 1765.97 L634.59 1765.97 L634.59 1765.97 L634.59 1765.97 L634.59 1765.97 L634.59 1765.97 L634.59 1765.97 L634.59 1765.97 L634.59 1765.97 L634.59 1765.97 L634.59 1765.97 L634.59 1765.97 L634.59 1765.97 L634.59 1765.97 L634.59 1765.97 L634.59 1765.97 L634.59 1765.97 L634.59 1765.97 L634.59 1765.97 L634.59 1765.97 L634.59 1765.97 L634.59 1765.97 L634.59 1765.97 L634.59 1765.97 L634.59 1765.97 L634.59 1765.97 L634.59 1765.97 L634.59 1765.97 L634.59 1765.97 L634.59 1765.97 L634.59 1765.97 L634.59 1765.97 L634.59 1765.97 L634.59 1765.97 L642.76 1765.97 L642.76 1741.84 L642.76 1741.84 L642.76 1741.84 L642.76 1741.84 L642.76 1741.84 L642.76 1741.84 L642.76 1741.84 L642.76 1741.84 L642.76 1741.84 L642.76 1741.84 L642.76 1741.84 L642.76 1741.84 L642.76 1741.84 L642.76 1741.84 L642.76 1741.84 L642.76 1741.84 L642.76 1741.84 L642.76 1741.84 L642.76 1741.84 L642.76 1741.84 L642.76 1741.84 L642.76 1741.84 L642.76 1741.84 L642.76 1741.84 L642.76 1741.84 L642.76 1741.84 L642.76 1741.84 L642.76 1741.84 L642.76 1741.84 L642.76 1741.84 L642.76 1741.84 L642.76 1741.84 L642.76 1741.84 L642.76 1741.84 L642.76 1741.84 L642.76 1741.84 L642.76 1741.84 L642.76 1741.84 L642.76 1741.84 L642.76 1741.84 L642.76 1741.84 L642.76 1741.84 L642.76 1741.84 L642.76 1741.84 L642.76 1741.84 L642.76 1741.84 L642.76 1741.84 L650.92 1741.84 L650.92 1723.40 L650.92 1723.40 L650.92 1723.40 L650.92 1723.40 L650.92 1723.40 L650.92 1723.40 L650.92 1723.40 L650.92 1723.40 L650.92 1723.40 L650.92 1723.40 L650.92 1723.40 L650.92 1723.40 L650.92 1723.40 L650.92 1723.40 L650.92 1723.40 L650.92 1723.40 L650.92 1723.40 L650.92 1723.40 L650.92 1723.40 L650.92 1723.40 L650.92 1723.40 L650.92 1723.40 L650.92 1723.40 L650.92 1723.40 L650.92 1723.40 L650.92 1723.40 L650.92 1723.40 L650.92 1723.40 L650.92 1723.40 L650.92 1723.40 L650.92 1723.40 L650.92 1723.40 L650.92 1723.40 L650.92 1723.40 L650.92 1723.40 L659.09 1723.40 L659.09 1708.92 L659.09 1708.92 L659.09 1708.92 L659.09 1708.92 L659.09 1708.92 L659.09 1708.92 L659.09 1708.92 L659.09 1708.92 L659.09 1708.92 L659.09 1708.92 L659.09 1708.92 L659.09 1708.92 L659.09 1708.92 L659.09 1708.92 L659.09 1708.92 L659.09 1708.92 L659.09 1708.92 L659.09 1708.92 L659.09 1708.92 L659.09 1708.92 L659.09 1708.92 L659.09 1708.92 L659.09 1708.92 L659.09 1708.92 L659.09 1708.92 L659.09 1708.92 L659.09 1708.92 L667.26 1708.92 L667.26 1688.00 L667.26 1688.00 L667.26 1688.00 L667.26 1688.00 L667.26 1688.00 L667.26 1688.00 L667.26 1688.00 L667.26 1688.00 L667.26 1688.00 L667.26 1688.00 L667.26 1688.00 L667.26 1688.00 L667.26 1688.00 L667.26 1688.00 L667.26 1688.00 L667.26 1688.00 L667.26 1688.00 L667.26 1688.00 L667.26 1688.00 L667.26 1688.00 L667.26 1688.00 L667.26 1688.00 L667.26 1688.00 L667.26 1688.00 L667.26 1688.00 L667.26 1688.00 L667.26 1688.00 L667.26 1688.00 L667.26 1688.00 L667.26 1688.00 L667.26 1688.00 L667.26 1688.00 L667.26 1688.00 L667.26 1688.00 L667.26 1688.00 L667.26 1688.00 L667.26 1688.00 L667.26 1688.00 L667.26 1688.00 L675.43 1688.00 L675.43 1677.36 L675.43 1677.36 L675.43 1677.36 L675.43 1677.36 L675.43 1677.36 L675.43 1677.36 L675.43 1677.36 L675.43 1677.36 L675.43 1677.36 L675.43 1677.36 L675.43 1677.36 L675.43 1677.36 L675.43 1677.36 L675.43 1677.36 L675.43 1677.36 L675.43 1677.36 L675.43 1677.36 L675.43 1677.36 L675.43 1677.36 L683.60 1677.36 L683.60 1668.82 L683.60 1668.82 L683.60 1668.82 L683.60 1668.82 L683.60 1668.82 L683.60 1668.82 L683.60 1668.82 L683.60 1668.82 L683.60 1668.82 L683.60 1668.82 L683.60 1668.82 L683.60 1668.82 L683.60 1668.82 L683.60 1668.82 L683.60 1668.82 L691.76 1668.82 L691.76 1651.50 L691.76 1651.50 L691.76 1651.50 L691.76 1651.50 L691.76 1651.50 L691.76 1651.50 L691.76 1651.50 L691.76 1651.50 L691.76 1651.50 L691.76 1651.50 L691.76 1651.50 L691.76 1651.50 L691.76 1651.50 L691.76 1651.50 L691.76 1651.50 L691.76 1651.50 L691.76 1651.50 L691.76 1651.50 L691.76 1651.50 L691.76 1651.50 L691.76 1651.50 L691.76 1651.50 L691.76 1651.50 L691.76 1651.50 L691.76 1651.50 L691.76 1651.50 L691.76 1651.50 L691.76 1651.50 L691.76 1651.50 L691.76 1651.50 L691.76 1651.50 L699.93 1651.50 L699.93 1641.60 L699.93 1641.60 L699.93 1641.60 L699.93 1641.60 L699.93 1641.60 L699.93 1641.60 L699.93 1641.60 L699.93 1641.60 L699.93 1641.60 L699.93 1641.60 L699.93 1641.60 L699.93 1641.60 L699.93 1641.60 L699.93 1641.60 L699.93 1641.60 L699.93 1641.60 L699.93 1641.60 L708.10 1641.60 L708.10 1631.57 L708.10 1631.57 L708.10 1631.57 L708.10 1631.57 L708.10 1631.57 L708.10 1631.57 L708.10 1631.57 L708.10 1631.57 L708.10 1631.57 L708.10 1631.57 L708.10 1631.57 L708.10 1631.57 L708.10 1631.57 L708.10 1631.57 L708.10 1631.57 L708.10 1631.57 L708.10 1631.57 L716.26 1631.57 L716.26 1619.07 L716.26 1619.07 L716.26 1619.07 L716.26 1619.07 L716.26 1619.07 L716.26 1619.07 L716.26 1619.07 L716.26 1619.07 L716.26 1619.07 L716.26 1619.07 L716.26 1619.07 L716.26 1619.07 L716.26 1619.07 L716.26 1619.07 L716.26 1619.07 L716.26 1619.07 L716.26 1619.07 L716.26 1619.07 L716.26 1619.07 L716.26 1619.07 L716.26 1619.07 L724.43 1619.07 L724.43 1611.15 L724.43 1611.15 L724.43 1611.15 L724.43 1611.15 L724.43 1611.15 L724.43 1611.15 L724.43 1611.15 L724.43 1611.15 L724.43 1611.15 L724.43 1611.15 L724.43 1611.15 L724.43 1611.15 L724.43 1611.15 L732.60 1611.15 L732.60 1604.22 L732.60 1604.22 L732.60 1604.22 L732.60 1604.22 L732.60 1604.22 L732.60 1604.22 L732.60 1604.22 L732.60 1604.22 L732.60 1604.22 L732.60 1604.22 L732.60 1604.22 L740.77 1604.22 L740.77 1594.94 L740.77 1594.94 L740.77 1594.94 L740.77 1594.94 L740.77 1594.94 L740.77 1594.94 L740.77 1594.94 L740.77 1594.94 L740.77 1594.94 L740.77 1594.94 L740.77 1594.94 L740.77 1594.94 L740.77 1594.94 L740.77 1594.94 L740.77 1594.94 L748.93 1594.94 L748.93 1585.41 L748.93 1585.41 L748.93 1585.41 L748.93 1585.41 L748.93 1585.41 L748.93 1585.41 L748.93 1585.41 L748.93 1585.41 L748.93 1585.41 L748.93 1585.41 L748.93 1585.41 L748.93 1585.41 L748.93 1585.41 L748.93 1585.41 L748.93 1585.41 L757.10 1585.41 L757.10 1578.23 L757.10 1578.23 L757.10 1578.23 L757.10 1578.23 L757.10 1578.23 L757.10 1578.23 L757.10 1578.23 L757.10 1578.23 L757.10 1578.23 L757.10 1578.23 L757.10 1578.23 L765.27 1578.23 L765.27 1572.17 L765.27 1572.17 L765.27 1572.17 L765.27 1572.17 L765.27 1572.17 L765.27 1572.17 L765.27 1572.17 L765.27 1572.17 L765.27 1572.17 L773.44 1572.17 L773.44 1563.51 L773.44 1563.51 L773.44 1563.51 L773.44 1563.51 L773.44 1563.51 L773.44 1563.51 L773.44 1563.51 L773.44 1563.51 L773.44 1563.51 L773.44 1563.51 L773.44 1563.51 L773.44 1563.51 L773.44 1563.51 L781.61 1563.51 L781.61 1551.13 L781.61 1551.13 L781.61 1551.13 L781.61 1551.13 L781.61 1551.13 L781.61 1551.13 L781.61 1551.13 L781.61 1551.13 L781.61 1551.13 L781.61 1551.13 L781.61 1551.13 L781.61 1551.13 L781.61 1551.13 L781.61 1551.13 L781.61 1551.13 L781.61 1551.13 L781.61 1551.13 L781.61 1551.13 L781.61 1551.13 L789.77 1551.13 L789.77 1542.47 L789.77 1542.47 L789.77 1542.47 L789.77 1542.47 L789.77 1542.47 L789.77 1542.47 L789.77 1542.47 L789.77 1542.47 L789.77 1542.47 L789.77 1542.47 L789.77 1542.47 L789.77 1542.47 L789.77 1542.47 L797.94 1542.47 L797.94 1537.39 L797.94 1537.39 L797.94 1537.39 L797.94 1537.39 L797.94 1537.39 L797.94 1537.39 L797.94 1537.39 L806.11 1537.39 L806.11 1531.08 L806.11 1531.08 L806.11 1531.08 L806.11 1531.08 L806.11 1531.08 L806.11 1531.08 L806.11 1531.08 L806.11 1531.08 L806.11 1531.08 L814.27 1531.08 L814.27 1520.69 L814.27 1520.69 L814.27 1520.69 L814.27 1520.69 L814.27 1520.69 L814.27 1520.69 L814.27 1520.69 L814.27 1520.69 L814.27 1520.69 L814.27 1520.69 L814.27 1520.69 L814.27 1520.69 L814.27 1520.69 L814.27 1520.69 L814.27 1520.69 L822.44 1520.69 L822.44 1507.69 L822.44 1507.69 L822.44 1507.69 L822.44 1507.69 L822.44 1507.69 L822.44 1507.69 L822.44 1507.69 L822.44 1507.69 L822.44 1507.69 L822.44 1507.69 L822.44 1507.69 L822.44 1507.69 L822.44 1507.69 L822.44 1507.69 L822.44 1507.69 L822.44 1507.69 L822.44 1507.69 L822.44 1507.69 L822.44 1507.69 L830.61 1507.69 L830.61 1497.17 L830.61 1497.17 L830.61 1497.17 L830.61 1497.17 L830.61 1497.17 L830.61 1497.17 L830.61 1497.17 L830.61 1497.17 L830.61 1497.17 L830.61 1497.17 L830.61 1497.17 L830.61 1497.17 L830.61 1497.17 L830.61 1497.17 L830.61 1497.17 L838.78 1497.17 L838.78 1486.66 L838.78 1486.66 L838.78 1486.66 L838.78 1486.66 L838.78 1486.66 L838.78 1486.66 L838.78 1486.66 L838.78 1486.66 L838.78 1486.66 L838.78 1486.66 L838.78 1486.66 L838.78 1486.66 L838.78 1486.66 L838.78 1486.66 L838.78 1486.66 L846.95 1486.66 L846.95 1484.06 L846.95 1484.06 L846.95 1484.06 L855.11 1484.06 L855.11 1473.41 L855.11 1473.41 L855.11 1473.41 L855.11 1473.41 L855.11 1473.41 L855.11 1473.41 L855.11 1473.41 L855.11 1473.41 L855.11 1473.41 L855.11 1473.41 L855.11 1473.41 L855.11 1473.41 L855.11 1473.41 L855.11 1473.41 L855.11 1473.41 L863.28 1473.41 L863.28 1465.25 L863.28 1465.25 L863.28 1465.25 L863.28 1465.25 L863.28 1465.25 L863.28 1465.25 L863.28 1465.25 L863.28 1465.25 L863.28 1465.25 L863.28 1465.25 L863.28 1465.25 L871.45 1465.25 L871.45 1455.72 L871.45 1455.72 L871.45 1455.72 L871.45 1455.72 L871.45 1455.72 L871.45 1455.72 L871.45 1455.72 L871.45 1455.72 L871.45 1455.72 L871.45 1455.72 L871.45 1455.72 L871.45 1455.72 L871.45 1455.72 L879.62 1455.72 L879.62 1448.91 L879.62 1448.91 L879.62 1448.91 L879.62 1448.91 L879.62 1448.91 L879.62 1448.91 L879.62 1448.91 L879.62 1448.91 L879.62 1448.91 L887.78 1448.91 L887.78 1440.62 L887.78 1440.62 L887.78 1440.62 L887.78 1440.62 L887.78 1440.62 L887.78 1440.62 L887.78 1440.62 L887.78 1440.62 L887.78 1440.62 L887.78 1440.62 L887.78 1440.62 L895.95 1440.62 L895.95 1432.20 L895.95 1432.20 L895.95 1432.20 L895.95 1432.20 L895.95 1432.20 L895.95 1432.20 L895.95 1432.20 L895.95 1432.20 L895.95 1432.20 L895.95 1432.20 L895.95 1432.20 L904.12 1432.20 L904.12 1428.00 L904.12 1428.00 L904.12 1428.00 L904.12 1428.00 L904.12 1428.00 L912.28 1428.00 L912.28 1423.79 L912.28 1423.79 L912.28 1423.79 L912.28 1423.79 L912.28 1423.79 L920.45 1423.79 L920.45 1415.25 L920.45 1415.25 L920.45 1415.25 L920.45 1415.25 L920.45 1415.25 L920.45 1415.25 L920.45 1415.25 L920.45 1415.25 L920.45 1415.25 L920.45 1415.25 L920.45 1415.25 L928.62 1415.25 L928.62 1407.95 L928.62 1407.95 L928.62 1407.95 L928.62 1407.95 L928.62 1407.95 L928.62 1407.95 L928.62 1407.95 L928.62 1407.95 L928.62 1407.95 L936.79 1407.95 L936.79 1400.77 L936.79 1400.77 L936.79 1400.77 L936.79 1400.77 L936.79 1400.77 L936.79 1400.77 L936.79 1400.77 L936.79 1400.77 L936.79 1400.77 L944.96 1400.77 L944.96 1396.31 L944.96 1396.31 L944.96 1396.31 L944.96 1396.31 L944.96 1396.31 L953.12 1396.31 L953.12 1389.01 L953.12 1389.01 L953.12 1389.01 L953.12 1389.01 L953.12 1389.01 L953.12 1389.01 L953.12 1389.01 L953.12 1389.01 L953.12 1389.01 L961.29 1389.01 L961.29 1386.04 L961.29 1386.04 L961.29 1386.04 L969.46 1386.04 L969.46 1384.56 L977.62 1384.56 L977.62 1383.07 L985.79 1383.07 L985.79 1375.52 L985.79 1375.52 L985.79 1375.52 L985.79 1375.52 L985.79 1375.52 L985.79 1375.52 L985.79 1375.52 L985.79 1375.52 L985.79 1375.52 L993.96 1375.52 L993.96 1366.49 L993.96 1366.49 L993.96 1366.49 L993.96 1366.49 L993.96 1366.49 L993.96 1366.49 L993.96 1366.49 L993.96 1366.49 L993.96 1366.49 L993.96 1366.49 L993.96 1366.49 L1002.13 1366.49 L1002.13 1360.30 L1002.13 1360.30 L1002.13 1360.30 L1002.13 1360.30 L1002.13 1360.30 L1002.13 1360.30 L1002.13 1360.30 L1010.29 1360.30 L1010.29 1354.11 L1010.29 1354.11 L1010.29 1354.11 L1010.29 1354.11 L1010.29 1354.11 L1010.29 1354.11 L1010.29 1354.11 L1018.46 1354.11 L1018.46 1352.63 L1026.63 1352.63 L1026.63 1347.93 L1026.63 1347.93 L1026.63 1347.93 L1026.63 1347.93 L1026.63 1347.93 L1034.80 1347.93 L1034.80 1338.52 L1034.80 1338.52 L1034.80 1338.52 L1034.80 1338.52 L1034.80 1338.52 L1034.80 1338.52 L1034.80 1338.52 L1034.80 1338.52 L1034.80 1338.52 L1034.80 1338.52 L1034.80 1338.52 L1042.96 1338.52 L1042.96 1327.38 L1042.96 1327.38 L1042.96 1327.38 L1042.96 1327.38 L1042.96 1327.38 L1042.96 1327.38 L1042.96 1327.38 L1042.96 1327.38 L1042.96 1327.38 L1042.96 1327.38 L1042.96 1327.38 L1042.96 1327.38 L1042.96 1327.38 L1051.13 1327.38 L1051.13 1319.34 L1051.13 1319.34 L1051.13 1319.34 L1051.13 1319.34 L1051.13 1319.34 L1051.13 1319.34 L1051.13 1319.34 L1051.13 1319.34 L1051.13 1319.34 L1059.30 1319.34 L1059.30 1309.69 L1059.30 1309.69 L1059.30 1309.69 L1059.30 1309.69 L1059.30 1309.69 L1059.30 1309.69 L1059.30 1309.69 L1059.30 1309.69 L1059.30 1309.69 L1059.30 1309.69 L1059.30 1309.69 L1067.47 1309.69 L1067.47 1301.64 L1067.47 1301.64 L1067.47 1301.64 L1067.47 1301.64 L1067.47 1301.64 L1067.47 1301.64 L1067.47 1301.64 L1067.47 1301.64 L1067.47 1301.64 L1075.63 1301.64 L1075.63 1298.30 L1075.63 1298.30 L1075.63 1298.30 L1083.80 1298.30 L1083.80 1293.35 L1083.80 1293.35 L1083.80 1293.35 L1083.80 1293.35 L1083.80 1293.35 L1091.97 1293.35 L1091.97 1290.01 L1091.97 1290.01 L1091.97 1290.01 L1100.14 1290.01 L1100.14 1286.67 L1100.14 1286.67 L1100.14 1286.67 L1108.31 1286.67 L1108.31 1284.94 L1116.47 1284.94 L1116.47 1274.66 L1116.47 1274.66 L1116.47 1274.66 L1116.47 1274.66 L1116.47 1274.66 L1116.47 1274.66 L1116.47 1274.66 L1116.47 1274.66 L1116.47 1274.66 L1116.47 1274.66 L1116.47 1274.66 L1124.64 1274.66 L1124.64 1269.47 L1124.64 1269.47 L1124.64 1269.47 L1124.64 1269.47 L1124.64 1269.47 L1132.81 1269.47 L1132.81 1262.41 L1132.81 1262.41 L1132.81 1262.41 L1132.81 1262.41 L1132.81 1262.41 L1132.81 1262.41 L1132.81 1262.41 L1140.97 1262.41 L1140.97 1260.68 L1149.14 1260.68 L1149.14 1255.36 L1149.14 1255.36 L1149.14 1255.36 L1149.14 1255.36 L1149.14 1255.36 L1165.48 1255.36 L1165.48 1251.65 L1165.48 1251.65 L1165.48 1251.65 L1173.64 1251.65 L1173.64 1249.79 L1181.81 1249.79 L1181.81 1242.37 L1181.81 1242.37 L1181.81 1242.37 L1181.81 1242.37 L1181.81 1242.37 L1181.81 1242.37 L1181.81 1242.37 L1189.98 1242.37 L1189.98 1238.53 L1189.98 1238.53 L1189.98 1238.53 L1198.15 1238.53 L1198.15 1234.82 L1198.15 1234.82 L1198.15 1234.82 L1206.32 1234.82 L1206.32 1227.02 L1206.32 1227.02 L1206.32 1227.02 L1206.32 1227.02 L1206.32 1227.02 L1206.32 1227.02 L1206.32 1227.02 L1214.48 1227.02 L1214.48 1217.37 L1214.48 1217.37 L1214.48 1217.37 L1214.48 1217.37 L1214.48 1217.37 L1214.48 1217.37 L1214.48 1217.37 L1214.48 1217.37 L1214.48 1217.37 L1222.65 1217.37 L1222.65 1213.41 L1222.65 1213.41 L1222.65 1213.41 L1230.82 1213.41 L1230.82 1207.34 L1230.82 1207.34 L1230.82 1207.34 L1230.82 1207.34 L1230.82 1207.34 L1238.98 1207.34 L1238.98 1203.38 L1238.98 1203.38 L1238.98 1203.38 L1255.32 1203.38 L1255.32 1199.30 L1255.32 1199.30 L1255.32 1199.30 L1263.49 1199.30 L1263.49 1197.19 L1271.65 1197.19 L1271.65 1186.68 L1271.65 1186.68 L1271.65 1186.68 L1271.65 1186.68 L1271.65 1186.68 L1271.65 1186.68 L1271.65 1186.68 L1271.65 1186.68 L1271.65 1186.68 L1279.82 1186.68 L1279.82 1182.47 L1279.82 1182.47 L1279.82 1182.47 L1287.99 1182.47 L1287.99 1180.36 L1296.16 1180.36 L1296.16 1176.03 L1296.16 1176.03 L1296.16 1176.03 L1304.33 1176.03 L1304.33 1169.60 L1304.33 1169.60 L1304.33 1169.60 L1304.33 1169.60 L1304.33 1169.60 L1312.49 1169.60 L1312.49 1163.04 L1312.49 1163.04 L1312.49 1163.04 L1312.49 1163.04 L1312.49 1163.04 L1320.66 1163.04 L1320.66 1158.58 L1320.66 1158.58 L1320.66 1158.58 L1336.99 1158.58 L1336.99 1156.36 L1345.16 1156.36 L1345.16 1154.13 L1353.33 1154.13 L1353.33 1144.97 L1353.33 1144.97 L1353.33 1144.97 L1353.33 1144.97 L1353.33 1144.97 L1353.33 1144.97 L1353.33 1144.97 L1361.50 1144.97 L1361.50 1133.59 L1361.50 1133.59 L1361.50 1133.59 L1361.50 1133.59 L1361.50 1133.59 L1361.50 1133.59 L1361.50 1133.59 L1361.50 1133.59 L1361.50 1133.59 L1369.66 1133.59 L1369.66 1131.23 L1377.83 1131.23 L1377.83 1124.30 L1377.83 1124.30 L1377.83 1124.30 L1377.83 1124.30 L1377.83 1124.30 L1386.00 1124.30 L1386.00 1119.60 L1386.00 1119.60 L1386.00 1119.60 L1394.17 1119.60 L1394.17 1114.90 L1394.17 1114.90 L1394.17 1114.90 L1402.34 1114.90 L1402.34 1105.37 L1402.34 1105.37 L1402.34 1105.37 L1402.34 1105.37 L1402.34 1105.37 L1402.34 1105.37 L1402.34 1105.37 L1410.50 1105.37 L1410.50 1100.54 L1410.50 1100.54 L1410.50 1100.54 L1418.67 1100.54 L1418.67 1098.19 L1426.84 1098.19 L1426.84 1083.71 L1426.84 1083.71 L1426.84 1083.71 L1426.84 1083.71 L1426.84 1083.71 L1426.84 1083.71 L1426.84 1083.71 L1426.84 1083.71 L1426.84 1083.71 L1426.84 1083.71 L1426.84 1083.71 L1435.01 1083.71 L1435.01 1078.89 L1435.01 1078.89 L1435.01 1078.89 L1443.17 1078.89 L1443.17 1074.06 L1443.17 1074.06 L1443.17 1074.06 L1451.34 1074.06 L1451.34 1071.58 L1467.67 1071.58 L1467.67 1066.63 L1467.67 1066.63 L1467.67 1066.63 L1475.84 1066.63 L1475.84 1061.68 L1475.84 1061.68 L1475.84 1061.68 L1484.01 1061.68 L1484.01 1059.21 L1492.18 1059.21 L1492.18 1044.24 L1492.18 1044.24 L1492.18 1044.24 L1492.18 1044.24 L1492.18 1044.24 L1492.18 1044.24 L1492.18 1044.24 L1492.18 1044.24 L1492.18 1044.24 L1492.18 1044.24 L1492.18 1044.24 L1516.68 1044.24 L1516.68 1041.64 L1524.85 1041.64 L1524.85 1039.16 L1533.02 1039.16 L1533.02 1034.09 L1533.02 1034.09 L1533.02 1034.09 L1541.18 1034.09 L1541.18 1031.49 L1549.35 1031.49 L1549.35 1021.22 L1549.35 1021.22 L1549.35 1021.22 L1549.35 1021.22 L1549.35 1021.22 L1549.35 1021.22 L1549.35 1021.22 L1557.52 1021.22 L1557.52 1018.62 L1573.85 1018.62 L1573.85 1013.54 L1573.85 1013.54 L1573.85 1013.54 L1582.02 1013.54 L1582.02 1008.35 L1582.02 1008.35 L1582.02 1008.35 L1590.19 1008.35 L1590.19 997.95 L1590.19 997.95 L1590.19 997.95 L1590.19 997.95 L1590.19 997.95 L1590.19 997.95 L1590.19 997.95 L1606.52 997.95 L1606.52 990.03 L1606.52 990.03 L1606.52 990.03 L1606.52 990.03 L1606.52 990.03 L1614.69 990.03 L1614.69 982.23 L1614.69 982.23 L1614.69 982.23 L1614.69 982.23 L1614.69 982.23 L1622.86 982.23 L1622.86 979.64 L1631.03 979.64 L1631.03 971.72 L1631.03 971.72 L1631.03 971.72 L1631.03 971.72 L1631.03 971.72 L1639.19 971.72 L1639.19 963.80 L1639.19 963.80 L1639.19 963.80 L1639.19 963.80 L1639.19 963.80 L1647.36 963.80 L1647.36 961.07 L1655.53 961.07 L1655.53 958.47 L1663.69 958.47 L1663.69 955.75 L1671.99 955.75 L1671.99 953.15 L1680.15 953.15 L1680.15 947.83 L1680.15 947.83 L1680.15 947.83 L1696.49 947.83 L1696.49 942.51 L1696.49 942.51 L1696.49 942.51 L1704.66 942.51 L1704.66 934.47 L1704.66 934.47 L1704.66 934.47 L1704.66 934.47 L1704.66 934.47 L1712.82 934.47 L1712.82 929.14 L1712.82 929.14 L1712.82 929.14 L1720.99 929.14 L1720.99 926.42 L1729.16 926.42 L1729.16 920.98 L1729.16 920.98 L1729.16 920.98 L1737.33 920.98 L1737.33 912.93 L1737.33 912.93 L1737.33 912.93 L1737.33 912.93 L1737.33 912.93 L1745.49 912.93 L1745.49 910.21 L1753.66 910.21 L1753.66 902.17 L1753.66 902.17 L1753.66 902.17 L1753.66 902.17 L1753.66 902.17 L1778.16 902.17 L1778.16 896.72 L1778.16 896.72 L1778.16 896.72 L1786.33 896.72 L1786.33 894.12 L1794.50 894.12 L1794.50 891.40 L1802.67 891.40 L1802.67 888.68 L1810.83 888.68 L1810.83 885.95 L1819.00 885.95 L1819.00 880.51 L1819.00 880.51 L1819.00 880.51 L1835.34 880.51 L1835.34 877.79 L1843.50 877.79 L1843.50 875.06 L1868.01 875.06 L1868.01 869.62 L1868.01 869.62 L1868.01 869.62 L1884.34 869.62 L1884.34 866.90 L1892.51 866.90 L1892.51 858.73 L1892.51 858.73 L1892.51 858.73 L1892.51 858.73 L1892.51 858.73 L1900.68 858.73 L1900.68 853.28 L1900.68 853.28 L1900.68 853.28 L1908.84 853.28 L1908.84 850.56 L1917.01 850.56 L1917.01 847.71 L1925.18 847.71 L1925.18 836.82 L1925.18 836.82 L1925.18 836.82 L1925.18 836.82 L1925.18 836.82 L1925.18 836.82 L1925.18 836.82 L1941.51 836.82 L1941.51 831.25 L1941.51 831.25 L1941.51 831.25 L1949.68 831.25 L1949.68 828.53 L1957.85 828.53 L1957.85 823.09 L1957.85 823.09 L1957.85 823.09 L1974.18 823.09 L1974.18 820.24 L1982.35 820.24 L1982.35 817.52 L1990.52 817.52 L1990.52 811.95 L1990.52 811.95 L1990.52 811.95 L1998.69 811.95 L1998.69 809.23 L2006.85 809.23 L2006.85 806.50 L2015.02 806.50 L2015.02 803.66 L2039.52 803.66 L2039.52 798.09 L2039.52 798.09 L2039.52 798.09 L2047.69 798.09 L2047.69 786.95 L2047.69 786.95 L2047.69 786.95 L2047.69 786.95 L2047.69 786.95 L2047.69 786.95 L2047.69 786.95 L2055.86 786.95 L2055.86 781.38 L2055.86 781.38 L2055.86 781.38 L2064.03 781.38 L2064.03 775.81 L2064.03 775.81 L2064.03 775.81 L2072.19 775.81 L2072.19 773.09 L2080.36 773.09 L2080.36 770.24 L2088.53 770.24 L2088.53 767.40 L2096.70 767.40 L2096.70 761.83 L2096.70 761.83 L2096.70 761.83 L2104.86 761.83 L2104.86 758.98 L2113.03 758.98 L2113.03 753.41 L2113.03 753.41 L2113.03 753.41 L2121.20 753.41 L2121.20 747.72 L2121.20 747.72 L2121.20 747.72 L2137.53 747.72 L2137.53 745.00 L2153.87 745.00 L2153.87 742.15 L2162.04 742.15 L2162.04 739.31 L2178.37 739.31 L2178.37 736.46 L2186.54 736.46 L2186.54 727.92 L2186.54 727.92 L2186.54 727.92 L2186.54 727.92 L2186.54 727.92 L2194.71 727.92 L2194.71 724.95 L2219.21 724.95 L2219.21 722.10 L2235.54 722.10 L2235.54 707.62 L2235.54 707.62 L2235.54 707.62 L2235.54 707.62 L2235.54 707.62 L2235.54 707.62 L2235.54 707.62 L2235.54 707.62 L2235.54 707.62 L2251.88 707.62 L2251.88 698.96 L2251.88 698.96 L2251.88 698.96 L2251.88 698.96 L2251.88 698.96 L2260.05 698.96 L2260.05 695.99 L2276.38 695.99 L2276.38 693.15 L2284.55 693.15 L2284.55 690.18 L2292.72 690.18 L2292.72 687.21 L2300.88 687.21 L2300.88 681.27 L2300.88 681.27 L2300.88 681.27 L2317.22 681.27 L2317.22 678.29 L2333.55 678.29 L2333.55 672.35 L2333.55 672.35 L2333.55 672.35 L2341.72 672.35 L2341.72 657.38 L2341.72 657.38 L2341.72 657.38 L2341.72 657.38 L2341.72 657.38 L2341.72 657.38 L2341.72 657.38 L2341.72 657.38 L2341.72 657.38 L2349.89 657.38 L2349.89 654.41 L2358.06 654.41 L2358.06 651.44 L2366.22 651.44 L2366.22 645.38 L2366.22 645.38 L2366.22 645.38 L2374.39 645.38 L2374.39 639.31 L2374.39 639.31 L2374.39 639.31 L2382.56 639.31 L2382.56 636.22 L2390.73 636.22 L2390.73 633.25 L2407.06 633.25 L2407.06 630.15 L2415.23 630.15 L2415.23 627.06 L2423.40 627.06 L2423.40 623.84 L2431.56 623.84 L2431.56 620.75 L2447.90 620.75 L2447.90 617.66 L2456.07 617.66 L2456.07 611.22 L2456.07 611.22 L2456.07 611.22 L2464.23 611.22 L2464.23 608.13 L2472.40 608.13 L2472.40 604.91 L2496.90 604.91 L2496.90 598.47 L2496.90 598.47 L2496.90 598.47 L2505.07 598.47 L2505.07 591.91 L2505.07 591.91 L2505.07 591.91 L2513.24 591.91 L2513.24 588.70 L2521.41 588.70 L2521.41 585.36 L2537.74 585.36 L2537.74 575.33 L2537.74 575.33 L2537.74 575.33 L2537.74 575.33 L2537.74 575.33 L2545.91 575.33 L2545.91 571.99 L2554.08 571.99 L2554.08 565.31 L2554.08 565.31 L2554.08 565.31 L2562.24 565.31 L2562.24 558.50 L2562.24 558.50 L2562.24 558.50 L2570.41 558.50 L2570.41 551.69 L2570.41 551.69 L2570.41 551.69 L2603.08 551.69 L2603.08 544.64 L2603.08 544.64 L2603.08 544.64 L2619.42 544.64 L2619.42 541.05 L2627.58 541.05 L2627.58 537.46 L2635.75 537.46 L2635.75 533.87 L2643.92 533.87 L2643.92 530.16 L2652.09 530.16 L2652.09 522.74 L2652.09 522.74 L2652.09 522.74 L2660.25 522.74 L2660.25 515.19 L2660.25 515.19 L2660.25 515.19 L2668.42 515.19 L2668.42 511.47 L2684.76 511.47 L2684.76 507.64 L2701.09 507.64 L2701.09 503.68 L2717.43 503.68 L2717.43 495.51 L2717.43 495.51 L2717.43 495.51 L2733.76 495.51 L2733.76 491.43 L2750.10 491.43 L2750.10 487.10 L2766.43 487.10 L2766.43 482.64 L2774.60 482.64 L2774.60 473.48 L2774.60 473.48 L2774.60 473.48 L2782.77 473.48 L2782.77 468.90 L2790.93 468.90 L2790.93 464.20 L2799.10 464.20 L2799.10 459.50 L2839.94 459.50 L2839.94 454.05 L2872.61 454.05 L2872.61 441.93 L2872.61 441.93 L2872.61 441.93 L2880.78 441.93 L2880.78 435.61 L2888.94 435.61 L2888.94 429.05 L2962.45 429.05 L2962.45 419.03 L2970.62 419.03 L2970.62 408.14 L2986.95 408.14 L2986.95 394.90 L3035.96 394.90 L3035.96 369.41 L3060.46 369.41 L3060.46 328.94" stroke-linejoin="round" style="fill:none;stroke:#90353B;stroke-width:8.64"/>
	<line x1="465.05" y1="2233.63" x2="465.05" y2="100.86" style="stroke:#000000;stroke-width:5.76"/>
	<line x1="465.05" y1="2170.27" x2="425.08" y2="2170.27" style="stroke:#000000;stroke-width:5.76"/>
	<text x="405.03" y="2205.30" style="font-family:'Helvetica';font-size:99.99px;fill:#000000" text-anchor="end">0</text>
	<line x1="465.05" y1="1501.63" x2="425.08" y2="1501.63" style="stroke:#000000;stroke-width:5.76"/>
	<text x="405.03" y="1536.66" style="font-family:'Helvetica';font-size:99.99px;fill:#000000" text-anchor="end">.01</text>
	<line x1="465.05" y1="832.86" x2="425.08" y2="832.86" style="stroke:#000000;stroke-width:5.76"/>
	<text x="405.03" y="867.89" style="font-family:'Helvetica';font-size:99.99px;fill:#000000" text-anchor="end">.02</text>
	<line x1="465.05" y1="164.22" x2="425.08" y2="164.22" style="stroke:#000000;stroke-width:5.76"/>
	<text x="405.03" y="199.25" style="font-family:'Helvetica';font-size:99.99px;fill:#000000" text-anchor="end">.03</text>
	<text x="190.71" y="1167.25" style="font-family:'Helvetica';font-size:99.99px;fill:#000000" transform="rotate(-90 190.71,1167.25)" text-anchor="middle">Cumulative Incidence</text>
	<line x1="465.05" y1="2233.63" x2="3859.02" y2="2233.63" style="stroke:#000000;stroke-width:5.76"/>
	<line x1="528.41" y1="2233.63" x2="528.41" y2="2273.73" style="stroke:#000000;stroke-width:5.76"/>
	<text x="528.41" y="2363.59" style="font-family:'Helvetica';font-size:99.99px;fill:#000000" text-anchor="middle">0</text>
	<line x1="1345.29" y1="2233.63" x2="1345.29" y2="2273.73" style="stroke:#000000;stroke-width:5.76"/>
	<text x="1345.29" y="2363.59" style="font-family:'Helvetica';font-size:99.99px;fill:#000000" text-anchor="middle">100</text>
	<line x1="2162.04" y1="2233.63" x2="2162.04" y2="2273.73" style="stroke:#000000;stroke-width:5.76"/>
	<text x="2162.04" y="2363.59" style="font-family:'Helvetica';font-size:99.99px;fill:#000000" text-anchor="middle">200</text>
	<line x1="2978.91" y1="2233.63" x2="2978.91" y2="2273.73" style="stroke:#000000;stroke-width:5.76"/>
	<text x="2978.91" y="2363.59" style="font-family:'Helvetica';font-size:99.99px;fill:#000000" text-anchor="middle">300</text>
	<line x1="3795.78" y1="2233.63" x2="3795.78" y2="2273.73" style="stroke:#000000;stroke-width:5.76"/>
	<text x="3795.78" y="2363.59" style="font-family:'Helvetica';font-size:99.99px;fill:#000000" text-anchor="middle">400</text>
	<text x="2162.04" y="2473.60" style="font-family:'Helvetica';font-size:99.99px;fill:#000000" text-anchor="middle">Time (Days)</text>
	<rect x="939.88" y="2558.24" width="2444.43" height="186.37" style="fill:#FFFFFF"/>
	<rect x="942.76" y="2561.12" width="2438.67" height="180.61" style="fill:none;stroke:#000000;stroke-width:5.76"/>
	<line x1="983.07" y1="2651.43" x2="1357.54" y2="2651.43" style="stroke:#1A476F;stroke-width:8.64"/>
	<line x1="2436.27" y1="2651.43" x2="2810.73" y2="2651.43" style="stroke:#90353B;stroke-width:8.64"/>
	<text x="1417.43" y="2686.46" style="font-family:'Helvetica';font-size:99.99px;fill:#000000">General Population</text>
	<text x="2870.63" y="2686.46" style="font-family:'Helvetica';font-size:99.99px;fill:#000000">COVID-19</text>
</svg>
