<?xml version="1.0" encoding="utf-8" standalone="no"?>
<!DOCTYPE svg PUBLIC "-//W3C//DTD SVG 1.1//EN"
  "http://www.w3.org/Graphics/SVG/1.1/DTD/svg11.dtd">
<svg xmlns:xlink="http://www.w3.org/1999/xlink" width="864pt" height="432pt" viewBox="0 0 864 432" xmlns="http://www.w3.org/2000/svg" version="1.1">
 <metadata>
  <rdf:RDF xmlns:dc="http://purl.org/dc/elements/1.1/" xmlns:cc="http://creativecommons.org/ns#" xmlns:rdf="http://www.w3.org/1999/02/22-rdf-syntax-ns#">
   <cc:Work>
    <dc:type rdf:resource="http://purl.org/dc/dcmitype/StillImage"/>
    <dc:date>2022-01-17T12:41:32.613976</dc:date>
    <dc:format>image/svg+xml</dc:format>
    <dc:creator>
     <cc:Agent>
      <dc:title>Matplotlib v3.5.1, https://matplotlib.org/</dc:title>
     </cc:Agent>
    </dc:creator>
   </cc:Work>
  </rdf:RDF>
 </metadata>
 <defs>
  <style type="text/css">*{stroke-linejoin: round; stroke-linecap: butt}</style>
 </defs>
 <g id="figure_1">
  <g id="patch_1">
   <path d="M 0 432 
L 864 432 
L 864 0 
L 0 0 
z
" style="fill: #ffffff"/>
  </g>
  <g id="axes_1">
   <g id="patch_2">
    <path d="M 57.395 337.525 
L 448.1475 337.525 
L 448.1475 26.16 
L 57.395 26.16 
z
" style="fill: #ffffff"/>
   </g>
   <g id="patch_3">
    <path d="M 70.776935 337.525 
L 77.913967 337.525 
L 77.913967 320.608334 
L 70.776935 320.608334 
z
" clip-path="url(#p752f0d90b5)" style="fill: #ff7f00"/>
   </g>
   <g id="patch_4">
    <path d="M 124.304675 337.525 
L 131.441707 337.525 
L 131.441707 329.903029 
L 124.304675 329.903029 
z
" clip-path="url(#p752f0d90b5)" style="fill: #ff7f00"/>
   </g>
   <g id="patch_5">
    <path d="M 177.832414 337.525 
L 184.969446 337.525 
L 184.969446 315.868335 
L 177.832414 315.868335 
z
" clip-path="url(#p752f0d90b5)" style="fill: #ff7f00"/>
   </g>
   <g id="patch_6">
    <path d="M 231.360154 337.525 
L 238.497186 337.525 
L 238.497186 263.41775 
L 231.360154 263.41775 
z
" clip-path="url(#p752f0d90b5)" style="fill: #ff7f00"/>
   </g>
   <g id="patch_7">
    <path d="M 284.887894 337.525 
L 292.024926 337.525 
L 292.024926 328.357338 
L 284.887894 328.357338 
z
" clip-path="url(#p752f0d90b5)" style="fill: #ff7f00"/>
   </g>
   <g id="patch_8">
    <path d="M 338.415634 337.525 
L 345.552666 337.525 
L 345.552666 273.65755 
L 338.415634 273.65755 
z
" clip-path="url(#p752f0d90b5)" style="fill: #ff7f00"/>
   </g>
   <g id="patch_9">
    <path d="M 391.943373 337.525 
L 399.080405 337.525 
L 399.080405 324.735382 
L 391.943373 324.735382 
z
" clip-path="url(#p752f0d90b5)" style="fill: #ff7f00"/>
   </g>
   <g id="patch_10">
    <path d="M 77.913967 337.525 
L 85.050999 337.525 
L 85.050999 294.461383 
L 77.913967 294.461383 
z
" clip-path="url(#p752f0d90b5)" style="fill: #3579b1"/>
   </g>
   <g id="patch_11">
    <path d="M 131.441707 337.525 
L 138.578739 337.525 
L 138.578739 319.678987 
L 131.441707 319.678987 
z
" clip-path="url(#p752f0d90b5)" style="fill: #3579b1"/>
   </g>
   <g id="patch_12">
    <path d="M 184.969446 337.525 
L 192.106478 337.525 
L 192.106478 266.280395 
L 184.969446 266.280395 
z
" clip-path="url(#p752f0d90b5)" style="fill: #3579b1"/>
   </g>
   <g id="patch_13">
    <path d="M 238.497186 337.525 
L 245.634218 337.525 
L 245.634218 159.398927 
L 238.497186 159.398927 
z
" clip-path="url(#p752f0d90b5)" style="fill: #3579b1"/>
   </g>
   <g id="patch_14">
    <path d="M 292.024926 337.525 
L 299.161958 337.525 
L 299.161958 314.338469 
L 292.024926 314.338469 
z
" clip-path="url(#p752f0d90b5)" style="fill: #3579b1"/>
   </g>
   <g id="patch_15">
    <path d="M 345.552666 337.525 
L 352.689697 337.525 
L 352.689697 173.721322 
L 345.552666 173.721322 
z
" clip-path="url(#p752f0d90b5)" style="fill: #3579b1"/>
   </g>
   <g id="patch_16">
    <path d="M 399.080405 337.525 
L 406.217437 337.525 
L 406.217437 311.001911 
L 399.080405 311.001911 
z
" clip-path="url(#p752f0d90b5)" style="fill: #3579b1"/>
   </g>
   <g id="patch_17">
    <path d="M 85.050999 337.525 
L 92.188031 337.525 
L 92.188031 324.335844 
L 85.050999 324.335844 
z
" clip-path="url(#p752f0d90b5)" style="fill: #3b86c4"/>
   </g>
   <g id="patch_18">
    <path d="M 138.578739 337.525 
L 145.715771 337.525 
L 145.715771 329.612446 
L 138.578739 329.612446 
z
" clip-path="url(#p752f0d90b5)" style="fill: #3b86c4"/>
   </g>
   <g id="patch_19">
    <path d="M 192.106478 337.525 
L 199.24351 337.525 
L 199.24351 323.809585 
L 192.106478 323.809585 
z
" clip-path="url(#p752f0d90b5)" style="fill: #3b86c4"/>
   </g>
   <g id="patch_20">
    <path d="M 245.634218 337.525 
L 252.77125 337.525 
L 252.77125 266.589044 
L 245.634218 266.589044 
z
" clip-path="url(#p752f0d90b5)" style="fill: #3b86c4"/>
   </g>
   <g id="patch_21">
    <path d="M 299.161958 337.525 
L 306.29899 337.525 
L 306.29899 330.181701 
L 299.161958 330.181701 
z
" clip-path="url(#p752f0d90b5)" style="fill: #3b86c4"/>
   </g>
   <g id="patch_22">
    <path d="M 352.689697 337.525 
L 359.826729 337.525 
L 359.826729 290.005201 
L 352.689697 290.005201 
z
" clip-path="url(#p752f0d90b5)" style="fill: #3b86c4"/>
   </g>
   <g id="patch_23">
    <path d="M 406.217437 337.525 
L 413.354469 337.525 
L 413.354469 326.360863 
L 406.217437 326.360863 
z
" clip-path="url(#p752f0d90b5)" style="fill: #3b86c4"/>
   </g>
   <g id="patch_24">
    <path d="M 92.188031 337.525 
L 99.325063 337.525 
L 99.325063 327.045283 
L 92.188031 327.045283 
z
" clip-path="url(#p752f0d90b5)" style="fill: #4e92ca"/>
   </g>
   <g id="patch_25">
    <path d="M 145.715771 337.525 
L 152.852803 337.525 
L 152.852803 333.512265 
L 145.715771 333.512265 
z
" clip-path="url(#p752f0d90b5)" style="fill: #4e92ca"/>
   </g>
   <g id="patch_26">
    <path d="M 199.24351 337.525 
L 206.380542 337.525 
L 206.380542 330.26487 
L 199.24351 330.26487 
z
" clip-path="url(#p752f0d90b5)" style="fill: #4e92ca"/>
   </g>
   <g id="patch_27">
    <path d="M 252.77125 337.525 
L 259.908282 337.525 
L 259.908282 286.862944 
L 252.77125 286.862944 
z
" clip-path="url(#p752f0d90b5)" style="fill: #4e92ca"/>
   </g>
   <g id="patch_28">
    <path d="M 306.29899 337.525 
L 313.436022 337.525 
L 313.436022 332.356553 
L 306.29899 332.356553 
z
" clip-path="url(#p752f0d90b5)" style="fill: #4e92ca"/>
   </g>
   <g id="patch_29">
    <path d="M 359.826729 337.525 
L 366.963761 337.525 
L 366.963761 299.932114 
L 359.826729 299.932114 
z
" clip-path="url(#p752f0d90b5)" style="fill: #4e92ca"/>
   </g>
   <g id="patch_30">
    <path d="M 413.354469 337.525 
L 420.491501 337.525 
L 420.491501 329.46746 
L 413.354469 329.46746 
z
" clip-path="url(#p752f0d90b5)" style="fill: #4e92ca"/>
   </g>
   <g id="patch_31">
    <path d="M 99.325063 337.525 
L 106.462095 337.525 
L 106.462095 328.801931 
L 99.325063 328.801931 
z
" clip-path="url(#p752f0d90b5)" style="fill: #629fd0"/>
   </g>
   <g id="patch_32">
    <path d="M 152.852803 337.525 
L 159.989834 337.525 
L 159.989834 333.456053 
L 152.852803 333.456053 
z
" clip-path="url(#p752f0d90b5)" style="fill: #629fd0"/>
   </g>
   <g id="patch_33">
    <path d="M 206.380542 337.525 
L 213.517574 337.525 
L 213.517574 330.579842 
L 206.380542 330.579842 
z
" clip-path="url(#p752f0d90b5)" style="fill: #629fd0"/>
   </g>
   <g id="patch_34">
    <path d="M 259.908282 337.525 
L 267.045314 337.525 
L 267.045314 293.395425 
L 259.908282 293.395425 
z
" clip-path="url(#p752f0d90b5)" style="fill: #629fd0"/>
   </g>
   <g id="patch_35">
    <path d="M 313.436022 337.525 
L 320.573054 337.525 
L 320.573054 332.762202 
L 313.436022 332.762202 
z
" clip-path="url(#p752f0d90b5)" style="fill: #629fd0"/>
   </g>
   <g id="patch_36">
    <path d="M 366.963761 337.525 
L 374.100793 337.525 
L 374.100793 305.048442 
L 366.963761 305.048442 
z
" clip-path="url(#p752f0d90b5)" style="fill: #629fd0"/>
   </g>
   <g id="patch_37">
    <path d="M 420.491501 337.525 
L 427.628533 337.525 
L 427.628533 327.213564 
L 420.491501 327.213564 
z
" clip-path="url(#p752f0d90b5)" style="fill: #629fd0"/>
   </g>
   <g id="patch_38">
    <path d="M 106.462095 337.525 
L 113.599127 337.525 
L 113.599127 330.559041 
L 106.462095 330.559041 
z
" clip-path="url(#p752f0d90b5)" style="fill: #76abd6"/>
   </g>
   <g id="patch_39">
    <path d="M 159.989834 337.525 
L 167.126866 337.525 
L 167.126866 334.082741 
L 159.989834 334.082741 
z
" clip-path="url(#p752f0d90b5)" style="fill: #76abd6"/>
   </g>
   <g id="patch_40">
    <path d="M 213.517574 337.525 
L 220.654606 337.525 
L 220.654606 333.949434 
L 213.517574 333.949434 
z
" clip-path="url(#p752f0d90b5)" style="fill: #76abd6"/>
   </g>
   <g id="patch_41">
    <path d="M 267.045314 337.525 
L 274.182346 337.525 
L 274.182346 312.080818 
L 267.045314 312.080818 
z
" clip-path="url(#p752f0d90b5)" style="fill: #76abd6"/>
   </g>
   <g id="patch_42">
    <path d="M 320.573054 337.525 
L 327.710086 337.525 
L 327.710086 333.563991 
L 320.573054 333.563991 
z
" clip-path="url(#p752f0d90b5)" style="fill: #76abd6"/>
   </g>
   <g id="patch_43">
    <path d="M 374.100793 337.525 
L 381.237825 337.525 
L 381.237825 311.93171 
L 374.100793 311.93171 
z
" clip-path="url(#p752f0d90b5)" style="fill: #76abd6"/>
   </g>
   <g id="patch_44">
    <path d="M 427.628533 337.525 
L 434.765565 337.525 
L 434.765565 330.118852 
L 427.628533 330.118852 
z
" clip-path="url(#p752f0d90b5)" style="fill: #76abd6"/>
   </g>
   <g id="matplotlib.axis_1">
    <g id="xtick_1">
     <g id="line2d_1">
      <defs>
       <path id="m5bdc0568f4" d="M 0 0 
L 0 3.5 
" style="stroke: #000000; stroke-width: 0.8"/>
      </defs>
      <g>
       <use xlink:href="#m5bdc0568f4" x="92.188031" y="337.525" style="stroke: #000000; stroke-width: 0.8"/>
      </g>
     </g>
     <g id="text_1">
      <!-- Stroke -->
      <g transform="translate(94.947406 376.379688)rotate(-90)scale(0.1 -0.1)">
       <defs>
        <path id="DejaVuSans-53" d="M 3425 4513 
L 3425 3897 
Q 3066 4069 2747 4153 
Q 2428 4238 2131 4238 
Q 1616 4238 1336 4038 
Q 1056 3838 1056 3469 
Q 1056 3159 1242 3001 
Q 1428 2844 1947 2747 
L 2328 2669 
Q 3034 2534 3370 2195 
Q 3706 1856 3706 1288 
Q 3706 609 3251 259 
Q 2797 -91 1919 -91 
Q 1588 -91 1214 -16 
Q 841 59 441 206 
L 441 856 
Q 825 641 1194 531 
Q 1563 422 1919 422 
Q 2459 422 2753 634 
Q 3047 847 3047 1241 
Q 3047 1584 2836 1778 
Q 2625 1972 2144 2069 
L 1759 2144 
Q 1053 2284 737 2584 
Q 422 2884 422 3419 
Q 422 4038 858 4394 
Q 1294 4750 2059 4750 
Q 2388 4750 2728 4690 
Q 3069 4631 3425 4513 
z
" transform="scale(0.015625)"/>
        <path id="DejaVuSans-74" d="M 1172 4494 
L 1172 3500 
L 2356 3500 
L 2356 3053 
L 1172 3053 
L 1172 1153 
Q 1172 725 1289 603 
Q 1406 481 1766 481 
L 2356 481 
L 2356 0 
L 1766 0 
Q 1100 0 847 248 
Q 594 497 594 1153 
L 594 3053 
L 172 3053 
L 172 3500 
L 594 3500 
L 594 4494 
L 1172 4494 
z
" transform="scale(0.015625)"/>
        <path id="DejaVuSans-72" d="M 2631 2963 
Q 2534 3019 2420 3045 
Q 2306 3072 2169 3072 
Q 1681 3072 1420 2755 
Q 1159 2438 1159 1844 
L 1159 0 
L 581 0 
L 581 3500 
L 1159 3500 
L 1159 2956 
Q 1341 3275 1631 3429 
Q 1922 3584 2338 3584 
Q 2397 3584 2469 3576 
Q 2541 3569 2628 3553 
L 2631 2963 
z
" transform="scale(0.015625)"/>
        <path id="DejaVuSans-6f" d="M 1959 3097 
Q 1497 3097 1228 2736 
Q 959 2375 959 1747 
Q 959 1119 1226 758 
Q 1494 397 1959 397 
Q 2419 397 2687 759 
Q 2956 1122 2956 1747 
Q 2956 2369 2687 2733 
Q 2419 3097 1959 3097 
z
M 1959 3584 
Q 2709 3584 3137 3096 
Q 3566 2609 3566 1747 
Q 3566 888 3137 398 
Q 2709 -91 1959 -91 
Q 1206 -91 779 398 
Q 353 888 353 1747 
Q 353 2609 779 3096 
Q 1206 3584 1959 3584 
z
" transform="scale(0.015625)"/>
        <path id="DejaVuSans-6b" d="M 581 4863 
L 1159 4863 
L 1159 1991 
L 2875 3500 
L 3609 3500 
L 1753 1863 
L 3688 0 
L 2938 0 
L 1159 1709 
L 1159 0 
L 581 0 
L 581 4863 
z
" transform="scale(0.015625)"/>
        <path id="DejaVuSans-65" d="M 3597 1894 
L 3597 1613 
L 953 1613 
Q 991 1019 1311 708 
Q 1631 397 2203 397 
Q 2534 397 2845 478 
Q 3156 559 3463 722 
L 3463 178 
Q 3153 47 2828 -22 
Q 2503 -91 2169 -91 
Q 1331 -91 842 396 
Q 353 884 353 1716 
Q 353 2575 817 3079 
Q 1281 3584 2069 3584 
Q 2775 3584 3186 3129 
Q 3597 2675 3597 1894 
z
M 3022 2063 
Q 3016 2534 2758 2815 
Q 2500 3097 2075 3097 
Q 1594 3097 1305 2825 
Q 1016 2553 972 2059 
L 3022 2063 
z
" transform="scale(0.015625)"/>
       </defs>
       <use xlink:href="#DejaVuSans-53"/>
       <use xlink:href="#DejaVuSans-74" x="63.476562"/>
       <use xlink:href="#DejaVuSans-72" x="102.685547"/>
       <use xlink:href="#DejaVuSans-6f" x="141.548828"/>
       <use xlink:href="#DejaVuSans-6b" x="202.730469"/>
       <use xlink:href="#DejaVuSans-65" x="257.015625"/>
      </g>
     </g>
    </g>
    <g id="xtick_2">
     <g id="line2d_2">
      <g>
       <use xlink:href="#m5bdc0568f4" x="145.715771" y="337.525" style="stroke: #000000; stroke-width: 0.8"/>
      </g>
     </g>
     <g id="text_2">
      <!-- DVT -->
      <g transform="translate(148.475146 364.998438)rotate(-90)scale(0.1 -0.1)">
       <defs>
        <path id="DejaVuSans-44" d="M 1259 4147 
L 1259 519 
L 2022 519 
Q 2988 519 3436 956 
Q 3884 1394 3884 2338 
Q 3884 3275 3436 3711 
Q 2988 4147 2022 4147 
L 1259 4147 
z
M 628 4666 
L 1925 4666 
Q 3281 4666 3915 4102 
Q 4550 3538 4550 2338 
Q 4550 1131 3912 565 
Q 3275 0 1925 0 
L 628 0 
L 628 4666 
z
" transform="scale(0.015625)"/>
        <path id="DejaVuSans-56" d="M 1831 0 
L 50 4666 
L 709 4666 
L 2188 738 
L 3669 4666 
L 4325 4666 
L 2547 0 
L 1831 0 
z
" transform="scale(0.015625)"/>
        <path id="DejaVuSans-54" d="M -19 4666 
L 3928 4666 
L 3928 4134 
L 2272 4134 
L 2272 0 
L 1638 0 
L 1638 4134 
L -19 4134 
L -19 4666 
z
" transform="scale(0.015625)"/>
       </defs>
       <use xlink:href="#DejaVuSans-44"/>
       <use xlink:href="#DejaVuSans-56" x="75.251953"/>
       <use xlink:href="#DejaVuSans-54" x="143.660156"/>
      </g>
     </g>
    </g>
    <g id="xtick_3">
     <g id="line2d_3">
      <g>
       <use xlink:href="#m5bdc0568f4" x="199.24351" y="337.525" style="stroke: #000000; stroke-width: 0.8"/>
      </g>
     </g>
     <g id="text_3">
      <!-- PE -->
      <g transform="translate(202.002885 356.873438)rotate(-90)scale(0.1 -0.1)">
       <defs>
        <path id="DejaVuSans-50" d="M 1259 4147 
L 1259 2394 
L 2053 2394 
Q 2494 2394 2734 2622 
Q 2975 2850 2975 3272 
Q 2975 3691 2734 3919 
Q 2494 4147 2053 4147 
L 1259 4147 
z
M 628 4666 
L 2053 4666 
Q 2838 4666 3239 4311 
Q 3641 3956 3641 3272 
Q 3641 2581 3239 2228 
Q 2838 1875 2053 1875 
L 1259 1875 
L 1259 0 
L 628 0 
L 628 4666 
z
" transform="scale(0.015625)"/>
        <path id="DejaVuSans-45" d="M 628 4666 
L 3578 4666 
L 3578 4134 
L 1259 4134 
L 1259 2753 
L 3481 2753 
L 3481 2222 
L 1259 2222 
L 1259 531 
L 3634 531 
L 3634 0 
L 628 0 
L 628 4666 
z
" transform="scale(0.015625)"/>
       </defs>
       <use xlink:href="#DejaVuSans-50"/>
       <use xlink:href="#DejaVuSans-45" x="60.302734"/>
      </g>
     </g>
    </g>
    <g id="xtick_4">
     <g id="line2d_4">
      <g>
       <use xlink:href="#m5bdc0568f4" x="252.77125" y="337.525" style="stroke: #000000; stroke-width: 0.8"/>
      </g>
     </g>
     <g id="text_4">
      <!-- Heart failure -->
      <g transform="translate(255.530625 407.117188)rotate(-90)scale(0.1 -0.1)">
       <defs>
        <path id="DejaVuSans-48" d="M 628 4666 
L 1259 4666 
L 1259 2753 
L 3553 2753 
L 3553 4666 
L 4184 4666 
L 4184 0 
L 3553 0 
L 3553 2222 
L 1259 2222 
L 1259 0 
L 628 0 
L 628 4666 
z
" transform="scale(0.015625)"/>
        <path id="DejaVuSans-61" d="M 2194 1759 
Q 1497 1759 1228 1600 
Q 959 1441 959 1056 
Q 959 750 1161 570 
Q 1363 391 1709 391 
Q 2188 391 2477 730 
Q 2766 1069 2766 1631 
L 2766 1759 
L 2194 1759 
z
M 3341 1997 
L 3341 0 
L 2766 0 
L 2766 531 
Q 2569 213 2275 61 
Q 1981 -91 1556 -91 
Q 1019 -91 701 211 
Q 384 513 384 1019 
Q 384 1609 779 1909 
Q 1175 2209 1959 2209 
L 2766 2209 
L 2766 2266 
Q 2766 2663 2505 2880 
Q 2244 3097 1772 3097 
Q 1472 3097 1187 3025 
Q 903 2953 641 2809 
L 641 3341 
Q 956 3463 1253 3523 
Q 1550 3584 1831 3584 
Q 2591 3584 2966 3190 
Q 3341 2797 3341 1997 
z
" transform="scale(0.015625)"/>
        <path id="DejaVuSans-20" transform="scale(0.015625)"/>
        <path id="DejaVuSans-66" d="M 2375 4863 
L 2375 4384 
L 1825 4384 
Q 1516 4384 1395 4259 
Q 1275 4134 1275 3809 
L 1275 3500 
L 2222 3500 
L 2222 3053 
L 1275 3053 
L 1275 0 
L 697 0 
L 697 3053 
L 147 3053 
L 147 3500 
L 697 3500 
L 697 3744 
Q 697 4328 969 4595 
Q 1241 4863 1831 4863 
L 2375 4863 
z
" transform="scale(0.015625)"/>
        <path id="DejaVuSans-69" d="M 603 3500 
L 1178 3500 
L 1178 0 
L 603 0 
L 603 3500 
z
M 603 4863 
L 1178 4863 
L 1178 4134 
L 603 4134 
L 603 4863 
z
" transform="scale(0.015625)"/>
        <path id="DejaVuSans-6c" d="M 603 4863 
L 1178 4863 
L 1178 0 
L 603 0 
L 603 4863 
z
" transform="scale(0.015625)"/>
        <path id="DejaVuSans-75" d="M 544 1381 
L 544 3500 
L 1119 3500 
L 1119 1403 
Q 1119 906 1312 657 
Q 1506 409 1894 409 
Q 2359 409 2629 706 
Q 2900 1003 2900 1516 
L 2900 3500 
L 3475 3500 
L 3475 0 
L 2900 0 
L 2900 538 
Q 2691 219 2414 64 
Q 2138 -91 1772 -91 
Q 1169 -91 856 284 
Q 544 659 544 1381 
z
M 1991 3584 
L 1991 3584 
z
" transform="scale(0.015625)"/>
       </defs>
       <use xlink:href="#DejaVuSans-48"/>
       <use xlink:href="#DejaVuSans-65" x="75.195312"/>
       <use xlink:href="#DejaVuSans-61" x="136.71875"/>
       <use xlink:href="#DejaVuSans-72" x="197.998047"/>
       <use xlink:href="#DejaVuSans-74" x="239.111328"/>
       <use xlink:href="#DejaVuSans-20" x="278.320312"/>
       <use xlink:href="#DejaVuSans-66" x="310.107422"/>
       <use xlink:href="#DejaVuSans-61" x="345.3125"/>
       <use xlink:href="#DejaVuSans-69" x="406.591797"/>
       <use xlink:href="#DejaVuSans-6c" x="434.375"/>
       <use xlink:href="#DejaVuSans-75" x="462.158203"/>
       <use xlink:href="#DejaVuSans-72" x="525.537109"/>
       <use xlink:href="#DejaVuSans-65" x="564.400391"/>
      </g>
     </g>
    </g>
    <g id="xtick_5">
     <g id="line2d_5">
      <g>
       <use xlink:href="#m5bdc0568f4" x="306.29899" y="337.525" style="stroke: #000000; stroke-width: 0.8"/>
      </g>
     </g>
     <g id="text_5">
      <!-- MI -->
      <g transform="translate(309.058365 356.103125)rotate(-90)scale(0.1 -0.1)">
       <defs>
        <path id="DejaVuSans-4d" d="M 628 4666 
L 1569 4666 
L 2759 1491 
L 3956 4666 
L 4897 4666 
L 4897 0 
L 4281 0 
L 4281 4097 
L 3078 897 
L 2444 897 
L 1241 4097 
L 1241 0 
L 628 0 
L 628 4666 
z
" transform="scale(0.015625)"/>
        <path id="DejaVuSans-49" d="M 628 4666 
L 1259 4666 
L 1259 0 
L 628 0 
L 628 4666 
z
" transform="scale(0.015625)"/>
       </defs>
       <use xlink:href="#DejaVuSans-4d"/>
       <use xlink:href="#DejaVuSans-49" x="86.279297"/>
      </g>
     </g>
    </g>
    <g id="xtick_6">
     <g id="line2d_6">
      <g>
       <use xlink:href="#m5bdc0568f4" x="359.826729" y="337.525" style="stroke: #000000; stroke-width: 0.8"/>
      </g>
     </g>
     <g id="text_6">
      <!-- AKI -->
      <g transform="translate(362.586104 360.873438)rotate(-90)scale(0.1 -0.1)">
       <defs>
        <path id="DejaVuSans-41" d="M 2188 4044 
L 1331 1722 
L 3047 1722 
L 2188 4044 
z
M 1831 4666 
L 2547 4666 
L 4325 0 
L 3669 0 
L 3244 1197 
L 1141 1197 
L 716 0 
L 50 0 
L 1831 4666 
z
" transform="scale(0.015625)"/>
        <path id="DejaVuSans-4b" d="M 628 4666 
L 1259 4666 
L 1259 2694 
L 3353 4666 
L 4166 4666 
L 1850 2491 
L 4331 0 
L 3500 0 
L 1259 2247 
L 1259 0 
L 628 0 
L 628 4666 
z
" transform="scale(0.015625)"/>
       </defs>
       <use xlink:href="#DejaVuSans-41"/>
       <use xlink:href="#DejaVuSans-4b" x="68.408203"/>
       <use xlink:href="#DejaVuSans-49" x="133.984375"/>
      </g>
     </g>
    </g>
    <g id="xtick_7">
     <g id="line2d_7">
      <g>
       <use xlink:href="#m5bdc0568f4" x="413.354469" y="337.525" style="stroke: #000000; stroke-width: 0.8"/>
      </g>
     </g>
     <g id="text_7">
      <!-- T2DM -->
      <g transform="translate(416.113844 373.323438)rotate(-90)scale(0.1 -0.1)">
       <defs>
        <path id="DejaVuSans-32" d="M 1228 531 
L 3431 531 
L 3431 0 
L 469 0 
L 469 531 
Q 828 903 1448 1529 
Q 2069 2156 2228 2338 
Q 2531 2678 2651 2914 
Q 2772 3150 2772 3378 
Q 2772 3750 2511 3984 
Q 2250 4219 1831 4219 
Q 1534 4219 1204 4116 
Q 875 4013 500 3803 
L 500 4441 
Q 881 4594 1212 4672 
Q 1544 4750 1819 4750 
Q 2544 4750 2975 4387 
Q 3406 4025 3406 3419 
Q 3406 3131 3298 2873 
Q 3191 2616 2906 2266 
Q 2828 2175 2409 1742 
Q 1991 1309 1228 531 
z
" transform="scale(0.015625)"/>
       </defs>
       <use xlink:href="#DejaVuSans-54"/>
       <use xlink:href="#DejaVuSans-32" x="61.083984"/>
       <use xlink:href="#DejaVuSans-44" x="124.707031"/>
       <use xlink:href="#DejaVuSans-4d" x="201.708984"/>
      </g>
     </g>
    </g>
    <g id="text_8">
     <!-- outcome -->
     <g transform="translate(230.8275 418.715625)scale(0.1 -0.1)">
      <defs>
       <path id="DejaVuSans-63" d="M 3122 3366 
L 3122 2828 
Q 2878 2963 2633 3030 
Q 2388 3097 2138 3097 
Q 1578 3097 1268 2742 
Q 959 2388 959 1747 
Q 959 1106 1268 751 
Q 1578 397 2138 397 
Q 2388 397 2633 464 
Q 2878 531 3122 666 
L 3122 134 
Q 2881 22 2623 -34 
Q 2366 -91 2075 -91 
Q 1284 -91 818 406 
Q 353 903 353 1747 
Q 353 2603 823 3093 
Q 1294 3584 2113 3584 
Q 2378 3584 2631 3529 
Q 2884 3475 3122 3366 
z
" transform="scale(0.015625)"/>
       <path id="DejaVuSans-6d" d="M 3328 2828 
Q 3544 3216 3844 3400 
Q 4144 3584 4550 3584 
Q 5097 3584 5394 3201 
Q 5691 2819 5691 2113 
L 5691 0 
L 5113 0 
L 5113 2094 
Q 5113 2597 4934 2840 
Q 4756 3084 4391 3084 
Q 3944 3084 3684 2787 
Q 3425 2491 3425 1978 
L 3425 0 
L 2847 0 
L 2847 2094 
Q 2847 2600 2669 2842 
Q 2491 3084 2119 3084 
Q 1678 3084 1418 2786 
Q 1159 2488 1159 1978 
L 1159 0 
L 581 0 
L 581 3500 
L 1159 3500 
L 1159 2956 
Q 1356 3278 1631 3431 
Q 1906 3584 2284 3584 
Q 2666 3584 2933 3390 
Q 3200 3197 3328 2828 
z
" transform="scale(0.015625)"/>
      </defs>
      <use xlink:href="#DejaVuSans-6f"/>
      <use xlink:href="#DejaVuSans-75" x="61.181641"/>
      <use xlink:href="#DejaVuSans-74" x="124.560547"/>
      <use xlink:href="#DejaVuSans-63" x="163.769531"/>
      <use xlink:href="#DejaVuSans-6f" x="218.75"/>
      <use xlink:href="#DejaVuSans-6d" x="279.931641"/>
      <use xlink:href="#DejaVuSans-65" x="377.34375"/>
     </g>
    </g>
   </g>
   <g id="matplotlib.axis_2">
    <g id="ytick_1">
     <g id="line2d_8">
      <path d="M 57.395 337.525 
L 448.1475 337.525 
" clip-path="url(#p752f0d90b5)" style="fill: none; stroke: #666666; stroke-opacity: 0.1; stroke-width: 0.8; stroke-linecap: square"/>
     </g>
     <g id="line2d_9">
      <defs>
       <path id="me5062b96e7" d="M 0 0 
L -3.5 0 
" style="stroke: #000000; stroke-width: 0.8"/>
      </defs>
      <g>
       <use xlink:href="#me5062b96e7" x="57.395" y="337.525" style="stroke: #000000; stroke-width: 0.8"/>
      </g>
     </g>
     <g id="text_9">
      <!-- 0 -->
      <g transform="translate(44.0325 341.324219)scale(0.1 -0.1)">
       <defs>
        <path id="DejaVuSans-30" d="M 2034 4250 
Q 1547 4250 1301 3770 
Q 1056 3291 1056 2328 
Q 1056 1369 1301 889 
Q 1547 409 2034 409 
Q 2525 409 2770 889 
Q 3016 1369 3016 2328 
Q 3016 3291 2770 3770 
Q 2525 4250 2034 4250 
z
M 2034 4750 
Q 2819 4750 3233 4129 
Q 3647 3509 3647 2328 
Q 3647 1150 3233 529 
Q 2819 -91 2034 -91 
Q 1250 -91 836 529 
Q 422 1150 422 2328 
Q 422 3509 836 4129 
Q 1250 4750 2034 4750 
z
" transform="scale(0.015625)"/>
       </defs>
       <use xlink:href="#DejaVuSans-30"/>
      </g>
     </g>
    </g>
    <g id="ytick_2">
     <g id="line2d_10">
      <path d="M 57.395 279.580289 
L 448.1475 279.580289 
" clip-path="url(#p752f0d90b5)" style="fill: none; stroke: #666666; stroke-opacity: 0.1; stroke-width: 0.8; stroke-linecap: square"/>
     </g>
     <g id="line2d_11">
      <g>
       <use xlink:href="#me5062b96e7" x="57.395" y="279.580289" style="stroke: #000000; stroke-width: 0.8"/>
      </g>
     </g>
     <g id="text_10">
      <!-- 200 -->
      <g transform="translate(31.3075 283.379508)scale(0.1 -0.1)">
       <use xlink:href="#DejaVuSans-32"/>
       <use xlink:href="#DejaVuSans-30" x="63.623047"/>
       <use xlink:href="#DejaVuSans-30" x="127.246094"/>
      </g>
     </g>
    </g>
    <g id="ytick_3">
     <g id="line2d_12">
      <path d="M 57.395 221.635578 
L 448.1475 221.635578 
" clip-path="url(#p752f0d90b5)" style="fill: none; stroke: #666666; stroke-opacity: 0.1; stroke-width: 0.8; stroke-linecap: square"/>
     </g>
     <g id="line2d_13">
      <g>
       <use xlink:href="#me5062b96e7" x="57.395" y="221.635578" style="stroke: #000000; stroke-width: 0.8"/>
      </g>
     </g>
     <g id="text_11">
      <!-- 400 -->
      <g transform="translate(31.3075 225.434797)scale(0.1 -0.1)">
       <defs>
        <path id="DejaVuSans-34" d="M 2419 4116 
L 825 1625 
L 2419 1625 
L 2419 4116 
z
M 2253 4666 
L 3047 4666 
L 3047 1625 
L 3713 1625 
L 3713 1100 
L 3047 1100 
L 3047 0 
L 2419 0 
L 2419 1100 
L 313 1100 
L 313 1709 
L 2253 4666 
z
" transform="scale(0.015625)"/>
       </defs>
       <use xlink:href="#DejaVuSans-34"/>
       <use xlink:href="#DejaVuSans-30" x="63.623047"/>
       <use xlink:href="#DejaVuSans-30" x="127.246094"/>
      </g>
     </g>
    </g>
    <g id="ytick_4">
     <g id="line2d_14">
      <path d="M 57.395 163.690867 
L 448.1475 163.690867 
" clip-path="url(#p752f0d90b5)" style="fill: none; stroke: #666666; stroke-opacity: 0.1; stroke-width: 0.8; stroke-linecap: square"/>
     </g>
     <g id="line2d_15">
      <g>
       <use xlink:href="#me5062b96e7" x="57.395" y="163.690867" style="stroke: #000000; stroke-width: 0.8"/>
      </g>
     </g>
     <g id="text_12">
      <!-- 600 -->
      <g transform="translate(31.3075 167.490086)scale(0.1 -0.1)">
       <defs>
        <path id="DejaVuSans-36" d="M 2113 2584 
Q 1688 2584 1439 2293 
Q 1191 2003 1191 1497 
Q 1191 994 1439 701 
Q 1688 409 2113 409 
Q 2538 409 2786 701 
Q 3034 994 3034 1497 
Q 3034 2003 2786 2293 
Q 2538 2584 2113 2584 
z
M 3366 4563 
L 3366 3988 
Q 3128 4100 2886 4159 
Q 2644 4219 2406 4219 
Q 1781 4219 1451 3797 
Q 1122 3375 1075 2522 
Q 1259 2794 1537 2939 
Q 1816 3084 2150 3084 
Q 2853 3084 3261 2657 
Q 3669 2231 3669 1497 
Q 3669 778 3244 343 
Q 2819 -91 2113 -91 
Q 1303 -91 875 529 
Q 447 1150 447 2328 
Q 447 3434 972 4092 
Q 1497 4750 2381 4750 
Q 2619 4750 2861 4703 
Q 3103 4656 3366 4563 
z
" transform="scale(0.015625)"/>
       </defs>
       <use xlink:href="#DejaVuSans-36"/>
       <use xlink:href="#DejaVuSans-30" x="63.623047"/>
       <use xlink:href="#DejaVuSans-30" x="127.246094"/>
      </g>
     </g>
    </g>
    <g id="ytick_5">
     <g id="line2d_16">
      <path d="M 57.395 105.746156 
L 448.1475 105.746156 
" clip-path="url(#p752f0d90b5)" style="fill: none; stroke: #666666; stroke-opacity: 0.1; stroke-width: 0.8; stroke-linecap: square"/>
     </g>
     <g id="line2d_17">
      <g>
       <use xlink:href="#me5062b96e7" x="57.395" y="105.746156" style="stroke: #000000; stroke-width: 0.8"/>
      </g>
     </g>
     <g id="text_13">
      <!-- 800 -->
      <g transform="translate(31.3075 109.545375)scale(0.1 -0.1)">
       <defs>
        <path id="DejaVuSans-38" d="M 2034 2216 
Q 1584 2216 1326 1975 
Q 1069 1734 1069 1313 
Q 1069 891 1326 650 
Q 1584 409 2034 409 
Q 2484 409 2743 651 
Q 3003 894 3003 1313 
Q 3003 1734 2745 1975 
Q 2488 2216 2034 2216 
z
M 1403 2484 
Q 997 2584 770 2862 
Q 544 3141 544 3541 
Q 544 4100 942 4425 
Q 1341 4750 2034 4750 
Q 2731 4750 3128 4425 
Q 3525 4100 3525 3541 
Q 3525 3141 3298 2862 
Q 3072 2584 2669 2484 
Q 3125 2378 3379 2068 
Q 3634 1759 3634 1313 
Q 3634 634 3220 271 
Q 2806 -91 2034 -91 
Q 1263 -91 848 271 
Q 434 634 434 1313 
Q 434 1759 690 2068 
Q 947 2378 1403 2484 
z
M 1172 3481 
Q 1172 3119 1398 2916 
Q 1625 2713 2034 2713 
Q 2441 2713 2670 2916 
Q 2900 3119 2900 3481 
Q 2900 3844 2670 4047 
Q 2441 4250 2034 4250 
Q 1625 4250 1398 4047 
Q 1172 3844 1172 3481 
z
" transform="scale(0.015625)"/>
       </defs>
       <use xlink:href="#DejaVuSans-38"/>
       <use xlink:href="#DejaVuSans-30" x="63.623047"/>
       <use xlink:href="#DejaVuSans-30" x="127.246094"/>
      </g>
     </g>
    </g>
    <g id="ytick_6">
     <g id="line2d_18">
      <path d="M 57.395 47.801445 
L 448.1475 47.801445 
" clip-path="url(#p752f0d90b5)" style="fill: none; stroke: #666666; stroke-opacity: 0.1; stroke-width: 0.8; stroke-linecap: square"/>
     </g>
     <g id="line2d_19">
      <g>
       <use xlink:href="#me5062b96e7" x="57.395" y="47.801445" style="stroke: #000000; stroke-width: 0.8"/>
      </g>
     </g>
     <g id="text_14">
      <!-- 1000 -->
      <g transform="translate(24.945 51.600664)scale(0.1 -0.1)">
       <defs>
        <path id="DejaVuSans-31" d="M 794 531 
L 1825 531 
L 1825 4091 
L 703 3866 
L 703 4441 
L 1819 4666 
L 2450 4666 
L 2450 531 
L 3481 531 
L 3481 0 
L 794 0 
L 794 531 
z
" transform="scale(0.015625)"/>
       </defs>
       <use xlink:href="#DejaVuSans-31"/>
       <use xlink:href="#DejaVuSans-30" x="63.623047"/>
       <use xlink:href="#DejaVuSans-30" x="127.246094"/>
       <use xlink:href="#DejaVuSans-30" x="190.869141"/>
      </g>
     </g>
    </g>
    <g id="text_15">
     <!-- Rate of each outcome (per 1,000 person years) -->
     <g transform="translate(18.865313 300.671406)rotate(-90)scale(0.1 -0.1)">
      <defs>
       <path id="DejaVuSans-52" d="M 2841 2188 
Q 3044 2119 3236 1894 
Q 3428 1669 3622 1275 
L 4263 0 
L 3584 0 
L 2988 1197 
Q 2756 1666 2539 1819 
Q 2322 1972 1947 1972 
L 1259 1972 
L 1259 0 
L 628 0 
L 628 4666 
L 2053 4666 
Q 2853 4666 3247 4331 
Q 3641 3997 3641 3322 
Q 3641 2881 3436 2590 
Q 3231 2300 2841 2188 
z
M 1259 4147 
L 1259 2491 
L 2053 2491 
Q 2509 2491 2742 2702 
Q 2975 2913 2975 3322 
Q 2975 3731 2742 3939 
Q 2509 4147 2053 4147 
L 1259 4147 
z
" transform="scale(0.015625)"/>
       <path id="DejaVuSans-68" d="M 3513 2113 
L 3513 0 
L 2938 0 
L 2938 2094 
Q 2938 2591 2744 2837 
Q 2550 3084 2163 3084 
Q 1697 3084 1428 2787 
Q 1159 2491 1159 1978 
L 1159 0 
L 581 0 
L 581 4863 
L 1159 4863 
L 1159 2956 
Q 1366 3272 1645 3428 
Q 1925 3584 2291 3584 
Q 2894 3584 3203 3211 
Q 3513 2838 3513 2113 
z
" transform="scale(0.015625)"/>
       <path id="DejaVuSans-28" d="M 1984 4856 
Q 1566 4138 1362 3434 
Q 1159 2731 1159 2009 
Q 1159 1288 1364 580 
Q 1569 -128 1984 -844 
L 1484 -844 
Q 1016 -109 783 600 
Q 550 1309 550 2009 
Q 550 2706 781 3412 
Q 1013 4119 1484 4856 
L 1984 4856 
z
" transform="scale(0.015625)"/>
       <path id="DejaVuSans-70" d="M 1159 525 
L 1159 -1331 
L 581 -1331 
L 581 3500 
L 1159 3500 
L 1159 2969 
Q 1341 3281 1617 3432 
Q 1894 3584 2278 3584 
Q 2916 3584 3314 3078 
Q 3713 2572 3713 1747 
Q 3713 922 3314 415 
Q 2916 -91 2278 -91 
Q 1894 -91 1617 61 
Q 1341 213 1159 525 
z
M 3116 1747 
Q 3116 2381 2855 2742 
Q 2594 3103 2138 3103 
Q 1681 3103 1420 2742 
Q 1159 2381 1159 1747 
Q 1159 1113 1420 752 
Q 1681 391 2138 391 
Q 2594 391 2855 752 
Q 3116 1113 3116 1747 
z
" transform="scale(0.015625)"/>
       <path id="DejaVuSans-2c" d="M 750 794 
L 1409 794 
L 1409 256 
L 897 -744 
L 494 -744 
L 750 256 
L 750 794 
z
" transform="scale(0.015625)"/>
       <path id="DejaVuSans-73" d="M 2834 3397 
L 2834 2853 
Q 2591 2978 2328 3040 
Q 2066 3103 1784 3103 
Q 1356 3103 1142 2972 
Q 928 2841 928 2578 
Q 928 2378 1081 2264 
Q 1234 2150 1697 2047 
L 1894 2003 
Q 2506 1872 2764 1633 
Q 3022 1394 3022 966 
Q 3022 478 2636 193 
Q 2250 -91 1575 -91 
Q 1294 -91 989 -36 
Q 684 19 347 128 
L 347 722 
Q 666 556 975 473 
Q 1284 391 1588 391 
Q 1994 391 2212 530 
Q 2431 669 2431 922 
Q 2431 1156 2273 1281 
Q 2116 1406 1581 1522 
L 1381 1569 
Q 847 1681 609 1914 
Q 372 2147 372 2553 
Q 372 3047 722 3315 
Q 1072 3584 1716 3584 
Q 2034 3584 2315 3537 
Q 2597 3491 2834 3397 
z
" transform="scale(0.015625)"/>
       <path id="DejaVuSans-6e" d="M 3513 2113 
L 3513 0 
L 2938 0 
L 2938 2094 
Q 2938 2591 2744 2837 
Q 2550 3084 2163 3084 
Q 1697 3084 1428 2787 
Q 1159 2491 1159 1978 
L 1159 0 
L 581 0 
L 581 3500 
L 1159 3500 
L 1159 2956 
Q 1366 3272 1645 3428 
Q 1925 3584 2291 3584 
Q 2894 3584 3203 3211 
Q 3513 2838 3513 2113 
z
" transform="scale(0.015625)"/>
       <path id="DejaVuSans-79" d="M 2059 -325 
Q 1816 -950 1584 -1140 
Q 1353 -1331 966 -1331 
L 506 -1331 
L 506 -850 
L 844 -850 
Q 1081 -850 1212 -737 
Q 1344 -625 1503 -206 
L 1606 56 
L 191 3500 
L 800 3500 
L 1894 763 
L 2988 3500 
L 3597 3500 
L 2059 -325 
z
" transform="scale(0.015625)"/>
       <path id="DejaVuSans-29" d="M 513 4856 
L 1013 4856 
Q 1481 4119 1714 3412 
Q 1947 2706 1947 2009 
Q 1947 1309 1714 600 
Q 1481 -109 1013 -844 
L 513 -844 
Q 928 -128 1133 580 
Q 1338 1288 1338 2009 
Q 1338 2731 1133 3434 
Q 928 4138 513 4856 
z
" transform="scale(0.015625)"/>
      </defs>
      <use xlink:href="#DejaVuSans-52"/>
      <use xlink:href="#DejaVuSans-61" x="67.232422"/>
      <use xlink:href="#DejaVuSans-74" x="128.511719"/>
      <use xlink:href="#DejaVuSans-65" x="167.720703"/>
      <use xlink:href="#DejaVuSans-20" x="229.244141"/>
      <use xlink:href="#DejaVuSans-6f" x="261.03125"/>
      <use xlink:href="#DejaVuSans-66" x="322.212891"/>
      <use xlink:href="#DejaVuSans-20" x="357.417969"/>
      <use xlink:href="#DejaVuSans-65" x="389.205078"/>
      <use xlink:href="#DejaVuSans-61" x="450.728516"/>
      <use xlink:href="#DejaVuSans-63" x="512.007812"/>
      <use xlink:href="#DejaVuSans-68" x="566.988281"/>
      <use xlink:href="#DejaVuSans-20" x="630.367188"/>
      <use xlink:href="#DejaVuSans-6f" x="662.154297"/>
      <use xlink:href="#DejaVuSans-75" x="723.335938"/>
      <use xlink:href="#DejaVuSans-74" x="786.714844"/>
      <use xlink:href="#DejaVuSans-63" x="825.923828"/>
      <use xlink:href="#DejaVuSans-6f" x="880.904297"/>
      <use xlink:href="#DejaVuSans-6d" x="942.085938"/>
      <use xlink:href="#DejaVuSans-65" x="1039.498047"/>
      <use xlink:href="#DejaVuSans-20" x="1101.021484"/>
      <use xlink:href="#DejaVuSans-28" x="1132.808594"/>
      <use xlink:href="#DejaVuSans-70" x="1171.822266"/>
      <use xlink:href="#DejaVuSans-65" x="1235.298828"/>
      <use xlink:href="#DejaVuSans-72" x="1296.822266"/>
      <use xlink:href="#DejaVuSans-20" x="1337.935547"/>
      <use xlink:href="#DejaVuSans-31" x="1369.722656"/>
      <use xlink:href="#DejaVuSans-2c" x="1433.345703"/>
      <use xlink:href="#DejaVuSans-30" x="1465.132812"/>
      <use xlink:href="#DejaVuSans-30" x="1528.755859"/>
      <use xlink:href="#DejaVuSans-30" x="1592.378906"/>
      <use xlink:href="#DejaVuSans-20" x="1656.001953"/>
      <use xlink:href="#DejaVuSans-70" x="1687.789062"/>
      <use xlink:href="#DejaVuSans-65" x="1751.265625"/>
      <use xlink:href="#DejaVuSans-72" x="1812.789062"/>
      <use xlink:href="#DejaVuSans-73" x="1853.902344"/>
      <use xlink:href="#DejaVuSans-6f" x="1906.001953"/>
      <use xlink:href="#DejaVuSans-6e" x="1967.183594"/>
      <use xlink:href="#DejaVuSans-20" x="2030.5625"/>
      <use xlink:href="#DejaVuSans-79" x="2062.349609"/>
      <use xlink:href="#DejaVuSans-65" x="2121.529297"/>
      <use xlink:href="#DejaVuSans-61" x="2183.052734"/>
      <use xlink:href="#DejaVuSans-72" x="2244.332031"/>
      <use xlink:href="#DejaVuSans-73" x="2285.445312"/>
      <use xlink:href="#DejaVuSans-29" x="2337.544922"/>
     </g>
    </g>
   </g>
   <g id="LineCollection_1">
    <path d="M 74.345451 323.552469 
L 74.345451 317.448148 
" clip-path="url(#p752f0d90b5)" style="fill: none; stroke: #000000; stroke-width: 1.5"/>
    <path d="M 127.873191 331.760524 
L 127.873191 327.829735 
" clip-path="url(#p752f0d90b5)" style="fill: none; stroke: #000000; stroke-width: 1.5"/>
    <path d="M 181.40093 319.695527 
L 181.40093 311.823889 
" clip-path="url(#p752f0d90b5)" style="fill: none; stroke: #000000; stroke-width: 1.5"/>
    <path d="M 234.92867 269.564466 
L 234.92867 257.051339 
" clip-path="url(#p752f0d90b5)" style="fill: none; stroke: #000000; stroke-width: 1.5"/>
    <path d="M 288.45641 330.48908 
L 288.45641 326.009763 
" clip-path="url(#p752f0d90b5)" style="fill: none; stroke: #000000; stroke-width: 1.5"/>
    <path d="M 341.98415 279.587874 
L 341.98415 267.504434 
" clip-path="url(#p752f0d90b5)" style="fill: none; stroke: #000000; stroke-width: 1.5"/>
    <path d="M 395.511889 327.47975 
L 395.511889 321.674279 
" clip-path="url(#p752f0d90b5)" style="fill: none; stroke: #000000; stroke-width: 1.5"/>
   </g>
   <g id="LineCollection_2">
    <path d="M 81.482483 295.342597 
L 81.482483 293.45255 
" clip-path="url(#p752f0d90b5)" style="fill: none; stroke: #000000; stroke-width: 1.5"/>
    <path d="M 135.010223 320.280867 
L 135.010223 318.949569 
" clip-path="url(#p752f0d90b5)" style="fill: none; stroke: #000000; stroke-width: 1.5"/>
    <path d="M 188.537962 266.897567 
L 188.537962 265.53447 
" clip-path="url(#p752f0d90b5)" style="fill: none; stroke: #000000; stroke-width: 1.5"/>
    <path d="M 242.065702 161.197235 
L 242.065702 157.463854 
" clip-path="url(#p752f0d90b5)" style="fill: none; stroke: #000000; stroke-width: 1.5"/>
    <path d="M 295.593442 314.987389 
L 295.593442 313.562411 
" clip-path="url(#p752f0d90b5)" style="fill: none; stroke: #000000; stroke-width: 1.5"/>
    <path d="M 349.121182 175.520496 
L 349.121182 171.786105 
" clip-path="url(#p752f0d90b5)" style="fill: none; stroke: #000000; stroke-width: 1.5"/>
    <path d="M 402.648921 312.090478 
L 402.648921 309.725775 
" clip-path="url(#p752f0d90b5)" style="fill: none; stroke: #000000; stroke-width: 1.5"/>
   </g>
   <g id="LineCollection_3">
    <path d="M 88.619515 326.212835 
L 88.619515 322.147412 
" clip-path="url(#p752f0d90b5)" style="fill: none; stroke: #000000; stroke-width: 1.5"/>
    <path d="M 142.147255 331.03369 
L 142.147255 327.880027 
" clip-path="url(#p752f0d90b5)" style="fill: none; stroke: #000000; stroke-width: 1.5"/>
    <path d="M 195.674994 325.734362 
L 195.674994 321.570597 
" clip-path="url(#p752f0d90b5)" style="fill: none; stroke: #000000; stroke-width: 1.5"/>
    <path d="M 249.202734 271.208937 
L 249.202734 261.647326 
" clip-path="url(#p752f0d90b5)" style="fill: none; stroke: #000000; stroke-width: 1.5"/>
    <path d="M 302.730474 331.545553 
L 302.730474 328.50677 
" clip-path="url(#p752f0d90b5)" style="fill: none; stroke: #000000; stroke-width: 1.5"/>
    <path d="M 356.258213 293.772715 
L 356.258213 285.913263 
" clip-path="url(#p752f0d90b5)" style="fill: none; stroke: #000000; stroke-width: 1.5"/>
    <path d="M 409.785953 328.404253 
L 409.785953 323.859678 
" clip-path="url(#p752f0d90b5)" style="fill: none; stroke: #000000; stroke-width: 1.5"/>
   </g>
   <g id="LineCollection_4">
    <path d="M 95.756547 328.919016 
L 95.756547 324.763595 
" clip-path="url(#p752f0d90b5)" style="fill: none; stroke: #000000; stroke-width: 1.5"/>
    <path d="M 149.284287 334.605171 
L 149.284287 332.010278 
" clip-path="url(#p752f0d90b5)" style="fill: none; stroke: #000000; stroke-width: 1.5"/>
    <path d="M 202.812026 331.800717 
L 202.812026 328.316948 
" clip-path="url(#p752f0d90b5)" style="fill: none; stroke: #000000; stroke-width: 1.5"/>
    <path d="M 256.339766 291.296611 
L 256.339766 282.004057 
" clip-path="url(#p752f0d90b5)" style="fill: none; stroke: #000000; stroke-width: 1.5"/>
    <path d="M 309.867506 333.618751 
L 309.867506 330.686509 
" clip-path="url(#p752f0d90b5)" style="fill: none; stroke: #000000; stroke-width: 1.5"/>
    <path d="M 363.395245 303.728267 
L 363.395245 295.709568 
" clip-path="url(#p752f0d90b5)" style="fill: none; stroke: #000000; stroke-width: 1.5"/>
    <path d="M 416.922985 331.385089 
L 416.922985 326.950914 
" clip-path="url(#p752f0d90b5)" style="fill: none; stroke: #000000; stroke-width: 1.5"/>
   </g>
   <g id="LineCollection_5">
    <path d="M 102.893579 330.724096 
L 102.893579 326.336496 
" clip-path="url(#p752f0d90b5)" style="fill: none; stroke: #000000; stroke-width: 1.5"/>
    <path d="M 156.421318 334.6974 
L 156.421318 331.66974 
" clip-path="url(#p752f0d90b5)" style="fill: none; stroke: #000000; stroke-width: 1.5"/>
    <path d="M 209.949058 332.275935 
L 209.949058 328.335701 
" clip-path="url(#p752f0d90b5)" style="fill: none; stroke: #000000; stroke-width: 1.5"/>
    <path d="M 263.476798 298.139348 
L 263.476798 288.080106 
" clip-path="url(#p752f0d90b5)" style="fill: none; stroke: #000000; stroke-width: 1.5"/>
    <path d="M 317.004538 334.121841 
L 317.004538 330.859357 
" clip-path="url(#p752f0d90b5)" style="fill: none; stroke: #000000; stroke-width: 1.5"/>
    <path d="M 370.532277 309.07704 
L 370.532277 300.44934 
" clip-path="url(#p752f0d90b5)" style="fill: none; stroke: #000000; stroke-width: 1.5"/>
    <path d="M 424.060017 329.709782 
L 424.060017 323.920041 
" clip-path="url(#p752f0d90b5)" style="fill: none; stroke: #000000; stroke-width: 1.5"/>
   </g>
   <g id="LineCollection_6">
    <path d="M 110.030611 331.454078 
L 110.030611 329.614005 
" clip-path="url(#p752f0d90b5)" style="fill: none; stroke: #000000; stroke-width: 1.5"/>
    <path d="M 163.55835 334.675051 
L 163.55835 333.440526 
" clip-path="url(#p752f0d90b5)" style="fill: none; stroke: #000000; stroke-width: 1.5"/>
    <path d="M 217.08609 334.968977 
L 217.08609 332.879521 
" clip-path="url(#p752f0d90b5)" style="fill: none; stroke: #000000; stroke-width: 1.5"/>
    <path d="M 270.61383 314.025581 
L 270.61383 310.083638 
" clip-path="url(#p752f0d90b5)" style="fill: none; stroke: #000000; stroke-width: 1.5"/>
    <path d="M 324.14157 334.215452 
L 324.14157 332.862693 
" clip-path="url(#p752f0d90b5)" style="fill: none; stroke: #000000; stroke-width: 1.5"/>
    <path d="M 377.669309 313.737645 
L 377.669309 310.073222 
" clip-path="url(#p752f0d90b5)" style="fill: none; stroke: #000000; stroke-width: 1.5"/>
    <path d="M 431.197049 331.051525 
L 431.197049 329.112813 
" clip-path="url(#p752f0d90b5)" style="fill: none; stroke: #000000; stroke-width: 1.5"/>
   </g>
   <g id="patch_45">
    <path d="M 57.395 337.525 
L 57.395 26.16 
" style="fill: none; stroke: #000000; stroke-width: 0.8; stroke-linejoin: miter; stroke-linecap: square"/>
   </g>
   <g id="patch_46">
    <path d="M 448.1475 337.525 
L 448.1475 26.16 
" style="fill: none; stroke: #000000; stroke-width: 0.8; stroke-linejoin: miter; stroke-linecap: square"/>
   </g>
   <g id="patch_47">
    <path d="M 57.395 337.525 
L 448.1475 337.525 
" style="fill: none; stroke: #000000; stroke-width: 0.8; stroke-linejoin: miter; stroke-linecap: square"/>
   </g>
   <g id="patch_48">
    <path d="M 57.395 26.16 
L 448.1475 26.16 
" style="fill: none; stroke: #000000; stroke-width: 0.8; stroke-linejoin: miter; stroke-linecap: square"/>
   </g>
   <g id="text_16">
    <!-- a) Patients discharged after hospitalisation with COVID-19 -->
    <g transform="translate(57.395 20.16)scale(0.12 -0.12)">
     <defs>
      <path id="DejaVuSans-64" d="M 2906 2969 
L 2906 4863 
L 3481 4863 
L 3481 0 
L 2906 0 
L 2906 525 
Q 2725 213 2448 61 
Q 2172 -91 1784 -91 
Q 1150 -91 751 415 
Q 353 922 353 1747 
Q 353 2572 751 3078 
Q 1150 3584 1784 3584 
Q 2172 3584 2448 3432 
Q 2725 3281 2906 2969 
z
M 947 1747 
Q 947 1113 1208 752 
Q 1469 391 1925 391 
Q 2381 391 2643 752 
Q 2906 1113 2906 1747 
Q 2906 2381 2643 2742 
Q 2381 3103 1925 3103 
Q 1469 3103 1208 2742 
Q 947 2381 947 1747 
z
" transform="scale(0.015625)"/>
      <path id="DejaVuSans-67" d="M 2906 1791 
Q 2906 2416 2648 2759 
Q 2391 3103 1925 3103 
Q 1463 3103 1205 2759 
Q 947 2416 947 1791 
Q 947 1169 1205 825 
Q 1463 481 1925 481 
Q 2391 481 2648 825 
Q 2906 1169 2906 1791 
z
M 3481 434 
Q 3481 -459 3084 -895 
Q 2688 -1331 1869 -1331 
Q 1566 -1331 1297 -1286 
Q 1028 -1241 775 -1147 
L 775 -588 
Q 1028 -725 1275 -790 
Q 1522 -856 1778 -856 
Q 2344 -856 2625 -561 
Q 2906 -266 2906 331 
L 2906 616 
Q 2728 306 2450 153 
Q 2172 0 1784 0 
Q 1141 0 747 490 
Q 353 981 353 1791 
Q 353 2603 747 3093 
Q 1141 3584 1784 3584 
Q 2172 3584 2450 3431 
Q 2728 3278 2906 2969 
L 2906 3500 
L 3481 3500 
L 3481 434 
z
" transform="scale(0.015625)"/>
      <path id="DejaVuSans-77" d="M 269 3500 
L 844 3500 
L 1563 769 
L 2278 3500 
L 2956 3500 
L 3675 769 
L 4391 3500 
L 4966 3500 
L 4050 0 
L 3372 0 
L 2619 2869 
L 1863 0 
L 1184 0 
L 269 3500 
z
" transform="scale(0.015625)"/>
      <path id="DejaVuSans-43" d="M 4122 4306 
L 4122 3641 
Q 3803 3938 3442 4084 
Q 3081 4231 2675 4231 
Q 1875 4231 1450 3742 
Q 1025 3253 1025 2328 
Q 1025 1406 1450 917 
Q 1875 428 2675 428 
Q 3081 428 3442 575 
Q 3803 722 4122 1019 
L 4122 359 
Q 3791 134 3420 21 
Q 3050 -91 2638 -91 
Q 1578 -91 968 557 
Q 359 1206 359 2328 
Q 359 3453 968 4101 
Q 1578 4750 2638 4750 
Q 3056 4750 3426 4639 
Q 3797 4528 4122 4306 
z
" transform="scale(0.015625)"/>
      <path id="DejaVuSans-4f" d="M 2522 4238 
Q 1834 4238 1429 3725 
Q 1025 3213 1025 2328 
Q 1025 1447 1429 934 
Q 1834 422 2522 422 
Q 3209 422 3611 934 
Q 4013 1447 4013 2328 
Q 4013 3213 3611 3725 
Q 3209 4238 2522 4238 
z
M 2522 4750 
Q 3503 4750 4090 4092 
Q 4678 3434 4678 2328 
Q 4678 1225 4090 567 
Q 3503 -91 2522 -91 
Q 1538 -91 948 565 
Q 359 1222 359 2328 
Q 359 3434 948 4092 
Q 1538 4750 2522 4750 
z
" transform="scale(0.015625)"/>
      <path id="DejaVuSans-2d" d="M 313 2009 
L 1997 2009 
L 1997 1497 
L 313 1497 
L 313 2009 
z
" transform="scale(0.015625)"/>
      <path id="DejaVuSans-39" d="M 703 97 
L 703 672 
Q 941 559 1184 500 
Q 1428 441 1663 441 
Q 2288 441 2617 861 
Q 2947 1281 2994 2138 
Q 2813 1869 2534 1725 
Q 2256 1581 1919 1581 
Q 1219 1581 811 2004 
Q 403 2428 403 3163 
Q 403 3881 828 4315 
Q 1253 4750 1959 4750 
Q 2769 4750 3195 4129 
Q 3622 3509 3622 2328 
Q 3622 1225 3098 567 
Q 2575 -91 1691 -91 
Q 1453 -91 1209 -44 
Q 966 3 703 97 
z
M 1959 2075 
Q 2384 2075 2632 2365 
Q 2881 2656 2881 3163 
Q 2881 3666 2632 3958 
Q 2384 4250 1959 4250 
Q 1534 4250 1286 3958 
Q 1038 3666 1038 3163 
Q 1038 2656 1286 2365 
Q 1534 2075 1959 2075 
z
" transform="scale(0.015625)"/>
     </defs>
     <use xlink:href="#DejaVuSans-61"/>
     <use xlink:href="#DejaVuSans-29" x="61.279297"/>
     <use xlink:href="#DejaVuSans-20" x="100.292969"/>
     <use xlink:href="#DejaVuSans-50" x="132.080078"/>
     <use xlink:href="#DejaVuSans-61" x="187.882812"/>
     <use xlink:href="#DejaVuSans-74" x="249.162109"/>
     <use xlink:href="#DejaVuSans-69" x="288.371094"/>
     <use xlink:href="#DejaVuSans-65" x="316.154297"/>
     <use xlink:href="#DejaVuSans-6e" x="377.677734"/>
     <use xlink:href="#DejaVuSans-74" x="441.056641"/>
     <use xlink:href="#DejaVuSans-73" x="480.265625"/>
     <use xlink:href="#DejaVuSans-20" x="532.365234"/>
     <use xlink:href="#DejaVuSans-64" x="564.152344"/>
     <use xlink:href="#DejaVuSans-69" x="627.628906"/>
     <use xlink:href="#DejaVuSans-73" x="655.412109"/>
     <use xlink:href="#DejaVuSans-63" x="707.511719"/>
     <use xlink:href="#DejaVuSans-68" x="762.492188"/>
     <use xlink:href="#DejaVuSans-61" x="825.871094"/>
     <use xlink:href="#DejaVuSans-72" x="887.150391"/>
     <use xlink:href="#DejaVuSans-67" x="926.513672"/>
     <use xlink:href="#DejaVuSans-65" x="989.990234"/>
     <use xlink:href="#DejaVuSans-64" x="1051.513672"/>
     <use xlink:href="#DejaVuSans-20" x="1114.990234"/>
     <use xlink:href="#DejaVuSans-61" x="1146.777344"/>
     <use xlink:href="#DejaVuSans-66" x="1208.056641"/>
     <use xlink:href="#DejaVuSans-74" x="1241.511719"/>
     <use xlink:href="#DejaVuSans-65" x="1280.720703"/>
     <use xlink:href="#DejaVuSans-72" x="1342.244141"/>
     <use xlink:href="#DejaVuSans-20" x="1383.357422"/>
     <use xlink:href="#DejaVuSans-68" x="1415.144531"/>
     <use xlink:href="#DejaVuSans-6f" x="1478.523438"/>
     <use xlink:href="#DejaVuSans-73" x="1539.705078"/>
     <use xlink:href="#DejaVuSans-70" x="1591.804688"/>
     <use xlink:href="#DejaVuSans-69" x="1655.28125"/>
     <use xlink:href="#DejaVuSans-74" x="1683.064453"/>
     <use xlink:href="#DejaVuSans-61" x="1722.273438"/>
     <use xlink:href="#DejaVuSans-6c" x="1783.552734"/>
     <use xlink:href="#DejaVuSans-69" x="1811.335938"/>
     <use xlink:href="#DejaVuSans-73" x="1839.119141"/>
     <use xlink:href="#DejaVuSans-61" x="1891.21875"/>
     <use xlink:href="#DejaVuSans-74" x="1952.498047"/>
     <use xlink:href="#DejaVuSans-69" x="1991.707031"/>
     <use xlink:href="#DejaVuSans-6f" x="2019.490234"/>
     <use xlink:href="#DejaVuSans-6e" x="2080.671875"/>
     <use xlink:href="#DejaVuSans-20" x="2144.050781"/>
     <use xlink:href="#DejaVuSans-77" x="2175.837891"/>
     <use xlink:href="#DejaVuSans-69" x="2257.625"/>
     <use xlink:href="#DejaVuSans-74" x="2285.408203"/>
     <use xlink:href="#DejaVuSans-68" x="2324.617188"/>
     <use xlink:href="#DejaVuSans-20" x="2387.996094"/>
     <use xlink:href="#DejaVuSans-43" x="2419.783203"/>
     <use xlink:href="#DejaVuSans-4f" x="2489.607422"/>
     <use xlink:href="#DejaVuSans-56" x="2566.568359"/>
     <use xlink:href="#DejaVuSans-49" x="2634.976562"/>
     <use xlink:href="#DejaVuSans-44" x="2664.46875"/>
     <use xlink:href="#DejaVuSans-2d" x="2741.470703"/>
     <use xlink:href="#DejaVuSans-31" x="2777.554688"/>
     <use xlink:href="#DejaVuSans-39" x="2841.177734"/>
    </g>
   </g>
   <g id="legend_1">
    <g id="patch_49">
     <path d="M 64.395 136.906875 
L 216.729375 136.906875 
Q 218.729375 136.906875 218.729375 134.906875 
L 218.729375 33.16 
Q 218.729375 31.16 216.729375 31.16 
L 64.395 31.16 
Q 62.395 31.16 62.395 33.16 
L 62.395 134.906875 
Q 62.395 136.906875 64.395 136.906875 
z
" style="fill: #ffffff; opacity: 0.8; stroke: #cccccc; stroke-linejoin: miter"/>
    </g>
    <g id="text_17">
     <!-- Time since hospital discharge -->
     <g transform="translate(66.395 42.758438)scale(0.1 -0.1)">
      <use xlink:href="#DejaVuSans-54"/>
      <use xlink:href="#DejaVuSans-69" x="57.958984"/>
      <use xlink:href="#DejaVuSans-6d" x="85.742188"/>
      <use xlink:href="#DejaVuSans-65" x="183.154297"/>
      <use xlink:href="#DejaVuSans-20" x="244.677734"/>
      <use xlink:href="#DejaVuSans-73" x="276.464844"/>
      <use xlink:href="#DejaVuSans-69" x="328.564453"/>
      <use xlink:href="#DejaVuSans-6e" x="356.347656"/>
      <use xlink:href="#DejaVuSans-63" x="419.726562"/>
      <use xlink:href="#DejaVuSans-65" x="474.707031"/>
      <use xlink:href="#DejaVuSans-20" x="536.230469"/>
      <use xlink:href="#DejaVuSans-68" x="568.017578"/>
      <use xlink:href="#DejaVuSans-6f" x="631.396484"/>
      <use xlink:href="#DejaVuSans-73" x="692.578125"/>
      <use xlink:href="#DejaVuSans-70" x="744.677734"/>
      <use xlink:href="#DejaVuSans-69" x="808.154297"/>
      <use xlink:href="#DejaVuSans-74" x="835.9375"/>
      <use xlink:href="#DejaVuSans-61" x="875.146484"/>
      <use xlink:href="#DejaVuSans-6c" x="936.425781"/>
      <use xlink:href="#DejaVuSans-20" x="964.208984"/>
      <use xlink:href="#DejaVuSans-64" x="995.996094"/>
      <use xlink:href="#DejaVuSans-69" x="1059.472656"/>
      <use xlink:href="#DejaVuSans-73" x="1087.255859"/>
      <use xlink:href="#DejaVuSans-63" x="1139.355469"/>
      <use xlink:href="#DejaVuSans-68" x="1194.335938"/>
      <use xlink:href="#DejaVuSans-61" x="1257.714844"/>
      <use xlink:href="#DejaVuSans-72" x="1318.994141"/>
      <use xlink:href="#DejaVuSans-67" x="1358.357422"/>
      <use xlink:href="#DejaVuSans-65" x="1421.833984"/>
     </g>
    </g>
    <g id="patch_50">
     <path d="M 95.460625 57.436563 
L 115.460625 57.436563 
L 115.460625 50.436563 
L 95.460625 50.436563 
z
" style="fill: #ff7f00"/>
    </g>
    <g id="text_18">
     <!-- Full period -->
     <g transform="translate(123.460625 57.436563)scale(0.1 -0.1)">
      <defs>
       <path id="DejaVuSans-46" d="M 628 4666 
L 3309 4666 
L 3309 4134 
L 1259 4134 
L 1259 2759 
L 3109 2759 
L 3109 2228 
L 1259 2228 
L 1259 0 
L 628 0 
L 628 4666 
z
" transform="scale(0.015625)"/>
      </defs>
      <use xlink:href="#DejaVuSans-46"/>
      <use xlink:href="#DejaVuSans-75" x="52.019531"/>
      <use xlink:href="#DejaVuSans-6c" x="115.398438"/>
      <use xlink:href="#DejaVuSans-6c" x="143.181641"/>
      <use xlink:href="#DejaVuSans-20" x="170.964844"/>
      <use xlink:href="#DejaVuSans-70" x="202.751953"/>
      <use xlink:href="#DejaVuSans-65" x="266.228516"/>
      <use xlink:href="#DejaVuSans-72" x="327.751953"/>
      <use xlink:href="#DejaVuSans-69" x="368.865234"/>
      <use xlink:href="#DejaVuSans-6f" x="396.648438"/>
      <use xlink:href="#DejaVuSans-64" x="457.830078"/>
     </g>
    </g>
    <g id="patch_51">
     <path d="M 95.460625 72.114688 
L 115.460625 72.114688 
L 115.460625 65.114688 
L 95.460625 65.114688 
z
" style="fill: #3579b1"/>
    </g>
    <g id="text_19">
     <!-- 0-29 days -->
     <g transform="translate(123.460625 72.114688)scale(0.1 -0.1)">
      <use xlink:href="#DejaVuSans-30"/>
      <use xlink:href="#DejaVuSans-2d" x="63.623047"/>
      <use xlink:href="#DejaVuSans-32" x="99.707031"/>
      <use xlink:href="#DejaVuSans-39" x="163.330078"/>
      <use xlink:href="#DejaVuSans-20" x="226.953125"/>
      <use xlink:href="#DejaVuSans-64" x="258.740234"/>
      <use xlink:href="#DejaVuSans-61" x="322.216797"/>
      <use xlink:href="#DejaVuSans-79" x="383.496094"/>
      <use xlink:href="#DejaVuSans-73" x="442.675781"/>
     </g>
    </g>
    <g id="patch_52">
     <path d="M 95.460625 86.792813 
L 115.460625 86.792813 
L 115.460625 79.792813 
L 95.460625 79.792813 
z
" style="fill: #3b86c4"/>
    </g>
    <g id="text_20">
     <!-- 30-59 days -->
     <g transform="translate(123.460625 86.792813)scale(0.1 -0.1)">
      <defs>
       <path id="DejaVuSans-33" d="M 2597 2516 
Q 3050 2419 3304 2112 
Q 3559 1806 3559 1356 
Q 3559 666 3084 287 
Q 2609 -91 1734 -91 
Q 1441 -91 1130 -33 
Q 819 25 488 141 
L 488 750 
Q 750 597 1062 519 
Q 1375 441 1716 441 
Q 2309 441 2620 675 
Q 2931 909 2931 1356 
Q 2931 1769 2642 2001 
Q 2353 2234 1838 2234 
L 1294 2234 
L 1294 2753 
L 1863 2753 
Q 2328 2753 2575 2939 
Q 2822 3125 2822 3475 
Q 2822 3834 2567 4026 
Q 2313 4219 1838 4219 
Q 1578 4219 1281 4162 
Q 984 4106 628 3988 
L 628 4550 
Q 988 4650 1302 4700 
Q 1616 4750 1894 4750 
Q 2613 4750 3031 4423 
Q 3450 4097 3450 3541 
Q 3450 3153 3228 2886 
Q 3006 2619 2597 2516 
z
" transform="scale(0.015625)"/>
       <path id="DejaVuSans-35" d="M 691 4666 
L 3169 4666 
L 3169 4134 
L 1269 4134 
L 1269 2991 
Q 1406 3038 1543 3061 
Q 1681 3084 1819 3084 
Q 2600 3084 3056 2656 
Q 3513 2228 3513 1497 
Q 3513 744 3044 326 
Q 2575 -91 1722 -91 
Q 1428 -91 1123 -41 
Q 819 9 494 109 
L 494 744 
Q 775 591 1075 516 
Q 1375 441 1709 441 
Q 2250 441 2565 725 
Q 2881 1009 2881 1497 
Q 2881 1984 2565 2268 
Q 2250 2553 1709 2553 
Q 1456 2553 1204 2497 
Q 953 2441 691 2322 
L 691 4666 
z
" transform="scale(0.015625)"/>
      </defs>
      <use xlink:href="#DejaVuSans-33"/>
      <use xlink:href="#DejaVuSans-30" x="63.623047"/>
      <use xlink:href="#DejaVuSans-2d" x="127.246094"/>
      <use xlink:href="#DejaVuSans-35" x="163.330078"/>
      <use xlink:href="#DejaVuSans-39" x="226.953125"/>
      <use xlink:href="#DejaVuSans-20" x="290.576172"/>
      <use xlink:href="#DejaVuSans-64" x="322.363281"/>
      <use xlink:href="#DejaVuSans-61" x="385.839844"/>
      <use xlink:href="#DejaVuSans-79" x="447.119141"/>
      <use xlink:href="#DejaVuSans-73" x="506.298828"/>
     </g>
    </g>
    <g id="patch_53">
     <path d="M 95.460625 101.470938 
L 115.460625 101.470938 
L 115.460625 94.470938 
L 95.460625 94.470938 
z
" style="fill: #4e92ca"/>
    </g>
    <g id="text_21">
     <!-- 60-89 days -->
     <g transform="translate(123.460625 101.470938)scale(0.1 -0.1)">
      <use xlink:href="#DejaVuSans-36"/>
      <use xlink:href="#DejaVuSans-30" x="63.623047"/>
      <use xlink:href="#DejaVuSans-2d" x="127.246094"/>
      <use xlink:href="#DejaVuSans-38" x="163.330078"/>
      <use xlink:href="#DejaVuSans-39" x="226.953125"/>
      <use xlink:href="#DejaVuSans-20" x="290.576172"/>
      <use xlink:href="#DejaVuSans-64" x="322.363281"/>
      <use xlink:href="#DejaVuSans-61" x="385.839844"/>
      <use xlink:href="#DejaVuSans-79" x="447.119141"/>
      <use xlink:href="#DejaVuSans-73" x="506.298828"/>
     </g>
    </g>
    <g id="patch_54">
     <path d="M 95.460625 116.149063 
L 115.460625 116.149063 
L 115.460625 109.149063 
L 95.460625 109.149063 
z
" style="fill: #629fd0"/>
    </g>
    <g id="text_22">
     <!-- 90-119 days -->
     <g transform="translate(123.460625 116.149063)scale(0.1 -0.1)">
      <use xlink:href="#DejaVuSans-39"/>
      <use xlink:href="#DejaVuSans-30" x="63.623047"/>
      <use xlink:href="#DejaVuSans-2d" x="127.246094"/>
      <use xlink:href="#DejaVuSans-31" x="163.330078"/>
      <use xlink:href="#DejaVuSans-31" x="226.953125"/>
      <use xlink:href="#DejaVuSans-39" x="290.576172"/>
      <use xlink:href="#DejaVuSans-20" x="354.199219"/>
      <use xlink:href="#DejaVuSans-64" x="385.986328"/>
      <use xlink:href="#DejaVuSans-61" x="449.462891"/>
      <use xlink:href="#DejaVuSans-79" x="510.742188"/>
      <use xlink:href="#DejaVuSans-73" x="569.921875"/>
     </g>
    </g>
    <g id="patch_55">
     <path d="M 95.460625 130.827188 
L 115.460625 130.827188 
L 115.460625 123.827188 
L 95.460625 123.827188 
z
" style="fill: #76abd6"/>
    </g>
    <g id="text_23">
     <!-- 120+ days -->
     <g transform="translate(123.460625 130.827188)scale(0.1 -0.1)">
      <defs>
       <path id="DejaVuSans-2b" d="M 2944 4013 
L 2944 2272 
L 4684 2272 
L 4684 1741 
L 2944 1741 
L 2944 0 
L 2419 0 
L 2419 1741 
L 678 1741 
L 678 2272 
L 2419 2272 
L 2419 4013 
L 2944 4013 
z
" transform="scale(0.015625)"/>
      </defs>
      <use xlink:href="#DejaVuSans-31"/>
      <use xlink:href="#DejaVuSans-32" x="63.623047"/>
      <use xlink:href="#DejaVuSans-30" x="127.246094"/>
      <use xlink:href="#DejaVuSans-2b" x="190.869141"/>
      <use xlink:href="#DejaVuSans-20" x="274.658203"/>
      <use xlink:href="#DejaVuSans-64" x="306.445312"/>
      <use xlink:href="#DejaVuSans-61" x="369.921875"/>
      <use xlink:href="#DejaVuSans-79" x="431.201172"/>
      <use xlink:href="#DejaVuSans-73" x="490.380859"/>
     </g>
    </g>
   </g>
  </g>
  <g id="axes_2">
   <g id="patch_56">
    <path d="M 462.4475 337.525 
L 853.2 337.525 
L 853.2 26.16 
L 462.4475 26.16 
z
" style="fill: #ffffff"/>
   </g>
   <g id="patch_57">
    <path d="M 475.829435 337.525 
L 482.966467 337.525 
L 482.966467 319.738739 
L 475.829435 319.738739 
z
" clip-path="url(#p5e4dacbee9)" style="fill: #ff7f00"/>
   </g>
   <g id="patch_58">
    <path d="M 529.357175 337.525 
L 536.494207 337.525 
L 536.494207 330.07466 
L 529.357175 330.07466 
z
" clip-path="url(#p5e4dacbee9)" style="fill: #ff7f00"/>
   </g>
   <g id="patch_59">
    <path d="M 582.884914 337.525 
L 590.021946 337.525 
L 590.021946 321.446351 
L 582.884914 321.446351 
z
" clip-path="url(#p5e4dacbee9)" style="fill: #ff7f00"/>
   </g>
   <g id="patch_60">
    <path d="M 636.412654 337.525 
L 643.549686 337.525 
L 643.549686 217.239439 
L 636.412654 217.239439 
z
" clip-path="url(#p5e4dacbee9)" style="fill: #ff7f00"/>
   </g>
   <g id="patch_61">
    <path d="M 689.940394 337.525 
L 697.077426 337.525 
L 697.077426 324.809954 
L 689.940394 324.809954 
z
" clip-path="url(#p5e4dacbee9)" style="fill: #ff7f00"/>
   </g>
   <g id="patch_62">
    <path d="M 743.468134 337.525 
L 750.605166 337.525 
L 750.605166 261.212779 
L 743.468134 261.212779 
z
" clip-path="url(#p5e4dacbee9)" style="fill: #ff7f00"/>
   </g>
   <g id="patch_63">
    <path d="M 796.995873 337.525 
L 804.132905 337.525 
L 804.132905 326.914766 
L 796.995873 326.914766 
z
" clip-path="url(#p5e4dacbee9)" style="fill: #ff7f00"/>
   </g>
   <g id="patch_64">
    <path d="M 482.966467 337.525 
L 490.103499 337.525 
L 490.103499 297.71981 
L 482.966467 297.71981 
z
" clip-path="url(#p5e4dacbee9)" style="fill: #3579b1"/>
   </g>
   <g id="patch_65">
    <path d="M 536.494207 337.525 
L 543.631239 337.525 
L 543.631239 319.403788 
L 536.494207 319.403788 
z
" clip-path="url(#p5e4dacbee9)" style="fill: #3579b1"/>
   </g>
   <g id="patch_66">
    <path d="M 590.021946 337.525 
L 597.158978 337.525 
L 597.158978 286.440683 
L 590.021946 286.440683 
z
" clip-path="url(#p5e4dacbee9)" style="fill: #3579b1"/>
   </g>
   <g id="patch_67">
    <path d="M 643.549686 337.525 
L 650.686718 337.525 
L 650.686718 42.734254 
L 643.549686 42.734254 
z
" clip-path="url(#p5e4dacbee9)" style="fill: #3579b1"/>
   </g>
   <g id="patch_68">
    <path d="M 697.077426 337.525 
L 704.214458 337.525 
L 704.214458 306.382176 
L 697.077426 306.382176 
z
" clip-path="url(#p5e4dacbee9)" style="fill: #3579b1"/>
   </g>
   <g id="patch_69">
    <path d="M 750.605166 337.525 
L 757.742197 337.525 
L 757.742197 175.950996 
L 750.605166 175.950996 
z
" clip-path="url(#p5e4dacbee9)" style="fill: #3579b1"/>
   </g>
   <g id="patch_70">
    <path d="M 804.132905 337.525 
L 811.269937 337.525 
L 811.269937 318.287057 
L 804.132905 318.287057 
z
" clip-path="url(#p5e4dacbee9)" style="fill: #3579b1"/>
   </g>
   <g id="patch_71">
    <path d="M 490.103499 337.525 
L 497.240531 337.525 
L 497.240531 317.275624 
L 490.103499 317.275624 
z
" clip-path="url(#p5e4dacbee9)" style="fill: #3b86c4"/>
   </g>
   <g id="patch_72">
    <path d="M 543.631239 337.525 
L 550.768271 337.525 
L 550.768271 328.82378 
L 543.631239 328.82378 
z
" clip-path="url(#p5e4dacbee9)" style="fill: #3b86c4"/>
   </g>
   <g id="patch_73">
    <path d="M 597.158978 337.525 
L 604.29601 337.525 
L 604.29601 322.621806 
L 597.158978 322.621806 
z
" clip-path="url(#p5e4dacbee9)" style="fill: #3b86c4"/>
   </g>
   <g id="patch_74">
    <path d="M 650.686718 337.525 
L 657.82375 337.525 
L 657.82375 202.279305 
L 650.686718 202.279305 
z
" clip-path="url(#p5e4dacbee9)" style="fill: #3b86c4"/>
   </g>
   <g id="patch_75">
    <path d="M 704.214458 337.525 
L 711.35149 337.525 
L 711.35149 325.19848 
L 704.214458 325.19848 
z
" clip-path="url(#p5e4dacbee9)" style="fill: #3b86c4"/>
   </g>
   <g id="patch_76">
    <path d="M 757.742197 337.525 
L 764.879229 337.525 
L 764.879229 255.393504 
L 757.742197 255.393504 
z
" clip-path="url(#p5e4dacbee9)" style="fill: #3b86c4"/>
   </g>
   <g id="patch_77">
    <path d="M 811.269937 337.525 
L 818.406969 337.525 
L 818.406969 326.471913 
L 811.269937 326.471913 
z
" clip-path="url(#p5e4dacbee9)" style="fill: #3b86c4"/>
   </g>
   <g id="patch_78">
    <path d="M 497.240531 337.525 
L 504.377563 337.525 
L 504.377563 322.753123 
L 497.240531 322.753123 
z
" clip-path="url(#p5e4dacbee9)" style="fill: #4e92ca"/>
   </g>
   <g id="patch_79">
    <path d="M 550.768271 337.525 
L 557.905303 337.525 
L 557.905303 331.206012 
L 550.768271 331.206012 
z
" clip-path="url(#p5e4dacbee9)" style="fill: #4e92ca"/>
   </g>
   <g id="patch_80">
    <path d="M 604.29601 337.525 
L 611.433042 337.525 
L 611.433042 327.834818 
L 604.29601 327.834818 
z
" clip-path="url(#p5e4dacbee9)" style="fill: #4e92ca"/>
   </g>
   <g id="patch_81">
    <path d="M 657.82375 337.525 
L 664.960782 337.525 
L 664.960782 240.360512 
L 657.82375 240.360512 
z
" clip-path="url(#p5e4dacbee9)" style="fill: #4e92ca"/>
   </g>
   <g id="patch_82">
    <path d="M 711.35149 337.525 
L 718.488522 337.525 
L 718.488522 327.42942 
L 711.35149 327.42942 
z
" clip-path="url(#p5e4dacbee9)" style="fill: #4e92ca"/>
   </g>
   <g id="patch_83">
    <path d="M 764.879229 337.525 
L 772.016261 337.525 
L 772.016261 270.884291 
L 764.879229 270.884291 
z
" clip-path="url(#p5e4dacbee9)" style="fill: #4e92ca"/>
   </g>
   <g id="patch_84">
    <path d="M 818.406969 337.525 
L 825.544001 337.525 
L 825.544001 329.478817 
L 818.406969 329.478817 
z
" clip-path="url(#p5e4dacbee9)" style="fill: #4e92ca"/>
   </g>
   <g id="patch_85">
    <path d="M 504.377563 337.525 
L 511.514595 337.525 
L 511.514595 323.532123 
L 504.377563 323.532123 
z
" clip-path="url(#p5e4dacbee9)" style="fill: #629fd0"/>
   </g>
   <g id="patch_86">
    <path d="M 557.905303 337.525 
L 565.042334 337.525 
L 565.042334 332.727646 
L 557.905303 332.727646 
z
" clip-path="url(#p5e4dacbee9)" style="fill: #629fd0"/>
   </g>
   <g id="patch_87">
    <path d="M 611.433042 337.525 
L 618.570074 337.525 
L 618.570074 328.940748 
L 611.433042 328.940748 
z
" clip-path="url(#p5e4dacbee9)" style="fill: #629fd0"/>
   </g>
   <g id="patch_88">
    <path d="M 664.960782 337.525 
L 672.097814 337.525 
L 672.097814 263.760951 
L 664.960782 263.760951 
z
" clip-path="url(#p5e4dacbee9)" style="fill: #629fd0"/>
   </g>
   <g id="patch_89">
    <path d="M 718.488522 337.525 
L 725.625554 337.525 
L 725.625554 328.801371 
L 718.488522 328.801371 
z
" clip-path="url(#p5e4dacbee9)" style="fill: #629fd0"/>
   </g>
   <g id="patch_90">
    <path d="M 772.016261 337.525 
L 779.153293 337.525 
L 779.153293 283.742096 
L 772.016261 283.742096 
z
" clip-path="url(#p5e4dacbee9)" style="fill: #629fd0"/>
   </g>
   <g id="patch_91">
    <path d="M 825.544001 337.525 
L 832.681033 337.525 
L 832.681033 328.054118 
L 825.544001 328.054118 
z
" clip-path="url(#p5e4dacbee9)" style="fill: #629fd0"/>
   </g>
   <g id="patch_92">
    <path d="M 511.514595 337.525 
L 518.651627 337.525 
L 518.651627 328.111554 
L 511.514595 328.111554 
z
" clip-path="url(#p5e4dacbee9)" style="fill: #76abd6"/>
   </g>
   <g id="patch_93">
    <path d="M 565.042334 337.525 
L 572.179366 337.525 
L 572.179366 334.024686 
L 565.042334 334.024686 
z
" clip-path="url(#p5e4dacbee9)" style="fill: #76abd6"/>
   </g>
   <g id="patch_94">
    <path d="M 618.570074 337.525 
L 625.707106 337.525 
L 625.707106 332.107872 
L 618.570074 332.107872 
z
" clip-path="url(#p5e4dacbee9)" style="fill: #76abd6"/>
   </g>
   <g id="patch_95">
    <path d="M 672.097814 337.525 
L 679.234846 337.525 
L 679.234846 285.854608 
L 672.097814 285.854608 
z
" clip-path="url(#p5e4dacbee9)" style="fill: #76abd6"/>
   </g>
   <g id="patch_96">
    <path d="M 725.625554 337.525 
L 732.762586 337.525 
L 732.762586 330.695418 
L 725.625554 330.695418 
z
" clip-path="url(#p5e4dacbee9)" style="fill: #76abd6"/>
   </g>
   <g id="patch_97">
    <path d="M 779.153293 337.525 
L 786.290325 337.525 
L 786.290325 292.857429 
L 779.153293 292.857429 
z
" clip-path="url(#p5e4dacbee9)" style="fill: #76abd6"/>
   </g>
   <g id="patch_98">
    <path d="M 832.681033 337.525 
L 839.818065 337.525 
L 839.818065 329.670535 
L 832.681033 329.670535 
z
" clip-path="url(#p5e4dacbee9)" style="fill: #76abd6"/>
   </g>
   <g id="matplotlib.axis_3">
    <g id="xtick_8">
     <g id="line2d_20">
      <g>
       <use xlink:href="#m5bdc0568f4" x="497.240531" y="337.525" style="stroke: #000000; stroke-width: 0.8"/>
      </g>
     </g>
     <g id="text_24">
      <!-- Stroke -->
      <g transform="translate(499.999906 376.379688)rotate(-90)scale(0.1 -0.1)">
       <use xlink:href="#DejaVuSans-53"/>
       <use xlink:href="#DejaVuSans-74" x="63.476562"/>
       <use xlink:href="#DejaVuSans-72" x="102.685547"/>
       <use xlink:href="#DejaVuSans-6f" x="141.548828"/>
       <use xlink:href="#DejaVuSans-6b" x="202.730469"/>
       <use xlink:href="#DejaVuSans-65" x="257.015625"/>
      </g>
     </g>
    </g>
    <g id="xtick_9">
     <g id="line2d_21">
      <g>
       <use xlink:href="#m5bdc0568f4" x="550.768271" y="337.525" style="stroke: #000000; stroke-width: 0.8"/>
      </g>
     </g>
     <g id="text_25">
      <!-- DVT -->
      <g transform="translate(553.527646 364.998438)rotate(-90)scale(0.1 -0.1)">
       <use xlink:href="#DejaVuSans-44"/>
       <use xlink:href="#DejaVuSans-56" x="75.251953"/>
       <use xlink:href="#DejaVuSans-54" x="143.660156"/>
      </g>
     </g>
    </g>
    <g id="xtick_10">
     <g id="line2d_22">
      <g>
       <use xlink:href="#m5bdc0568f4" x="604.29601" y="337.525" style="stroke: #000000; stroke-width: 0.8"/>
      </g>
     </g>
     <g id="text_26">
      <!-- PE -->
      <g transform="translate(607.055385 356.873438)rotate(-90)scale(0.1 -0.1)">
       <use xlink:href="#DejaVuSans-50"/>
       <use xlink:href="#DejaVuSans-45" x="60.302734"/>
      </g>
     </g>
    </g>
    <g id="xtick_11">
     <g id="line2d_23">
      <g>
       <use xlink:href="#m5bdc0568f4" x="657.82375" y="337.525" style="stroke: #000000; stroke-width: 0.8"/>
      </g>
     </g>
     <g id="text_27">
      <!-- Heart failure -->
      <g transform="translate(660.583125 407.117188)rotate(-90)scale(0.1 -0.1)">
       <use xlink:href="#DejaVuSans-48"/>
       <use xlink:href="#DejaVuSans-65" x="75.195312"/>
       <use xlink:href="#DejaVuSans-61" x="136.71875"/>
       <use xlink:href="#DejaVuSans-72" x="197.998047"/>
       <use xlink:href="#DejaVuSans-74" x="239.111328"/>
       <use xlink:href="#DejaVuSans-20" x="278.320312"/>
       <use xlink:href="#DejaVuSans-66" x="310.107422"/>
       <use xlink:href="#DejaVuSans-61" x="345.3125"/>
       <use xlink:href="#DejaVuSans-69" x="406.591797"/>
       <use xlink:href="#DejaVuSans-6c" x="434.375"/>
       <use xlink:href="#DejaVuSans-75" x="462.158203"/>
       <use xlink:href="#DejaVuSans-72" x="525.537109"/>
       <use xlink:href="#DejaVuSans-65" x="564.400391"/>
      </g>
     </g>
    </g>
    <g id="xtick_12">
     <g id="line2d_24">
      <g>
       <use xlink:href="#m5bdc0568f4" x="711.35149" y="337.525" style="stroke: #000000; stroke-width: 0.8"/>
      </g>
     </g>
     <g id="text_28">
      <!-- MI -->
      <g transform="translate(714.110865 356.103125)rotate(-90)scale(0.1 -0.1)">
       <use xlink:href="#DejaVuSans-4d"/>
       <use xlink:href="#DejaVuSans-49" x="86.279297"/>
      </g>
     </g>
    </g>
    <g id="xtick_13">
     <g id="line2d_25">
      <g>
       <use xlink:href="#m5bdc0568f4" x="764.879229" y="337.525" style="stroke: #000000; stroke-width: 0.8"/>
      </g>
     </g>
     <g id="text_29">
      <!-- AKI -->
      <g transform="translate(767.638604 360.873438)rotate(-90)scale(0.1 -0.1)">
       <use xlink:href="#DejaVuSans-41"/>
       <use xlink:href="#DejaVuSans-4b" x="68.408203"/>
       <use xlink:href="#DejaVuSans-49" x="133.984375"/>
      </g>
     </g>
    </g>
    <g id="xtick_14">
     <g id="line2d_26">
      <g>
       <use xlink:href="#m5bdc0568f4" x="818.406969" y="337.525" style="stroke: #000000; stroke-width: 0.8"/>
      </g>
     </g>
     <g id="text_30">
      <!-- T2DM -->
      <g transform="translate(821.166344 373.323438)rotate(-90)scale(0.1 -0.1)">
       <use xlink:href="#DejaVuSans-54"/>
       <use xlink:href="#DejaVuSans-32" x="61.083984"/>
       <use xlink:href="#DejaVuSans-44" x="124.707031"/>
       <use xlink:href="#DejaVuSans-4d" x="201.708984"/>
      </g>
     </g>
    </g>
    <g id="text_31">
     <!-- outcome -->
     <g transform="translate(635.88 418.715625)scale(0.1 -0.1)">
      <use xlink:href="#DejaVuSans-6f"/>
      <use xlink:href="#DejaVuSans-75" x="61.181641"/>
      <use xlink:href="#DejaVuSans-74" x="124.560547"/>
      <use xlink:href="#DejaVuSans-63" x="163.769531"/>
      <use xlink:href="#DejaVuSans-6f" x="218.75"/>
      <use xlink:href="#DejaVuSans-6d" x="279.931641"/>
      <use xlink:href="#DejaVuSans-65" x="377.34375"/>
     </g>
    </g>
   </g>
   <g id="matplotlib.axis_4">
    <g id="ytick_7">
     <g id="line2d_27">
      <path d="M 462.4475 337.525 
L 853.2 337.525 
" clip-path="url(#p5e4dacbee9)" style="fill: none; stroke: #666666; stroke-opacity: 0.1; stroke-width: 0.8; stroke-linecap: square"/>
     </g>
     <g id="line2d_28">
      <g>
       <use xlink:href="#me5062b96e7" x="462.4475" y="337.525" style="stroke: #000000; stroke-width: 0.8"/>
      </g>
     </g>
    </g>
    <g id="ytick_8">
     <g id="line2d_29">
      <path d="M 462.4475 279.580289 
L 853.2 279.580289 
" clip-path="url(#p5e4dacbee9)" style="fill: none; stroke: #666666; stroke-opacity: 0.1; stroke-width: 0.8; stroke-linecap: square"/>
     </g>
     <g id="line2d_30">
      <g>
       <use xlink:href="#me5062b96e7" x="462.4475" y="279.580289" style="stroke: #000000; stroke-width: 0.8"/>
      </g>
     </g>
    </g>
    <g id="ytick_9">
     <g id="line2d_31">
      <path d="M 462.4475 221.635578 
L 853.2 221.635578 
" clip-path="url(#p5e4dacbee9)" style="fill: none; stroke: #666666; stroke-opacity: 0.1; stroke-width: 0.8; stroke-linecap: square"/>
     </g>
     <g id="line2d_32">
      <g>
       <use xlink:href="#me5062b96e7" x="462.4475" y="221.635578" style="stroke: #000000; stroke-width: 0.8"/>
      </g>
     </g>
    </g>
    <g id="ytick_10">
     <g id="line2d_33">
      <path d="M 462.4475 163.690867 
L 853.2 163.690867 
" clip-path="url(#p5e4dacbee9)" style="fill: none; stroke: #666666; stroke-opacity: 0.1; stroke-width: 0.8; stroke-linecap: square"/>
     </g>
     <g id="line2d_34">
      <g>
       <use xlink:href="#me5062b96e7" x="462.4475" y="163.690867" style="stroke: #000000; stroke-width: 0.8"/>
      </g>
     </g>
    </g>
    <g id="ytick_11">
     <g id="line2d_35">
      <path d="M 462.4475 105.746156 
L 853.2 105.746156 
" clip-path="url(#p5e4dacbee9)" style="fill: none; stroke: #666666; stroke-opacity: 0.1; stroke-width: 0.8; stroke-linecap: square"/>
     </g>
     <g id="line2d_36">
      <g>
       <use xlink:href="#me5062b96e7" x="462.4475" y="105.746156" style="stroke: #000000; stroke-width: 0.8"/>
      </g>
     </g>
    </g>
    <g id="ytick_12">
     <g id="line2d_37">
      <path d="M 462.4475 47.801445 
L 853.2 47.801445 
" clip-path="url(#p5e4dacbee9)" style="fill: none; stroke: #666666; stroke-opacity: 0.1; stroke-width: 0.8; stroke-linecap: square"/>
     </g>
     <g id="line2d_38">
      <g>
       <use xlink:href="#me5062b96e7" x="462.4475" y="47.801445" style="stroke: #000000; stroke-width: 0.8"/>
      </g>
     </g>
    </g>
   </g>
   <g id="LineCollection_7">
    <path d="M 479.397951 321.833822 
L 479.397951 317.527252 
" clip-path="url(#p5e4dacbee9)" style="fill: none; stroke: #000000; stroke-width: 1.5"/>
    <path d="M 532.925691 331.469255 
L 532.925691 328.563786 
" clip-path="url(#p5e4dacbee9)" style="fill: none; stroke: #000000; stroke-width: 1.5"/>
    <path d="M 586.45343 323.831626 
L 586.45343 318.944241 
" clip-path="url(#p5e4dacbee9)" style="fill: none; stroke: #000000; stroke-width: 1.5"/>
    <path d="M 639.98117 223.141748 
L 639.98117 211.216545 
" clip-path="url(#p5e4dacbee9)" style="fill: none; stroke: #000000; stroke-width: 1.5"/>
    <path d="M 693.50891 326.656681 
L 693.50891 322.846815 
" clip-path="url(#p5e4dacbee9)" style="fill: none; stroke: #000000; stroke-width: 1.5"/>
    <path d="M 747.03665 265.560871 
L 747.03665 256.744414 
" clip-path="url(#p5e4dacbee9)" style="fill: none; stroke: #000000; stroke-width: 1.5"/>
    <path d="M 800.564389 328.616201 
L 800.564389 325.048253 
" clip-path="url(#p5e4dacbee9)" style="fill: none; stroke: #000000; stroke-width: 1.5"/>
   </g>
   <g id="LineCollection_8">
    <path d="M 486.534983 298.379368 
L 486.534983 297.010559 
" clip-path="url(#p5e4dacbee9)" style="fill: none; stroke: #000000; stroke-width: 1.5"/>
    <path d="M 540.062723 319.796 
L 540.062723 318.962084 
" clip-path="url(#p5e4dacbee9)" style="fill: none; stroke: #000000; stroke-width: 1.5"/>
    <path d="M 593.590462 286.936447 
L 593.590462 285.894979 
" clip-path="url(#p5e4dacbee9)" style="fill: none; stroke: #000000; stroke-width: 1.5"/>
    <path d="M 647.118202 44.424443 
L 647.118202 40.986905 
" clip-path="url(#p5e4dacbee9)" style="fill: none; stroke: #000000; stroke-width: 1.5"/>
    <path d="M 700.645942 306.940057 
L 700.645942 305.774671 
" clip-path="url(#p5e4dacbee9)" style="fill: none; stroke: #000000; stroke-width: 1.5"/>
    <path d="M 754.173682 177.481073 
L 754.173682 174.36665 
" clip-path="url(#p5e4dacbee9)" style="fill: none; stroke: #000000; stroke-width: 1.5"/>
    <path d="M 807.701421 318.995439 
L 807.701421 317.508453 
" clip-path="url(#p5e4dacbee9)" style="fill: none; stroke: #000000; stroke-width: 1.5"/>
   </g>
   <g id="LineCollection_9">
    <path d="M 493.672015 318.892113 
L 493.672015 315.518896 
" clip-path="url(#p5e4dacbee9)" style="fill: none; stroke: #000000; stroke-width: 1.5"/>
    <path d="M 547.199755 329.859854 
L 547.199755 327.647666 
" clip-path="url(#p5e4dacbee9)" style="fill: none; stroke: #000000; stroke-width: 1.5"/>
    <path d="M 600.727494 324.003186 
L 600.727494 321.099304 
" clip-path="url(#p5e4dacbee9)" style="fill: none; stroke: #000000; stroke-width: 1.5"/>
    <path d="M 654.255234 206.726684 
L 654.255234 197.680693 
" clip-path="url(#p5e4dacbee9)" style="fill: none; stroke: #000000; stroke-width: 1.5"/>
    <path d="M 707.782974 326.444963 
L 707.782974 323.811771 
" clip-path="url(#p5e4dacbee9)" style="fill: none; stroke: #000000; stroke-width: 1.5"/>
    <path d="M 761.310713 258.802933 
L 761.310713 251.836423 
" clip-path="url(#p5e4dacbee9)" style="fill: none; stroke: #000000; stroke-width: 1.5"/>
    <path d="M 814.838453 327.85789 
L 814.838453 324.887228 
" clip-path="url(#p5e4dacbee9)" style="fill: none; stroke: #000000; stroke-width: 1.5"/>
   </g>
   <g id="LineCollection_10">
    <path d="M 500.809047 324.232443 
L 500.809047 321.10917 
" clip-path="url(#p5e4dacbee9)" style="fill: none; stroke: #000000; stroke-width: 1.5"/>
    <path d="M 554.336787 332.146277 
L 554.336787 330.101378 
" clip-path="url(#p5e4dacbee9)" style="fill: none; stroke: #000000; stroke-width: 1.5"/>
    <path d="M 607.864526 329.021746 
L 607.864526 326.482212 
" clip-path="url(#p5e4dacbee9)" style="fill: none; stroke: #000000; stroke-width: 1.5"/>
    <path d="M 661.392266 244.469023 
L 661.392266 236.070592 
" clip-path="url(#p5e4dacbee9)" style="fill: none; stroke: #000000; stroke-width: 1.5"/>
    <path d="M 714.920006 328.638662 
L 714.920006 326.055624 
" clip-path="url(#p5e4dacbee9)" style="fill: none; stroke: #000000; stroke-width: 1.5"/>
    <path d="M 768.447745 274.214181 
L 768.447745 267.379259 
" clip-path="url(#p5e4dacbee9)" style="fill: none; stroke: #000000; stroke-width: 1.5"/>
    <path d="M 821.975485 330.736382 
L 821.975485 327.988292 
" clip-path="url(#p5e4dacbee9)" style="fill: none; stroke: #000000; stroke-width: 1.5"/>
   </g>
   <g id="LineCollection_11">
    <path d="M 507.946079 325.073585 
L 507.946079 321.79983 
" clip-path="url(#p5e4dacbee9)" style="fill: none; stroke: #000000; stroke-width: 1.5"/>
    <path d="M 561.473818 333.593345 
L 561.473818 331.67133 
" clip-path="url(#p5e4dacbee9)" style="fill: none; stroke: #000000; stroke-width: 1.5"/>
    <path d="M 615.001558 330.13237 
L 615.001558 327.557047 
" clip-path="url(#p5e4dacbee9)" style="fill: none; stroke: #000000; stroke-width: 1.5"/>
    <path d="M 668.529298 267.623444 
L 668.529298 259.68503 
" clip-path="url(#p5e4dacbee9)" style="fill: none; stroke: #000000; stroke-width: 1.5"/>
    <path d="M 722.057038 329.999499 
L 722.057038 327.412492 
" clip-path="url(#p5e4dacbee9)" style="fill: none; stroke: #000000; stroke-width: 1.5"/>
    <path d="M 775.584777 286.958785 
L 775.584777 280.32079 
" clip-path="url(#p5e4dacbee9)" style="fill: none; stroke: #000000; stroke-width: 1.5"/>
    <path d="M 829.112517 329.524251 
L 829.112517 326.31385 
" clip-path="url(#p5e4dacbee9)" style="fill: none; stroke: #000000; stroke-width: 1.5"/>
   </g>
   <g id="LineCollection_12">
    <path d="M 515.083111 328.715032 
L 515.083111 327.486882 
" clip-path="url(#p5e4dacbee9)" style="fill: none; stroke: #000000; stroke-width: 1.5"/>
    <path d="M 568.61085 334.411003 
L 568.61085 333.617242 
" clip-path="url(#p5e4dacbee9)" style="fill: none; stroke: #000000; stroke-width: 1.5"/>
    <path d="M 622.13859 332.682544 
L 622.13859 331.5119 
" clip-path="url(#p5e4dacbee9)" style="fill: none; stroke: #000000; stroke-width: 1.5"/>
    <path d="M 675.66633 287.523211 
L 675.66633 284.162538 
" clip-path="url(#p5e4dacbee9)" style="fill: none; stroke: #000000; stroke-width: 1.5"/>
    <path d="M 729.19407 331.203825 
L 729.19407 330.165836 
" clip-path="url(#p5e4dacbee9)" style="fill: none; stroke: #000000; stroke-width: 1.5"/>
    <path d="M 782.721809 294.161366 
L 782.721809 291.530825 
" clip-path="url(#p5e4dacbee9)" style="fill: none; stroke: #000000; stroke-width: 1.5"/>
    <path d="M 836.249549 330.219714 
L 836.249549 329.09138 
" clip-path="url(#p5e4dacbee9)" style="fill: none; stroke: #000000; stroke-width: 1.5"/>
   </g>
   <g id="patch_99">
    <path d="M 462.4475 337.525 
L 462.4475 26.16 
" style="fill: none; stroke: #000000; stroke-width: 0.8; stroke-linejoin: miter; stroke-linecap: square"/>
   </g>
   <g id="patch_100">
    <path d="M 853.2 337.525 
L 853.2 26.16 
" style="fill: none; stroke: #000000; stroke-width: 0.8; stroke-linejoin: miter; stroke-linecap: square"/>
   </g>
   <g id="patch_101">
    <path d="M 462.4475 337.525 
L 853.2 337.525 
" style="fill: none; stroke: #000000; stroke-width: 0.8; stroke-linejoin: miter; stroke-linecap: square"/>
   </g>
   <g id="patch_102">
    <path d="M 462.4475 26.16 
L 853.2 26.16 
" style="fill: none; stroke: #000000; stroke-width: 0.8; stroke-linejoin: miter; stroke-linecap: square"/>
   </g>
   <g id="text_32">
    <!-- b) Patients discharged after hospitalisation with pneumonia -->
    <g transform="translate(462.4475 20.16)scale(0.12 -0.12)">
     <defs>
      <path id="DejaVuSans-62" d="M 3116 1747 
Q 3116 2381 2855 2742 
Q 2594 3103 2138 3103 
Q 1681 3103 1420 2742 
Q 1159 2381 1159 1747 
Q 1159 1113 1420 752 
Q 1681 391 2138 391 
Q 2594 391 2855 752 
Q 3116 1113 3116 1747 
z
M 1159 2969 
Q 1341 3281 1617 3432 
Q 1894 3584 2278 3584 
Q 2916 3584 3314 3078 
Q 3713 2572 3713 1747 
Q 3713 922 3314 415 
Q 2916 -91 2278 -91 
Q 1894 -91 1617 61 
Q 1341 213 1159 525 
L 1159 0 
L 581 0 
L 581 4863 
L 1159 4863 
L 1159 2969 
z
" transform="scale(0.015625)"/>
     </defs>
     <use xlink:href="#DejaVuSans-62"/>
     <use xlink:href="#DejaVuSans-29" x="63.476562"/>
     <use xlink:href="#DejaVuSans-20" x="102.490234"/>
     <use xlink:href="#DejaVuSans-50" x="134.277344"/>
     <use xlink:href="#DejaVuSans-61" x="190.080078"/>
     <use xlink:href="#DejaVuSans-74" x="251.359375"/>
     <use xlink:href="#DejaVuSans-69" x="290.568359"/>
     <use xlink:href="#DejaVuSans-65" x="318.351562"/>
     <use xlink:href="#DejaVuSans-6e" x="379.875"/>
     <use xlink:href="#DejaVuSans-74" x="443.253906"/>
     <use xlink:href="#DejaVuSans-73" x="482.462891"/>
     <use xlink:href="#DejaVuSans-20" x="534.5625"/>
     <use xlink:href="#DejaVuSans-64" x="566.349609"/>
     <use xlink:href="#DejaVuSans-69" x="629.826172"/>
     <use xlink:href="#DejaVuSans-73" x="657.609375"/>
     <use xlink:href="#DejaVuSans-63" x="709.708984"/>
     <use xlink:href="#DejaVuSans-68" x="764.689453"/>
     <use xlink:href="#DejaVuSans-61" x="828.068359"/>
     <use xlink:href="#DejaVuSans-72" x="889.347656"/>
     <use xlink:href="#DejaVuSans-67" x="928.710938"/>
     <use xlink:href="#DejaVuSans-65" x="992.1875"/>
     <use xlink:href="#DejaVuSans-64" x="1053.710938"/>
     <use xlink:href="#DejaVuSans-20" x="1117.1875"/>
     <use xlink:href="#DejaVuSans-61" x="1148.974609"/>
     <use xlink:href="#DejaVuSans-66" x="1210.253906"/>
     <use xlink:href="#DejaVuSans-74" x="1243.708984"/>
     <use xlink:href="#DejaVuSans-65" x="1282.917969"/>
     <use xlink:href="#DejaVuSans-72" x="1344.441406"/>
     <use xlink:href="#DejaVuSans-20" x="1385.554688"/>
     <use xlink:href="#DejaVuSans-68" x="1417.341797"/>
     <use xlink:href="#DejaVuSans-6f" x="1480.720703"/>
     <use xlink:href="#DejaVuSans-73" x="1541.902344"/>
     <use xlink:href="#DejaVuSans-70" x="1594.001953"/>
     <use xlink:href="#DejaVuSans-69" x="1657.478516"/>
     <use xlink:href="#DejaVuSans-74" x="1685.261719"/>
     <use xlink:href="#DejaVuSans-61" x="1724.470703"/>
     <use xlink:href="#DejaVuSans-6c" x="1785.75"/>
     <use xlink:href="#DejaVuSans-69" x="1813.533203"/>
     <use xlink:href="#DejaVuSans-73" x="1841.316406"/>
     <use xlink:href="#DejaVuSans-61" x="1893.416016"/>
     <use xlink:href="#DejaVuSans-74" x="1954.695312"/>
     <use xlink:href="#DejaVuSans-69" x="1993.904297"/>
     <use xlink:href="#DejaVuSans-6f" x="2021.6875"/>
     <use xlink:href="#DejaVuSans-6e" x="2082.869141"/>
     <use xlink:href="#DejaVuSans-20" x="2146.248047"/>
     <use xlink:href="#DejaVuSans-77" x="2178.035156"/>
     <use xlink:href="#DejaVuSans-69" x="2259.822266"/>
     <use xlink:href="#DejaVuSans-74" x="2287.605469"/>
     <use xlink:href="#DejaVuSans-68" x="2326.814453"/>
     <use xlink:href="#DejaVuSans-20" x="2390.193359"/>
     <use xlink:href="#DejaVuSans-70" x="2421.980469"/>
     <use xlink:href="#DejaVuSans-6e" x="2485.457031"/>
     <use xlink:href="#DejaVuSans-65" x="2548.835938"/>
     <use xlink:href="#DejaVuSans-75" x="2610.359375"/>
     <use xlink:href="#DejaVuSans-6d" x="2673.738281"/>
     <use xlink:href="#DejaVuSans-6f" x="2771.150391"/>
     <use xlink:href="#DejaVuSans-6e" x="2832.332031"/>
     <use xlink:href="#DejaVuSans-69" x="2895.710938"/>
     <use xlink:href="#DejaVuSans-61" x="2923.494141"/>
    </g>
   </g>
   <g id="legend_2">
    <g id="patch_103">
     <path d="M 469.4475 136.906875 
L 621.781875 136.906875 
Q 623.781875 136.906875 623.781875 134.906875 
L 623.781875 33.16 
Q 623.781875 31.16 621.781875 31.16 
L 469.4475 31.16 
Q 467.4475 31.16 467.4475 33.16 
L 467.4475 134.906875 
Q 467.4475 136.906875 469.4475 136.906875 
z
" style="fill: #ffffff; opacity: 0.8; stroke: #cccccc; stroke-linejoin: miter"/>
    </g>
    <g id="text_33">
     <!-- Time since hospital discharge -->
     <g transform="translate(471.4475 42.758438)scale(0.1 -0.1)">
      <use xlink:href="#DejaVuSans-54"/>
      <use xlink:href="#DejaVuSans-69" x="57.958984"/>
      <use xlink:href="#DejaVuSans-6d" x="85.742188"/>
      <use xlink:href="#DejaVuSans-65" x="183.154297"/>
      <use xlink:href="#DejaVuSans-20" x="244.677734"/>
      <use xlink:href="#DejaVuSans-73" x="276.464844"/>
      <use xlink:href="#DejaVuSans-69" x="328.564453"/>
      <use xlink:href="#DejaVuSans-6e" x="356.347656"/>
      <use xlink:href="#DejaVuSans-63" x="419.726562"/>
      <use xlink:href="#DejaVuSans-65" x="474.707031"/>
      <use xlink:href="#DejaVuSans-20" x="536.230469"/>
      <use xlink:href="#DejaVuSans-68" x="568.017578"/>
      <use xlink:href="#DejaVuSans-6f" x="631.396484"/>
      <use xlink:href="#DejaVuSans-73" x="692.578125"/>
      <use xlink:href="#DejaVuSans-70" x="744.677734"/>
      <use xlink:href="#DejaVuSans-69" x="808.154297"/>
      <use xlink:href="#DejaVuSans-74" x="835.9375"/>
      <use xlink:href="#DejaVuSans-61" x="875.146484"/>
      <use xlink:href="#DejaVuSans-6c" x="936.425781"/>
      <use xlink:href="#DejaVuSans-20" x="964.208984"/>
      <use xlink:href="#DejaVuSans-64" x="995.996094"/>
      <use xlink:href="#DejaVuSans-69" x="1059.472656"/>
      <use xlink:href="#DejaVuSans-73" x="1087.255859"/>
      <use xlink:href="#DejaVuSans-63" x="1139.355469"/>
      <use xlink:href="#DejaVuSans-68" x="1194.335938"/>
      <use xlink:href="#DejaVuSans-61" x="1257.714844"/>
      <use xlink:href="#DejaVuSans-72" x="1318.994141"/>
      <use xlink:href="#DejaVuSans-67" x="1358.357422"/>
      <use xlink:href="#DejaVuSans-65" x="1421.833984"/>
     </g>
    </g>
    <g id="patch_104">
     <path d="M 500.513125 57.436563 
L 520.513125 57.436563 
L 520.513125 50.436563 
L 500.513125 50.436563 
z
" style="fill: #ff7f00"/>
    </g>
    <g id="text_34">
     <!-- Full period -->
     <g transform="translate(528.513125 57.436563)scale(0.1 -0.1)">
      <use xlink:href="#DejaVuSans-46"/>
      <use xlink:href="#DejaVuSans-75" x="52.019531"/>
      <use xlink:href="#DejaVuSans-6c" x="115.398438"/>
      <use xlink:href="#DejaVuSans-6c" x="143.181641"/>
      <use xlink:href="#DejaVuSans-20" x="170.964844"/>
      <use xlink:href="#DejaVuSans-70" x="202.751953"/>
      <use xlink:href="#DejaVuSans-65" x="266.228516"/>
      <use xlink:href="#DejaVuSans-72" x="327.751953"/>
      <use xlink:href="#DejaVuSans-69" x="368.865234"/>
      <use xlink:href="#DejaVuSans-6f" x="396.648438"/>
      <use xlink:href="#DejaVuSans-64" x="457.830078"/>
     </g>
    </g>
    <g id="patch_105">
     <path d="M 500.513125 72.114688 
L 520.513125 72.114688 
L 520.513125 65.114688 
L 500.513125 65.114688 
z
" style="fill: #3579b1"/>
    </g>
    <g id="text_35">
     <!-- 0-29 days -->
     <g transform="translate(528.513125 72.114688)scale(0.1 -0.1)">
      <use xlink:href="#DejaVuSans-30"/>
      <use xlink:href="#DejaVuSans-2d" x="63.623047"/>
      <use xlink:href="#DejaVuSans-32" x="99.707031"/>
      <use xlink:href="#DejaVuSans-39" x="163.330078"/>
      <use xlink:href="#DejaVuSans-20" x="226.953125"/>
      <use xlink:href="#DejaVuSans-64" x="258.740234"/>
      <use xlink:href="#DejaVuSans-61" x="322.216797"/>
      <use xlink:href="#DejaVuSans-79" x="383.496094"/>
      <use xlink:href="#DejaVuSans-73" x="442.675781"/>
     </g>
    </g>
    <g id="patch_106">
     <path d="M 500.513125 86.792813 
L 520.513125 86.792813 
L 520.513125 79.792813 
L 500.513125 79.792813 
z
" style="fill: #3b86c4"/>
    </g>
    <g id="text_36">
     <!-- 30-59 days -->
     <g transform="translate(528.513125 86.792813)scale(0.1 -0.1)">
      <use xlink:href="#DejaVuSans-33"/>
      <use xlink:href="#DejaVuSans-30" x="63.623047"/>
      <use xlink:href="#DejaVuSans-2d" x="127.246094"/>
      <use xlink:href="#DejaVuSans-35" x="163.330078"/>
      <use xlink:href="#DejaVuSans-39" x="226.953125"/>
      <use xlink:href="#DejaVuSans-20" x="290.576172"/>
      <use xlink:href="#DejaVuSans-64" x="322.363281"/>
      <use xlink:href="#DejaVuSans-61" x="385.839844"/>
      <use xlink:href="#DejaVuSans-79" x="447.119141"/>
      <use xlink:href="#DejaVuSans-73" x="506.298828"/>
     </g>
    </g>
    <g id="patch_107">
     <path d="M 500.513125 101.470938 
L 520.513125 101.470938 
L 520.513125 94.470938 
L 500.513125 94.470938 
z
" style="fill: #4e92ca"/>
    </g>
    <g id="text_37">
     <!-- 60-89 days -->
     <g transform="translate(528.513125 101.470938)scale(0.1 -0.1)">
      <use xlink:href="#DejaVuSans-36"/>
      <use xlink:href="#DejaVuSans-30" x="63.623047"/>
      <use xlink:href="#DejaVuSans-2d" x="127.246094"/>
      <use xlink:href="#DejaVuSans-38" x="163.330078"/>
      <use xlink:href="#DejaVuSans-39" x="226.953125"/>
      <use xlink:href="#DejaVuSans-20" x="290.576172"/>
      <use xlink:href="#DejaVuSans-64" x="322.363281"/>
      <use xlink:href="#DejaVuSans-61" x="385.839844"/>
      <use xlink:href="#DejaVuSans-79" x="447.119141"/>
      <use xlink:href="#DejaVuSans-73" x="506.298828"/>
     </g>
    </g>
    <g id="patch_108">
     <path d="M 500.513125 116.149063 
L 520.513125 116.149063 
L 520.513125 109.149063 
L 500.513125 109.149063 
z
" style="fill: #629fd0"/>
    </g>
    <g id="text_38">
     <!-- 90-119 days -->
     <g transform="translate(528.513125 116.149063)scale(0.1 -0.1)">
      <use xlink:href="#DejaVuSans-39"/>
      <use xlink:href="#DejaVuSans-30" x="63.623047"/>
      <use xlink:href="#DejaVuSans-2d" x="127.246094"/>
      <use xlink:href="#DejaVuSans-31" x="163.330078"/>
      <use xlink:href="#DejaVuSans-31" x="226.953125"/>
      <use xlink:href="#DejaVuSans-39" x="290.576172"/>
      <use xlink:href="#DejaVuSans-20" x="354.199219"/>
      <use xlink:href="#DejaVuSans-64" x="385.986328"/>
      <use xlink:href="#DejaVuSans-61" x="449.462891"/>
      <use xlink:href="#DejaVuSans-79" x="510.742188"/>
      <use xlink:href="#DejaVuSans-73" x="569.921875"/>
     </g>
    </g>
    <g id="patch_109">
     <path d="M 500.513125 130.827188 
L 520.513125 130.827188 
L 520.513125 123.827188 
L 500.513125 123.827188 
z
" style="fill: #76abd6"/>
    </g>
    <g id="text_39">
     <!-- 120+ days -->
     <g transform="translate(528.513125 130.827188)scale(0.1 -0.1)">
      <use xlink:href="#DejaVuSans-31"/>
      <use xlink:href="#DejaVuSans-32" x="63.623047"/>
      <use xlink:href="#DejaVuSans-30" x="127.246094"/>
      <use xlink:href="#DejaVuSans-2b" x="190.869141"/>
      <use xlink:href="#DejaVuSans-20" x="274.658203"/>
      <use xlink:href="#DejaVuSans-64" x="306.445312"/>
      <use xlink:href="#DejaVuSans-61" x="369.921875"/>
      <use xlink:href="#DejaVuSans-79" x="431.201172"/>
      <use xlink:href="#DejaVuSans-73" x="490.380859"/>
     </g>
    </g>
   </g>
  </g>
 </g>
 <defs>
  <clipPath id="p752f0d90b5">
   <rect x="57.395" y="26.16" width="390.7525" height="311.365"/>
  </clipPath>
  <clipPath id="p5e4dacbee9">
   <rect x="462.4475" y="26.16" width="390.7525" height="311.365"/>
  </clipPath>
 </defs>
</svg>
